<?xml version="1.0" standalone="no"?>
<!DOCTYPE svg PUBLIC "-//W3C//DTD SVG 1.1//EN" "http://www.w3.org/Graphics/SVG/1.1/DTD/svg11.dtd" >
<svg xmlns="http://www.w3.org/2000/svg">
<metadata></metadata>
<defs>
<font id="pf_agora_sans_probold_italic" horiz-adv-x="1173" >
<font-face units-per-em="2048" ascent="1536" descent="-512" />
<missing-glyph horiz-adv-x="583" />
<glyph unicode="&#xfb01;" horiz-adv-x="1261" d="M-285 -408l47 187q47 -10 82 -12.5t64 -2.5q55 0 93 15.5t64.5 54.5t44 105.5t33.5 166.5q23 193 37.5 312t23.5 192.5t15 115.5t10 77h-159q2 6 4 28.5t5 48t6 48t5 28.5l164 43l14 115q27 199 136.5 303.5t338.5 104.5q68 0 158 -9.5t186 -37.5l-53 -205 q-84 16 -141 22t-111 6q-72 0 -115.5 -17t-71.5 -54t-41 -95.5t-24 -142.5h291q47 0 131 8.5t170 24.5l49 -29q-16 -115 -43.5 -369.5t-72.5 -623.5h-281l94 803h-356q-18 -152 -35.5 -298.5t-34.5 -285.5q-16 -145 -42.5 -267t-78 -210t-135.5 -138t-219 -50 q-55 2 -120.5 9t-131.5 29z" />
<glyph unicode="&#xfb02;" horiz-adv-x="1288" d="M-281 -406l43 185q47 -8 82 -10t64 -2q53 0 90 15t63.5 54t45 104.5t34.5 165.5l88 695h-159l18 155q80 18 162 43q6 35 11 71t9 71q29 186 144.5 282.5t355.5 96.5q63 0 128 -5.5t136 -13.5l156 25l45 -31q-29 -242 -51.5 -429t-41 -339t-32.5 -275.5t-29 -240.5l131 4 l15 -184q-72 -31 -147.5 -44.5t-125.5 -13.5q-98 0 -129.5 47.5t-31.5 116.5q0 43 6 90l127 1053q-39 6 -77 10t-73 4q-94 0 -157.5 -42t-81.5 -160q-4 -27 -7.5 -52.5t-7.5 -50.5h254q-4 -47 -10 -94l-12 -94h-250q-16 -147 -32.5 -295t-33.5 -289q-16 -143 -40.5 -264 t-75 -209t-133.5 -138t-216 -50q-78 2 -138 10t-116 28z" />
<glyph horiz-adv-x="2048" />
<glyph horiz-adv-x="2048" />
<glyph unicode="&#xd;" horiz-adv-x="2048" />
<glyph unicode=" "  horiz-adv-x="583" />
<glyph unicode="&#x09;" horiz-adv-x="583" />
<glyph unicode="&#xa0;" horiz-adv-x="583" />
<glyph unicode="!" horiz-adv-x="561" d="M92 102q0 68 43 115t123 47q70 0 102.5 -34.5t32.5 -88.5q0 -66 -46 -111.5t-124 -45.5q-66 0 -98.5 32.5t-32.5 85.5zM172 399l35 488l61 557h267l-70 -557l-86 -488h-207z" />
<glyph unicode="&#x22;" horiz-adv-x="722" d="M268 915l25 496h229l-100 -496h-154zM541 915l24 496h230l-97 -496h-157z" />
<glyph unicode="#" horiz-adv-x="1140" d="M106 403l25 138h170l94 268h-166l27 135h186l127 361h152l-127 -361h227l129 361h150l-127 -361h147l-26 -135h-166l-94 -268h159l-26 -138h-181l-139 -403h-151l137 403h-227l-138 -403h-153l139 403h-148zM455 541h227l90 268h-225z" />
<glyph unicode="$" horiz-adv-x="1171" d="M90 113l80 182q51 -23 90 -37t68.5 -21.5t53.5 -11.5t46 -8l51 414q-129 41 -210 123t-81 221q0 86 32 154.5t84 118.5t122 82t145 44l17 142h90l-205 -1672h-90l23 174q-82 10 -163 32t-153 63zM406 999q0 -59 24.5 -89.5t77.5 -49.5l37 307q-57 -14 -97 -58t-42 -110z M539 -156l204 1672h93l-17 -142q66 -6 138.5 -25.5t123.5 -48.5l-69 -178q-76 29 -123 40.5t-94 15.5l-50 -385q61 -23 119 -51.5t104 -71.5t73.5 -102.5t27.5 -141.5q0 -92 -31.5 -162.5t-88 -121t-133.5 -80t-165 -42.5l-20 -176h-92zM676 219q78 14 123 64.5t45 122.5 q0 59 -33 95t-92 58z" />
<glyph unicode="%" horiz-adv-x="1792" d="M100 856q0 76 18.5 166t64.5 169t125 132t202 53q90 0 149.5 -26.5t95.5 -72.5t50 -105.5t14 -127.5q0 -86 -19.5 -177t-65.5 -164.5t-122.5 -122t-191.5 -48.5q-90 0 -151.5 26t-98.5 69t-53.5 102t-16.5 127zM307 848q0 -72 27.5 -115t99.5 -43q51 0 85 32t55.5 82 t30.5 112.5t9 123.5q0 35 -5 68t-18 57.5t-35.5 39t-57.5 14.5q-63 0 -101.5 -43t-58 -102.5t-25.5 -123t-6 -102.5zM479 -41l815 1491h174l-813 -1491h-176zM1073 315q0 74 18.5 165t64.5 170t125 132.5t202 53.5q90 0 149.5 -27t95 -73t50 -106.5t14.5 -125.5 q0 -86 -19.5 -177t-65.5 -166t-123 -123t-191 -48q-90 0 -151.5 25.5t-98.5 69.5t-53.5 103.5t-16.5 126.5zM1280 307q0 -72 27.5 -116t99.5 -44q51 0 85 32t55.5 82t30.5 113.5t9 125.5q0 35 -5 66.5t-17.5 56t-34.5 40t-57 15.5q-66 0 -104 -43t-57.5 -103.5t-25.5 -123 t-6 -101.5z" />
<glyph unicode="&#x26;" horiz-adv-x="1878" d="M59 664q18 127 78 265t166.5 252.5t262 189.5t368.5 75q186 0 314 -56.5t207 -147.5t114 -204.5t35 -228.5q0 -49 -6.5 -101.5t-16.5 -99.5q98 4 151.5 27.5t96.5 77.5q23 -29 42 -57.5t42 -57.5q-57 -82 -146.5 -123t-230.5 -41h-12q-47 -102 -120 -190t-167 -153.5 t-206.5 -103.5t-237.5 -38q-123 0 -210 34.5t-143.5 94t-83 138.5t-26.5 169q0 162 46 282.5t118.5 201.5t159.5 122t167 41q59 0 106.5 -18.5t79 -48t49 -67.5t17.5 -75q0 -35 -16.5 -83t-55.5 -85l5 -10q35 4 67.5 6t65.5 2q51 0 105 -7t114 -19q12 43 17 88t5 86 q0 98 -28.5 181t-86 144.5t-143.5 95t-202 33.5q-150 0 -265.5 -55t-198.5 -143t-134.5 -198.5t-75.5 -223.5q-47 6 -93.5 13t-93.5 16zM569 418q0 -137 65.5 -207t205.5 -70q63 0 128.5 23.5t125 65.5t110.5 101.5t86 131.5q-59 16 -116.5 24.5t-110.5 8.5q-104 0 -221 -39 l-31 10l-76 119q59 41 85 74.5t26 66.5t-19.5 52.5t-52.5 19.5q-29 0 -64.5 -19.5t-66.5 -64.5t-52.5 -118t-21.5 -179z" />
<glyph unicode="'" horiz-adv-x="475" d="M217 915l27 496h229l-100 -496h-156z" />
<glyph unicode="(" horiz-adv-x="659" d="M133 403q0 184 42 345t107.5 295.5t144.5 241t155 179.5l110 -84q-37 -47 -92 -135t-107.5 -219t-90 -302t-37.5 -382q0 -123 13 -220t32.5 -172t42 -128t39.5 -84l-130 -88q-43 57 -84.5 134t-73.5 172t-51.5 207.5t-19.5 239.5z" />
<glyph unicode=")" horiz-adv-x="661" d="M-6 -260q33 41 88 128t109.5 217t94.5 304t40 389q0 119 -14.5 216.5t-35 172t-43 129t-38.5 86.5l129 78q45 -57 86 -134t73.5 -171t52 -202.5t19.5 -231.5q0 -188 -43 -353t-109.5 -302.5t-147.5 -243t-157 -174.5z" />
<glyph unicode="*" horiz-adv-x="837" d="M172 1100q2 14 13.5 45t26.5 63.5t29.5 61t22.5 41.5q14 -10 40 -26.5t54.5 -35t55 -36t43.5 -25.5q-2 18 -4 51t-5.5 68.5t-5.5 68.5t-2 51q12 2 42 4.5t65 2.5t64.5 -2t41.5 -5q-6 -18 -16 -51t-21.5 -68.5t-22.5 -68.5t-18 -51l232 115q6 -12 13 -40t13.5 -61 t9.5 -64.5t1 -50.5l-248 -22l154 -166q-10 -10 -35 -29.5t-53.5 -40t-55 -37t-41.5 -20.5q-6 16 -15 47t-20.5 65t-21.5 64.5t-16 46.5l-127 -223q-12 4 -35 20.5t-47.5 36t-45 39t-28.5 31.5q14 12 42 35.5t56.5 49.5t55 48.5t40.5 34.5z" />
<glyph unicode="+" d="M207 535l20 170h328l41 339h170l-43 -339h324l-21 -170h-324l-43 -349h-167l40 349h-325z" />
<glyph unicode="," horiz-adv-x="522" d="M14 -199q53 47 87 93.5t49 105.5q-43 8 -65 38t-22 73q0 31 11.5 61.5t33 54t52 38t69.5 14.5q78 0 114 -46.5t36 -111.5q0 -61 -25.5 -122.5t-68.5 -116t-98.5 -99.5t-114.5 -72z" />
<glyph unicode="-" horiz-adv-x="780" d="M119 449l26 202h547l-26 -202h-547z" />
<glyph unicode="." horiz-adv-x="501" d="M57 109q0 70 44 118.5t124 48.5q70 0 105 -36.5t35 -94.5q0 -72 -47.5 -116.5t-124.5 -44.5q-70 0 -103 35.5t-33 89.5z" />
<glyph unicode="/" horiz-adv-x="737" d="M-45 -68l700 1514h195l-703 -1514h-192z" />
<glyph unicode="0" d="M70 508q0 86 11 184.5t38.5 195.5t73 187t114 159t161.5 109.5t218 40.5q137 0 227.5 -47t143.5 -125.5t73.5 -182t20.5 -214.5q0 -152 -32 -300t-102.5 -266t-186 -191.5t-283.5 -73.5q-133 0 -224.5 41t-146.5 111.5t-79.5 166.5t-26.5 205zM350 494q0 -66 11.5 -119 t37 -92t67.5 -60.5t101 -21.5q86 0 144.5 57t93.5 148.5t50 202t15 218.5q0 61 -8 122t-29.5 109t-61.5 76.5t-101 28.5q-74 0 -125 -36.5t-87 -97t-57.5 -135.5t-33 -148.5t-14.5 -141t-3 -110.5z" />
<glyph unicode="1" d="M256 1057l10 184l342 125h254l-166 -1366h-282l137 1102z" />
<glyph unicode="2" d="M41 0q4 45 9 89t11 89q98 82 222.5 182.5t235 207t185 214t74.5 205.5q0 78 -48 121t-146 43q-53 0 -143.5 -19.5t-204.5 -82.5l-76 178q137 90 266 123.5t227 33.5q193 0 301.5 -89t108.5 -265q0 -123 -62.5 -238.5t-154.5 -220t-199.5 -196.5t-200.5 -168l7 -4h573 l-25 -203h-960z" />
<glyph unicode="3" d="M29 76q4 8 16 35.5t26.5 58.5t26 57.5t15.5 36.5q59 -20 106 -32.5t86 -19.5t72 -10t65 -3q63 0 123 15t105 46t71.5 77t26.5 107q0 92 -67.5 142.5t-174.5 50.5q-23 0 -51.5 -2t-66.5 -8l-27 176q203 35 295 100.5t92 138.5q0 51 -38 90t-134 39q-70 0 -150.5 -17 t-195.5 -64l-68 180q135 70 252 98.5t228 28.5q106 0 179.5 -24.5t121 -66.5t69 -96.5t21.5 -111.5q0 -41 -13.5 -86t-43 -89t-78 -83t-115.5 -66v-10q117 -31 181.5 -115t64.5 -194q0 -96 -40 -182.5t-116 -152t-183.5 -103t-244.5 -37.5q-49 0 -106.5 5t-115 15 t-113.5 28.5t-101 47.5z" />
<glyph unicode="4" d="M43 354l25 189l675 823h301q-10 -78 -23 -185.5t-26.5 -220t-28 -220t-22.5 -185.5h193l-25 -201h-192q-4 -35 -9.5 -82t-10.5 -96t-11 -95t-10 -81h-273l43 354h-606zM338 555h340q14 111 32.5 242t32.5 241h-14q-45 -57 -94 -118.5t-100.5 -124t-101.5 -124t-95 -116.5 z" />
<glyph unicode="5" d="M49 78l88 196q119 -43 191.5 -55t134.5 -12q145 0 235 67.5t90 206.5q0 98 -69.5 145.5t-167.5 47.5q-102 0 -213 -49l-137 75l114 666h789l-27 -213h-563l-45 -291q23 4 69 14.5t107 10.5q92 0 169 -23.5t134.5 -72t89 -120t31.5 -167.5q0 -133 -49 -231.5t-130 -163 t-187.5 -96t-219.5 -31.5q-45 0 -99 4t-112.5 15t-116 29.5t-106.5 47.5z" />
<glyph unicode="6" d="M102 485q0 182 42 346t126 287t212 194.5t300 71.5q104 0 182 -18t119 -35q-4 -10 -12 -38.5t-17.5 -62.5t-17.5 -63.5t-10 -38.5q-70 25 -137.5 33t-112.5 8q-90 0 -153.5 -38.5t-106.5 -96t-67.5 -122t-34.5 -113.5l8 -11q61 35 146 59.5t157 24.5q78 0 144.5 -21.5 t114.5 -66.5t74.5 -114.5t26.5 -163.5q0 -123 -40.5 -220.5t-112.5 -164t-169 -102t-212 -35.5q-123 0 -209 36.5t-139 103t-77 159t-24 202.5zM377 459q0 -47 7 -91t28.5 -78t59.5 -55.5t99 -21.5q115 0 180.5 74.5t65.5 193.5q0 80 -38 132.5t-140 52.5q-51 0 -94 -11.5 t-75 -26t-53.5 -27.5t-29.5 -17q-4 -35 -7 -66t-3 -59z" />
<glyph unicode="7" d="M176 0l668 1153h-608l26 213h848l18 -186l-671 -1180h-281z" />
<glyph unicode="8" d="M70 340q0 49 14 106.5t47 112.5t86 105.5t131 89.5q-66 45 -100.5 101t-34.5 132q0 86 39 160t106.5 128t160 85t198.5 31q78 0 151.5 -19.5t131 -61.5t92 -104.5t34.5 -148.5t-50 -173t-175 -169q82 -45 132 -122t50 -187q0 -80 -34.5 -157t-104.5 -135.5t-173 -94 t-239 -35.5q-113 0 -198.5 26.5t-144 74.5t-89 112.5t-30.5 142.5zM348 362q0 -72 51.5 -120.5t155.5 -48.5q68 0 116 18t79.5 49t46 69t14.5 77q0 82 -64.5 135t-211.5 112q-106 -70 -146.5 -147.5t-40.5 -143.5zM477 1004q0 -37 18.5 -63t49 -48.5t71.5 -42t89 -43.5 q96 66 130.5 123t34.5 104q0 57 -40 105.5t-140 48.5q-61 0 -102 -21.5t-65.5 -50.5t-35 -60.5t-10.5 -51.5z" />
<glyph unicode="9" d="M135 862q0 123 41 220.5t112.5 164t169 102t212.5 35.5q123 0 209 -36.5t138 -103t75.5 -159t23.5 -202.5q0 -182 -42 -346t-126 -287t-211 -194.5t-299 -71.5q-104 0 -182 18t-119 35q2 8 11.5 37.5t18.5 63.5t17.5 62.5t10.5 39.5q70 -25 137 -33t112 -8 q88 0 151.5 38.5t106.5 96t68 122t35 113.5l-6 11q-31 -16 -70 -32t-79 -27t-80 -18t-76 -7q-78 0 -143.5 21.5t-114 66.5t-75 113.5t-26.5 164.5zM401 887q0 -80 39.5 -132.5t141.5 -52.5q51 0 94 11.5t75.5 26t54 27.5t30.5 17q4 35 6 66t2 59q0 45 -7.5 90t-29 79 t-59 55.5t-99.5 21.5q-115 0 -181.5 -74.5t-66.5 -193.5z" />
<glyph unicode=":" horiz-adv-x="516" d="M70 115q0 68 45 117t125 49q70 0 103.5 -36t33.5 -95q0 -68 -44 -115t-126 -47q-72 0 -104.5 35.5t-32.5 91.5zM143 735q0 70 47 117t125 47q68 0 103 -36t35 -93q0 -72 -46.5 -119t-125.5 -47q-70 0 -104 38t-34 93z" />
<glyph unicode=";" horiz-adv-x="516" d="M14 -199q53 47 88 93.5t50 105.5q-43 8 -64.5 38t-21.5 73q0 63 42.5 115.5t122.5 52.5q78 0 114 -46.5t36 -111.5q0 -61 -25.5 -122.5t-68.5 -116t-98.5 -99.5t-114.5 -72zM143 735q0 70 47 117t125 47q68 0 103 -36t35 -93q0 -72 -46.5 -119t-125.5 -47q-70 0 -104 38 t-34 93z" />
<glyph unicode="&#x3c;" horiz-adv-x="1187" d="M170 541l18 143l938 442l-24 -200l-694 -316q4 -2 50 -25.5t112.5 -58t144.5 -74.5t144.5 -75t112.5 -59.5t52 -26.5l-25 -195z" />
<glyph unicode="=" horiz-adv-x="1187" d="M164 369l20 163h844l-20 -163h-844zM205 696l20 166h844l-20 -166h-844z" />
<glyph unicode="&#x3e;" horiz-adv-x="1187" d="M119 96l22 201l697 317q-6 2 -52.5 26t-114 58.5t-144 74.5t-144.5 74t-114 56.5t-50 24.5l25 198l827 -442l-18 -143z" />
<glyph unicode="?" horiz-adv-x="985" d="M195 1376q123 45 235.5 61.5t194.5 16.5q193 0 291 -75.5t98 -215.5q0 -66 -16.5 -118t-46 -95t-67.5 -78.5t-81 -68.5q-61 -47 -110.5 -87t-85.5 -80t-55.5 -84t-19.5 -95v-74q-61 -4 -119.5 -12.5t-115.5 -12.5v82q0 104 28.5 179t72.5 131.5t96.5 97.5t99.5 78 q53 41 88 82t39 94q0 68 -49 98.5t-127 30.5q-55 0 -129 -9.5t-176 -43.5zM256 96q0 66 42 112t120 46q68 0 101.5 -35t33.5 -90q0 -68 -46 -110t-120 -42q-68 0 -99.5 33t-31.5 86z" />
<glyph unicode="@" horiz-adv-x="1959" d="M166 586q0 193 72.5 360.5t201.5 292.5t305.5 197.5t382.5 72.5q168 0 300.5 -45t223.5 -130t139 -204.5t48 -267.5q0 -141 -42 -250.5t-110.5 -184.5t-157.5 -114t-181 -39q-106 0 -167 53.5t-75 151.5l-12 2q-35 -59 -73 -95t-77 -57.5t-73.5 -28.5t-61.5 -7 q-125 0 -182.5 80t-57.5 215q0 111 26 210t78 174t130 118t182 43q41 0 89 -10.5t102 -28.5l24 49l180 -19q-14 -70 -29.5 -155.5t-27.5 -165.5t-19.5 -145.5t-7.5 -94.5q0 -117 107 -117q37 0 80 24t79.5 73t61.5 124.5t25 180.5q0 225 -134.5 355t-396.5 130 q-164 0 -305 -60.5t-243.5 -161.5t-161 -235.5t-58.5 -283.5q0 -121 36 -221.5t105.5 -174t171 -114.5t232.5 -41q49 0 128 9t171 42l47 -147q-86 -41 -182 -57.5t-174 -16.5q-176 0 -311.5 54.5t-225.5 149.5t-136 226t-46 285zM797 623q0 -78 27.5 -114t68.5 -36 q47 0 104.5 62.5t108.5 207.5q6 41 16.5 99.5t14.5 93.5q-35 14 -69.5 20.5t-57.5 6.5q-57 0 -97.5 -31t-66 -79t-37.5 -108.5t-12 -121.5z" />
<glyph unicode="A" horiz-adv-x="1320" d="M-33 0l637 1409h371l276 -1409h-297l-55 322h-500q-4 -8 -24.5 -56.5t-45 -105t-45 -104.5t-22.5 -56h-295zM489 528h375l-57 342l-41 320h-8l-121 -309z" />
<glyph unicode="B" horiz-adv-x="1306" d="M92 0l170 1407h596q199 0 291 -88t92 -242q0 -98 -52 -189t-169 -143l-4 -14q57 -20 93 -56t56.5 -78t27.5 -85t7 -80q0 -98 -39 -177t-104.5 -136.5t-154.5 -88t-187 -30.5h-623zM410 213h245q121 0 182.5 70.5t61.5 171.5q0 72 -46 122t-144 50h-248 q-6 -45 -13.5 -98.5t-13.5 -108.5t-12 -108.5t-12 -98.5zM485 821h217q109 0 170.5 58.5t61.5 156.5q0 72 -44 115t-138 43h-222q-4 -41 -10 -88t-12 -97.5t-11 -98.5t-12 -89z" />
<glyph unicode="C" horiz-adv-x="1245" d="M133 561q0 86 13.5 185.5t46 196.5t88 186.5t139.5 157t199.5 108.5t269.5 41q94 0 185 -15.5t167 -42.5l-59 -217q-78 23 -151 30t-134 7q-213 0 -336 -154.5t-123 -463.5q0 -182 79 -271.5t269 -89.5q25 0 63 3t82 8.5t90 13.5t85 18l39 -207q-45 -18 -102.5 -31.5 t-118 -23.5t-121 -15t-111.5 -5q-164 0 -272.5 44t-172 121.5t-89 184t-25.5 231.5z" />
<glyph unicode="D" horiz-adv-x="1370" d="M94 0l172 1409h506q158 0 261.5 -43t163.5 -119t85 -178t25 -219q0 -172 -38 -326.5t-122 -270.5t-219 -184.5t-332 -68.5h-502zM416 217h176q57 0 129 26.5t134.5 95.5t104 187.5t41.5 304.5q0 117 -25.5 189t-67.5 110.5t-94 52t-103 13.5h-174z" />
<glyph unicode="E" horiz-adv-x="1187" d="M92 0l172 1409h932l-27 -213h-637l-43 -358h543l-24 -201h-543l-53 -422h675l-26 -215h-969z" />
<glyph unicode="F" horiz-adv-x="1140" d="M92 0l172 1409h928l-27 -215h-633l-49 -381h500l-22 -205h-500l-76 -608h-293z" />
<glyph unicode="G" horiz-adv-x="1323" d="M129 559q0 88 13.5 187.5t47 196.5t91 186.5t145.5 157t209 108.5t283 41q104 0 196 -16.5t166 -41.5l-61 -217q-78 23 -156 32t-141 9q-233 0 -357.5 -159.5t-124.5 -475.5q0 -164 64.5 -256t230.5 -92q41 0 93.5 6t91.5 17l61 501h268l-86 -686q-119 -41 -238.5 -59 t-228.5 -18q-164 0 -272.5 44t-174 122.5t-93 184t-27.5 228.5z" />
<glyph unicode="H" horiz-adv-x="1409" d="M94 0l170 1409h297q-6 -47 -15 -123t-19.5 -157.5t-19.5 -158.5t-15 -122h528l70 561h296l-172 -1409h-296l75 629h-528q-6 -51 -17.5 -137t-21.5 -178.5t-20.5 -177.5t-16.5 -136h-295z" />
<glyph unicode="I" horiz-adv-x="612" d="M109 0l172 1409h292l-172 -1409h-292z" />
<glyph unicode="J" horiz-adv-x="724" d="M-180 -184q129 51 206.5 103t120.5 110.5t60.5 129t30.5 160.5l135 1092h295l-138 -1102q-18 -145 -61 -262t-120 -204t-194.5 -146t-283.5 -90z" />
<glyph unicode="K" horiz-adv-x="1323" d="M92 0l172 1407h289l-72 -553l15 -2l96 104l467 451h336l-590 -551l446 -856h-311l-332 672l-157 -162l-70 -510h-289z" />
<glyph unicode="L" horiz-adv-x="1134" d="M92 0l172 1409h293l-147 -1198h680l-25 -211h-973z" />
<glyph unicode="M" horiz-adv-x="1748" d="M43 0l313 1407h308q23 -92 45 -188.5t43.5 -191.5t42 -183t39.5 -164l34 -199h17q23 51 43 100.5t39 96.5q12 31 36.5 88t55.5 128t64.5 148.5t64.5 148.5t55.5 128t38.5 88h338l-8 -1407h-287l27 784l6 230h-10l-95 -221q-47 -98 -88 -189.5t-84 -183.5l-133 -279h-231 q-41 160 -77 318.5t-73 320.5l-43 211h-10q-10 -55 -19.5 -109.5t-19.5 -109.5q-33 -193 -69.5 -386t-73.5 -386h-289z" />
<glyph unicode="N" horiz-adv-x="1474" d="M92 0l170 1407h297q92 -182 181 -362.5t178 -364.5q29 -61 58.5 -122.5t59.5 -123.5h11q29 244 58.5 486.5t59.5 486.5h283l-170 -1407h-295q-94 186 -186 376.5t-185 381.5l-108 233q-2 0 -4 -1t-6 -1q-31 -248 -59.5 -494.5t-61.5 -494.5h-281z" />
<glyph unicode="O" horiz-adv-x="1482" d="M129 563q0 170 43 328t132 278.5t225.5 192.5t322.5 72q154 0 260.5 -46.5t174 -127t98 -191.5t30.5 -240q0 -180 -47 -334.5t-137 -269t-223.5 -180t-305.5 -65.5q-150 0 -258 41.5t-177.5 118.5t-103.5 184.5t-34 238.5zM436 553q0 -172 65.5 -263t219.5 -91 q104 0 178 55t120 145t67.5 208t21.5 241q0 76 -12.5 142.5t-43 117.5t-82.5 81t-132 30q-117 0 -195 -61.5t-124 -158t-64.5 -215t-18.5 -231.5z" />
<glyph unicode="P" horiz-adv-x="1183" d="M92 0l174 1409h514q217 0 318.5 -102.5t101.5 -282.5q0 -88 -28.5 -175t-90 -155.5t-156 -110.5t-225.5 -42h-249l-64 -541h-295zM477 748h193q43 0 84 13t73.5 44t53 81t20.5 122q0 98 -51 143t-135 45h-183z" />
<glyph unicode="Q" horiz-adv-x="1492" d="M129 563q0 170 43 328t132 278.5t225.5 192.5t322.5 72q154 0 260.5 -46.5t174 -127t98 -191.5t30.5 -240q0 -254 -91 -454.5t-263 -300.5q12 -4 52 -15.5t86 -25t85 -24.5t51 -15l-112 -230l-588 224q-133 8 -228.5 52t-157 118.5t-91 177t-29.5 227.5zM436 553 q0 -172 65.5 -263t219.5 -91q104 0 178 55t120 145t67.5 208t21.5 241q0 76 -12.5 142.5t-43 117.5t-82.5 81t-132 30q-117 0 -195 -61.5t-124 -158t-64.5 -215t-18.5 -231.5z" />
<glyph unicode="R" horiz-adv-x="1286" d="M92 0l172 1407h557q104 0 180 -25.5t124.5 -70.5t71 -107.5t22.5 -134.5q0 -68 -17.5 -133.5t-51.5 -120.5t-85 -99t-117 -71v-10q76 -31 106.5 -93.5t47.5 -148.5l76 -393h-293q-16 92 -32.5 183t-35.5 186q-23 119 -83 158.5t-159 39.5h-122q-18 -143 -36 -284.5 t-34 -282.5h-291zM477 774h207q37 0 78 11.5t75.5 40t57.5 76.5t23 122q0 88 -49.5 129t-135.5 41h-203z" />
<glyph unicode="S" horiz-adv-x="1239" d="M59 92l84 213q139 -59 251 -75.5t181 -16.5q123 0 196 43t77 147q0 45 -14.5 75t-40 49.5t-63.5 33.5t-87 29q-92 25 -175 52.5t-145.5 70.5t-99.5 106.5t-37 161.5q0 109 39 192.5t113 142t178.5 89.5t235.5 31q43 0 96 -5.5t108.5 -16.5t109.5 -30.5t101 -46.5 l-92 -207q-96 43 -188 56.5t-166 13.5q-92 0 -155.5 -44t-65.5 -138q0 -41 19.5 -67.5t53 -47t78.5 -35t97 -26.5q63 -18 135.5 -41t134 -65t101.5 -111.5t40 -180.5q0 -236 -164 -350t-456 -114q-104 0 -233.5 23.5t-246.5 88.5z" />
<glyph unicode="T" horiz-adv-x="1212" d="M121 1190l29 219h1157l-29 -219h-432l-146 -1190h-290l143 1190h-432z" />
<glyph unicode="U" horiz-adv-x="1409" d="M145 526l111 883h289l-111 -901q-5 -38 -4 -71q0 -103 46 -161q62 -76 202 -77q131 0 217 74.5t104 234.5l111 901h287l-111 -879q-16 -129 -58 -231t-116 -173t-183.5 -108.5t-256.5 -37.5q-305 0 -432 145q-101 116 -101 302q0 47 6 99z" />
<glyph unicode="V" horiz-adv-x="1286" d="M137 1409h314l90 -573q20 -145 39.5 -285.5t35.5 -284.5h17q53 135 106.5 284.5t106.5 283.5l233 575h312q-156 -354 -312.5 -705.5t-310.5 -703.5h-358z" />
<glyph unicode="W" horiz-adv-x="1873" d="M135 1407h311q6 -74 14.5 -170t16.5 -195.5t16.5 -195.5t14.5 -172q6 -80 10 -174t10 -172h9q25 72 49 161t49 162l250 756h317q4 -27 10.5 -81t14.5 -123.5t16 -146.5t17.5 -149.5t16.5 -135t13 -101.5l31 -342h8l105 344q25 76 54.5 172t62 195.5t64.5 195.5t56 172 h305q-33 -94 -73.5 -212t-87 -247t-93.5 -263t-91 -259t-84 -235.5t-68 -190.5h-359q-10 78 -20 168t-20.5 183t-20.5 184.5t-23 171.5q-4 27 -8 71.5t-7 92t-7 91.5t-8 70h-9q-25 -76 -51 -161t-49 -162q-23 -76 -53.5 -167t-62 -184.5t-61.5 -185.5t-54 -172h-371 q-10 88 -23.5 201.5t-28 240.5t-28.5 261.5t-28.5 261.5t-28 240.5t-23.5 201.5z" />
<glyph unicode="X" horiz-adv-x="1284" d="M-35 0q135 184 269.5 364.5t269.5 366.5q-82 166 -167 337t-171 339h328q53 -125 104 -251t107 -251q82 123 165.5 251t167.5 251h338q-131 -172 -262 -341t-260 -341q88 -180 179 -362.5t179 -362.5h-321q-59 131 -117.5 270.5t-118.5 272.5q-92 -133 -181 -272.5 t-179 -270.5h-330z" />
<glyph unicode="Y" horiz-adv-x="1243" d="M137 1409h301l125 -362l84 -281h15q6 10 29.5 53t52 93.5t52 93.5t29.5 53l215 350h308l-555 -850l-66 -559h-315l65 543q-12 31 -38.5 98.5t-60.5 153.5t-72 181t-71.5 181t-60.5 153.5t-37 98.5z" />
<glyph unicode="Z" horiz-adv-x="1179" d="M-2 197l813 985l-6 10h-623l29 217h977l20 -197l-813 -983l4 -10l721 -2l-26 -217h-1069z" />
<glyph unicode="[" horiz-adv-x="620" d="M31 -326q12 109 30.5 251.5t38 301t40 325.5t40 325.5t36.5 301t32 253.5h426q-2 -12 -5 -35t-6.5 -47.5t-5.5 -47t-4 -34.5h-188q-12 -92 -26.5 -209t-30 -246t-32 -264t-32.5 -263t-30.5 -245t-24.5 -209h188q-2 -12 -5 -34.5t-5 -45t-5 -44t-5 -34.5h-426z" />
<glyph unicode="\" horiz-adv-x="737" d="M141 1446h193l330 -1514h-195z" />
<glyph unicode="]" horiz-adv-x="620" d="M-14 -326q2 12 4 34t5 44.5l6 45t5 34.5h187q10 92 24 209t30.5 245t33 263t32 264t29.5 246t27 209h-189q0 12 3 34.5t6.5 47t5.5 47t4 35.5h426l-215 -1758h-424z" />
<glyph unicode="^" horiz-adv-x="966" d="M76 729l452 664h136l286 -664h-180l-195 461l-305 -461h-194z" />
<glyph unicode="_" horiz-adv-x="993" d="M-88 -297l20 143h992l-21 -143h-991z" />
<glyph unicode="`" horiz-adv-x="1046" d="M369 1393l157 170l285 -359l-102 -102z" />
<glyph unicode="a" horiz-adv-x="1179" d="M66 356q0 119 30.5 239t95 216t166 155.5t240.5 59.5q53 0 116.5 -10t129.5 -37l22 53l232 -10q-29 -186 -58.5 -394t-54.5 -431l115 2l16 -158q-61 -31 -122.5 -42t-108.5 -11q-78 0 -120 30.5t-44 120.5l-4 4q-45 -43 -93.5 -72.5t-93.5 -49t-86 -27.5t-71 -8 q-82 0 -140.5 26.5t-95.5 74.5t-54 116.5t-17 152.5zM350 408q0 -115 40 -161t99 -46q57 0 121 31.5t115 72.5l66 483q-47 16 -92.5 22.5t-82.5 6.5q-43 0 -90 -23.5t-86 -72.5t-64.5 -127t-25.5 -186z" />
<glyph unicode="b" horiz-adv-x="1148" d="M61 109l170 1378h283q-6 -66 -17.5 -148t-21.5 -165q-10 -84 -20.5 -158t-24.5 -127l10 -6q98 80 190.5 111.5t153.5 31.5q147 0 224 -98.5t77 -274.5q0 -102 -26.5 -220t-91 -217t-174 -165.5t-275.5 -66.5q-111 0 -224.5 24.5t-217.5 75.5zM360 223q47 -23 88 -28 t78 -5q51 0 100.5 26t88.5 78t62.5 130t23.5 182q0 115 -40 159t-99 44q-57 0 -122 -32t-116 -72q-16 -123 -31.5 -241t-32.5 -241z" />
<glyph unicode="c" horiz-adv-x="954" d="M70 362q0 102 22.5 219t83 217.5t168 166t277.5 65.5q84 0 170 -20.5t153 -69.5l-74 -172q-72 31 -129 39t-102 8q-70 0 -123 -31.5t-90 -87t-55.5 -131.5t-18.5 -164q0 -94 46 -150t151 -56q63 0 126.5 14t135.5 39l51 -172q-80 -45 -188.5 -69.5t-206.5 -24.5 q-106 0 -181 28.5t-123 78.5t-70.5 120t-22.5 153z" />
<glyph unicode="d" horiz-adv-x="1130" d="M66 358q0 115 29.5 235t93 217t164 159.5t239.5 62.5q49 0 111.5 -8t117.5 -29l60 471h278q-2 -16 -11 -84.5t-21.5 -170t-28 -225.5t-31.5 -253t-31.5 -253t-28 -225t-20.5 -170t-10 -85h-268q0 6 2 24.5t5 41t6 42t3 25.5l-8 6q-98 -88 -195.5 -121.5t-165.5 -33.5 q-141 0 -215.5 101t-74.5 273zM352 410q0 -117 41 -163t101 -46q57 0 121.5 31.5t115.5 72.5q2 10 6 47t11.5 87t14.5 107.5t13 108t11.5 87t7.5 46.5q-47 16 -92.5 23.5t-86.5 7.5q-43 0 -90 -23.5t-86 -73.5t-63.5 -128t-24.5 -184z" />
<glyph unicode="e" horiz-adv-x="1042" d="M70 397q0 106 28.5 220t96 206t179 151.5t277.5 59.5q160 0 248 -71.5t88 -206.5q0 -154 -154.5 -254.5t-476.5 -118.5v-25q0 -35 7.5 -66.5t27 -56t55 -39t91.5 -14.5q72 0 156.5 18.5t158.5 47.5l55 -162q-43 -25 -98 -44t-113.5 -32.5t-115 -20.5t-101.5 -7 q-127 0 -206.5 33.5t-125 91t-61.5 133t-16 157.5zM360 528q178 10 270.5 56.5t92.5 138.5q0 45 -25.5 76.5t-85.5 31.5q-106 0 -171 -78t-81 -225z" />
<glyph unicode="f" horiz-adv-x="780" d="M-276 -406l45 187q45 -8 75.5 -10t59.5 -2q59 0 99 19t67.5 61t44 105.5t28.5 154.5q14 111 26.5 220t23 201.5t17.5 162t11 102.5h-168l21 155l168 41l12 84q12 94 38.5 172t76 134.5t123 87t182.5 30.5q53 0 119.5 -8t132.5 -31l-47 -192q-47 10 -83 13t-67 3 q-41 0 -76 -10t-62.5 -37t-47 -74t-27.5 -123q-2 -10 -4 -29.5t-2 -29.5h278l-22 -186h-277q-18 -154 -33.5 -304.5t-31.5 -293.5q-16 -139 -40 -256t-72 -202t-130 -133t-213 -48q-51 0 -115.5 7t-129.5 29z" />
<glyph unicode="g" horiz-adv-x="1153" d="M70 358q0 102 26.5 220t91 217.5t174 166t275.5 66.5q39 0 92 -4t110.5 -15.5t117 -28.5t114.5 -44l14 -25q-31 -240 -60.5 -465t-57.5 -458q-10 -92 -43 -172t-94.5 -140.5t-153.5 -94.5t-223 -34q-100 0 -204 25t-167 55q4 8 13 37t19.5 60.5t19.5 59.5t13 38 q53 -23 129 -40.5t142 -17.5q80 0 132 24t86 65t50 98t27 125q0 10 3 31.5t5 27.5l-10 6q-100 -80 -190.5 -111.5t-149.5 -31.5q-147 0 -224 94t-77 266zM356 414q0 -113 39 -158t99 -45q59 0 122.5 32.5t116.5 73.5l64 465q-47 20 -90 26.5t-78 6.5q-49 0 -98.5 -26.5 t-88.5 -76.5t-62.5 -125t-23.5 -173z" />
<glyph unicode="h" horiz-adv-x="1138" d="M51 0q20 164 44 355.5t47.5 388t46 389t42.5 356.5h281l-29 -244q-10 -94 -24.5 -193.5t-30.5 -185.5l8 -6q106 92 211 132t176 40q76 0 124 -19.5t76 -54t37 -83t9 -105.5q0 -6 -1 -25.5t-3 -27.5l-84 -717h-283l78 645q2 12 3 26.5t1 24.5q0 59 -27.5 81t-78.5 22 q-47 0 -116 -28t-136 -89l-84 -682h-287z" />
<glyph unicode="i" horiz-adv-x="583" d="M88 0l123 1006h285l-123 -1006h-285zM221 1268q0 76 49 125t129 49q72 0 112 -39t40 -100q0 -72 -48 -122.5t-134 -50.5q-72 0 -110 39t-38 99z" />
<glyph unicode="j" horiz-adv-x="624" d="M-156 -270q96 39 154.5 84t90.5 102t46.5 126t24.5 155l90 809h285q-4 -33 -11.5 -104t-17.5 -158t-20.5 -180t-19.5 -172t-16.5 -132t-7.5 -61q-16 -143 -48 -257t-93 -198t-157.5 -137t-241.5 -78zM258 1268q0 76 48 125t130 49q74 0 113 -39t39 -100q0 -72 -48 -122.5 t-134 -50.5q-72 0 -110 39t-38 99z" />
<glyph unicode="k" horiz-adv-x="1067" d="M57 0q47 369 90 731.5t91 730.5h284l-51 -415q-8 -55 -14 -101.5t-12.5 -91.5t-13.5 -91.5t-17 -103.5q4 -2 10 -2q90 86 178 173.5t176 175.5h312q-102 -98 -211 -204t-211 -206l73 -76l263 -520h-291q-53 113 -110.5 225.5t-110.5 225.5q-53 -53 -109 -103 q-10 -88 -20.5 -175t-20.5 -173h-285z" />
<glyph unicode="l" horiz-adv-x="585" d="M92 129q0 16 2 45t4 47l156 1266h276q-6 -63 -18 -166.5t-26.5 -225.5t-31 -253t-30.5 -251t-26.5 -219.5t-18.5 -158.5l133 2l12 -182q-70 -35 -146.5 -48.5t-123.5 -13.5q-94 0 -128 42t-34 116z" />
<glyph unicode="m" horiz-adv-x="1697" d="M53 0q33 252 63.5 507t59.5 499h268q-6 -39 -10 -68t-10 -64l8 -4q109 92 204 126t148 34q115 0 167.5 -49t62.5 -125q53 47 108.5 80t104.5 54.5t90 30.5t69 9q70 0 115 -18.5t73 -50t39 -74.5t11 -92t-8 -138.5t-21.5 -198t-28 -228t-26.5 -230.5h-283q20 166 41 332 t39 332q2 10 2 17v17q0 55 -24.5 78t-75.5 23q-41 0 -100.5 -25.5t-124.5 -85.5l-76 -688h-281q18 166 39 332t41 332q2 10 2 17v17q0 55 -25.5 78t-76.5 23q-41 0 -96.5 -27t-120.5 -86l-82 -686h-285z" />
<glyph unicode="n" horiz-adv-x="1142" d="M53 0q31 252 62.5 501t60.5 505h273q-6 -39 -10.5 -69t-12.5 -67l8 -4q111 90 211 128t172 38q76 0 125 -19.5t77 -52t39 -76.5t11 -93v-38t-4 -40l-82 -713h-283l78 657q2 10 2 18.5v18.5q0 47 -23.5 76t-86.5 29q-49 0 -115 -28t-131 -89l-84 -682h-287z" />
<glyph unicode="o" horiz-adv-x="1130" d="M70 406q0 119 32.5 231.5t101 199.5t174.5 140t251 53q117 0 199.5 -32.5t136 -91t78 -137.5t24.5 -171q0 -113 -29.5 -223.5t-96.5 -197.5t-173 -141t-260 -54q-123 0 -206 31.5t-135 89t-74.5 135t-22.5 168.5zM360 385q0 -41 8.5 -77t27 -62.5t51 -43t81.5 -16.5 q74 0 121 41t76 102.5t40 135.5t11 139q0 43 -8 82t-26.5 68.5t-49.5 47t-78 17.5q-78 0 -127 -44t-76.5 -109.5t-39 -141t-11.5 -139.5z" />
<glyph unicode="p" horiz-adv-x="1153" d="M2 -428q2 18 11.5 85t21.5 165t27.5 220t31 247t29.5 246.5t26.5 220t20.5 165t10 85.5h271q-4 -35 -8.5 -67t-12.5 -67l8 -6q98 88 196.5 121t168.5 33q139 0 214 -100.5t75 -272.5q0 -115 -30 -233.5t-93.5 -215t-163.5 -157.5t-240 -61q-49 0 -112.5 8t-116.5 30 q-8 -70 -15.5 -127t-13.5 -109t-12 -103.5t-12 -106.5h-281zM362 217q47 -18 93.5 -23.5t83.5 -5.5q45 0 92 24t86 74t63.5 128t24.5 188q0 115 -40 160t-97 45q-59 0 -124 -33t-118 -74z" />
<glyph unicode="q" horiz-adv-x="1165" d="M66 354q0 100 26.5 219t92 219.5t177 168t281.5 67.5q43 0 96.5 -5t109.5 -16.5t113.5 -28.5t108.5 -44q4 -4 8 -12.5t8 -12.5q-43 -338 -81.5 -669.5t-79.5 -667.5h-283l41 309q10 76 16.5 131.5t20.5 104.5l-12 8q-98 -80 -190.5 -110.5t-151.5 -30.5q-150 0 -225.5 98 t-75.5 272zM352 397q0 -115 39 -158.5t96 -43.5q59 0 124 32.5t118 73.5q6 49 14.5 111.5t17.5 128t17 128t15 111.5q-47 23 -89 28t-79 5q-49 0 -98.5 -25.5t-88.5 -78t-62.5 -130t-23.5 -182.5z" />
<glyph unicode="r" horiz-adv-x="811" d="M78 0q29 236 61.5 494t61.5 514h264q-4 -29 -6 -52.5t-5 -45t-6.5 -43t-7.5 -48.5h6q59 98 121 153.5t144 55.5q45 0 85 -15.5t70 -56.5l-65 -221q-33 6 -61.5 11.5t-57.5 5.5q-86 0 -145.5 -40t-102.5 -106l-74 -606h-282z" />
<glyph unicode="s" horiz-adv-x="968" d="M25 63l69 179q117 -45 202 -54.5t134 -9.5q74 0 123 29t49 82q0 49 -29.5 70.5t-85.5 43.5q-63 27 -128.5 47.5t-120 50t-88 77t-33.5 127.5t32.5 141t91 101t138.5 60.5t176 20.5q78 0 170 -18.5t164 -59.5q-16 -43 -35.5 -86t-36.5 -86q-80 31 -142.5 40t-115.5 9 q-29 0 -56.5 -5t-50 -18t-37 -34.5t-14.5 -52.5q0 -37 36 -57.5t90.5 -37t117 -35t116.5 -51t90 -85t36 -138.5q0 -172 -129 -250.5t-355 -78.5q-43 0 -92 4t-99 14t-99.5 24.5t-87.5 36.5z" />
<glyph unicode="t" horiz-adv-x="808" d="M80 819l18 158l162 43q25 61 50.5 121.5t49.5 120.5q51 6 99.5 10t97.5 8l-35 -274h283q-4 -47 -10.5 -93.5t-12.5 -93.5h-280l-60 -436q0 -10 -2 -31.5t-2 -36.5q0 -112 113 -112h2q20 0 68.5 5t107.5 19q10 -47 16.5 -94t16.5 -94q-35 -14 -78 -24.5t-86 -16.5t-81 -9 t-62 -3q-90 0 -149.5 18.5t-93.5 51t-47 78.5t-13 99q0 23 2 48.5t6 48.5l61 489h-141z" />
<glyph unicode="u" horiz-adv-x="1099" d="M68 203q0 27 2 53.5t6 52.5l76 697h282l-78 -658q-2 -10 -2 -19.5v-19.5q0 -53 26 -78.5t85 -25.5q51 0 110.5 27.5t124.5 91.5l86 682h281q-31 -252 -60.5 -496t-58.5 -510h-262l10 135l-6 4q-111 -92 -206 -127t-167 -35q-76 0 -125 17.5t-76.5 47.5t-37.5 71t-10 90z " />
<glyph unicode="v" horiz-adv-x="1087" d="M59 1006h295q8 -41 19.5 -101.5t24 -124t23.5 -124t17 -101.5q4 -27 11.5 -72t14.5 -96t14 -98t14 -78h10q4 8 21.5 52t39 99.5t44 114t38.5 96.5q23 49 55.5 126t63.5 153t54.5 132t27.5 67l272 -74q-25 -51 -62.5 -130t-80.5 -170t-90 -189.5t-91 -189.5t-81 -169 t-62 -129h-375q-53 254 -108 503t-109 503z" />
<glyph unicode="w" horiz-adv-x="1630" d="M88 1008h277l49 -469l24 -306h11l104 314l174 461h274l70 -473l33 -299h10l94 301l183 520l268 -72l-408 -985h-323l-62 426l-37 322h-12l-104 -320l-158 -428h-330q-4 33 -14 110.5t-24.5 179t-31 214t-30.5 213t-24.5 179.5t-12.5 112z" />
<glyph unicode="x" horiz-adv-x="1079" d="M0 35l369 485q-61 123 -123 243t-125 243h315q35 -82 67 -168t66 -166h17q29 43 60.5 94t64 104.5t64.5 104.5t63 94l241 -102l-346 -441q66 -131 131.5 -263t130.5 -263h-307l-151 365h-17q-68 -102 -137.5 -213t-136.5 -213z" />
<glyph unicode="y" horiz-adv-x="1034" d="M-35 -408q4 14 10.5 40t13.5 55.5t13 55.5t10 40q51 -10 83 -14.5t67 -4.5q59 0 98 26t72 99q14 33 27.5 68t29.5 66h-129q-47 248 -93 492.5t-93 490.5h280q6 -35 13.5 -88.5t15.5 -113t16.5 -116.5t14.5 -98q8 -51 16 -112.5t15.5 -120t12.5 -105.5t9 -70h12 q4 10 17.5 47t32 87.5t40 105.5t39.5 102q6 12 22.5 52t38 95.5t46 117t46 115.5t37 95t21.5 54q18 -6 55 -15.5t77 -20.5t78 -20.5t56 -15.5q-33 -72 -74.5 -166t-90 -199.5t-98.5 -217t-98 -216t-90 -199t-73 -163.5q-57 -129 -144 -197.5t-216 -68.5q-41 2 -96.5 7 t-139.5 31z" />
<glyph unicode="z" horiz-adv-x="997" d="M10 152l578 643l-6 14h-432l22 197h766l29 -152l-574 -645l4 -12h525l-23 -197h-866z" />
<glyph unicode="{" horiz-adv-x="647" d="M74 520l18 150q66 16 106 47t50 104l47 357q6 53 26.5 101t54.5 84t83 56.5t116 20.5h158q-2 -12 -5 -34t-6 -46.5t-6 -47t-5 -34.5h-56q-41 0 -63.5 -12.5t-35.5 -32t-18.5 -46t-9.5 -54.5l-34 -279q-6 -51 -16.5 -91t-27 -70.5t-44 -53.5t-68.5 -35l-4 -10 q59 -23 81.5 -69t22.5 -103q0 -35 -9 -103.5t-19.5 -147.5t-19.5 -151.5t-9 -111.5q0 -37 15.5 -63.5t66.5 -26.5h69q0 -12 -3 -35t-6 -45.5t-5 -44t-4 -33.5h-141q-68 0 -113 15.5t-71.5 44t-38 66.5t-11.5 85q0 41 6 84l45 375q2 12 3.5 22t1.5 21q0 57 -28 94t-93 53z " />
<glyph unicode="|" horiz-adv-x="630" d="M238 -299v1747h190v-1747h-190z" />
<glyph unicode="}" horiz-adv-x="647" d="M-51 -338q2 12 5 33.5t6 46.5t6 47.5t5 34.5h56q39 0 62.5 11t36.5 31.5t18.5 47.5t9.5 55q4 33 10 80t12 97.5t12.5 102.5t10.5 97q10 104 41.5 149.5t107.5 67.5l4 10q-59 23 -81.5 69t-22.5 103q0 33 8 92.5t18.5 126t18.5 128t8 102.5q0 37 -15.5 63.5t-66.5 26.5 h-69q0 12 3 34.5l6 45t5 44.5t4 34h141q68 0 113 -15.5t71.5 -44t38 -67.5t11.5 -84q0 -41 -6 -84l-41 -309q-2 -12 -3 -22.5t-1 -20.5q0 -57 27.5 -94t92.5 -54l-18 -149q-66 -16 -105.5 -47t-50.5 -105l-51 -422q-6 -53 -25.5 -101t-54.5 -84t-84 -56.5t-117 -20.5h-157z " />
<glyph unicode="~" d="M145 549q57 115 130 167t153 52q53 0 110.5 -14.5t115 -33t112.5 -32.5t102 -14l146 98l86 -76q-53 -109 -123 -166t-158 -57q-63 0 -123.5 14.5t-116 32t-104.5 31.5t-90 14l-152 -94z" />
<glyph unicode="&#xa2;" d="M193 362q0 98 20 212t76.5 212.5t157 166t258.5 75.5l20 154h104l-20 -156q70 -6 136.5 -26.5t121.5 -59.5l-74 -172q-66 27 -117 36t-94 11l-75 -620q53 4 109 17t118 36l51 -172q-63 -35 -143 -57.5t-162 -30.5l-18 -162h-105l18 156q-102 2 -174.5 31.5t-118.5 79.5 t-67.5 119t-21.5 150zM475 401q0 -78 31 -130t98 -68l74 598q-100 -35 -151.5 -142.5t-51.5 -257.5z" />
<glyph unicode="&#xa3;" d="M45 0l23 188q43 23 72.5 57t50 73.5t34 82.5t21.5 84q6 33 11 65t13 64h-123l19 150h133q12 70 24.5 133.5t28.5 122.5q20 84 57 152.5t93.5 116.5t132.5 75t178 27q106 0 195.5 -22.5t152.5 -53.5l-84 -193q-86 37 -149.5 45.5t-104.5 8.5q-57 0 -96 -15.5t-65.5 -44.5 t-43 -72t-28.5 -98q-10 -43 -18.5 -88t-14.5 -94h309l-16 -150h-322q-4 -39 -12 -78.5t-18 -80.5q-16 -78 -46 -152t-75 -113h649q-4 -47 -10 -95t-12 -95h-959z" />
<glyph unicode="&#xa5;" d="M117 412l12 112h928l-13 -112h-321l-51 -412h-287l51 412h-319zM141 616l15 111h221q-18 53 -47 139t-58.5 180.5t-58.5 181.5t-47 140h276q10 -31 23.5 -81t27 -103.5t28 -103.5t24.5 -81l63 -251h10q12 20 30 55t36 71.5t36.5 70.5t31.5 54q6 12 33.5 66.5t61.5 118 t63.5 118t35.5 66.5h283q-35 -53 -85 -140t-104.5 -181.5t-105.5 -180.5t-84 -139h231l-12 -111h-928z" />
<glyph unicode="&#xa7;" horiz-adv-x="1030" d="M68 -127q14 41 29.5 82t29.5 80q96 -31 163.5 -39t125.5 -8q123 0 177 49t54 106q0 41 -38 73t-95 61.5t-124.5 59.5t-125 69.5t-95.5 92t-38 124.5q0 92 46 163.5t126 128.5q-94 78 -94 205q0 94 39 160t102.5 108t144 61t164.5 19q92 0 181.5 -18t140.5 -45 q-14 -41 -30.5 -84t-32.5 -86q-78 27 -148 36t-127 9q-33 0 -65.5 -9t-60.5 -27.5t-45 -44t-17 -56.5q0 -35 26.5 -62.5t66.5 -50t85 -41t82 -37.5q41 -20 82 -43.5t72.5 -55.5t52 -73t20.5 -96q0 -86 -42 -153.5t-124 -133.5q76 -57 101.5 -122.5t25.5 -129.5 q0 -82 -39 -144t-107.5 -105t-160.5 -64.5t-199 -21.5q-98 0 -181 17t-148 46zM362 674q0 -41 23 -66.5t59.5 -45t85 -39t99.5 -46.5q45 45 66.5 88t21.5 72q0 37 -22.5 63.5t-59.5 49t-83 42t-93 42.5q-47 -37 -72 -75t-25 -85z" />
<glyph unicode="&#xa8;" horiz-adv-x="1120" d="M305 1272q2 63 47.5 103t108.5 40q66 0 97.5 -31.5t31.5 -83.5q-2 -66 -44 -106.5t-116 -40.5q-63 0 -94 33t-31 86zM731 1272q0 63 43 103t109 40q63 0 96 -31.5t33 -83.5q0 -66 -43 -106.5t-117 -40.5q-63 0 -93 33t-28 86z" />
<glyph unicode="&#xa9;" horiz-adv-x="1742" d="M131 676q0 160 61.5 301t168 246.5t249 166t303.5 60.5q160 0 301.5 -60.5t248 -166t168 -246.5t61.5 -301t-61.5 -301.5t-168 -246.5t-248 -165.5t-301.5 -60.5q-162 0 -304 60.5t-248.5 165.5t-168 246.5t-61.5 301.5zM254 676q0 -135 52 -254t141.5 -207t210 -139 t255.5 -51t255 51t209 139t140.5 207t51.5 254t-51.5 254t-140.5 208t-208.5 140t-255.5 51q-135 0 -255.5 -51t-210 -140t-141.5 -208t-52 -254zM471 659q0 86 21.5 176.5t76 165t147.5 121.5t236 47q78 0 139.5 -10t114.5 -29l-30 -145q-53 16 -104.5 22.5t-96.5 6.5 q-139 0 -216 -87t-77 -261q0 -170 67.5 -255t227.5 -85q18 0 46 2t59.5 5t63.5 8t56 11l31 -139q-59 -23 -145.5 -36t-159.5 -13q-133 0 -220 39t-140.5 105.5t-75 156.5t-21.5 194z" />
<glyph unicode="&#xaa;" horiz-adv-x="823" d="M78 780q0 72 18.5 151t61.5 144.5t112.5 108.5t173.5 43q41 0 87.5 -9.5t86.5 -31.5l19 37l170 -4q-18 -117 -38.5 -250t-37.5 -275q18 0 37.5 1t40.5 1l10 -123q-45 -20 -97 -28t-83 -8q-43 0 -75 18t-36 66v10q-59 -51 -123.5 -72.5t-105.5 -21.5q-115 0 -168 66.5 t-53 176.5zM295 823q0 -70 26.5 -95.5t59.5 -25.5q35 0 75 18.5t74 45.5l41 291q-27 10 -54 13t-50 3q-31 0 -61.5 -14.5t-55 -45t-40 -77.5t-15.5 -113z" />
<glyph unicode="&#xab;" horiz-adv-x="978" d="M88 365l10 77l375 367l102 -82l-245 -324l164 -319l-123 -86zM459 365l10 77l375 367l100 -82l-246 -324l166 -319l-123 -86z" />
<glyph unicode="&#xac;" d="M207 535l20 170h820l-64 -519h-170l43 349h-649z" />
<glyph unicode="&#xad;" horiz-adv-x="780" d="M119 449l26 202h547l-26 -202h-547z" />
<glyph unicode="&#xae;" horiz-adv-x="1230" d="M154 954q0 109 39.5 205t110.5 167t167 112t211 41q113 0 209 -41t166.5 -112t110.5 -167t40 -205t-40 -204t-110.5 -166.5t-166.5 -112.5t-209 -41t-209 41t-166.5 112.5t-111.5 167t-41 203.5zM250 954q0 -88 31.5 -166.5t89 -137t137.5 -92.5t174 -34q96 0 176 34 t136.5 92.5t87 137t30.5 166.5t-32.5 167t-90 137.5t-136.5 92t-171 33.5t-171 -33.5t-137.5 -92t-91 -137.5t-32.5 -167zM481 668v596h242q100 0 150.5 -49.5t50.5 -127.5q0 -39 -25 -85t-78 -68l121 -266h-135l-96 243h-97v-243h-133zM614 1006h78q39 0 65.5 19.5 t26.5 64.5q0 47 -25.5 63t-60.5 16h-84v-163z" />
<glyph unicode="&#xb0;" horiz-adv-x="761" d="M123 1110q0 61 24.5 115.5t65.5 94.5t94 63.5t115 23.5q61 0 114.5 -23.5t93.5 -63.5t62.5 -94.5t22.5 -115.5t-24.5 -115.5t-64.5 -94.5t-94.5 -62.5t-115.5 -22.5q-66 0 -120 21.5t-93 60.5t-60.5 93t-19.5 120zM262 1106q-2 -66 42 -111t110 -45t111.5 44t47.5 112 q0 68 -45 115t-112 47q-66 0 -109 -47t-45 -115z" />
<glyph unicode="&#xb1;" d="M141 0l21 164h817l-18 -164h-820zM211 567l20 170h326l37 310h170l-39 -310h326l-23 -170h-321l-39 -309h-170l37 309h-324z" />
<glyph unicode="&#xb4;" horiz-adv-x="1052" d="M444 1212l336 353l142 -174l-377 -289z" />
<glyph unicode="&#xb6;" horiz-adv-x="1193" d="M154 975q0 94 32.5 179t93 147.5t144.5 99.5t186 37h535q-57 -469 -113.5 -931t-116.5 -929h-186q53 418 102.5 833.5t102.5 837.5h-121l-203 -1671h-192l123 1024q-174 8 -280.5 99.5t-106.5 273.5z" />
<glyph unicode="&#xb7;" horiz-adv-x="516" d="M119 549q0 68 47 116t127 48q68 0 102.5 -35t34.5 -94q0 -72 -47 -119t-127 -47q-68 0 -102.5 37t-34.5 94z" />
<glyph unicode="&#xb8;" horiz-adv-x="954" d="M223 -522l6 102q109 10 171.5 41t62.5 80q0 23 -17.5 35t-43 17t-54.5 6t-53 1q-10 14 -15.5 27.5t-13.5 28.5q59 68 119.5 136t120.5 134q16 -14 36 -25.5t40 -23.5q-35 -37 -67 -76t-66 -80q90 -8 139 -47t49 -108q0 -47 -23.5 -91.5t-74 -79t-128 -56t-188.5 -21.5z " />
<glyph unicode="&#xba;" horiz-adv-x="782" d="M76 827q0 78 21.5 152t68.5 130t120 91t175 35q82 0 140 -22.5t96 -60.5t56.5 -90t18.5 -114q0 -76 -21.5 -148.5t-67.5 -130t-121 -92t-179 -34.5q-164 0 -235.5 81t-71.5 203zM289 815q2 -49 24.5 -86t85.5 -37q47 0 78 24.5t48.5 62.5t23.5 83t6 84q-2 57 -22.5 97 t-81.5 40q-51 0 -83 -27.5t-49.5 -68.5t-23.5 -88t-6 -84z" />
<glyph unicode="&#xbb;" horiz-adv-x="978" d="M45 84l242 319l-164 324l123 82l284 -367l-10 -77l-370 -367zM416 84l239 319l-163 324l124 82l285 -367l-10 -77l-373 -367z" />
<glyph unicode="&#xf7;" d="M184 535l21 170h829l-20 -170h-830zM434 256q2 59 47.5 102t102.5 43q49 0 82.5 -32.5t31.5 -85.5q-2 -59 -45 -104.5t-102 -45.5q-49 0 -84 36t-33 87zM522 958q0 31 12.5 57.5t33 46t46 32t54.5 12.5q53 0 85.5 -34t30.5 -85q0 -31 -12 -57.5t-33.5 -48t-48 -33.5 t-53.5 -12q-51 0 -83 35.5t-32 86.5z" />
<glyph unicode="&#x2c6;" horiz-adv-x="1105" d="M252 1171l342 314h174l272 -314l-71 -86l-305 203l-351 -201z" />
<glyph unicode="&#x2da;" horiz-adv-x="1112" d="M436 1360q2 51 24.5 97t57.5 81t83 56.5t104 21.5q111 0 168 -68.5t49 -165.5q-2 -55 -26 -103t-60.5 -83t-84 -54.5t-98.5 -19.5t-92 19.5t-70.5 51.5t-44 75t-10.5 92zM565 1364q-4 -47 22.5 -83t82.5 -36q53 0 87 39t38 90q4 47 -23 80t-74 33q-53 0 -91 -35t-42 -88z " />
<glyph unicode="&#x2dc;" horiz-adv-x="1105" d="M291 1219q47 98 104.5 144t122.5 46q43 0 87 -12.5t87 -26.5t84 -26.5t76 -12.5l121 82l69 -65q-39 -92 -96 -142.5t-127 -50.5q-49 0 -96 12.5t-90 27.5t-80 27.5t-68 12.5l-120 -80z" />
<glyph unicode="&#x3a9;" horiz-adv-x="1486" d="M6 0q14 96 25 201h207q0 2 4 10q-63 57 -85 150.5t-22 205.5q0 168 40 325t126 277.5t221.5 192.5t323.5 72q156 0 265.5 -45.5t179 -124t102 -185t32.5 -231.5q0 -94 -15 -187.5t-44 -176.5t-74 -153.5t-102 -117.5q0 -4 2 -7t2 -5h201l-25 -201h-579l24 205 q80 20 137.5 83.5t94 152.5t54 196.5t17.5 216.5q0 164 -62.5 262t-211.5 98q-109 0 -185.5 -52t-126 -144t-72 -216t-22.5 -267q0 -131 47 -217.5t123 -110.5l-24 -207h-578z" />
<glyph unicode="&#x3c0;" horiz-adv-x="1142" d="M55 0q27 231 56.5 475t66.5 531h922q-16 -154 -32.5 -300.5t-32 -276.5t-29 -239.5t-21.5 -189.5h-283q4 33 11.5 97.5t16.5 143t19.5 166t19.5 167t16.5 143t11.5 96.5h-361q-8 -68 -21.5 -177.5t-27.5 -228t-27.5 -229t-21.5 -178.5h-283z" />
<glyph unicode="&#x401;" horiz-adv-x="1187" d="M92 0l172 1409h932l-27 -213h-637l-43 -358h543l-24 -201h-543l-53 -422h675l-26 -215h-969zM418 1606q2 61 47 101t108 40q61 0 94 -30.5t33 -82.5q0 -66 -43 -106.5t-114 -40.5q-63 0 -94 33.5t-31 85.5zM842 1604q2 63 43.5 103t107.5 40q63 0 95 -30.5t32 -82.5 q-2 -66 -44 -106.5t-115 -40.5q-61 0 -91 32.5t-28 84.5z" />
<glyph unicode="&#x402;" horiz-adv-x="1673" d="M156 1190l28 219h1229l-29 -219h-518l-43 -367q92 35 183.5 50.5t171.5 15.5q90 0 165.5 -22.5t131 -69.5t86 -120t30.5 -173q0 -129 -47 -246t-120.5 -214t-163 -172t-173.5 -122l-104 156q61 47 115.5 105.5t94.5 126t62.5 143t22.5 157.5q0 129 -54.5 182.5 t-156.5 53.5q-59 0 -129 -13.5t-139 -39.5l-76 -621h-291l146 1190h-422z" />
<glyph unicode="&#x403;" horiz-adv-x="1140" d="M100 0l170 1409h940l-26 -217h-645l-146 -1192h-293zM616 1610l388 291l116 -177l-428 -227z" />
<glyph unicode="&#x404;" horiz-adv-x="1245" d="M129 555q0 86 13.5 185.5t47 196.5t89 187t139.5 160t199.5 111t269.5 41q94 0 186 -16.5t166 -41.5q-14 -55 -28.5 -109.5t-30.5 -109.5q-78 23 -151 30t-132 7q-166 0 -274.5 -92t-153.5 -273q123 4 245 6.5t244 4.5l-24 -219l-246 4t-246 6q-4 -35 -7 -65.5t-3 -59.5 q0 -152 81 -220.5t271 -68.5q25 0 63 2t83 7t90 13.5t86 18.5l37 -207q-45 -18 -102.5 -31.5t-117 -22.5t-120 -13t-111.5 -4q-166 0 -274.5 43t-173 118.5t-90 181t-25.5 230.5z" />
<glyph unicode="&#x405;" horiz-adv-x="1239" d="M59 92l84 213q139 -59 251 -75.5t181 -16.5q123 0 196 43t77 147q0 45 -14.5 75t-40 49.5t-63.5 33.5t-87 29q-92 25 -175 52.5t-145.5 70.5t-99.5 106.5t-37 161.5q0 109 39 192.5t113 142t178.5 89.5t235.5 31q43 0 96 -5.5t108.5 -16.5t109.5 -30.5t101 -46.5 l-92 -207q-96 43 -188 56.5t-166 13.5q-92 0 -155.5 -44t-65.5 -138q0 -41 19.5 -67.5t53 -47t78.5 -35t97 -26.5q63 -18 135.5 -41t134 -65t101.5 -111.5t40 -180.5q0 -236 -164 -350t-456 -114q-104 0 -233.5 23.5t-246.5 88.5z" />
<glyph unicode="&#x406;" horiz-adv-x="612" d="M109 0l172 1409h292l-172 -1409h-292z" />
<glyph unicode="&#x407;" horiz-adv-x="612" d="M104 1638q2 63 47.5 103.5t108.5 40.5q66 0 97.5 -32t31.5 -83q-2 -66 -44 -106.5t-116 -40.5q-63 0 -94 32.5t-31 85.5zM109 0l172 1409h292l-172 -1409h-292zM530 1638q0 63 43 103.5t109 40.5q63 0 96 -32t33 -83q0 -66 -43 -106.5t-117 -40.5q-63 0 -93 32.5 t-28 85.5z" />
<glyph unicode="&#x408;" horiz-adv-x="724" d="M-180 -184q129 51 206.5 103t120.5 110.5t60.5 129t30.5 160.5l135 1092h295l-138 -1102q-18 -145 -61 -262t-120 -204t-194.5 -146t-283.5 -90z" />
<glyph unicode="&#x409;" horiz-adv-x="2066" d="M-12 141q119 41 194.5 106.5t124.5 168t79 250t54 352.5l49 391h854l-69 -551h278q199 0 318 -96t119 -283q0 -109 -38 -197.5t-104.5 -151t-157 -96.5t-196.5 -34h-619l150 1208h-293l-16 -137q-29 -223 -66 -415.5t-108.5 -341t-190.5 -247t-307 -133.5zM1194 207h252 q47 0 90 15.5t77 48t53.5 80.5t19.5 114q0 98 -61.5 143t-149.5 45h-226z" />
<glyph unicode="&#x40a;" horiz-adv-x="2027" d="M94 0l170 1409h295l-70 -555h447l70 555h294l-69 -551h278q98 0 179 -24.5t138.5 -71.5t89.5 -118t32 -165q0 -109 -38 -197.5t-104.5 -151t-158 -96.5t-195.5 -34h-621l80 649h-446l-78 -649h-293zM1153 207h250q47 0 91 15.5t77 48t52 80.5t19 114q0 98 -60 141 t-148 43h-228z" />
<glyph unicode="&#x40b;" horiz-adv-x="1673" d="M125 1190l27 219h1232l-26 -219h-514l-45 -354q92 31 186 47t180 16q94 0 172 -20.5t130.5 -65.5t76 -113.5t10.5 -162.5l-69 -537h-293l61 496q14 113 -39 152.5t-155 39.5q-74 0 -152 -18.5t-135 -42.5l-76 -627h-290l145 1190h-426z" />
<glyph unicode="&#x40c;" horiz-adv-x="1310" d="M92 0l172 1405h289q-6 -53 -15.5 -126t-18.5 -149.5t-17 -150.5t-15 -127h162q86 0 150.5 41t107.5 151l137 361h285q-12 -37 -32.5 -91t-42 -111.5t-42 -112t-32.5 -91.5q-35 -86 -89.5 -152.5t-132.5 -94.5l-2 -13q92 -31 133 -99.5t58 -164.5l67 -475h-290 q-6 41 -15.5 98.5t-18.5 117.5t-17.5 117.5t-14.5 98.5q-8 59 -29.5 98t-50 60.5t-64.5 30t-73 8.5h-182l-76 -629h-291zM653 1593l387 291l117 -176l-428 -227z" />
<glyph unicode="&#x40e;" horiz-adv-x="1245" d="M137 6l60 203q35 -8 65.5 -13.5t54.5 -5.5q53 0 96.5 15.5t71.5 75.5l56 116h-74l-326 1010h297q37 -137 63.5 -241.5t51.5 -198.5q23 -92 45.5 -180.5t54.5 -200.5h11q35 76 76.5 181t93.5 228l180 412h295l-566 -1212q-53 -111 -139 -169.5t-196 -58.5 q-68 0 -126.5 6.5t-144.5 32.5zM395 1749l127 94q51 -86 117 -130t121 -44q18 0 44.5 3t65.5 18.5t91.5 47t117.5 91.5l66 -78q-55 -76 -110.5 -127t-109 -82t-103.5 -44t-93 -13q-59 0 -107.5 21.5t-90.5 57t-75.5 84t-60.5 101.5z" />
<glyph unicode="&#x40f;" horiz-adv-x="1425" d="M94 0l172 1407h291l-147 -1196h548l148 1196h295l-170 -1407h-449l-47 -379h-235l49 379h-455z" />
<glyph unicode="&#x410;" horiz-adv-x="1320" d="M-33 0l637 1409h371l276 -1409h-297l-55 322h-500q-4 -8 -24.5 -56.5t-45 -105t-45 -104.5t-22.5 -56h-295zM489 528h375l-57 342l-41 320h-8l-121 -309z" />
<glyph unicode="&#x411;" horiz-adv-x="1290" d="M94 0l172 1409h928l-25 -207h-634l-43 -344h280q199 0 317.5 -95t118.5 -284q0 -111 -37.5 -198.5t-104.5 -150t-158 -96.5t-195 -34h-619zM414 207h250q47 0 91 16.5t76.5 49t52 80.5t19.5 112q0 98 -60.5 143t-150.5 45h-225z" />
<glyph unicode="&#x412;" horiz-adv-x="1306" d="M92 0l170 1407h596q199 0 291 -88t92 -242q0 -98 -52 -189t-169 -143l-4 -14q57 -20 93 -56t56.5 -78t27.5 -85t7 -80q0 -98 -39 -177t-104.5 -136.5t-154.5 -88t-187 -30.5h-623zM410 213h245q121 0 182.5 70.5t61.5 171.5q0 72 -46 122t-144 50h-248 q-6 -45 -13.5 -98.5t-13.5 -108.5t-12 -108.5t-12 -98.5zM485 821h217q109 0 170.5 58.5t61.5 156.5q0 72 -44 115t-138 43h-222q-4 -41 -10 -88t-12 -97.5t-11 -98.5t-12 -89z" />
<glyph unicode="&#x413;" horiz-adv-x="1140" d="M100 0l170 1409h940l-26 -217h-645l-146 -1192h-293z" />
<glyph unicode="&#x414;" horiz-adv-x="1490" d="M-70 -360l68 567l131 4q74 72 126 166t91 208.5t68.5 250t58.5 288.5l55 285h883l-147 -1198l139 -4l-70 -567h-225l45 360h-954l-45 -360h-224zM430 211h543l123 991h-342l-29 -137q-31 -164 -59.5 -294t-60.5 -233.5t-74 -183.5t-101 -143z" />
<glyph unicode="&#x415;" horiz-adv-x="1187" d="M92 0l172 1409h932l-27 -213h-637l-43 -358h543l-24 -201h-543l-53 -422h675l-26 -215h-969z" />
<glyph unicode="&#x416;" horiz-adv-x="1970" d="M-4 0l192 494q35 88 87.5 153.5t150.5 91.5l2 11q-70 29 -112 93t-52 156q-2 14 -10 74t-17.5 129.5t-17.5 129t-10 73.5h280l54 -361q8 -61 32.5 -99t55.5 -58.5t66.5 -27.5t70.5 -7h127q6 53 15.5 127t18.5 150.5t18 149.5t16 126h284l-67 -553h129q90 0 156.5 49 t103.5 154l125 350h282q-12 -37 -30.5 -92.5t-39 -113.5t-40 -112.5t-31.5 -91.5q-29 -90 -82 -153.5t-131 -91.5v-13q92 -29 131 -98.5t51 -153.5l70 -485h-291l-65 432q-29 197 -222 197h-141q-8 -61 -18.5 -144.5t-20.5 -171.5t-21.5 -170t-19.5 -143h-284 q12 104 23 200.5t21.5 178.5t18.5 146.5t14 103.5h-143q-39 0 -77 -8.5t-71.5 -30t-64.5 -60t-53 -98.5q-4 -10 -16.5 -44t-30 -78t-37 -94t-36.5 -94t-30.5 -78t-17.5 -44h-295z" />
<glyph unicode="&#x417;" horiz-adv-x="1216" d="M16 78l80 196q104 -35 198.5 -48t160.5 -13q178 0 268 67.5t90 190.5q0 88 -63.5 135t-182.5 47h-170q2 8 5.5 36t6.5 59.5t6 59.5t5 38h153q129 0 201 59.5t72 145.5t-61.5 121.5t-178.5 35.5q-80 0 -175 -14t-175 -43l-49 197q96 39 225 63.5t254 24.5q96 0 182 -17.5 t150.5 -57.5t102.5 -103.5t38 -155.5q0 -109 -60.5 -198t-183.5 -138l-2 -10q55 -18 95.5 -48t66 -69t37.5 -82t12 -88q0 -121 -51 -211t-139 -150.5t-203 -91t-239 -30.5q-51 0 -112 4t-124 15t-124.5 28.5t-115.5 44.5z" />
<glyph unicode="&#x418;" horiz-adv-x="1445" d="M92 0l170 1405h293q-33 -244 -62.5 -487.5t-60.5 -487.5h6q12 18 51 72.5t94.5 131.5t120 167t130.5 180l303 426h142.5t141.5 -2l-174 -1405h-286q31 242 60.5 481.5t57.5 481.5h-6l-186 -263q-129 -180 -255 -357t-249 -343h-291z" />
<glyph unicode="&#x419;" horiz-adv-x="1445" d="M92 0l170 1405h293q-33 -244 -62.5 -487.5t-60.5 -487.5h6q12 18 51 72.5t94.5 131.5t120 167t130.5 180l303 426h142.5t141.5 -2l-174 -1405h-286q31 242 60.5 481.5t57.5 481.5h-6l-186 -263q-129 -180 -255 -357t-249 -343h-291zM504 1780l127 92q53 -88 117.5 -131 t117.5 -43q18 0 45 2t65 17.5t89 47t121 93.5l80 -80q-55 -76 -112.5 -127.5t-113 -83t-106.5 -45t-94 -13.5q-59 0 -108.5 22.5t-91.5 60.5t-76 86t-60 102z" />
<glyph unicode="&#x41a;" horiz-adv-x="1310" d="M92 0l172 1405h289q-6 -53 -15.5 -126t-18.5 -149.5t-17 -150.5t-15 -127h162q86 0 150.5 41t107.5 151l137 361h285q-12 -37 -32.5 -91t-42 -111.5t-42 -112t-32.5 -91.5q-35 -86 -89.5 -152.5t-132.5 -94.5l-2 -13q92 -31 133 -99.5t58 -164.5l67 -475h-290 q-6 41 -15.5 98.5t-18.5 117.5t-17.5 117.5t-14.5 98.5q-8 59 -29.5 98t-50 60.5t-64.5 30t-73 8.5h-182l-76 -629h-291z" />
<glyph unicode="&#x41b;" horiz-adv-x="1439" d="M-27 150q119 39 194 103t123 165.5t75.5 248t52.5 351.5l47 391h950l-174 -1409h-293l144 1190h-379l-15 -119q-29 -223 -64.5 -415.5t-105 -341t-187.5 -247t-308 -133.5z" />
<glyph unicode="&#x41c;" horiz-adv-x="1748" d="M43 0l313 1407h308q23 -92 45 -188.5t43.5 -191.5t42 -183t39.5 -164l34 -199h17q23 51 43 100.5t39 96.5q12 31 36.5 88t55.5 128t64.5 148.5t64.5 148.5t55.5 128t38.5 88h338l-8 -1407h-287l27 784l6 230h-10l-95 -221q-47 -98 -88 -189.5t-84 -183.5l-133 -279h-231 q-41 160 -77 318.5t-73 320.5l-43 211h-10q-10 -55 -19.5 -109.5t-19.5 -109.5q-33 -193 -69.5 -386t-73.5 -386h-289z" />
<glyph unicode="&#x41d;" horiz-adv-x="1409" d="M94 0l170 1409h297q-6 -47 -15 -123t-19.5 -157.5t-19.5 -158.5t-15 -122h528l70 561h296l-172 -1409h-296l75 629h-528q-6 -51 -17.5 -137t-21.5 -178.5t-20.5 -177.5t-16.5 -136h-295z" />
<glyph unicode="&#x41e;" horiz-adv-x="1482" d="M129 563q0 170 43 328t132 278.5t225.5 192.5t322.5 72q154 0 260.5 -46.5t174 -127t98 -191.5t30.5 -240q0 -180 -47 -334.5t-137 -269t-223.5 -180t-305.5 -65.5q-150 0 -258 41.5t-177.5 118.5t-103.5 184.5t-34 238.5zM436 553q0 -172 65.5 -263t219.5 -91 q104 0 178 55t120 145t67.5 208t21.5 241q0 76 -12.5 142.5t-43 117.5t-82.5 81t-132 30q-117 0 -195 -61.5t-124 -158t-64.5 -215t-18.5 -231.5z" />
<glyph unicode="&#x41f;" horiz-adv-x="1439" d="M109 0l172 1409h1122l-174 -1409h-297l145 1188h-530l-144 -1188h-294z" />
<glyph unicode="&#x420;" horiz-adv-x="1183" d="M92 0l174 1409h514q217 0 318.5 -102.5t101.5 -282.5q0 -88 -28.5 -175t-90 -155.5t-156 -110.5t-225.5 -42h-249l-64 -541h-295zM477 748h193q43 0 84 13t73.5 44t53 81t20.5 122q0 98 -51 143t-135 45h-183z" />
<glyph unicode="&#x421;" horiz-adv-x="1245" d="M133 561q0 86 13.5 185.5t46 196.5t88 186.5t139.5 157t199.5 108.5t269.5 41q94 0 185 -15.5t167 -42.5l-59 -217q-78 23 -151 30t-134 7q-213 0 -336 -154.5t-123 -463.5q0 -182 79 -271.5t269 -89.5q25 0 63 3t82 8.5t90 13.5t85 18l39 -207q-45 -18 -102.5 -31.5 t-118 -23.5t-121 -15t-111.5 -5q-164 0 -272.5 44t-172 121.5t-89 184t-25.5 231.5z" />
<glyph unicode="&#x422;" horiz-adv-x="1212" d="M121 1190l29 219h1157l-29 -219h-432l-146 -1190h-290l143 1190h-432z" />
<glyph unicode="&#x423;" horiz-adv-x="1245" d="M137 6l60 203q35 -8 65.5 -13.5t54.5 -5.5q53 0 96.5 15.5t71.5 75.5l56 116h-74l-326 1010h297q37 -137 63.5 -241.5t51.5 -198.5q23 -92 45.5 -180.5t54.5 -200.5h11q35 76 76.5 181t93.5 228l180 412h295l-566 -1212q-53 -111 -139 -169.5t-196 -58.5 q-68 0 -126.5 6.5t-144.5 32.5z" />
<glyph unicode="&#x424;" horiz-adv-x="1722" d="M104 653q0 127 49.5 242t143.5 202t228 141t304 60q4 29 7.5 55.5t7.5 53.5h289l-15 -109q143 -6 250 -50t177.5 -113.5t105.5 -161.5t35 -197q0 -135 -49.5 -248.5t-141.5 -196.5t-223 -133.5t-295 -60.5l-19 -137h-286l14 137q-287 16 -434.5 156.5t-147.5 359.5z M395 666q0 -145 83 -225.5t235 -94.5q23 186 45 369.5t45 369.5q-98 -8 -174 -43.5t-128 -91t-79 -128t-27 -156.5zM1001 346q88 8 161 42t125 88t81 126t29 158q0 59 -18.5 115.5t-56.5 101.5t-95.5 73.5t-132.5 34.5z" />
<glyph unicode="&#x425;" horiz-adv-x="1284" d="M-35 0q135 184 269.5 364.5t269.5 366.5q-82 166 -167 337t-171 339h328q53 -125 104 -251t107 -251q82 123 165.5 251t167.5 251h338q-131 -172 -262 -341t-260 -341q88 -180 179 -362.5t179 -362.5h-321q-59 131 -117.5 270.5t-118.5 272.5q-92 -133 -181 -272.5 t-179 -270.5h-330z" />
<glyph unicode="&#x426;" horiz-adv-x="1486" d="M92 0l172 1405h293q-39 -299 -76 -598t-71 -600h532q35 301 72 600t73 598h297l-147 -1198h174l-68 -565h-219q10 92 21.5 181t23.5 177h-1077z" />
<glyph unicode="&#x427;" horiz-adv-x="1329" d="M131 887l64 518h294l-55 -457q-12 -104 49.5 -153.5t167.5 -49.5q66 0 146 14.5t139 37.5q20 152 38.5 303t37.5 305h291l-173 -1405h-290q18 143 35.5 284.5t33.5 286.5q-82 -23 -171 -36t-165 -13q-100 0 -186 20.5t-147.5 64.5t-91 112.5t-17.5 167.5z" />
<glyph unicode="&#x428;" horiz-adv-x="1976" d="M94 0l170 1409h291l-147 -1198h409l148 1198h284l-147 -1198h407l148 1198h295l-172 -1409h-1686z" />
<glyph unicode="&#x429;" horiz-adv-x="2052" d="M94 0l170 1409h291l-147 -1198h409l148 1198h284l-147 -1198h407l148 1198h295l-148 -1198h174l-69 -571h-219l47 360h-1643z" />
<glyph unicode="&#x42a;" horiz-adv-x="1562" d="M72 1190l26 219h750l-68 -551h267q98 0 181 -22.5t143.5 -69.5t93 -117.5t32.5 -167.5q0 -119 -40 -209t-107.5 -150.5t-159.5 -91t-197 -30.5h-606l141 1190h-456zM700 199h246q51 0 97.5 17t80 51t53 84t19.5 118q0 98 -60.5 145.5t-152.5 47.5h-225z" />
<glyph unicode="&#x42b;" horiz-adv-x="1822" d="M94 0l172 1409h295l-65 -551h276q96 0 177 -24.5t138.5 -72.5t89 -119t31.5 -165q0 -111 -37.5 -199t-105.5 -150t-158 -95t-194 -33h-619zM414 207h252q45 0 89 15.5t76.5 47t53 78.5t20.5 111q0 102 -60.5 148t-148.5 46h-227zM1335 0l172 1409h291l-172 -1409h-291z " />
<glyph unicode="&#x42c;" horiz-adv-x="1275" d="M94 0l172 1409h295l-65 -551h276q96 0 177 -24.5t138.5 -72.5t89 -119t31.5 -165q0 -111 -37.5 -199t-105.5 -150t-158 -95t-194 -33h-619zM414 207h252q45 0 89 15.5t76.5 47t53 78.5t20.5 111q0 102 -60.5 148t-148.5 46h-227z" />
<glyph unicode="&#x42d;" horiz-adv-x="1249" d="M29 51q16 53 33.5 105.5t35.5 105.5q74 -23 158 -33t143 -10q203 0 316.5 113.5t136.5 300.5l-483 -8l24 215l477 -11q0 8 1 16.5t1 16.5q0 72 -17 133.5t-56 105.5t-102.5 69.5t-153.5 25.5q-39 0 -73 -3t-69.5 -7t-73.5 -11.5t-85 -15.5q-10 53 -20.5 107.5 t-20.5 107.5q82 27 182 43.5t205 16.5q172 0 286.5 -48.5t183 -128t96.5 -184t28 -217.5q0 -160 -37 -316.5t-124 -280.5t-230.5 -199.5t-354.5 -75.5q-104 0 -215.5 16t-191.5 51z" />
<glyph unicode="&#x42e;" horiz-adv-x="2007" d="M92 0l172 1407h293l-74 -582h252q27 125 79 235.5t133 193.5t195.5 131.5t266.5 48.5q147 0 250.5 -45.5t170 -125t96.5 -189t30 -236.5q0 -182 -45 -338t-132 -270.5t-217 -180t-300 -65.5q-147 0 -252 39.5t-172.5 114.5t-99 182.5t-31.5 240.5v34.5t2 37.5h-248 q-18 -160 -38 -317.5t-40 -315.5h-291zM1006 539q0 -166 63.5 -254t210.5 -88q98 0 170 56t117 149.5t66.5 212t21.5 243.5q0 74 -13.5 138.5t-44 112.5t-80.5 75.5t-124 27.5q-111 0 -185.5 -62.5t-120 -160.5t-63.5 -218t-18 -232z" />
<glyph unicode="&#x42f;" horiz-adv-x="1294" d="M2 0l158 401q14 39 34.5 77t48 71t64.5 58.5t88 37.5l-2 8q-96 41 -141 127t-45 187q0 92 29.5 173t89 140t147.5 94t207 35h584l-168 -1409h-293l74 569h-144q-96 0 -166.5 -40t-117.5 -158l-146 -371h-301zM506 963q0 -55 17.5 -91t44 -57.5t60.5 -30t66 -8.5h209 l51 418h-223q-41 0 -81 -11.5t-72.5 -39t-52 -71.5t-19.5 -109z" />
<glyph unicode="&#x430;" horiz-adv-x="1179" d="M66 356q0 119 30.5 239t95 216t166 155.5t240.5 59.5q53 0 116.5 -10t129.5 -37l22 53l232 -10q-29 -186 -58.5 -394t-54.5 -431l115 2l16 -158q-61 -31 -122.5 -42t-108.5 -11q-78 0 -120 30.5t-44 120.5l-4 4q-45 -43 -93.5 -72.5t-93.5 -49t-86 -27.5t-71 -8 q-82 0 -140.5 26.5t-95.5 74.5t-54 116.5t-17 152.5zM350 408q0 -115 40 -161t99 -46q57 0 121 31.5t115 72.5l66 483q-47 16 -92.5 22.5t-82.5 6.5q-43 0 -90 -23.5t-86 -72.5t-64.5 -127t-25.5 -186z" />
<glyph unicode="&#x431;" horiz-adv-x="1136" d="M82 420q0 53 5 116.5t14.5 130t21.5 131t27 120.5q53 205 148 336.5t249 179.5q49 14 107.5 23t121 15.5t127 14.5t125.5 20q2 -14 6 -40.5t9.5 -55.5t9.5 -56.5t8 -41.5q-68 -16 -124 -23.5t-107.5 -11.5t-99.5 -11t-99 -22q-96 -29 -154.5 -118t-89.5 -246l10 -9 q90 72 178.5 100.5t151.5 28.5q178 0 263 -107.5t85 -289.5q0 -113 -32.5 -224.5t-102.5 -199.5t-176.5 -142t-255.5 -54q-131 0 -214 33.5t-130 93t-64.5 138.5t-17.5 171zM352 406q0 -43 5 -83t23.5 -71t53.5 -49.5t94 -18.5q57 0 103.5 33t80 90.5t52 136t18.5 168.5 q0 106 -40 148.5t-99 42.5t-130 -34t-122 -75q-20 -88 -29.5 -163.5t-9.5 -124.5z" />
<glyph unicode="&#x432;" horiz-adv-x="1077" d="M63 100l62 525q10 90 45 164.5t93.5 129t138 84t182.5 29.5q76 0 144.5 -16.5t119.5 -49t80.5 -79.5t32.5 -111q0 -53 -26 -109.5t-97 -99.5l-2 -10q51 -10 84.5 -32.5t54 -51.5t29 -59.5t8.5 -55.5q0 -68 -28 -135t-86 -120.5t-150.5 -87t-223.5 -35.5q-106 0 -216.5 18 t-221.5 70zM346 209q41 -16 91 -23.5t85 -7.5q96 2 152.5 49t54.5 119q0 45 -38 78t-120 33h-77l18 157h51q68 0 112 35t44 94q0 45 -32 74t-97 29q-80 0 -131 -53.5t-62 -151.5z" />
<glyph unicode="&#x433;" horiz-adv-x="942" d="M49 221q0 70 34 128.5t88 105.5t120.5 86t132.5 69q68 31 122 67t54 83q0 45 -31.5 58t-68.5 13q-59 0 -133 -22.5t-160 -58.5l-68 157q94 59 208.5 92t225.5 33q147 0 234.5 -60.5t87.5 -178.5q0 -61 -30.5 -111.5t-86 -94.5t-132.5 -86t-169 -85q-76 -33 -108.5 -70 t-32.5 -84q0 -39 29.5 -59.5t76.5 -20.5q33 0 76 6.5t90 18.5t96.5 29.5t96.5 39.5l69 -159q-55 -37 -117.5 -62.5t-125 -43t-122 -26t-108.5 -8.5q-170 0 -259 52.5t-89 191.5z" />
<glyph unicode="&#x434;" horiz-adv-x="1163" d="M74 393q0 113 33.5 223.5t99 198.5t163 143.5t224.5 55.5q66 0 120 -8.5t113 -30.5l9 4q10 160 -46.5 235.5t-189.5 75.5q-27 0 -54.5 -1t-60 -6t-73.5 -13t-97 -23q-10 45 -21 91t-22 94q180 67 336 67q137 0 230.5 -37t151 -107.5t83 -174t25.5 -238.5q0 -78 -7.5 -178 t-30 -206.5t-62.5 -209t-105.5 -184.5t-160.5 -131t-226 -49q-129 0 -212 31.5t-132 87t-68.5 130t-19.5 160.5zM360 375q0 -92 36 -142.5t114 -50.5q72 0 123 47t87 127t57.5 187.5t31.5 232.5q-43 16 -88 23.5t-84 7.5q-72 0 -123 -35t-86 -94.5t-51.5 -138t-16.5 -164.5z " />
<glyph unicode="&#x435;" horiz-adv-x="1042" d="M70 397q0 106 28.5 220t96 206t179 151.5t277.5 59.5q160 0 248 -71.5t88 -206.5q0 -154 -154.5 -254.5t-476.5 -118.5v-25q0 -35 7.5 -66.5t27 -56t55 -39t91.5 -14.5q72 0 156.5 18.5t158.5 47.5l55 -162q-43 -25 -98 -44t-113.5 -32.5t-115 -20.5t-101.5 -7 q-127 0 -206.5 33.5t-125 91t-61.5 133t-16 157.5zM360 528q178 10 270.5 56.5t92.5 138.5q0 45 -25.5 76.5t-85.5 31.5q-106 0 -171 -78t-81 -225z" />
<glyph unicode="&#x436;" horiz-adv-x="1716" d="M6 0l141 348q29 68 69 114t120 64l4 11q-61 16 -91 66t-40 122l-35 283h268l41 -254q6 -45 21.5 -72t37 -40t48 -17t55.5 -4h105l45 385h280l-45 -385h100q29 0 56.5 4t52.5 17t46.5 40t39.5 72l102 254h269l-105 -283q-27 -66 -68.5 -119t-103.5 -69l-2 -11 q76 -23 102.5 -71.5t41.5 -114.5l65 -340h-280l-52 289q-16 90 -58 121.5t-106 31.5h-122l-54 -442h-280l53 442h-119q-66 0 -115 -31.5t-87 -121.5l-121 -289h-279z" />
<glyph unicode="&#x437;" horiz-adv-x="958" d="M2 51l66 178q74 -27 139 -37t127 -10q51 0 97 10.5t80 31t53.5 52t19.5 72.5q0 31 -14.5 51.5t-36 31.5t-47 16.5t-50.5 5.5h-135l21 159h112q27 0 56.5 7.5t54 21.5t40 37.5t15.5 54.5q0 51 -48 74.5t-120 23.5q-53 0 -122.5 -10t-157.5 -39l-37 174q100 41 203.5 58.5 t199.5 17.5q174 0 274.5 -65.5t100.5 -182.5q0 -29 -9.5 -61.5t-29.5 -64t-55 -59.5t-86 -46l-2 -10q90 -23 130 -80t40 -129q0 -76 -34 -140.5t-98.5 -111.5t-157.5 -73.5t-210 -26.5t-209 17t-170 52z" />
<glyph unicode="&#x438;" horiz-adv-x="1099" d="M68 203q0 27 2 53.5t6 52.5l76 697h282l-78 -658q-2 -10 -2 -19.5v-19.5q0 -53 26 -78.5t85 -25.5q51 0 110.5 27.5t124.5 91.5l86 682h281q-31 -252 -60.5 -496t-58.5 -510h-262l10 135l-6 4q-111 -92 -206 -127t-167 -35q-76 0 -125 17.5t-76.5 47.5t-37.5 71t-10 90z " />
<glyph unicode="&#x439;" horiz-adv-x="1099" d="M68 203q0 27 2 53.5t6 52.5l76 697h282l-78 -658q-2 -10 -2 -19.5v-19.5q0 -53 26 -78.5t85 -25.5q51 0 110.5 27.5t124.5 91.5l86 682h281q-31 -252 -60.5 -496t-58.5 -510h-262l10 135l-6 4q-111 -92 -206 -127t-167 -35q-76 0 -125 17.5t-76.5 47.5t-37.5 71t-10 90z M295 1391l127 92q53 -86 111.5 -130t123.5 -44q18 0 46 4t68 19.5t90 47t116 88.5l67 -75q-55 -76 -110 -127.5t-109.5 -83t-104.5 -45t-93 -13.5q-59 0 -107.5 21.5t-89.5 58.5t-74.5 85t-60.5 102z" />
<glyph unicode="&#x43a;" horiz-adv-x="1128" d="M55 0q4 33 13.5 110.5t21.5 179t25.5 214t26 213t22.5 178.5t14 111h283l-49 -385h129q31 0 58.5 4t52 17t46 40t39.5 72l103 254h270l-109 -283q-27 -66 -67.5 -119t-104.5 -69v-11q37 -10 61.5 -28.5t39 -42t24 -53t15.5 -62.5l67 -340h-276l-51 289 q-16 90 -57.5 121.5t-104.5 31.5h-158q-4 -35 -12 -95t-15.5 -125.5t-14.5 -126t-11 -95.5h-281z" />
<glyph unicode="&#x43b;" horiz-adv-x="1122" d="M-31 129q80 33 132.5 76t86 107.5t53 158.5t33.5 229l35 308h781q-4 -31 -13.5 -108t-22 -176t-25.5 -211t-24.5 -213t-21.5 -182t-14 -118h-281l96 815h-241l-8 -86q-16 -164 -44 -297t-82.5 -234.5t-142.5 -169t-225 -98.5z" />
<glyph unicode="&#x43c;" horiz-adv-x="1501" d="M4 0q66 260 130.5 508t129.5 500h324q27 -131 53.5 -257t54.5 -255q10 -41 17.5 -81t15.5 -81h12l62 141q66 135 126 266t128 265h327q0 -236 6.5 -498t8.5 -508h-279q0 51 1 114.5t2 131t2 134t1 124.5l4 180h-10q-16 -35 -33.5 -74t-33.5 -78q-53 -115 -109.5 -224 t-103.5 -226l-267 -8q-12 47 -24 102t-25.5 112.5t-26 115t-22.5 108.5l-39 184h-8q-10 -39 -16 -76.5t-17 -78.5q-27 -135 -55.5 -270.5t-56.5 -270.5h-279z" />
<glyph unicode="&#x43d;" horiz-adv-x="1146" d="M53 0q31 252 60.5 503t62.5 503h287l-49 -383h362q6 37 12.5 87t13.5 104t13 104.5t10 87.5h287q-31 -252 -62.5 -503t-60.5 -503h-284q4 43 11 100.5t14 118t14.5 117.5t13.5 100h-367q-4 -43 -11 -100t-14.5 -117.5t-14.5 -118t-13 -100.5h-285z" />
<glyph unicode="&#x43e;" horiz-adv-x="1130" d="M70 406q0 119 32.5 231.5t101 199.5t174.5 140t251 53q117 0 199.5 -32.5t136 -91t78 -137.5t24.5 -171q0 -113 -29.5 -223.5t-96.5 -197.5t-173 -141t-260 -54q-123 0 -206 31.5t-135 89t-74.5 135t-22.5 168.5zM360 385q0 -41 8.5 -77t27 -62.5t51 -43t81.5 -16.5 q74 0 121 41t76 102.5t40 135.5t11 139q0 43 -8 82t-26.5 68.5t-49.5 47t-78 17.5q-78 0 -127 -44t-76.5 -109.5t-39 -141t-11.5 -139.5z" />
<glyph unicode="&#x43f;" horiz-adv-x="1142" d="M53 0q31 252 62.5 501t60.5 505h273q-6 -39 -10.5 -69t-12.5 -67l8 -4q111 90 211 128t172 38q76 0 125 -19.5t77 -52t39 -76.5t11 -93v-38t-4 -40l-82 -713h-283l78 657q2 10 2 18.5v18.5q0 47 -23.5 76t-86.5 29q-49 0 -115 -28t-131 -89l-84 -682h-287z" />
<glyph unicode="&#x440;" horiz-adv-x="1153" d="M2 -428q2 18 11.5 85t21.5 165t27.5 220t31 247t29.5 246.5t26.5 220t20.5 165t10 85.5h271q-4 -35 -8.5 -67t-12.5 -67l8 -6q98 88 196.5 121t168.5 33q139 0 214 -100.5t75 -272.5q0 -115 -30 -233.5t-93.5 -215t-163.5 -157.5t-240 -61q-49 0 -112.5 8t-116.5 30 q-8 -70 -15.5 -127t-13.5 -109t-12 -103.5t-12 -106.5h-281zM362 217q47 -18 93.5 -23.5t83.5 -5.5q45 0 92 24t86 74t63.5 128t24.5 188q0 115 -40 160t-97 45q-59 0 -124 -33t-118 -74z" />
<glyph unicode="&#x441;" horiz-adv-x="954" d="M70 362q0 102 22.5 219t83 217.5t168 166t277.5 65.5q84 0 170 -20.5t153 -69.5l-74 -172q-72 31 -129 39t-102 8q-70 0 -123 -31.5t-90 -87t-55.5 -131.5t-18.5 -164q0 -94 46 -150t151 -56q63 0 126.5 14t135.5 39l51 -172q-80 -45 -188.5 -69.5t-206.5 -24.5 q-106 0 -181 28.5t-123 78.5t-70.5 120t-22.5 153z" />
<glyph unicode="&#x442;" horiz-adv-x="1697" d="M53 0q33 252 63.5 507t59.5 499h268q-6 -39 -10 -68t-10 -64l8 -4q109 92 204 126t148 34q115 0 167.5 -49t62.5 -125q53 47 108.5 80t104.5 54.5t90 30.5t69 9q70 0 115 -18.5t73 -50t39 -74.5t11 -92t-8 -138.5t-21.5 -198t-28 -228t-26.5 -230.5h-283q20 166 41 332 t39 332q2 10 2 17v17q0 55 -24.5 78t-75.5 23q-41 0 -100.5 -25.5t-124.5 -85.5l-76 -688h-281q18 166 39 332t41 332q2 10 2 17v17q0 55 -25.5 78t-76.5 23q-41 0 -96.5 -27t-120.5 -86l-82 -686h-285z" />
<glyph unicode="&#x443;" horiz-adv-x="1034" d="M-35 -408q4 14 10.5 40t13.5 55.5t13 55.5t10 40q51 -10 83 -14.5t67 -4.5q59 0 98 26t72 99q14 33 27.5 68t29.5 66h-129q-47 248 -93 492.5t-93 490.5h280q6 -35 13.5 -88.5t15.5 -113t16.5 -116.5t14.5 -98q8 -51 16 -112.5t15.5 -120t12.5 -105.5t9 -70h12 q4 10 17.5 47t32 87.5t40 105.5t39.5 102q6 12 22.5 52t38 95.5t46 117t46 115.5t37 95t21.5 54q18 -6 55 -15.5t77 -20.5t78 -20.5t56 -15.5q-33 -72 -74.5 -166t-90 -199.5t-98.5 -217t-98 -216t-90 -199t-73 -163.5q-57 -129 -144 -197.5t-216 -68.5q-41 2 -96.5 7 t-139.5 31z" />
<glyph unicode="&#x444;" horiz-adv-x="1509" d="M80 426q0 33 4 63.5t8 59.5q18 104 67.5 190t126 148.5t179 98.5t227.5 40l56 461h270q-16 -117 -28.5 -230.5t-28.5 -230.5q248 -8 367.5 -128t119.5 -318q0 -125 -39 -230.5t-115.5 -184.5t-192.5 -126t-270 -53l-49 -412h-270l51 412q-143 6 -236.5 45t-148.5 100.5 t-76.5 138t-21.5 156.5zM342 428q0 -117 61.5 -182.5t182.5 -75.5l82 661q-84 -6 -144.5 -39.5t-101.5 -88t-60.5 -125t-19.5 -150.5zM854 170q168 16 246 125.5t78 269.5q0 111 -56.5 184.5t-185.5 81.5q-20 -166 -39.5 -330.5t-42.5 -330.5z" />
<glyph unicode="&#x445;" horiz-adv-x="1079" d="M0 35l369 485q-61 123 -123 243t-125 243h315q35 -82 67 -168t66 -166h17q29 43 60.5 94t64 104.5t64.5 104.5t63 94l241 -102l-346 -441q66 -131 131.5 -263t130.5 -263h-307l-151 365h-17q-68 -102 -137.5 -213t-136.5 -213z" />
<glyph unicode="&#x446;" horiz-adv-x="1140" d="M68 203q0 27 2 53.5t6 52.5l76 697h282l-78 -658q-2 -10 -2 -19.5v-19.5q0 -53 26 -78.5t85 -25.5q51 0 110.5 27.5t124.5 91.5l84 682h285l-72 -611q-6 -47 -6 -90q0 -53 20.5 -98t84.5 -78l22 -37q-31 -119 -59.5 -232.5t-57.5 -238.5h-208q-18 16 -33 39 q29 90 58.5 169t58.5 159q-68 16 -108 59t-56 100q0 2 -1 1t-1 2q-98 -82 -198.5 -127.5t-195.5 -45.5q-76 0 -125 17.5t-76.5 47.5t-37.5 71t-10 90z" />
<glyph unicode="&#x447;" horiz-adv-x="1083" d="M84 511q-4 60 4 126l43 369h283l-37 -324q-4 -31 -2 -58.5t12 -49t31.5 -34t56.5 -12.5q49 0 115.5 23.5t132.5 83.5l45 371h285q-31 -254 -60.5 -504t-62.5 -502h-281q14 115 26.5 226.5t31.5 215.5l-9 4q-98 -84 -197.5 -116.5t-168.5 -32.5q-90 0 -142.5 28.5t-77 77 t-28.5 108.5z" />
<glyph unicode="&#x448;" horiz-adv-x="1679" d="M68 211q0 37 6 80l84 717h278l-78 -666q-2 -10 -2 -17.5v-15.5q0 -57 25 -79.5t78 -22.5q41 0 100 25.5t125 84.5q6 66 16.5 157t20.5 188.5t21.5 188.5t17.5 157h278l-77 -666q-2 -10 -2.5 -17.5t-0.5 -15.5q0 -57 25 -79.5t78 -22.5q41 0 96 27.5t121 91.5 q8 66 19.5 155.5t22.5 185t22.5 185.5t19.5 158h287q-33 -256 -64 -511t-59 -499h-266q4 31 6 72t6 63l-8 6q-111 -92 -201 -129t-152 -37q-115 0 -167 49.5t-62 125.5q-53 -47 -107.5 -80t-104.5 -54.5t-91 -31t-68 -9.5q-72 0 -118 17.5t-74.5 49.5t-39.5 75t-11 94z" />
<glyph unicode="&#x449;" horiz-adv-x="1720" d="M78 215q0 49 8 138t21.5 197.5t28 228.5t26.5 231h282q-20 -166 -40.5 -332t-38.5 -332q-2 -10 -2.5 -17t-0.5 -18q0 -55 25 -77.5t76 -22.5q41 0 100.5 25.5t124.5 85.5l76 688h280q-18 -166 -38.5 -332t-40.5 -332q-2 -10 -2 -17v-18q0 -55 25.5 -80.5t70.5 -25.5 q49 0 100 27.5t117 91.5l84 682h285l-72 -609q-6 -49 -6 -92q0 -53 19.5 -97t82.5 -79q6 -8 10 -17.5t11 -19.5q-29 -119 -55.5 -232.5t-55.5 -238.5h-209q-8 10 -16 19.5t-17 19.5q29 90 58.5 169t58.5 159q-70 16 -108.5 59t-55.5 100q-4 4 -4 3q-98 -84 -189 -127 t-179 -43q-115 0 -167.5 49t-62.5 125q-53 -47 -108.5 -80t-104.5 -54.5t-91 -30.5t-69 -9q-70 0 -114.5 18t-72.5 50t-39 75t-11 92z" />
<glyph unicode="&#x44a;" horiz-adv-x="1290" d="M31 809l22 197h574l-15 -140q-6 -57 -13 -111.5t-17 -101.5q2 0 5 -2t7 -2q78 66 172 111t192 45q127 0 200 -78t73 -219q0 -86 -32 -179t-99.5 -171t-173 -128t-252.5 -50q-35 0 -84 3t-106.5 12t-117 24.5t-112.5 39.5l-16 33q25 193 46 381.5t38 335.5h-291zM537 207 q37 -12 72.5 -17.5t70.5 -5.5q61 0 108.5 26t80 65.5t49 90t16.5 99.5q0 63 -33 93t-78 30q-47 0 -115.5 -30t-138.5 -93z" />
<glyph unicode="&#x44b;" horiz-adv-x="1566" d="M59 90l113 914h281l-17 -138q-6 -57 -14 -112.5t-19 -100.5q4 -4 11 -4q78 66 173 111t191 45q127 0 199 -78t72 -219q0 -86 -31 -179t-96.5 -171t-169 -128t-248.5 -50q-45 0 -98.5 3t-109.5 12t-113.5 24.5t-108.5 39.5zM358 207q29 -8 57.5 -14.5t94.5 -8.5 q59 0 104 26t76 65.5t47.5 90t16.5 99.5q0 63 -32 93t-79 30t-115.5 -31t-138.5 -92q-8 -66 -16 -129.5t-15 -128.5zM1118 0l123 1004h285l-123 -1004h-285z" />
<glyph unicode="&#x44c;" horiz-adv-x="1112" d="M59 90q16 131 33 270.5t30 263.5t25.5 224t18.5 156h283l-13 -138q-6 -57 -14 -112.5t-19 -100.5q4 -4 11 -4q78 66 173 111t191 45q127 0 199 -78t72 -219q0 -86 -31 -179t-96.5 -171t-169 -128t-248.5 -50q-45 0 -98.5 3t-109.5 12t-113.5 24.5t-108.5 39.5zM358 207 q43 -12 74 -16.5t78 -6.5q59 0 104 27t76 66.5t47.5 89t16.5 98.5q0 63 -32 93t-79 30t-115.5 -31t-138.5 -92q-8 -66 -16 -129.5t-15 -128.5z" />
<glyph unicode="&#x44d;" horiz-adv-x="948" d="M12 47l64 172q57 -18 117.5 -27.5t107.5 -9.5q127 0 203 67.5t94 203.5l-340 -9q6 41 10 79t11 77q82 -2 163.5 -4t165.5 -6q2 10 2 26q0 51 -18.5 91.5t-48 67t-68.5 39.5t-82 13q-33 0 -59.5 -2t-54 -7t-58.5 -14t-74 -24l-45 172q92 41 182.5 59.5t172.5 18.5 q215 0 323.5 -113.5t108.5 -312.5q0 -94 -23.5 -202.5t-86 -202t-174.5 -154.5t-288 -61q-88 0 -166.5 15t-138.5 48z" />
<glyph unicode="&#x44e;" horiz-adv-x="1570" d="M53 0q33 252 61.5 502t61.5 502h285l-49 -394h159q20 88 62.5 165t106 133.5t149.5 88t196 31.5q117 0 198 -33.5t131 -93t73.5 -138.5t23.5 -171q0 -117 -31.5 -226.5t-99 -194.5t-171 -136t-246.5 -51q-117 0 -196 32.5t-126 90t-67.5 136.5t-20.5 169v37h-160 q-14 -113 -26.5 -225.5t-28.5 -223.5h-285zM825 385q0 -41 7.5 -78t26 -64.5t50 -44t80.5 -16.5q70 0 116 41t73.5 103.5t38 136.5t10.5 139q0 45 -7.5 84t-24.5 68.5t-48 47t-78 17.5q-72 0 -119 -44t-74.5 -109.5t-39 -141t-11.5 -139.5z" />
<glyph unicode="&#x44f;" horiz-adv-x="1056" d="M-8 0l133 301q25 59 61.5 101t96.5 53v8q-86 29 -123 86t-37 131t25.5 139.5t81 113.5t141.5 75.5t204 27.5q33 0 84.5 -3t110.5 -11t126 -24.5t132 -41.5l-115 -956h-282l102 811q-31 12 -73 18.5t-70 6.5q-37 0 -70 -8.5t-58.5 -26t-40.5 -47t-15 -72.5q0 -66 51 -94.5 t155 -44.5l-18 -152q-90 0 -135 -27.5t-80 -103.5l-111 -260h-276z" />
<glyph unicode="&#x451;" horiz-adv-x="1042" d="M70 397q0 106 28.5 220t96 206t179 151.5t277.5 59.5q160 0 248 -71.5t88 -206.5q0 -154 -154.5 -254.5t-476.5 -118.5v-25q0 -35 7.5 -66.5t27 -56t55 -39t91.5 -14.5q72 0 156.5 18.5t158.5 47.5l55 -162q-43 -25 -98 -44t-113.5 -32.5t-115 -20.5t-101.5 -7 q-127 0 -206.5 33.5t-125 91t-61.5 133t-16 157.5zM258 1270q2 63 47.5 103t108.5 40q66 0 97.5 -31.5t31.5 -83.5q-2 -66 -44 -106.5t-116 -40.5q-63 0 -94 33t-31 86zM360 528q178 10 270.5 56.5t92.5 138.5q0 45 -25.5 76.5t-85.5 31.5q-106 0 -171 -78t-81 -225z M684 1270q0 63 43 103t109 40q63 0 96 -31.5t33 -83.5q0 -66 -43 -106.5t-117 -40.5q-63 0 -93 33t-28 86z" />
<glyph unicode="&#x452;" horiz-adv-x="1148" d="M53 0q6 57 17.5 149.5t25 202t27.5 227t27.5 226t23.5 199t16 145.5h-129l13 117h131l28 225h277q-2 -18 -6 -49t-8 -63.5t-7.5 -63.5t-5.5 -49h367l-14 -117h-367q-4 -33 -10 -79t-12.5 -93t-11.5 -87t-9 -59l6 -6q104 86 196.5 117t170.5 31q82 0 134 -35t83 -93.5 t42 -133t11 -156.5q0 -139 -28.5 -265t-80 -221.5t-123 -150.5t-159.5 -55q-51 0 -105.5 13t-117.5 54l55 152q29 -10 48.5 -14.5t35.5 -4.5q49 0 86 40t60.5 108t35.5 156t12 184q0 92 -25.5 147.5t-86.5 55.5q-51 0 -120 -23.5t-138 -85.5l-78 -645h-287z" />
<glyph unicode="&#x453;" horiz-adv-x="942" d="M49 221q0 70 34 128.5t88 105.5t120.5 86t132.5 69q68 31 122 67t54 83q0 45 -31.5 58t-68.5 13q-59 0 -133 -22.5t-160 -58.5l-68 157q94 59 208.5 92t225.5 33q147 0 234.5 -60.5t87.5 -178.5q0 -61 -30.5 -111.5t-86 -94.5t-132.5 -86t-169 -85q-76 -33 -108.5 -70 t-32.5 -84q0 -39 29.5 -59.5t76.5 -20.5q33 0 76 6.5t90 18.5t96.5 29.5t96.5 39.5l69 -159q-55 -37 -117.5 -62.5t-125 -43t-122 -26t-108.5 -8.5q-170 0 -259 52.5t-89 191.5zM426 1212l336 353l141 -174l-377 -289z" />
<glyph unicode="&#x454;" horiz-adv-x="960" d="M70 362q0 102 22.5 219t83 217.5t168 166t277.5 65.5q84 0 170 -20.5t153 -69.5l-74 -172q-72 31 -129 39t-102 8q-100 0 -166.5 -62.5t-97.5 -166.5l327 8l-18 -154h-74h-86h-89h-83v-39q0 -94 46 -150t151 -56q63 0 126.5 14t135.5 39l51 -172q-80 -45 -188.5 -69.5 t-206.5 -24.5q-106 0 -181 28.5t-123 78.5t-70.5 120t-22.5 153z" />
<glyph unicode="&#x455;" horiz-adv-x="968" d="M25 63l69 179q117 -45 202 -54.5t134 -9.5q74 0 123 29t49 82q0 49 -29.5 70.5t-85.5 43.5q-63 27 -128.5 47.5t-120 50t-88 77t-33.5 127.5t32.5 141t91 101t138.5 60.5t176 20.5q78 0 170 -18.5t164 -59.5q-16 -43 -35.5 -86t-36.5 -86q-80 31 -142.5 40t-115.5 9 q-29 0 -56.5 -5t-50 -18t-37 -34.5t-14.5 -52.5q0 -37 36 -57.5t90.5 -37t117 -35t116.5 -51t90 -85t36 -138.5q0 -172 -129 -250.5t-355 -78.5q-43 0 -92 4t-99 14t-99.5 24.5t-87.5 36.5z" />
<glyph unicode="&#x456;" horiz-adv-x="583" d="M88 0l123 1006h285l-123 -1006h-285zM221 1268q0 76 49 125t129 49q72 0 112 -39t40 -100q0 -72 -48 -122.5t-134 -50.5q-72 0 -110 39t-38 99z" />
<glyph unicode="&#x457;" horiz-adv-x="583" d="M37 1272q2 63 47.5 103t108.5 40q66 0 97.5 -31.5t31.5 -83.5q-2 -66 -44 -106.5t-116 -40.5q-63 0 -94 33t-31 86zM88 0l123 1006h285q-4 -25 -13.5 -104t-21.5 -183.5t-26.5 -221t-27 -220t-22.5 -179t-12 -98.5h-285zM463 1272q0 63 42.5 103t108.5 40q63 0 96 -31.5 t33 -83.5q0 -66 -43 -106.5t-116 -40.5q-63 0 -93 33t-28 86z" />
<glyph unicode="&#x458;" horiz-adv-x="624" d="M-156 -270q96 39 154.5 84t90.5 102t46.5 126t24.5 155l90 809h285q-4 -33 -11.5 -104t-17.5 -158t-20.5 -180t-19.5 -172t-16.5 -132t-7.5 -61q-16 -143 -48 -257t-93 -198t-157.5 -137t-241.5 -78zM258 1268q0 76 48 125t130 49q74 0 113 -39t39 -100q0 -72 -48 -122.5 t-134 -50.5q-72 0 -110 39t-38 99z" />
<glyph unicode="&#x459;" horiz-adv-x="1720" d="M-45 129q80 33 132 76t86 107.5t53.5 158.5t33.5 229l35 306h283.5t203.5 -1t149.5 -1h123.5l-15 -140q-6 -57 -14 -113.5t-16 -97.5q4 -4 12 -4q78 66 172 111t192 45q125 0 198 -78t73 -219q0 -86 -31 -179t-97.5 -171t-170 -128t-246.5 -50q-33 0 -84 3t-110.5 11 t-122 24.5t-117.5 40.5l-14 31q12 94 23 191.5t23.5 191.5t22.5 180t19 160h-224l-8 -84q-16 -164 -43.5 -297t-82 -234.5t-142.5 -169t-225 -98.5zM963 207q27 -10 67.5 -16.5t85.5 -6.5q59 0 105.5 26t77 66.5t47 90t16.5 98.5q0 63 -33 93t-78 30q-47 0 -117.5 -31 t-140.5 -92q-6 -66 -14 -129.5t-16 -128.5z" />
<glyph unicode="&#x45a;" horiz-adv-x="1757" d="M53 0q31 252 59.5 502t63.5 502h287l-49 -383h356l41 383h285l-17 -181q-4 -41 -11 -86t-17 -84q4 -4 8 -4q80 66 174 111t192 45q125 0 198 -78t73 -219q0 -86 -31 -179t-97.5 -171t-170 -128t-246.5 -50q-33 0 -83 3t-109.5 11t-121 24.5t-116.5 40.5l-14 31 q8 86 18 172t20 174h-354q-12 -111 -26.5 -218t-26.5 -218h-285zM1004 207q27 -10 66.5 -16.5t84.5 -6.5q59 0 105.5 26t77 66.5t47 90t16.5 98.5q0 63 -33 93t-78 30q-47 0 -115.5 -31t-140.5 -92q-6 -66 -14 -129.5t-16 -128.5z" />
<glyph unicode="&#x45b;" horiz-adv-x="1138" d="M51 0l139 1147h-131l17 117h127l28 225h281l-27 -225h361q-4 -29 -8 -58.5t-9 -58.5h-358q-10 -84 -23.5 -171t-25.5 -153l8 -6q106 92 210.5 132t176.5 40q76 0 124 -19.5t75.5 -54t37 -83t9.5 -105.5q0 -6 -1 -25.5t-3 -27.5l-78 -674h-283l72 602q2 12 3 26.5t1 24.5 q0 59 -27.5 81t-78.5 22q-47 0 -116 -28t-136 -89l-78 -639h-287z" />
<glyph unicode="&#x45c;" horiz-adv-x="1128" d="M55 0q4 33 13.5 110.5t21.5 179t25.5 214t26 213t22.5 178.5t14 111h283l-49 -385h129q31 0 58.5 4t52 17t46 40t39.5 72l103 254h270l-109 -283q-27 -66 -67.5 -119t-104.5 -69v-11q37 -10 61.5 -28.5t39 -42t24 -53t15.5 -62.5l67 -340h-276l-51 289 q-16 90 -57.5 121.5t-104.5 31.5h-158q-4 -35 -12 -95t-15.5 -125.5t-14.5 -126t-11 -95.5h-281zM508 1212l336 353l141 -174l-377 -289z" />
<glyph unicode="&#x45e;" horiz-adv-x="1034" d="M-35 -410q4 14 10.5 40t13.5 55.5t13 55.5t10 40q51 -10 83 -14.5t67 -4.5q59 0 98 26t72 99q14 33 27.5 68t29.5 65h-129q-47 248 -93 493t-93 491h280q6 -35 13.5 -88.5t15.5 -113t16.5 -116.5t14.5 -98q8 -51 16 -112.5t15.5 -120t12.5 -105.5t9 -70h12q4 10 17.5 47 t32 87.5t40 105.5t39.5 102q6 12 22.5 52t38 95.5t46 117t46 115.5t37 95t21.5 54q18 -6 55 -15.5t77 -20.5t78 -20.5t56 -15.5q-33 -72 -74.5 -166t-90 -199.5t-98.5 -217t-98 -216t-90 -199t-73 -163.5q-57 -129 -144 -198t-216 -69q-41 2 -96.5 7.5t-139.5 31.5z M240 1391l127 92q53 -88 117.5 -131t117.5 -43q18 0 45 2t65 17t89 47t121 93l79 -79q-55 -76 -112.5 -127.5t-112.5 -83t-106.5 -45t-94.5 -13.5q-59 0 -108 22.5t-91 60.5t-76 86t-60 102z" />
<glyph unicode="&#x45f;" horiz-adv-x="1099" d="M68 203q0 27 2 53.5t6 52.5l76 697h282l-78 -658q-2 -10 -2 -19.5v-19.5q0 -53 26 -78.5t85 -25.5q51 0 110.5 27.5t124.5 91.5l86 682h281q-31 -252 -60.5 -496t-58.5 -510h-262l10 135l-6 4q-111 -92 -206 -127t-167 -35q-76 0 -125 17.5t-76.5 47.5t-37.5 71t-10 90z M387 -473q27 123 53.5 219.5t63.5 192.5q43 -8 85 -14.5t85 -16.5l-70 -404h-100t-103 -2q-4 6 -7 13.5t-7 11.5z" />
<glyph unicode="&#x490;" horiz-adv-x="1140" d="M100 0q6 45 19.5 153.5t30 251t36 300t36 299t29.5 251t19 154.5h738l32 250h201l-57 -467h-645q-4 -25 -11.5 -84t-17.5 -140t-21.5 -177.5t-23.5 -194.5t-23.5 -194.5t-21.5 -177.5t-17.5 -140t-9.5 -84h-293z" />
<glyph unicode="&#x491;" horiz-adv-x="940" d="M55 0q4 33 13.5 110.5t21.5 179t25.5 214t26 213t22.5 179.5t14 112h615l28 237h197l-53 -428h-525q-4 -23 -11 -85t-17.5 -146t-21.5 -177.5t-20.5 -176t-17.5 -146t-10 -86.5h-287z" />
<glyph unicode="&#x4d9;" horiz-adv-x="1042" d="M70 254q0 154 152.5 251t475.5 118q2 8 2 17v19q0 33 -8 65t-27.5 56.5t-55.5 40t-91 15.5q-70 0 -154.5 -19.5t-160.5 -48.5l-56 164q43 25 98.5 44t114 32.5t114.5 19.5t104 6q123 0 202.5 -34.5t124.5 -92t62.5 -133.5t17.5 -158q0 -109 -28.5 -221t-96 -204.5 t-179.5 -150.5t-278 -58q-160 0 -246.5 68.5t-86.5 203.5zM334 289q0 -43 24.5 -76t85.5 -33q104 0 169 78t81 225q-176 -10 -268 -56t-92 -138z" />
<glyph unicode="&#x2000;" horiz-adv-x="950" />
<glyph unicode="&#x2001;" horiz-adv-x="1901" />
<glyph unicode="&#x2002;" horiz-adv-x="950" />
<glyph unicode="&#x2003;" horiz-adv-x="1901" />
<glyph unicode="&#x2004;" horiz-adv-x="633" />
<glyph unicode="&#x2005;" horiz-adv-x="475" />
<glyph unicode="&#x2006;" horiz-adv-x="316" />
<glyph unicode="&#x2007;" horiz-adv-x="316" />
<glyph unicode="&#x2008;" horiz-adv-x="237" />
<glyph unicode="&#x2009;" horiz-adv-x="380" />
<glyph unicode="&#x200a;" horiz-adv-x="105" />
<glyph unicode="&#x2010;" horiz-adv-x="780" d="M119 449l26 202h547l-26 -202h-547z" />
<glyph unicode="&#x2011;" horiz-adv-x="780" d="M119 449l26 202h547l-26 -202h-547z" />
<glyph unicode="&#x2012;" horiz-adv-x="780" d="M119 449l26 202h547l-26 -202h-547z" />
<glyph unicode="&#x2013;" horiz-adv-x="993" d="M80 438l20 176h842l-22 -176h-840z" />
<glyph unicode="&#x2014;" horiz-adv-x="1986" d="M100 438l21 176h1784l-21 -176h-1784z" />
<glyph unicode="&#x2018;" horiz-adv-x="509" d="M182 1071q0 55 23.5 116.5t65.5 119t97.5 106.5t118.5 78l58 -92q-109 -90 -135 -203q84 -29 84 -117q0 -61 -48 -109t-122 -48q-76 0 -109 45t-33 104z" />
<glyph unicode="&#x2019;" horiz-adv-x="509" d="M174 1012q109 90 135 205q-82 25 -82 110q0 66 44 115t122 49q74 0 108 -44t34 -104q0 -55 -24 -116.5t-64.5 -119.5t-96 -106.5t-121.5 -78.5z" />
<glyph unicode="&#x201a;" horiz-adv-x="522" d="M14 -199q53 47 87 93.5t49 105.5q-45 10 -67 41t-20 76q4 61 47 111.5t119 50.5q80 0 116 -48.5t34 -115.5q-2 -61 -28.5 -122t-68.5 -114t-97.5 -97t-112.5 -71z" />
<glyph unicode="&#x201c;" horiz-adv-x="839" d="M172 1071q0 55 23.5 116.5t64.5 119t96.5 106.5t120.5 78l55 -92q-109 -90 -135 -203q84 -29 84 -117q0 -61 -47 -109t-121 -48q-78 0 -109.5 45t-31.5 104zM522 1071q0 55 23.5 116.5t64.5 119t95.5 106.5t117.5 78l58 -92q-53 -45 -87 -94.5t-49 -108.5q84 -25 84 -113 q0 -63 -46 -112t-124 -49q-76 0 -106.5 45t-30.5 104z" />
<glyph unicode="&#x201d;" horiz-adv-x="839" d="M168 1012q53 47 87 96t48 109q-84 25 -84 110q0 66 45 115t123 49q76 0 108.5 -44t32.5 -104q0 -55 -23.5 -116.5t-63.5 -119.5t-96 -106.5t-120 -78.5zM518 1012q53 47 87 96t48 109q-82 25 -82 110q0 66 44 115t120 49t109 -45t33 -105q0 -55 -23 -116.5t-63.5 -118.5 t-96 -105.5t-121.5 -78.5z" />
<glyph unicode="&#x201e;" horiz-adv-x="878" d="M61 -199q55 47 89 93.5t49 105.5q-47 10 -67.5 41t-18.5 76q2 61 46 111.5t120 50.5q80 0 115.5 -48.5t31.5 -115.5q-2 -61 -28.5 -122t-68.5 -114t-96.5 -97t-111.5 -71zM428 -199q55 47 89 93.5t46 105.5q-45 10 -66.5 41t-17.5 76q0 61 45 111.5t119 50.5 q80 0 116 -48.5t34 -115.5q-4 -61 -30 -122t-69 -114t-97 -97t-112 -71z" />
<glyph unicode="&#x2020;" horiz-adv-x="968" d="M123 817l22 197h295l49 403h228l-49 -403h301l-25 -197h-299l-121 -958h-225l117 958h-293z" />
<glyph unicode="&#x2021;" horiz-adv-x="968" d="M49 225l25 195h295l47 397h-293l22 197h295l49 403h228l-49 -403h301l-25 -197h-299l-49 -397h301l-27 -195h-299l-47 -366h-225l43 366h-293z" />
<glyph unicode="&#x2022;" horiz-adv-x="778" d="M147 530q0 59 24 111.5t62.5 92.5t90 62.5t106.5 22.5q49 0 92 -18.5t74 -51t48.5 -75.5t17.5 -94q0 -59 -24 -111.5t-63.5 -92.5t-91 -63.5t-106.5 -23.5q-49 0 -91 18.5t-73 51t-48.5 76.5t-17.5 95z" />
<glyph unicode="&#x2026;" horiz-adv-x="1505" d="M70 117q0 66 46 112.5t124 46.5q72 0 106.5 -38.5t32.5 -98.5q-2 -68 -49 -111.5t-125 -43.5q-70 0 -104.5 36.5t-30.5 96.5zM516 117q2 66 48 112.5t124 46.5q70 0 104.5 -37.5t32.5 -97.5q-4 -68 -49 -112.5t-125 -44.5q-70 0 -104.5 37.5t-30.5 95.5zM936 117 q2 66 48 112.5t124 46.5q72 0 106.5 -38.5t32.5 -98.5q-4 -68 -50 -111.5t-124 -43.5q-72 0 -106.5 36.5t-30.5 96.5z" />
<glyph unicode="&#x202f;" horiz-adv-x="380" />
<glyph unicode="&#x2030;" horiz-adv-x="2590" d="M100 856q0 76 18.5 166t64.5 169t125 132t202 53q90 0 149.5 -26.5t95.5 -72.5t50 -105.5t14 -127.5q0 -86 -19.5 -177t-65.5 -164.5t-122.5 -122t-191.5 -48.5q-90 0 -151.5 26t-98.5 69t-53.5 102t-16.5 127zM307 848q0 -72 27.5 -115t99.5 -43q51 0 85 32t55.5 82 t30.5 112.5t9 123.5q0 35 -5 68t-18 57.5t-35.5 39t-57.5 14.5q-63 0 -101.5 -43t-58 -102.5t-25.5 -123t-6 -102.5zM473 -41l815 1491h174l-813 -1491h-176zM1061 315q0 74 18.5 165t64.5 170t124.5 132.5t201.5 53.5q90 0 149.5 -27t95.5 -73t50.5 -106.5t14.5 -125.5 q0 -86 -19.5 -177t-65.5 -166t-123 -123t-192 -48q-90 0 -151.5 25.5t-98 69.5t-53 103.5t-16.5 126.5zM1268 307q0 -72 27.5 -116t99.5 -44q51 0 84.5 32t55 82t31 113.5t9.5 125.5q0 35 -5 66.5t-17.5 56t-35 40t-57.5 15.5q-66 0 -103.5 -43t-57 -103.5t-25.5 -123 t-6 -101.5zM1872 315q0 74 18.5 165t64.5 170t124.5 132.5t201.5 53.5q90 0 149.5 -27t95.5 -73t50.5 -106.5t14.5 -125.5q0 -86 -19.5 -177t-65.5 -166t-123 -123t-192 -48q-90 0 -151.5 25.5t-98 69.5t-53 103.5t-16.5 126.5zM2079 307q0 -72 27.5 -116t99.5 -44 q51 0 84.5 32t55 82t31 113.5t9.5 125.5q0 35 -5 66.5t-17.5 56t-35 40t-57.5 15.5q-66 0 -103.5 -43t-57 -103.5t-25.5 -123t-6 -101.5z" />
<glyph unicode="&#x2039;" horiz-adv-x="698" d="M104 365l7 77l358 367l111 -82l-234 -326l184 -319l-120 -84z" />
<glyph unicode="&#x203a;" horiz-adv-x="688" d="M72 86l241 320l-163 323l120 80l285 -367l-10 -77l-371 -367z" />
<glyph unicode="&#x2044;" horiz-adv-x="215" d="M-328 -41l815 1491h175l-814 -1491h-176z" />
<glyph unicode="&#x205f;" horiz-adv-x="475" />
<glyph unicode="&#x20ac;" d="M70 532q4 27 6 53.5t6 53.5h850l-12 -107h-471q0 -141 74.5 -232t238.5 -91q55 0 122.5 6t172.5 31l30 -209q-39 -12 -88 -22.5t-101 -17.5t-104.5 -10t-97.5 -3q-147 0 -248.5 42t-163 115.5t-88 174t-26.5 216.5h-100zM92 725l14 111h101q18 117 64 217t124 175 t190.5 116.5t266.5 41.5q184 0 330 -53q-16 -53 -29.5 -104t-30.5 -103q-88 27 -161.5 33t-106.5 6q-152 0 -245 -82t-124 -247h471q-4 -29 -7 -55.5t-7 -55.5h-850z" />
<glyph unicode="&#x2122;" horiz-adv-x="1679" d="M127 1278v131h639v-131h-231v-582h-177v582h-231zM838 698v711h204q6 -14 16.5 -37.5t23 -49.5t23.5 -49.5t17 -37.5l105 -221l4 2q8 20 21.5 50t26.5 61.5t26.5 61.5t23.5 48q6 14 16.5 37.5t22.5 48.5t22.5 48.5t16.5 37.5h213v-711h-172v445h-4q-2 -4 -12.5 -25.5 t-22.5 -47.5t-22.5 -47.5t-12.5 -25.5q-18 -41 -36.5 -86t-39.5 -88h-141q-6 14 -17.5 37t-23.5 48.5t-22.5 49t-16.5 37.5q-14 29 -34.5 72t-32.5 72h-6v-441h-166z" />
<glyph unicode="&#x2202;" horiz-adv-x="1062" d="M59 365q0 127 38 229t102.5 175t150.5 112t180 39q63 0 137 -23t128 -86q0 262 -90.5 374.5t-268.5 112.5h-42.5t-47.5 -4v168q35 4 76 7.5t70 3.5q133 0 230 -42t160.5 -121t94.5 -188.5t31 -244.5q0 -221 -48.5 -388t-128 -281t-185 -171t-218.5 -57q-80 0 -147.5 24.5 t-116.5 72.5t-77 119.5t-28 168.5zM264 387q0 -119 50.5 -171t138.5 -52q72 0 128 38t96 98t65.5 137t35.5 157q-57 86 -118.5 120t-133.5 34q-66 0 -115 -34t-81.5 -86.5t-49 -117t-16.5 -123.5z" />
<glyph unicode="&#x220f;" horiz-adv-x="1439" d="M82 -227l199 1636h1122l-201 -1636h-297l172 1415h-530l-170 -1415h-295z" />
<glyph unicode="&#x2211;" horiz-adv-x="1232" d="M-20 -223l20 180l451 672l-289 606l22 172h1073l-28 -205h-686l-11 -14l240 -549l-4 -39l-391 -602l10 -12h750l-23 -209h-1134z" />
<glyph unicode="&#x221a;" horiz-adv-x="1101" d="M133 659l275 138q10 -53 23 -131t27.5 -160t28 -160t23.5 -131h10l531 1313h190q-35 -86 -89 -216t-117.5 -284t-131 -318.5t-131 -318t-118 -284t-89.5 -216.5h-186q-10 53 -26.5 140.5t-34 181.5t-33 181t-25.5 141q-16 -6 -46 -20.5t-44 -22.5q-2 8 -7 31.5t-11.5 51 t-11.5 51t-7 33.5z" />
<glyph unicode="&#x221e;" horiz-adv-x="1609" d="M90 549q0 70 25.5 130t71.5 105t110.5 71t142.5 26q104 0 197.5 -57.5t169.5 -131.5q76 78 164 133.5t209 55.5q76 0 138 -25t108.5 -68t72 -102t25.5 -131t-28 -133.5t-76 -106.5t-114.5 -71.5t-142.5 -26.5q-92 0 -180 51t-176 142q-39 -37 -79 -72t-86 -61.5t-98 -43 t-114 -16.5q-72 0 -134.5 25.5t-108.5 69.5t-71.5 104.5t-25.5 132.5zM301 549q0 -66 42 -112t103 -46q33 0 65 14.5t62.5 36t59.5 49t53 54.5q-27 31 -56.5 59.5t-60 51t-63.5 36t-66 13.5q-63 0 -101 -45.5t-38 -110.5zM926 551q70 -70 124 -115t117 -45t103.5 49 t40.5 113q0 72 -42.5 112t-99.5 40q-63 0 -126.5 -49.5t-116.5 -104.5z" />
<glyph unicode="&#x222b;" horiz-adv-x="651" d="M-119 -313l41 161q33 -6 57.5 -8t47.5 -2q90 0 126 45t48 135q4 35 9 93.5t10 130t11.5 154.5t12.5 167q6 88 12 173t12 161t11.5 137.5t11.5 102.5q10 96 32.5 170.5t63.5 126t101.5 78t146.5 26.5q43 0 79 -4t91 -21l-37 -161q-33 6 -56.5 8t-49.5 2q-90 0 -127 -47 t-50 -144q-6 -43 -11 -105t-10 -137t-10 -160t-12 -173q-6 -86 -11 -172t-10 -164t-11.5 -142.5t-12.5 -109.5q-20 -160 -109 -255t-239 -95q-39 0 -77 6t-91 23z" />
<glyph unicode="&#x2248;" horiz-adv-x="1187" d="M139 428q53 104 119 150.5t141 46.5q47 0 99.5 -13.5t104.5 -29t102.5 -29.5t93.5 -14l25.5 17t42 28.5t42 29t23.5 17.5l80 -68q-47 -98 -111.5 -150.5t-146.5 -52.5q-57 0 -110.5 13.5t-104 29t-95.5 28.5t-84 13l-139 -88zM176 725q53 104 119.5 152.5t140.5 48.5 q47 0 99.5 -13.5t104.5 -29t102.5 -29.5t93.5 -14l25.5 17t42 28.5t42 29t25.5 17.5l80 -66q-47 -100 -112.5 -154.5t-147.5 -54.5q-57 0 -110.5 13.5t-103 30t-95.5 30.5t-85 14q-6 -4 -26.5 -17t-43 -28.5t-43 -28t-26.5 -14.5z" />
<glyph unicode="&#x2260;" horiz-adv-x="1187" d="M111 141l204 224h-155l20 172h289q6 6 27.5 29.5t46 49t47 48l28.5 28.5h-417l20 174h549q6 6 31.5 33t54.5 56.5t53.5 56t30.5 32.5h164l-166 -178h129l-23 -174h-260q-6 -6 -27.5 -28.5t-46 -48t-46 -49t-25.5 -29.5h387l-20 -172h-523l-207 -224h-165z" />
<glyph unicode="&#x2264;" horiz-adv-x="1187" d="M53 0l21 178h905l-23 -178h-903zM131 616l19 150l946 344l-27 -211l-661 -209q23 -8 70.5 -25.5t108 -40t126 -48t126 -48t107.5 -40t70 -23.5l-27 -213z" />
<glyph unicode="&#x2265;" horiz-adv-x="1187" d="M84 0l22 178h908l-23 -178h-907zM113 254l26 213l666 227q-4 2 -50 17.5t-113 38t-143.5 48t-143 48t-112.5 37t-50 16.5l26 213l866 -344l-20 -152z" />
<glyph unicode="&#x25ca;" horiz-adv-x="1085" d="M78 651l358 690h168l352 -690l-354 -688h-168q-8 16 -35.5 69.5t-64.5 124t-78 149.5t-78 149.5t-64.5 124t-35.5 71.5zM315 653q8 -20 39 -79.5t66 -127t64.5 -128t37.5 -78.5q10 20 40 78.5t62.5 126t61.5 127t39 79.5l-207 414q-10 -20 -38.5 -79.5t-62.5 -126 t-63.5 -126t-38.5 -80.5z" />
<glyph unicode="&#xe000;" horiz-adv-x="1064" d="M0 0v1065h1065v-1065h-1065z" />
</font>
</defs>
</svg>
