<?xml version="1.0" standalone="no"?>
<!DOCTYPE svg PUBLIC "-//W3C//DTD SVG 1.1//EN" "http://www.w3.org/Graphics/SVG/1.1/DTD/svg11.dtd" >
<svg xmlns="http://www.w3.org/2000/svg">
<metadata></metadata>
<defs>
<font id="pf_agora_sans_pro_mediumIt" horiz-adv-x="1138" >
<font-face units-per-em="2048" ascent="1536" descent="-512" />
<missing-glyph horiz-adv-x="559" />
<glyph unicode="&#xfb01;" horiz-adv-x="1173" d="M-283 -412l39 146q47 -10 80 -12.5t62 -2.5q53 0 91 17.5t65.5 58.5t47 107.5t35.5 167.5q18 162 32.5 278.5t25 197.5t16.5 132t10 83t6 50t4 33h-163q2 8 4 24.5t3 33t3 32.5t4 24q35 8 84 20.5t84 20.5l14 117q14 109 51 182.5t92.5 119.5t131 65.5t168.5 19.5 q70 0 149.5 -9t157.5 -32l-39 -155q-74 14 -132.5 20t-111.5 6q-78 0 -126 -19.5t-75.5 -61.5t-42 -106.5t-24.5 -156.5h272q47 0 131 8.5t170 24.5l39 -21q-16 -115 -45 -373.5t-74 -627.5h-215l101 844h-396q-18 -156 -37.5 -311.5t-35.5 -307.5q-16 -135 -39 -256 t-69 -213t-124 -146t-204 -54q-53 2 -108.5 9t-111.5 23z" />
<glyph unicode="&#xfb02;" horiz-adv-x="1189" d="M-281 -410l37 144q47 -8 80 -10.5t62 -2.5q51 0 89 17.5t65.5 58.5t47 107.5t35.5 167.5l96 770h-163l14 116q41 10 83 20.5t83 20.5q6 37 10 75t10 77q29 188 148 269t321 81q53 0 109.5 -6t109.5 -10l136 24l41 -24q-25 -201 -45.5 -378t-40 -338t-38 -309.5 t-34.5 -291.5l131 4l14 -145q-57 -27 -122.5 -39.5t-106.5 -12.5q-78 0 -106.5 39t-28.5 101q0 12 1 24.5t3 26.5l135 1145q-43 8 -86 12t-82 4q-51 0 -93 -9t-75 -33.5t-55.5 -67.5t-32.5 -111q-4 -29 -7 -58.5t-7 -58.5h274l-18 -147h-271q-18 -154 -35.5 -309.5 t-35.5 -307.5q-16 -133 -38 -254t-67 -213t-122.5 -146t-204.5 -54q-121 0 -220 32z" />
<glyph horiz-adv-x="2048" />
<glyph horiz-adv-x="2048" />
<glyph unicode="&#xd;" horiz-adv-x="2048" />
<glyph unicode=" "  horiz-adv-x="559" />
<glyph unicode="&#x09;" horiz-adv-x="559" />
<glyph unicode="&#xa0;" horiz-adv-x="559" />
<glyph unicode="!" horiz-adv-x="497" d="M82 86q0 57 37.5 98t103.5 41q53 0 82 -30.5t29 -75.5q0 -57 -41 -97t-100 -40q-53 0 -82 29.5t-29 74.5zM166 373l37 465l63 596h207l-76 -596l-78 -465h-153z" />
<glyph unicode="&#x22;" horiz-adv-x="622" d="M143 954l25 453h184l-90 -453h-119zM383 954l25 453h182l-84 -453h-123z" />
<glyph unicode="#" horiz-adv-x="1095" d="M96 401l27 115h160l106 309h-162l27 113h174l123 356h125l-123 -356h262l125 356h123l-123 -356h143l-28 -113h-152l-106 -309h153l-28 -115h-164l-135 -401h-125l133 401h-262l-136 -401h-124l135 401h-148zM410 516h262l104 309h-262z" />
<glyph unicode="$" horiz-adv-x="1136" d="M94 115l70 141q96 -47 150.5 -60.5t99.5 -19.5l59 479q-117 39 -193.5 117t-76.5 211q0 80 28.5 145.5t77.5 113.5t114.5 80t137.5 44l17 139h81l-204 -1659h-80l20 170q-78 10 -155.5 34t-145.5 65zM377 1001q0 -72 30.5 -107.5t88.5 -57.5l45 366q-66 -16 -115 -69.5 t-49 -131.5zM522 -154l203 1659h84l-16 -137q63 -4 131.5 -24.5t117.5 -49.5l-61 -141q-72 33 -118 44t-89 15l-57 -444q59 -23 115.5 -50.5t99.5 -67.5t68.5 -96t25.5 -136q0 -92 -31.5 -162t-86 -118t-128 -77.5t-155.5 -42.5l-21 -172h-82zM645 178q92 16 148.5 74.5 t56.5 150.5q0 72 -42 113t-112 70z" />
<glyph unicode="%" horiz-adv-x="1710" d="M82 850q0 66 15.5 156t58.5 172t118.5 139t198.5 57q88 0 144.5 -26.5t89 -71.5t46 -103.5t13.5 -121.5q0 -84 -17.5 -174.5t-61.5 -167t-117.5 -125.5t-186.5 -49q-86 0 -144.5 24.5t-93 67.5t-49 100t-14.5 123zM248 840q0 -78 30.5 -127t116.5 -49q59 0 99.5 35.5 t64 91t32.5 122t9 127.5q0 39 -5 75t-19.5 64.5t-41 46t-67.5 17.5q-76 0 -120 -50t-65.5 -116.5t-27.5 -134.5t-6 -102zM455 -43l794 1485h140l-793 -1485h-141zM1024 307q0 66 15.5 156t58.5 172t118.5 139t198.5 57q88 0 144.5 -26.5t89 -71.5t46 -103.5t13.5 -121.5 q0 -84 -17.5 -174t-61.5 -167t-117.5 -126t-186.5 -49q-86 0 -144.5 24.5t-93 67.5t-49 100.5t-14.5 122.5zM1190 297q0 -78 30.5 -127t116.5 -49q59 0 99.5 36t64 91t32.5 121.5t9 128.5q0 39 -5 74.5t-19.5 64.5t-41 46t-67.5 17q-76 0 -120 -50t-65.5 -116.5t-27.5 -134 t-6 -102.5z" />
<glyph unicode="&#x26;" horiz-adv-x="1800" d="M68 662q18 129 75.5 264t158.5 244.5t248.5 179t346.5 69.5q174 0 295 -52t196.5 -138t109.5 -195.5t34 -224.5q0 -51 -7 -106.5t-20 -104.5q57 0 98.5 5t72 18.5t53 35t45.5 52.5l77 -82q-53 -88 -135 -128t-217 -40h-19.5t-19.5 2q-43 -102 -113.5 -192.5t-160.5 -158 t-199.5 -106.5t-232.5 -39q-121 0 -204 34t-136.5 92.5t-77 133t-23.5 158.5q0 154 43 270.5t109.5 194.5t146.5 117t156 39q55 0 97 -17.5t72 -46.5t44 -63.5t14 -69.5t-16 -82t-53 -82l4 -10q74 12 141 12q117 0 262 -31q12 47 17.5 94.5t5.5 90.5q0 100 -28 186 t-85 149.5t-147 99.5t-213 36q-147 0 -261 -54.5t-197 -142.5t-135 -200.5t-75 -229.5q-37 4 -75 9t-72 10zM498 408q0 -147 73.5 -221t214.5 -74q70 0 144 26.5t140.5 75.5t121.5 117.5t90 152.5q-66 16 -128 24.5t-120 8.5q-59 0 -125.5 -11t-134.5 -34l-26 6l-52 101 q123 86 123 161q0 41 -23.5 62.5t-58.5 21.5q-37 0 -79 -22.5t-77.5 -72.5t-59 -130t-23.5 -192z" />
<glyph unicode="'" horiz-adv-x="423" d="M217 954l25 453h184l-90 -453h-119z" />
<glyph unicode="(" horiz-adv-x="608" d="M129 385q0 203 45 373t110.5 306t140.5 236.5t134 161.5l84 -63q-35 -43 -90 -134t-108.5 -226.5t-92.5 -313.5t-39 -395q0 -123 13.5 -222.5t34 -175t41 -129t36.5 -86.5l-100 -67q-33 45 -70 115.5t-67.5 164t-51 207t-20.5 248.5z" />
<glyph unicode=")" horiz-adv-x="610" d="M-16 -281q31 41 87 130.5t111.5 224.5t96 315t40.5 404q0 121 -14 219t-34.5 174t-43 130t-37.5 85l99 59q35 -47 72.5 -117.5t68.5 -161.5t51.5 -202t20.5 -238q0 -209 -47 -385t-115 -314t-143.5 -237.5t-130.5 -154.5z" />
<glyph unicode="*" horiz-adv-x="802" d="M178 1118q4 20 13.5 46t20.5 52.5t23.5 49t24.5 39.5q37 -25 92.5 -61t96.5 -60l-17 235q16 4 42 6t52.5 2t52 -2t42.5 -6l-76 -235l225 108q18 -31 27.5 -86t5.5 -102l-244 -19l150 -163q-12 -14 -33 -32t-43.5 -33t-44 -28.5t-39.5 -19.5l-74 221l-125 -219 q-31 12 -72.5 45t-62.5 66q41 35 95.5 84t95.5 81z" />
<glyph unicode="+" d="M199 545l16 141h328l41 336h143l-43 -336h324l-19 -141h-321l-43 -346h-142l41 346h-325z" />
<glyph unicode="," horiz-adv-x="464" d="M10 -184q47 41 78 82t43 98q-35 8 -53.5 33.5t-18.5 62.5q0 55 37 99.5t103 44.5q59 0 91 -38t32 -96q0 -51 -23 -104t-59.5 -100.5t-86 -87t-100.5 -64.5z" />
<glyph unicode="-" horiz-adv-x="751" d="M115 461l22 168h529l-23 -168h-528z" />
<glyph unicode="." horiz-adv-x="452" d="M55 90q0 59 39.5 101t100.5 42q55 0 84.5 -32.5t29.5 -79.5q0 -59 -42 -99t-101 -40q-53 0 -82 30.5t-29 77.5z" />
<glyph unicode="/" horiz-adv-x="696" d="M-37 -61l696 1501h146l-696 -1501h-146z" />
<glyph unicode="0" d="M80 496q0 74 9 168t32.5 192t65.5 193.5t106.5 169t157 118.5t217.5 45q135 0 221 -49t134 -129t66.5 -182t18.5 -207q0 -141 -28.5 -287.5t-95 -267.5t-176.5 -197.5t-273 -76.5q-129 0 -215.5 41t-138.5 110.5t-75.5 161.5t-25.5 197zM295 481q0 -72 13.5 -132t44 -103 t78.5 -67.5t120 -24.5q100 0 165.5 64.5t104.5 162.5t55.5 216t16.5 226q0 70 -9.5 138.5t-35 124t-71.5 89t-120 33.5q-86 0 -145 -43t-100 -109.5t-63.5 -149.5t-35 -163.5t-15.5 -150.5t-3 -111z" />
<glyph unicode="1" d="M260 1104v137l352 121h195l-164 -1362h-217l143 1151z" />
<glyph unicode="2" d="M35 0l16 141q63 55 144 122t164 140.5t162 151.5t140.5 155.5t99.5 153.5t38 148q0 92 -59.5 140t-164.5 48q-51 0 -140 -18.5t-210 -87.5l-63 137q133 90 255 120.5t206 30.5q178 0 285.5 -82.5t107.5 -250.5q0 -129 -71 -255t-174 -240t-220 -214t-209 -180h625 l-19 -160h-913z" />
<glyph unicode="3" d="M23 68q6 12 15 31.5t18.5 41t17.5 41t14 31.5q61 -20 108.5 -32.5t87.5 -19.5t73.5 -9t64.5 -2q70 0 135.5 18t115.5 55t79.5 89.5t29.5 119.5q0 111 -77.5 170.5t-200.5 59.5q-23 0 -50.5 -2.5t-62.5 -6.5l-22 140q213 37 314 113.5t101 156.5q0 63 -46 110.5t-158 47.5 q-70 0 -152 -19.5t-192 -66.5q-6 10 -13.5 29.5t-15.5 40t-15.5 40t-11.5 29.5q117 63 229.5 92t215.5 29q100 0 171.5 -23.5t116.5 -62.5t65.5 -91.5t20.5 -107.5q0 -43 -14 -91t-47 -93t-84 -85t-125 -67v-10q121 -25 194.5 -111t73.5 -209q0 -92 -38.5 -177 t-110.5 -148.5t-175.5 -101t-232.5 -37.5q-111 0 -223.5 20t-193.5 68z" />
<glyph unicode="4" d="M51 371l21 155l702 836h227q-25 -211 -51 -417t-51 -417h193l-19 -157h-194q-10 -94 -20.5 -186.5t-20.5 -184.5h-209q10 92 21.5 184t23.5 187h-623zM299 528h395q18 147 38 279.5t38 279.5h-12q-59 -76 -115.5 -145.5t-112 -137t-113 -135t-118.5 -141.5z" />
<glyph unicode="5" d="M51 70l68 155q119 -43 191.5 -54t131.5 -11q80 0 146.5 19.5t115 58t76 98t27.5 141.5q0 57 -20.5 100.5t-56.5 71t-84 40.5t-103 13q-109 0 -226 -53l-110 70l102 643h750l-23 -166h-569l-53 -360q25 6 77 19t127 13q82 0 156 -21.5t129 -67.5t87 -116.5t32 -168.5 q0 -131 -47 -227.5t-126 -160t-179.5 -94t-204.5 -30.5q-100 0 -211 19t-203 69z" />
<glyph unicode="6" d="M111 471q0 188 41 354t121.5 290t201.5 195.5t281 71.5q104 0 184 -20.5t115 -36.5l-47 -156q-70 27 -140.5 36t-117.5 9q-100 0 -171 -48t-118 -116.5t-73 -144.5t-34 -129l6 -8q29 16 69 33.5t83 31t89 21.5t87 8q76 0 140.5 -20.5t111.5 -64.5t74.5 -112.5 t27.5 -162.5q0 -121 -38.5 -216.5t-108.5 -162t-164 -102t-205 -35.5q-117 0 -196.5 36.5t-128.5 101t-69.5 154t-20.5 193.5zM319 459q0 -53 8.5 -106.5t33 -95.5t69.5 -67.5t117 -25.5q70 0 124 23.5t91 66.5t56.5 102.5t19.5 128.5q0 47 -11.5 87t-36 68t-65.5 43 t-100 15q-63 0 -115.5 -13t-89.5 -30.5t-59.5 -33t-28.5 -17.5q-4 -37 -8.5 -72.5t-4.5 -72.5z" />
<glyph unicode="7" d="M193 0l679 1196h-639l21 166h817l16 -150l-679 -1212h-215z" />
<glyph unicode="8" d="M78 328q0 53 16.5 112.5t51 116.5t89 109.5t132.5 89.5q-72 47 -108 104.5t-36 134.5q0 82 36 154t99.5 125t151.5 82.5t190 29.5q74 0 143.5 -19t123 -59t85 -101.5t31.5 -143.5q0 -86 -55 -175t-180 -173q84 -47 136 -125t52 -193q0 -76 -32.5 -150.5t-98 -133 t-163 -94t-226.5 -35.5q-109 0 -190.5 26.5t-137 72.5t-83 108.5t-27.5 136.5zM293 342q0 -82 58 -139.5t179 -57.5q76 0 132.5 20.5t93.5 55.5t54 79t17 91q0 49 -18 88t-56 72t-98.5 63.5t-144.5 63.5q-61 -39 -103 -82t-68 -87t-36 -87t-10 -80zM432 1012q0 -41 20.5 -72 t54.5 -55.5t80 -47t99 -49.5q111 74 154 138.5t43 120.5q0 31 -10.5 62.5t-34 57t-63.5 41t-99 15.5q-74 0 -121 -24.5t-74.5 -58.5t-38 -70t-10.5 -58z" />
<glyph unicode="9" d="M129 43l47 156q70 -27 140.5 -36t117.5 -9q100 0 171 48t118 116.5t71.5 144.5t34.5 129l-6 8q-29 -16 -68.5 -33.5t-82.5 -31t-89 -21.5t-87 -8q-76 0 -140.5 20.5t-112.5 64.5t-75 111.5t-27 163.5q0 119 39 215.5t108.5 163t164 102t204.5 35.5q117 0 197 -36.5 t129 -101t69.5 -154t20.5 -193.5q0 -188 -41 -354t-122 -290t-201.5 -195.5t-280.5 -71.5q-104 0 -184 20.5t-115 36.5zM346 883q0 -47 11.5 -87t36 -68t65.5 -43t100 -15q63 0 115.5 13t89.5 30.5t59.5 32t28.5 18.5q4 37 8 72.5t4 72.5q0 53 -8 106.5t-32.5 95.5 t-69.5 67.5t-117 25.5q-70 0 -124 -23.5t-91 -66.5t-56.5 -102.5t-19.5 -128.5z" />
<glyph unicode=":" horiz-adv-x="456" d="M66 96q0 59 40 100.5t101 41.5q53 0 82.5 -32t29.5 -79q0 -59 -37.5 -100t-103.5 -41q-55 0 -83.5 31.5t-28.5 78.5zM141 731q0 59 42.5 99t101.5 40q53 0 82.5 -31.5t29.5 -78.5q0 -59 -40 -101.5t-103 -42.5q-53 0 -83 34t-30 81z" />
<glyph unicode=";" horiz-adv-x="456" d="M10 -184q47 41 79 82t44 98q-35 8 -53.5 33.5t-18.5 62.5q0 55 37 99.5t103 44.5q59 0 91 -38t32 -96q0 -51 -22.5 -104t-59.5 -100.5t-86.5 -87t-100.5 -64.5zM141 731q0 59 42.5 99t101.5 40q53 0 82.5 -31.5t29.5 -78.5q0 -59 -40 -101.5t-103 -42.5q-53 0 -83 34 t-30 81z" />
<glyph unicode="&#x3c;" horiz-adv-x="1144" d="M176 549l14 123l885 424l-20 -170l-686 -318q6 -4 52 -27.5t111.5 -58.5t140.5 -74.5t140.5 -74.5t111.5 -59.5t52 -28.5l-21 -162z" />
<glyph unicode="=" horiz-adv-x="1144" d="M158 391l16 137h819l-16 -137h-819zM197 702l16 140h819l-16 -140h-819z" />
<glyph unicode="&#x3e;" horiz-adv-x="1144" d="M125 123l20 170l689 319q-6 4 -52.5 28t-112 58.5t-141 74.5t-141 74t-112 57.5t-52.5 25.5l21 166l780 -424l-16 -123z" />
<glyph unicode="?" horiz-adv-x="925" d="M195 1376q111 39 215 55.5t182 16.5q184 0 273 -69.5t93 -194.5q0 -115 -61 -198t-154 -159q-49 -45 -99 -86t-91 -85t-66.5 -93t-25.5 -110v-84l-178 -17q-2 23 -2 43.5v40.5q0 90 20.5 153.5t57 116t92 101.5t127.5 111q63 53 110 99t51 109q0 78 -54 112t-142 34 q-57 0 -133 -10.5t-181 -44.5q-8 41 -17 79.5t-17 79.5zM244 82q0 55 37 95t98 40q53 0 83 -29.5t30 -76.5q0 -57 -41 -94t-99 -37q-53 0 -80.5 28.5t-27.5 73.5z" />
<glyph unicode="@" horiz-adv-x="1923" d="M166 594q0 190 72.5 355t199.5 287t299 191.5t369 69.5q162 0 292 -44t219 -127t137 -199.5t48 -262.5q0 -141 -42 -248.5t-108.5 -181.5t-151.5 -110.5t-171 -36.5q-113 0 -166 57t-63 156l-13 2q-35 -66 -72.5 -106t-76.5 -61.5t-75 -29.5t-64 -8q-111 0 -171.5 76 t-60.5 219q0 113 27 214t79 177t131 120t183 44q86 0 193 -39l16 47l150 -14q-16 -74 -32 -162t-30 -170t-22.5 -148.5t-8.5 -97.5q0 -63 28 -99t89 -36q39 0 87 23.5t90 75t71 131t29 194.5q0 236 -141.5 369t-403.5 133q-166 0 -309.5 -59.5t-249 -163t-166 -240.5 t-60.5 -291q0 -127 39 -232.5t111 -181t176.5 -118.5t237.5 -43q47 2 118.5 10t157.5 37l39 -121q-74 -35 -164 -49.5t-166 -14.5q-168 0 -299 53.5t-220 147.5t-135 223t-46 283zM750 616q0 -90 30.5 -132t77.5 -42q27 0 58.5 17.5t65.5 57.5t66.5 103.5t63.5 153.5l35 203 q-41 16 -82 23.5t-68 7.5q-72 0 -119 -38t-75.5 -95.5t-40.5 -127t-12 -131.5z" />
<glyph unicode="A" horiz-adv-x="1226" d="M-31 0l627 1405h285l274 -1405h-229l-62 346h-520l-145 -346h-230zM418 512h418l-66 379l-49 338h-6l-129 -318z" />
<glyph unicode="B" horiz-adv-x="1253" d="M100 0l170 1403h537q193 0 281 -89t88 -237q0 -111 -52.5 -197.5t-162.5 -138.5l-5 -14q55 -23 89 -57.5t54.5 -75.5t28 -85t7.5 -81q0 -94 -38 -173t-100.5 -135.5t-145.5 -88t-173 -31.5h-578zM342 168h287q70 0 123 22.5t86.5 60.5t51 88t17.5 105q0 84 -53 142.5 t-166 58.5h-287zM422 805h254q127 0 197.5 67.5t70.5 180.5q0 82 -50 132t-163 50h-256z" />
<glyph unicode="C" horiz-adv-x="1208" d="M139 553q0 78 12.5 174t43 193.5t83 189.5t132 162.5t191.5 114t259 43.5q104 0 191.5 -16.5t152.5 -41.5l-51 -168q-78 27 -151.5 35t-137.5 8q-236 0 -363.5 -180t-127.5 -508q0 -92 17.5 -164.5t60.5 -123t112.5 -78t173.5 -27.5q27 0 66 3t83 8t90 14.5t87 21.5 l33 -162q-41 -16 -94.5 -28.5t-110.5 -21.5t-114.5 -14t-106.5 -5q-152 0 -254.5 40.5t-164 116.5t-87 181.5t-25.5 232.5z" />
<glyph unicode="D" horiz-adv-x="1320" d="M102 0l172 1405h471q150 0 247.5 -42t154.5 -115.5t79.5 -174t22.5 -215.5q0 -172 -35.5 -327.5t-116.5 -273.5t-213 -187.5t-323 -69.5h-459zM350 172h207q35 0 83 8t99.5 33t100.5 70t88 118.5t63.5 180t24.5 254.5q0 137 -32 217t-80 120.5t-105.5 52t-106.5 11.5 h-211z" />
<glyph unicode="E" horiz-adv-x="1136" d="M100 0l172 1405h867l-21 -168h-641l-51 -418h551l-21 -160h-550l-60 -489h684l-20 -170h-910z" />
<glyph unicode="F" horiz-adv-x="1097" d="M100 0l172 1405h865l-21 -170h-639l-55 -432h522l-18 -164h-523l-77 -639h-226z" />
<glyph unicode="G" horiz-adv-x="1282" d="M137 549q0 82 12.5 179t44 194.5t86 189.5t138.5 163t200.5 113t272.5 42q106 0 194.5 -16.5t153.5 -41.5l-53 -168q-80 25 -156 35t-139 10q-256 0 -386 -183t-130 -511q0 -86 15.5 -157.5t53 -123t101 -79t160.5 -27.5q47 0 110.5 7t106.5 20l65 536h207l-84 -678 q-111 -37 -223.5 -54t-216.5 -17q-152 0 -253.5 42t-164 116.5t-89 179t-26.5 229.5z" />
<glyph unicode="H" horiz-adv-x="1347" d="M102 0l170 1405h228q-6 -61 -15.5 -137t-19.5 -153t-19.5 -151.5t-17.5 -136.5h588l69 578h230l-170 -1405h-230l80 651h-587q-10 -70 -19.5 -153.5t-20 -171.5t-20.5 -172t-18 -154h-228z" />
<glyph unicode="I" horiz-adv-x="563" d="M119 0l172 1405h223l-172 -1405h-223z" />
<glyph unicode="J" horiz-adv-x="663" d="M-182 -215q125 51 200.5 101.5t118.5 108.5t61.5 129t30.5 161l140 1122h227l-139 -1120q-18 -139 -55 -247t-106 -189.5t-174.5 -138t-256.5 -91.5z" />
<glyph unicode="K" horiz-adv-x="1228" d="M100 0l172 1405h222l-76 -594l14 -2l100 102l517 494h256l-594 -555l446 -850h-242l-360 702l-166 -153l-67 -549h-222z" />
<glyph unicode="L" horiz-adv-x="1083" d="M100 0l172 1405h224l-152 -1239h690l-18 -166h-916z" />
<glyph unicode="M" horiz-adv-x="1683" d="M59 0l299 1405h240q39 -168 68.5 -288t51 -210t38 -158.5t32.5 -132.5l41 -217h17q23 55 46 109.5t46 107.5q12 29 41 93.5t64.5 144.5t74.5 168t74 166t60.5 136t35.5 81h254q-2 -354 -2 -703.5v-701.5h-221q10 207 11 405.5t9 415.5l4 260h-10l-106 -252l-330 -694 h-192q-43 174 -83 344t-81 344l-52 244h-10l-43 -248q-35 -205 -73.5 -409.5t-79.5 -409.5h-224z" />
<glyph unicode="N" horiz-adv-x="1409" d="M100 0l170 1403h228q98 -193 192 -382.5t189 -381.5q35 -72 70.5 -143.5t70.5 -143.5h10q31 264 62.5 525.5t64.5 525.5h217l-170 -1403h-223q-102 199 -199.5 401.5t-199.5 403.5l-127 268q-2 0 -3 -1t-6 -1q-35 -268 -65.5 -535.5t-65.5 -535.5h-215z" />
<glyph unicode="O" horiz-adv-x="1429" d="M135 547q0 166 40 324.5t124 282.5t215 198.5t313 74.5q147 0 248 -45t162 -124.5t89 -186t28 -229.5q0 -180 -44 -337t-130 -273.5t-212 -183t-290 -66.5q-143 0 -245.5 39.5t-169 113.5t-97.5 178.5t-31 233.5zM369 541q0 -190 74.5 -288.5t244.5 -98.5q117 0 199 58 t134 155.5t75.5 223.5t23.5 261q0 80 -13 153.5t-47 130t-92.5 90.5t-148.5 34q-129 0 -216 -66t-139 -170t-73.5 -232t-21.5 -251z" />
<glyph unicode="P" d="M100 0l174 1405h476q197 0 295 -97.5t98 -277.5q0 -78 -25.5 -162t-83 -152.5t-147.5 -112.5t-219 -44h-275l-65 -559h-228zM414 725h235q47 0 94.5 14.5t86 48t62 91t23.5 141.5q0 113 -58 165t-155 52h-225z" />
<glyph unicode="Q" horiz-adv-x="1435" d="M135 547q0 166 40 324.5t124 282.5t215 198.5t313 74.5q147 0 248 -45t162 -124.5t89 -186t28 -229.5q0 -133 -23.5 -255t-71 -223.5t-117 -180.5t-159.5 -128l281 -80l-90 -184l-527 195q-135 4 -232.5 45t-159.5 113.5t-91 174t-29 228.5zM369 541q0 -190 74.5 -288.5 t244.5 -98.5q117 0 199 58t134 155.5t75.5 223.5t23.5 261q0 80 -13 153.5t-47 130t-92.5 90.5t-148.5 34q-129 0 -216 -66t-139 -170t-73.5 -232t-21.5 -251z" />
<glyph unicode="R" horiz-adv-x="1224" d="M100 0l172 1405h508q193 0 285 -90t92 -238q0 -68 -17.5 -133t-51 -121.5t-84 -100.5t-115.5 -69v-12q70 -29 100.5 -94.5t46.5 -147.5l80 -399h-225q-18 94 -35.5 187.5t-38.5 189.5q-12 63 -36.5 104t-58.5 65.5t-78 34t-95 9.5h-154q-18 -147 -36.5 -295t-34.5 -295 h-224zM416 758h243q39 0 85.5 12t86 44t67.5 87t28 141q0 104 -58.5 148.5t-152.5 44.5h-240z" />
<glyph unicode="S" horiz-adv-x="1183" d="M66 92l71 166q125 -59 225.5 -76.5t174.5 -17.5q70 0 128 12t101 39t67.5 71t26.5 107q0 55 -16.5 91t-47 60.5t-75.5 41t-100 32.5q-86 25 -164 51.5t-136.5 68.5t-93 103.5t-34.5 153.5q0 104 38.5 185.5t108.5 136.5t167 84t212 29q43 0 93 -4.5t100.5 -15.5 t100.5 -28.5t93 -44.5l-78 -159q-92 43 -177 56t-157 13q-106 0 -183 -53t-81 -168q0 -49 20.5 -83t56.5 -57.5t84 -39t101 -29.5q66 -18 137.5 -41.5t131 -64.5t97.5 -107.5t38 -173.5q0 -121 -44 -206t-122 -139t-183.5 -78.5t-230.5 -24.5q-104 0 -223 22.5t-227 87.5z " />
<glyph unicode="T" horiz-adv-x="1161" d="M133 1231l23 174h1091l-22 -174h-434l-152 -1231h-221l149 1231h-434z" />
<glyph unicode="U" horiz-adv-x="1359" d="M150 514l110 891h221l-110 -901q-6 -43 -5 -80q0 -117 54 -183q72 -87 227 -87q154 0 249 85t118 265l110 901h219l-110 -889q-14 -123 -55 -222t-113 -168t-175.5 -106.5t-242.5 -37.5q-287 0 -407 141q-96 112 -96 293q0 47 6 98z" />
<glyph unicode="V" horiz-adv-x="1183" d="M139 1405h238l92 -567q25 -158 47.5 -310.5t44.5 -308.5h12q59 154 121 310.5t123 308.5l232 567h237l-612 -1405h-271z" />
<glyph unicode="W" horiz-adv-x="1757" d="M137 1403h236q18 -201 37.5 -399.5t35.5 -401.5q6 -86 12.5 -176t14.5 -174h6q27 76 51.5 160t51.5 161l71.5 214.5t68.5 205t67.5 201.5t70.5 209h242q4 -37 12 -96.5t17.5 -132t19.5 -153.5t19.5 -159t18.5 -148.5t17 -121.5q2 -12 8.5 -62.5t12.5 -107.5t12 -107.5 t6 -62.5h6q29 86 57.5 173t55.5 173q63 205 130 402.5t134 402.5h230q-129 -375 -256 -726t-244 -677h-266q-29 209 -50.5 404.5t-52.5 410.5q-10 72 -18 145.5t-19 145.5h-6q-23 -72 -47.5 -144.5t-46.5 -146.5q-61 -205 -133 -403.5t-137 -411.5h-283q-41 352 -81 701.5 t-81 701.5z" />
<glyph unicode="X" horiz-adv-x="1185" d="M-35 0l529 729q-80 168 -163 337t-167 337h252q59 -135 117.5 -265t119.5 -266l367 531h256q-129 -172 -257 -340t-255 -340q86 -182 175 -362.5t177 -360.5h-248q-66 141 -131 284.5t-131 286.5l-391 -571h-250z" />
<glyph unicode="Y" horiz-adv-x="1144" d="M139 1405h230l133 -365l96 -282h10q2 4 29 49t59.5 97t59 97.5t28.5 51.5l226 352h235l-538 -815l-70 -590h-240l70 578q-6 14 -30.5 76.5t-59.5 150.5t-74 187.5t-73.5 186.5t-60.5 149.5t-30 76.5z" />
<glyph unicode="Z" horiz-adv-x="1112" d="M2 160l842 1063l-6 8h-648l23 174h907l19 -160l-842 -1061l4 -8l741 -2l-20 -174h-1004z" />
<glyph unicode="[" horiz-adv-x="563" d="M20 -326l218 1756h378q-6 -35 -10 -68t-8 -68h-190l-183 -1487h191q-6 -35 -9.5 -66.5t-7.5 -66.5h-379z" />
<glyph unicode="\" horiz-adv-x="696" d="M147 1440h146l328 -1501h-148z" />
<glyph unicode="]" horiz-adv-x="563" d="M-20 -326l16 133h188l183 1487h-191l14 136h379l-215 -1756h-374z" />
<glyph unicode="^" horiz-adv-x="919" d="M82 758l436 637h113l276 -637h-145l-203 473l-319 -473h-158z" />
<glyph unicode="_" horiz-adv-x="993" d="M-86 -283l16 117h992l-17 -117h-991z" />
<glyph unicode="`" horiz-adv-x="1015" d="M367 1395l143 133l242 -348l-90 -76z" />
<glyph unicode="a" horiz-adv-x="1107" d="M70 352q0 113 29.5 231.5t93 215t162 158t235.5 61.5q59 0 122.5 -9.5t127.5 -31.5l18 45l172 -8q-29 -186 -59.5 -405.5t-59.5 -454.5l119 4l14 -125q-55 -27 -105 -34t-79 -7q-76 0 -111.5 30.5t-35.5 114.5l-4 4q-86 -76 -178.5 -114.5t-163.5 -38.5q-147 0 -222 94 t-75 270zM289 385q0 -129 45 -180t110 -51q66 0 140.5 38.5t134.5 90.5l74 538q-51 18 -101.5 24.5t-95.5 6.5q-55 0 -109.5 -28.5t-98.5 -87t-71.5 -146.5t-27.5 -205z" />
<glyph unicode="b" horiz-adv-x="1087" d="M70 96l170 1393h217q-6 -61 -17.5 -148.5t-23.5 -173.5q-10 -88 -21.5 -164.5t-21.5 -121.5l8 -9q94 76 186 111t162 35q135 0 212 -93.5t77 -273.5q0 -106 -27.5 -223t-91 -215t-166 -162.5t-252.5 -64.5q-109 2 -208 22.5t-189 67.5q-4 6 -7 10t-7 10zM297 188 q53 -25 99 -31.5t91 -6.5q57 0 112.5 30.5t99.5 90t71 146.5t27 201q0 129 -44 180.5t-110 51.5q-33 0 -69.5 -11.5t-72.5 -28.5t-71 -41t-63 -48q-18 -135 -36 -266t-34 -267z" />
<glyph unicode="c" horiz-adv-x="913" d="M74 354q0 98 20.5 216t78.5 218.5t162.5 168t270.5 67.5q84 0 162 -19.5t137 -62.5l-61 -133q-78 35 -136.5 42t-99.5 7q-80 0 -139 -38t-99 -102.5t-59.5 -150.5t-19.5 -182q0 -102 47 -168.5t164 -66.5q68 0 133 14t141 43l43 -133q-74 -41 -174 -65.5t-199 -24.5 q-102 0 -171.5 27.5t-114.5 76.5t-65.5 116.5t-20.5 149.5z" />
<glyph unicode="d" horiz-adv-x="1067" d="M72 354q0 111 28.5 229.5t92 216t161 160t236.5 62.5q53 0 112.5 -8t112.5 -25l59 471h213l-182 -1460h-205q0 2 2.5 22.5t5.5 44t6 43t3 23.5l-8 6q-92 -80 -187.5 -116.5t-167.5 -36.5q-129 0 -205.5 95t-76.5 273zM293 387q0 -129 44 -181t109 -52q66 0 143 39.5 t136 89.5q0 4 5 45t12.5 99t16.5 126t16 126t12.5 99t7.5 45q-53 16 -101.5 23.5t-95.5 7.5q-55 0 -109.5 -29.5t-97.5 -88t-70.5 -145.5t-27.5 -204z" />
<glyph unicode="e" horiz-adv-x="989" d="M74 385q0 104 25.5 217t89 208t170 156.5t266.5 61.5q147 0 225 -72.5t78 -189.5q0 -174 -168 -269.5t-467 -111.5q-2 -12 -2 -15v-14q0 -39 8 -77.5t30.5 -69.5t61.5 -49.5t103 -18.5q74 0 153.5 18.5t153.5 51.5l45 -127q-37 -23 -86 -41t-101.5 -31.5t-106.5 -20.5 t-103 -7q-115 0 -189 32.5t-115 88t-56 128t-15 152.5zM299 516q207 10 315.5 64.5t108.5 160.5q0 53 -29.5 89t-97.5 36q-129 0 -205 -92t-92 -258z" />
<glyph unicode="f" horiz-adv-x="724" d="M-281 -408l37 146q47 -10 78 -12t60 -2q59 0 99 21.5t67.5 65.5t45 109.5t29.5 153.5q18 135 33.5 264t28 233.5t19.5 176t9 92.5h-166l15 116l170 39l14 99q14 92 41 166.5t72 127t112.5 81t161.5 28.5q47 0 104.5 -7t114.5 -26l-37 -153q-43 10 -80.5 14t-66.5 4 q-43 0 -79 -11t-65.5 -42t-50 -85t-28.5 -140l-8 -66h276l-16 -145h-279q-20 -164 -37.5 -326t-34.5 -321q-16 -127 -37.5 -242t-66.5 -201t-121 -137t-199 -51q-47 0 -102 7t-113 23z" />
<glyph unicode="g" horiz-adv-x="1091" d="M63 -373q6 12 13.5 33t15.5 44.5t15.5 44t13.5 32.5q53 -25 125.5 -42.5t138.5 -17.5q90 0 148.5 28t93.5 76t51 113.5t27 139.5l8 51l-8 8q-94 -74 -184.5 -109.5t-158.5 -35.5q-135 0 -211.5 92t-76.5 270q0 104 27.5 222t91 216.5t166 163t251.5 64.5 q88 0 191.5 -20.5t199.5 -67.5l13 -19q-29 -238 -60.5 -468t-60.5 -463q-10 -78 -37 -155t-84 -138.5t-149.5 -99.5t-231.5 -38q-92 0 -183 25t-145 51zM295 389q0 -127 43 -178t108 -51q68 0 144 39t135 90l70 524q-53 25 -101.5 32t-89.5 7q-57 0 -112.5 -30.5t-99.5 -89 t-70.5 -144.5t-26.5 -199z" />
<glyph unicode="h" horiz-adv-x="1081" d="M63 0q20 176 44 364.5t46.5 381t45 381t43.5 364.5h215q-10 -66 -16.5 -128.5t-12.5 -121.5q-12 -115 -25.5 -210t-29.5 -173l8 -4q104 92 209.5 132t177.5 40q76 0 122 -19.5t70.5 -54t32.5 -81t8 -97.5q0 -10 -1 -22.5t-3 -24.5l-82 -727h-215l78 676q2 12 2 24.5v22.5 q0 72 -29.5 97.5t-82.5 25.5q-59 0 -140.5 -34t-160.5 -112l-84 -700h-220z" />
<glyph unicode="i" horiz-adv-x="532" d="M92 0q2 14 11.5 90t22.5 182.5t27.5 228.5t28 228.5t22.5 182t11 89.5h217l-123 -1001h-217zM223 1257q0 61 40.5 103.5t101.5 42.5q53 0 86.5 -33t33.5 -84q0 -59 -39.5 -100t-105.5 -41q-53 0 -85 31.5t-32 80.5z" />
<glyph unicode="j" horiz-adv-x="585" d="M-137 -305q96 37 153.5 86t89 108.5t46 131t24.5 155.5l90 825h217q-4 -43 -12 -117.5t-18.5 -161.5t-20.5 -177t-19.5 -166t-15.5 -128t-6 -63q-16 -129 -44 -237.5t-81 -191.5t-140 -138t-218 -80zM272 1257q0 61 40.5 103.5t101.5 42.5q55 0 88 -33t33 -84 q0 -59 -40 -100t-106 -41q-53 0 -85 31.5t-32 80.5z" />
<glyph unicode="k" horiz-adv-x="983" d="M70 0q47 367 90 728.5t90 729.5h215l-53 -434q-8 -59 -14.5 -108.5t-12.5 -95.5t-13.5 -94.5t-17.5 -109.5q8 -4 11 -4q100 94 201.5 192.5t201.5 196.5h240l-428 -411l69 -70l275 -520h-228q-59 121 -124.5 240.5t-125.5 240.5l-116 -108q-10 -94 -21.5 -187.5 t-23.5 -185.5h-215z" />
<glyph unicode="l" horiz-adv-x="532" d="M98 106q0 14 3 45t5 48l156 1290h211q-8 -68 -20.5 -174.5t-27.5 -233.5t-31.5 -263t-32 -260t-27.5 -226.5t-19 -161.5l134 2l12 -143q-57 -29 -122 -42.5t-106 -13.5q-78 0 -106.5 34t-28.5 99z" />
<glyph unicode="m" horiz-adv-x="1634" d="M66 0q33 252 62.5 507t57.5 494h207q-6 -41 -10 -71.5t-10 -63.5l8 -4q109 92 201 128t147 36q117 0 166 -51t57 -127q53 47 106.5 81t102.5 55.5t90 31.5t70 10q66 0 109 -16.5t68.5 -44t37.5 -65.5t14 -81v-33.5t-2 -37.5q-2 -45 -10 -126t-20.5 -183.5t-25.5 -216 t-26 -222.5h-215l82 694q2 10 2 18.5v18.5q0 66 -28.5 90.5t-85.5 24.5q-49 0 -121 -33t-150 -106l-76 -707h-215l82 694q2 10 2 18.5v18.5q0 66 -28.5 90.5t-85.5 24.5q-49 0 -116 -33t-146 -111l-84 -702h-217z" />
<glyph unicode="n" horiz-adv-x="1085" d="M66 0q31 252 61.5 498.5t58.5 502.5h209q-6 -41 -10 -71.5t-10 -65.5l6 -4q111 92 210 129t171 37q70 0 116 -18.5t73.5 -51t40 -74.5t12.5 -91q0 -14 -1.5 -27.5t-3.5 -28.5l-81 -735h-216l80 690q2 10 2 21.5v21.5q0 55 -26.5 84t-95.5 29q-59 0 -136 -34t-157 -112 l-84 -700h-219z" />
<glyph unicode="o" horiz-adv-x="1067" d="M74 389q0 115 29.5 228.5t93 203.5t163 146.5t240.5 56.5q109 0 185.5 -33t124.5 -90t69.5 -133t21.5 -162q0 -106 -26.5 -216.5t-88 -201t-162.5 -147.5t-251 -57q-113 0 -189.5 31.5t-122.5 86t-66.5 128t-20.5 159.5zM295 369q0 -45 9 -86t30.5 -72t59.5 -49.5 t98 -18.5q86 0 142 48.5t88 119t44 151.5t12 146q0 49 -9 94.5t-30.5 80t-57.5 55t-91 20.5q-90 0 -147.5 -51t-90.5 -126t-45 -160t-12 -152z" />
<glyph unicode="p" horiz-adv-x="1091" d="M14 -426q2 8 9.5 71.5t20.5 163t28.5 224.5t32 255t32 255t27.5 224t20.5 162.5t8.5 71.5h206q-4 -35 -9 -67.5t-11 -65.5l8 -6q92 80 188.5 116t167.5 36q129 0 206 -94.5t77 -272.5q0 -111 -28.5 -229.5t-92 -215t-162 -158.5t-235.5 -62q-53 0 -113.5 8t-113.5 26 q-8 -74 -15.5 -131t-13.5 -108t-12.5 -99.5t-12.5 -103.5h-213zM303 178q51 -18 100.5 -24.5t94.5 -6.5q55 0 110.5 30t98.5 88.5t70.5 146.5t27.5 204q0 129 -44 180.5t-110 51.5t-142.5 -40t-135.5 -89z" />
<glyph unicode="q" horiz-adv-x="1105" d="M68 350q0 104 27.5 222t92 217.5t170 164t260.5 64.5q96 0 193.5 -21.5t187.5 -66.5q4 -6 7.5 -10.5t7.5 -10.5q-41 -338 -81 -668.5t-81 -666.5h-217q8 66 18.5 144.5t20.5 154.5q10 78 19 141.5t20 104.5l-11 8q-94 -74 -186 -107.5t-160 -33.5q-135 0 -211.5 92 t-76.5 272zM289 379q0 -127 43 -178t108 -51q68 0 143.5 39.5t135.5 89.5l69 532q-53 25 -99 32t-91 7q-57 0 -112.5 -31t-99.5 -90t-70.5 -147t-26.5 -203z" />
<glyph unicode="r" horiz-adv-x="733" d="M88 0q29 233 60.5 490.5t60.5 513.5h199q-6 -57 -10.5 -93.5t-12.5 -87.5h6q59 90 118.5 144.5t137.5 54.5q43 0 81 -15.5t67 -58.5l-58 -160q-29 6 -53.5 10.5t-48.5 4.5q-92 0 -153.5 -48t-100.5 -120l-78 -635h-215z" />
<glyph unicode="s" horiz-adv-x="917" d="M27 63q14 35 29.5 70t29.5 71q102 -43 185 -53t137 -10q39 0 75.5 8.5t65.5 24.5t46 42t17 63q0 57 -30.5 83.5t-83.5 51.5q-61 29 -128 49t-122 50t-91 77t-36 127t31.5 137t87 94t129 55.5t157.5 18.5q68 0 154 -17.5t151 -56.5l-59 -137q-78 31 -136 40t-110 9 q-31 0 -63.5 -5t-61 -20.5t-47 -42t-18.5 -69.5q0 -25 17.5 -44.5t42 -34.5t54 -26.5t54.5 -19.5q45 -16 100 -34.5t104.5 -50.5t83 -81t33.5 -127q0 -86 -33.5 -146.5t-94 -99.5t-142.5 -56t-178 -17q-43 0 -90 5t-93.5 14t-90 24.5t-76.5 33.5z" />
<glyph unicode="t" horiz-adv-x="757" d="M92 856l12 119l158 41q23 59 45.5 115.5t44.5 115.5l146 17q-8 -66 -15.5 -131.5t-17.5 -131.5h289q-4 -35 -8.5 -72.5t-8.5 -72.5h-286l-68 -489q-2 -12 -4 -41t-2 -47q0 -47 22.5 -84t94.5 -37q23 0 72.5 6t111.5 22l29 -145q-33 -14 -73 -24.5t-79 -16.5t-75 -9 t-58 -3q-76 0 -126 16t-81 47t-43 75t-12 97q0 20 2 48t6 51l68 534h-144z" />
<glyph unicode="u" horiz-adv-x="1034" d="M74 184q0 33 3 65t7 62l74 690h215l-80 -690q-2 -10 -2 -20v-21q0 -57 27.5 -85.5t95.5 -28.5q59 0 131.5 33.5t152.5 111.5l86 700h213q-31 -250 -60.5 -490.5t-57.5 -510.5h-199q4 35 7 68.5t7 68.5l-6 4q-111 -92 -207 -128t-168 -36q-76 0 -123 17.5t-72.5 46.5 t-34.5 65.5t-9 77.5z" />
<glyph unicode="v" horiz-adv-x="989" d="M63 1001h224q10 -55 22.5 -117.5t25.5 -126t24.5 -126t21.5 -115.5q6 -35 13 -78t15.5 -89t15.5 -92t15 -85h11q6 12 22 52t37.5 92.5t46.5 110.5t47 112q31 66 66 147.5t66.5 156.5t55 131t29.5 68l203 -59q-49 -104 -110.5 -232t-124 -260.5t-123 -260.5t-109.5 -230 h-276q-55 252 -109.5 501t-108.5 500z" />
<glyph unicode="w" horiz-adv-x="1507" d="M76 1004h209l61 -498l33 -309h10l113 319l190 488h209l84 -506l41 -301h10l103 303l202 549l197 -58l-403 -991h-244l-74 444l-49 334h-10l-119 -334l-172 -444h-246q-2 14 -13 90t-26.5 182.5t-34 228.5t-34 228.5t-26.5 183t-11 91.5z" />
<glyph unicode="x" horiz-adv-x="989" d="M-16 14l387 504l-246 483h242l151 -346h17l268 396l186 -76l-352 -449l264 -526h-235l-172 389h-17l-311 -457z" />
<glyph unicode="y" horiz-adv-x="948" d="M-72 -406l41 150q51 -10 84 -15t68 -5q59 0 100 27.5t76 105.5q16 39 33.5 78.5t36.5 76.5h-105q-47 250 -92 496t-92 493h215q14 -92 32.5 -202.5t34.5 -220.5q23 -137 39.5 -255t24.5 -178h10q6 14 18.5 46t31 77t41 100.5t48.5 118.5q6 16 24.5 59.5t42.5 99.5 t49.5 118.5t49 119t41 100.5t25.5 60q49 -14 97 -28.5t99 -28.5q-127 -287 -261 -586t-259 -581q-53 -123 -133 -192.5t-201 -69.5q-31 2 -83 6t-136 30z" />
<glyph unicode="z" horiz-adv-x="935" d="M6 121l617 713l-7 12h-454l18 155h701l26 -124l-610 -711l4 -10h549l-19 -156h-804z" />
<glyph unicode="{" horiz-adv-x="581" d="M74 541l14 116q59 16 99 48t51 106l51 385q6 49 24.5 92t50 77t78.5 53.5t111 19.5h111q-6 -35 -10.5 -67t-10.5 -66h-51q-39 0 -61.5 -12.5t-35 -32t-16.5 -47t-8 -58.5l-39 -317q-10 -74 -42 -139.5t-97 -90.5l-4 -12q53 -29 71.5 -73t18.5 -97q0 -16 -1 -32.5 t-3 -33.5q-12 -111 -26.5 -219t-29.5 -219q-2 -10 -2 -21.5v-21.5q0 -37 14.5 -63.5t63.5 -26.5h64l-15 -131h-106q-66 0 -105.5 14.5t-63.5 40t-32 60t-8 75.5q0 45 6 95l47 393q2 12 3 24.5t1 22.5q0 55 -24.5 97t-87.5 61z" />
<glyph unicode="|" horiz-adv-x="548" d="M207 -291v1731h147v-1731h-147z" />
<glyph unicode="}" horiz-adv-x="581" d="M-49 -340q6 35 10 66.5t10 66.5h52q39 0 61 12.5t34.5 32t16.5 47t8 58.5q10 88 15.5 187t20 188.5t47 158t98.5 92.5l4 13q-53 29 -71.5 72.5t-18.5 97.5q0 16 1 32.5t3 32.5q6 55 12 97t13 82t14.5 82t13.5 98q2 10 2 21v22q0 37 -14.5 63.5t-63.5 26.5h-63l14 131h106 q63 0 104.5 -14.5t65 -40t31.5 -60.5t8 -76q0 -45 -6 -94l-45 -313q-2 -12 -3 -24.5t-1 -22.5q0 -55 24.5 -97.5t88.5 -60.5l-15 -117q-59 -16 -99 -48t-50 -105l-53 -465q-6 -49 -23.5 -92t-50.5 -77t-80 -53.5t-111 -19.5h-110z" />
<glyph unicode="~" d="M158 557q49 96 116.5 145.5t145.5 49.5q49 0 104.5 -15.5t110.5 -33t108.5 -33t96.5 -15.5l145 99l72 -64q-47 -92 -113.5 -145t-148.5 -53q-61 0 -117.5 14t-108 32.5t-97.5 33t-87 14.5l-156 -97z" />
<glyph unicode="&#xa2;" d="M193 354q0 96 19 209t72.5 212t148.5 168t249 79l20 160h86l-20 -160q72 -4 137.5 -23.5t118.5 -56.5l-61 -133q-68 31 -121.5 39t-93.5 10l-86 -708q55 4 111 19t122 38l43 -133q-59 -33 -138 -54.5t-159 -31.5l-20 -162h-86l18 158q-98 2 -166 29.5t-111 76.5 t-63 116.5t-20 147.5zM410 385q0 -92 35.5 -155.5t127.5 -77.5l89 698q-63 -16 -110.5 -58t-79.5 -104.5t-47 -139.5t-15 -163z" />
<glyph unicode="&#xa3;" d="M57 0l19 152q45 20 77.5 57t54 82t36 93t22.5 95q6 37 12.5 74t14.5 74h-129q4 33 7 63.5t7 63.5h137l43 235q18 86 52 158t87.5 124t129 81.5t176.5 29.5q96 0 182 -20.5t145 -50.5q-18 -39 -35.5 -78t-33.5 -78q-82 37 -146.5 46t-111.5 9q-66 0 -109 -18t-71.5 -52 t-45 -82t-28.5 -108q-10 -47 -18.5 -96t-16.5 -100h342l-14 -127h-350q-6 -41 -13.5 -82t-15.5 -82q-8 -45 -20.5 -91t-29 -87t-38 -76t-47.5 -55h663l-18 -154h-916z" />
<glyph unicode="&#xa5;" d="M129 408l10 96h869l-11 -96h-327l-49 -408h-220l50 408h-322zM152 602l12 94h252q-25 72 -55.5 158t-61.5 176t-60.5 176t-54.5 158h213q12 -41 27.5 -90t31 -100.5t30 -100.5t28.5 -90l76 -258h10q14 27 32.5 60.5t37 68.5t38 68.5t35.5 60.5q8 14 39 69.5t67 120 t66.5 120t40.5 71.5h222q-45 -72 -98.5 -158t-106.5 -176t-105.5 -176t-95.5 -158h260l-12 -94h-868z" />
<glyph unicode="&#xa7;" horiz-adv-x="978" d="M66 -133q10 35 23 67.5t24 65.5q92 -31 157.5 -39t118.5 -8q115 0 186.5 54t71.5 132q0 55 -44 92t-122 74q-59 29 -121.5 57.5t-112.5 64.5t-83 85t-33 117q0 88 46 163.5t132 135.5q-51 41 -73.5 90t-22.5 110q0 90 36 154t95 104.5t135 60t156 19.5q86 0 167 -16 t132 -39q-12 -35 -26.5 -70.5t-26.5 -70.5q-78 27 -143.5 35t-121.5 8q-37 0 -74.5 -11.5t-68.5 -32t-50.5 -52t-19.5 -70.5t28 -68.5t69 -54.5t89 -46.5t89 -41.5q39 -20 78 -43t67.5 -53.5t47 -68.5t18.5 -89q0 -82 -42 -152.5t-128 -142.5q76 -55 100.5 -123.5 t24.5 -128.5q0 -84 -39 -145.5t-103.5 -101.5t-150.5 -60.5t-178 -20.5t-170 17.5t-137 42.5zM317 676q0 -49 26 -78t66 -50.5t91 -42t102 -52.5q53 53 80 103t27 83q0 43 -26 74.5t-67 56.5t-90 46t-94 46q-55 -41 -85 -86t-30 -100z" />
<glyph unicode="&#xa8;" horiz-adv-x="1054" d="M315 1253q2 53 41 87t86 34q53 0 81 -26.5t28 -71.5q-2 -53 -38 -89t-95 -36q-49 0 -77 28.5t-26 73.5zM713 1253q2 53 39 87t86 34q51 0 79.5 -26.5t26.5 -71.5q0 -53 -37 -89t-96 -36q-49 0 -74.5 28.5t-23.5 73.5z" />
<glyph unicode="&#xa9;" horiz-adv-x="1724" d="M137 680q0 156 60.5 294t165 240.5t243.5 162t297 59.5q156 0 295 -59.5t243.5 -162t165 -240.5t60.5 -294q0 -158 -60.5 -296t-165 -241.5t-243.5 -163t-295 -59.5q-158 0 -297 59.5t-243.5 163t-165 241.5t-60.5 296zM242 680q0 -135 52 -255t142 -208t211 -139 t256 -51q137 0 258 51t210 139t140.5 208t51.5 255t-51.5 254t-140.5 208t-210 140t-258 51q-135 0 -256 -51t-211 -140t-142 -208t-52 -254zM473 664q0 82 20.5 174t72.5 167.5t141.5 126t228.5 50.5q82 0 143.5 -11.5t108.5 -27.5l-29 -121q-57 20 -110.5 26.5t-98.5 6.5 q-152 0 -230.5 -101.5t-78.5 -287.5q0 -86 15.5 -155t51 -118t95 -75.5t149.5 -26.5q18 0 47 2t62 5t65.5 9t59.5 15l26 -115q-29 -10 -64.5 -18.5t-74.5 -14.5t-79 -10t-76 -4q-125 0 -210 38t-137.5 104.5t-75 158.5t-22.5 203z" />
<glyph unicode="&#xaa;" horiz-adv-x="768" d="M76 782q0 72 19.5 151t62.5 143.5t112.5 106.5t167.5 42q88 0 170 -35l15 33l131 -4q-20 -117 -41 -257.5t-39 -291.5l80 2l10 -99q-41 -18 -84 -25t-68 -7q-92 0 -98 80v10q-55 -43 -115.5 -66.5t-107.5 -23.5q-102 0 -158.5 62.5t-56.5 178.5zM248 809 q0 -78 28.5 -107.5t67.5 -29.5q41 0 89 23.5t87 54.5l47 331q-31 10 -62.5 13.5t-58.5 3.5q-37 0 -71.5 -18.5t-63 -54.5t-46 -90t-17.5 -126z" />
<glyph unicode="&#xab;" horiz-adv-x="913" d="M100 354l11 80l348 344l80 -67l-242 -318l164 -315l-96 -66zM428 354l10 80l350 344l78 -67l-241 -318l163 -315l-94 -66z" />
<glyph unicode="&#xac;" d="M199 545l16 141h793l-60 -487h-143l43 346h-649z" />
<glyph unicode="&#xad;" horiz-adv-x="751" d="M115 461l22 168h529l-23 -168h-528z" />
<glyph unicode="&#xae;" horiz-adv-x="1208" d="M160 961q0 104 39 196t107.5 160.5t161.5 108.5t202 40q106 0 199.5 -40t163 -108.5t108.5 -160.5t39 -196t-39 -196.5t-108.5 -161t-163 -108.5t-199.5 -40t-199.5 40t-162 108.5t-108.5 160.5t-40 197zM244 961q0 -88 32.5 -165t89 -134.5t134.5 -91t170 -33.5 q94 0 172 33.5t134 91t88 134.5t32 165t-33 164.5t-89 135t-134 92t-170 33.5q-90 0 -168 -33.5t-135.5 -92t-90 -135t-32.5 -164.5zM483 670v598h222q94 0 144 -45t50 -127q0 -39 -25.5 -86t-80.5 -72l122 -268h-116l-109 252h-96v-252h-111zM594 997h92q41 0 70.5 20 t29.5 79q0 53 -28.5 74.5t-67.5 21.5h-96v-195z" />
<glyph unicode="&#xb0;" horiz-adv-x="731" d="M115 1114q2 57 24.5 107.5t60.5 88.5t89 59.5t108 21.5t106.5 -21.5t86.5 -59.5t57.5 -88.5t20.5 -107.5t-22.5 -107.5t-60.5 -87t-89.5 -58t-108.5 -21.5q-61 0 -112.5 20.5t-87 57t-55 87t-17.5 109.5zM229 1108q-2 -66 43 -113t113 -47t116 46t50 114q0 70 -47 119 t-115 49t-113 -49t-47 -119z" />
<glyph unicode="&#xb1;" d="M133 0l17 133h788l-16 -133h-789zM201 557l16 143h326l37 316h143l-39 -316h324l-19 -143h-321l-41 -321h-142l39 321h-323z" />
<glyph unicode="&#xb4;" horiz-adv-x="1024" d="M469 1190l305 344l129 -141l-344 -291z" />
<glyph unicode="&#xb6;" horiz-adv-x="1110" d="M158 993q0 88 30.5 167t87 138.5t136.5 94t176 34.5h465q-55 -463 -111.5 -918.5t-114.5 -916.5h-147q53 422 102 840t103 844h-129l-203 -1684h-154l125 1045q-90 0 -157.5 25.5t-114.5 72.5t-70.5 112.5t-23.5 145.5z" />
<glyph unicode="&#xb7;" horiz-adv-x="456" d="M119 563q0 57 41 97t102 40q53 0 84 -29.5t31 -78.5q0 -59 -42 -101t-104 -42q-53 0 -82.5 32.5t-29.5 81.5z" />
<glyph unicode="&#xb8;" horiz-adv-x="923" d="M207 -510l6 88q111 10 177.5 41t66.5 84q0 25 -18.5 38t-45 19.5t-58.5 8.5t-59 2q-8 12 -12 23t-12 24q59 66 116.5 132t116.5 130q16 -12 33 -22.5t33 -20.5q-35 -39 -70 -79t-69 -81q90 -6 141 -43t51 -106q0 -45 -22.5 -87t-71.5 -76t-124 -54.5t-179 -20.5z" />
<glyph unicode="&#xba;" horiz-adv-x="737" d="M70 819q0 74 19.5 148.5t62.5 133t112.5 95.5t167.5 37q76 0 130 -21.5t88 -59.5t50.5 -89t16.5 -109q0 -70 -17.5 -142.5t-60.5 -130.5t-112.5 -96t-174.5 -38q-154 0 -218 77.5t-64 194.5zM236 805q2 -53 28.5 -95t100.5 -42q57 0 93 29.5t56.5 72.5t26.5 93t6 91 q-2 63 -26.5 109.5t-96.5 46.5q-59 0 -96 -31.5t-57.5 -79t-27.5 -99.5t-7 -95z" />
<glyph unicode="&#xbb;" horiz-adv-x="913" d="M51 78l240 315l-162 318l96 67l267 -344l-11 -80l-350 -342zM381 78l237 315l-161 318l98 67l264 -344l-10 -80l-350 -342z" />
<glyph unicode="&#xf7;" d="M186 545l17 141h796l-16 -141h-797zM436 268q2 53 41 89t88 36q43 0 73 -28.5t28 -73.5q-2 -53 -40 -92t-87 -39q-43 0 -74 31.5t-29 76.5zM520 942q0 25 11.5 48.5t29 41t39.5 27.5t47 10q47 0 75 -29.5t26 -74.5q0 -27 -11.5 -50.5t-29 -42t-40 -28.5t-46.5 -10 q-45 0 -73 31.5t-28 76.5z" />
<glyph unicode="&#x2c6;" horiz-adv-x="1048" d="M242 1159l338 301h137l270 -301l-61 -69l-293 202l-340 -202z" />
<glyph unicode="&#x2da;" horiz-adv-x="1050" d="M416 1352q4 47 25.5 90t55 74.5t77.5 51t96 19.5q49 0 88 -18.5t65.5 -49t38.5 -71.5t6 -86q-4 -49 -25.5 -92t-55 -75t-78 -50.5t-91.5 -18.5t-86.5 17.5t-66.5 48.5t-40 72t-9 88zM524 1352q-6 -51 21.5 -88t85.5 -37q53 0 90 38t41 91q6 51 -21.5 87t-78.5 36 q-55 0 -94.5 -37t-43.5 -90z" />
<glyph unicode="&#x2dc;" horiz-adv-x="1048" d="M287 1219q41 84 95 127t114 43q39 0 79.5 -12.5t79.5 -27t76 -26.5t68 -12l123 82l57 -56q-35 -78 -88.5 -125t-116.5 -47q-47 0 -89 12.5t-80 28t-71.5 27.5t-62.5 12l-123 -80z" />
<glyph unicode="&#x3a9;" horiz-adv-x="1427" d="M14 0q12 80 19 160h221q0 2 1 3t1 3q-72 59 -95.5 159.5t-23.5 219.5q0 166 36 324.5t118 282.5t212 199.5t318 75.5q150 0 253.5 -44t167 -120.5t92 -181t28.5 -223.5q0 -100 -15.5 -201.5t-47 -193.5t-80 -168t-111.5 -125q0 -2 1 -5t1 -5h213l-18 -160h-531 q6 41 10 83t11 83q86 23 149.5 89.5t103 160.5t59 208.5t19.5 231.5q0 88 -15 161t-51 126t-94.5 82.5t-144.5 29.5q-123 0 -209 -58t-139 -158.5t-77.5 -232.5t-24.5 -280q0 -145 50 -238t140 -120q-6 -43 -11 -85t-9 -83h-527z" />
<glyph unicode="&#x3c0;" horiz-adv-x="1085" d="M68 0q27 223 55.5 462.5t64.5 538.5h840q-16 -162 -32.5 -314t-32 -284.5t-27.5 -236t-18 -166.5h-216q6 45 13.5 112.5t16.5 147.5t19.5 165t19.5 165t17.5 146.5t12.5 111.5h-416l-102 -848h-215z" />
<glyph unicode="&#x401;" horiz-adv-x="1136" d="M100 0l172 1405h867l-21 -168h-641l-51 -418h551l-21 -160h-550l-60 -489h684l-20 -170h-910zM422 1591q2 51 41 85t86 34q49 0 77.5 -26.5t26.5 -69.5q0 -53 -36.5 -88t-92.5 -35q-49 0 -75.5 28.5t-26.5 71.5zM817 1589q2 53 37 87t86 34t79 -26.5t28 -69.5 q-2 -53 -38 -88t-96 -35q-47 0 -72.5 27.5t-23.5 70.5z" />
<glyph unicode="&#x402;" horiz-adv-x="1576" d="M160 1233l22 172h1155l-22 -172h-514l-49 -420q98 39 190 56.5t170 17.5q180 0 282.5 -95.5t102.5 -277.5q0 -127 -44 -240.5t-113.5 -210t-155.5 -171t-172 -121.5l-76 118q70 51 129 114t102 135.5t68 154.5t25 168q0 135 -58.5 194.5t-171.5 59.5q-66 0 -143.5 -15.5 t-155.5 -46.5l-80 -653h-221l150 1233h-420z" />
<glyph unicode="&#x403;" horiz-adv-x="1077" d="M104 0l170 1405h875l-21 -174h-649l-149 -1231h-226zM573 1579l375 262l92 -149l-407 -205z" />
<glyph unicode="&#x404;" horiz-adv-x="1208" d="M137 549q0 78 12.5 174t43 194.5t84 190.5t133 163.5t191.5 115t259 43.5q104 0 191.5 -16.5t152.5 -41.5l-51 -170q-78 27 -152.5 35t-136.5 8q-186 0 -304 -113.5t-163 -320.5q129 4 259 6t262 4l-19 -174l-522 8q-4 -35 -7 -66.5t-3 -60.5q0 -80 19.5 -146.5 t62.5 -114.5t113.5 -74.5t174.5 -26.5q25 0 64 3t84 8t91 13.5t87 20.5l31 -160q-41 -16 -94.5 -28.5t-109.5 -21.5t-113.5 -13t-106.5 -4q-154 0 -256.5 41t-164 114.5t-87 178t-25.5 231.5z" />
<glyph unicode="&#x405;" horiz-adv-x="1183" d="M66 92l71 166q125 -59 225.5 -76.5t174.5 -17.5q70 0 128 12t101 39t67.5 71t26.5 107q0 55 -16.5 91t-47 60.5t-75.5 41t-100 32.5q-86 25 -164 51.5t-136.5 68.5t-93 103.5t-34.5 153.5q0 104 38.5 185.5t108.5 136.5t167 84t212 29q43 0 93 -4.5t100.5 -15.5 t100.5 -28.5t93 -44.5l-78 -159q-92 43 -177 56t-157 13q-106 0 -183 -53t-81 -168q0 -49 20.5 -83t56.5 -57.5t84 -39t101 -29.5q66 -18 137.5 -41.5t131 -64.5t97.5 -107.5t38 -173.5q0 -121 -44 -206t-122 -139t-183.5 -78.5t-230.5 -24.5q-104 0 -223 22.5t-227 87.5z " />
<glyph unicode="&#x406;" horiz-adv-x="563" d="M119 0l172 1405h223l-172 -1405h-223z" />
<glyph unicode="&#x407;" horiz-adv-x="563" d="M115 1620q2 53 41 87t86 34q53 0 80.5 -26.5t27.5 -72.5q-2 -53 -38 -88.5t-95 -35.5q-49 0 -76.5 28.5t-25.5 73.5zM119 0l172 1405h223l-172 -1405h-223zM512 1620q2 53 39 87t86 34q51 0 79.5 -26.5t26.5 -72.5q0 -53 -36.5 -88.5t-96.5 -35.5q-49 0 -74.5 28.5 t-23.5 73.5z" />
<glyph unicode="&#x408;" horiz-adv-x="663" d="M-182 -215q125 51 200.5 101.5t118.5 108.5t61.5 129t30.5 161l140 1122h227l-139 -1120q-18 -139 -55 -247t-106 -189.5t-174.5 -138t-256.5 -91.5z" />
<glyph unicode="&#x409;" horiz-adv-x="1978" d="M-20 104q119 39 195.5 110t126.5 184.5t81 276.5t59 384l43 346h772l-71 -565h295q205 0 312.5 -102.5t107.5 -270.5q0 -111 -38 -198t-103.5 -147.5t-152.5 -91t-186 -30.5h-565l156 1245h-340l-17 -143q-29 -225 -65.5 -423t-104 -351.5t-178 -254t-287.5 -130.5z M1102 162h293q55 0 105 18.5t88 55t60.5 93t22.5 130.5q0 57 -19.5 99t-53 68.5t-77.5 39t-96 12.5h-258z" />
<glyph unicode="&#x40a;" horiz-adv-x="1953" d="M102 0l170 1405h228l-72 -571h504l69 571h228l-72 -567h293q205 0 313.5 -100.5t108.5 -270.5q0 -111 -38 -198t-103.5 -146.5t-151.5 -91t-184 -31.5h-566l82 672h-501l-82 -672h-226zM1077 162h289q55 0 105.5 18.5t88 55t59 93t21.5 130.5q0 57 -19 98t-52 66.5 t-77 37t-95 11.5h-260z" />
<glyph unicode="&#x40b;" horiz-adv-x="1607" d="M133 1233l23 172h1173l-20 -172h-518l-52 -406q96 35 192.5 52.5t182.5 17.5q88 0 161 -21.5t122 -64.5t71.5 -108.5t10.5 -153.5l-72 -549h-225l65 516q16 123 -41 168t-176 45q-78 0 -163 -19.5t-148 -47.5l-82 -662h-219l149 1233h-434z" />
<glyph unicode="&#x40c;" horiz-adv-x="1243" d="M100 0l172 1403h222q-16 -141 -34 -283.5t-34 -285.5h199q92 0 160.5 46t115.5 162l135 359h219l-143 -391q-35 -92 -93 -159t-130 -95l-2 -13q84 -31 128 -99.5t60 -170.5l66 -473h-219l-66 440q-10 66 -33.5 108t-56.5 65.5t-72 32.5t-78 9h-213q-18 -158 -39.5 -329.5 t-37.5 -325.5h-226zM631 1575l375 262l92 -149l-408 -205z" />
<glyph unicode="&#x40e;" horiz-adv-x="1181" d="M125 6l51 168q39 -10 75 -15t71 -5q51 0 91 22.5t68 83.5l64 139h-68l-325 1004h231q43 -152 71.5 -259.5t54.5 -199.5t52.5 -184t63.5 -211h10q27 63 67.5 158.5t89 210t102.5 239.5t107 246h232l-551 -1210q-51 -113 -124 -167.5t-185 -54.5q-57 0 -111.5 5.5 t-136.5 29.5zM383 1735l111 80q49 -82 109.5 -127.5t117.5 -45.5q18 0 45 3.5t63.5 18.5t87 47t113.5 89l55 -63q-106 -139 -206.5 -193.5t-184.5 -54.5q-55 0 -101 20.5t-84 54t-68.5 78t-57.5 93.5z" />
<glyph unicode="&#x40f;" horiz-adv-x="1353" d="M102 0l172 1403h222l-152 -1239h598l152 1239h227l-170 -1403h-432l-47 -365h-180l47 365h-437z" />
<glyph unicode="&#x410;" horiz-adv-x="1226" d="M-31 0l627 1405h285l274 -1405h-229l-62 346h-520l-145 -346h-230zM418 512h418l-66 379l-49 338h-6l-129 -318z" />
<glyph unicode="&#x411;" horiz-adv-x="1224" d="M102 0l172 1405h856l-18 -162h-633l-51 -403h295q205 0 312.5 -101.5t107.5 -271.5q0 -111 -38 -198t-103.5 -147.5t-151.5 -91t-184 -30.5h-564zM348 162h289q55 0 105.5 18.5t88 56t60 93t22.5 129.5q0 57 -19.5 99t-52 68.5t-77.5 39t-96 12.5h-258z" />
<glyph unicode="&#x412;" horiz-adv-x="1253" d="M100 0l170 1403h537q193 0 281 -89t88 -237q0 -111 -52.5 -197.5t-162.5 -138.5l-5 -14q55 -23 89 -57.5t54.5 -75.5t28 -85t7.5 -81q0 -94 -38 -173t-100.5 -135.5t-145.5 -88t-173 -31.5h-578zM342 168h287q70 0 123 22.5t86.5 60.5t51 88t17.5 105q0 84 -53 142.5 t-166 58.5h-287zM422 805h254q127 0 197.5 67.5t70.5 180.5q0 82 -50 132t-163 50h-256z" />
<glyph unicode="&#x413;" horiz-adv-x="1077" d="M104 0l170 1405h875l-21 -174h-649l-149 -1231h-226z" />
<glyph unicode="&#x414;" horiz-adv-x="1419" d="M-70 -350l60 512l125 2q78 72 132 168t95 219t72.5 272.5t64.5 329.5l47 252h817l-153 -1241l135 -2l-61 -512h-174l43 350h-988l-43 -350h-172zM354 164h613l133 1079h-402l-28 -147q-37 -205 -68 -352.5t-65.5 -255t-77.5 -184.5t-105 -140z" />
<glyph unicode="&#x415;" horiz-adv-x="1136" d="M100 0l172 1405h867l-21 -168h-641l-51 -418h551l-21 -160h-550l-60 -489h684l-20 -170h-910z" />
<glyph unicode="&#x416;" horiz-adv-x="1878" d="M-2 0l192 498q35 90 89.5 156.5t146.5 88.5l2 11q-72 29 -115 94t-53 162l-49 391h213q12 -90 24.5 -179t26.5 -180q10 -68 37 -109.5t61.5 -63t72.5 -28.5t73 -7h160l71 569h217q-16 -141 -33.5 -283.5t-35.5 -285.5h162q98 0 170.5 56t109.5 167l117 344h217 q-31 -98 -63.5 -196.5t-65.5 -196.5q-31 -96 -83 -161t-132 -93v-13q86 -29 126 -98.5t52 -155.5l68 -487h-220l-65 440q-16 104 -74.5 159.5t-167.5 55.5h-172q-20 -166 -39.5 -328.5t-42.5 -326.5h-217q16 137 27.5 237.5t21 176t17.5 132t14 109.5h-172q-41 0 -82 -9 t-80 -32.5t-72.5 -65.5t-58.5 -108q-8 -23 -32.5 -86t-52 -135t-53.5 -134t-34 -85h-223z" />
<glyph unicode="&#x417;" horiz-adv-x="1163" d="M16 74l66 155q104 -35 196.5 -47t155.5 -12q197 0 298.5 76t101.5 221q0 100 -74 156.5t-209 56.5h-168q2 12 5 32.5t5 43t4 44t4 34.5h156q147 0 230 69.5t83 169.5q0 98 -71.5 137t-190.5 39q-76 0 -167 -14t-185 -49l-47 155q92 41 213 65t237 24q94 0 177.5 -18.5 t142.5 -57.5t94 -99.5t35 -146.5q0 -117 -65.5 -206t-184.5 -134l-2 -10q104 -35 158.5 -114t54.5 -177q0 -121 -50 -210t-134 -148.5t-193.5 -89t-226.5 -29.5q-115 0 -232.5 18.5t-216.5 65.5z" />
<glyph unicode="&#x418;" horiz-adv-x="1380" d="M100 0l170 1401h224l-134 -1061h7q8 10 62 86t133 185.5t171 237.5t174 243.5t143.5 200.5t79.5 112l216 -4l-172 -1401h-220q35 268 67 530.5t64 530.5h-4l-219 -309l-315 -441l-223 -311h-224z" />
<glyph unicode="&#x419;" horiz-adv-x="1380" d="M100 0l170 1401h224l-134 -1061h7q8 10 62 86t133 185.5t171 237.5t174 243.5t143.5 200.5t79.5 112l216 -4l-172 -1401h-220q35 268 67 530.5t64 530.5h-4l-219 -309l-315 -441l-223 -311h-224zM498 1759l112 80q49 -82 109.5 -127t116.5 -45q18 0 44.5 3t63.5 18.5 t86 47t115 89.5l61 -64q-106 -139 -208.5 -194.5t-186.5 -55.5q-55 0 -101 21.5t-85 56.5t-70 79t-57 91z" />
<glyph unicode="&#x41a;" horiz-adv-x="1243" d="M100 0l172 1403h222q-16 -141 -34 -283.5t-34 -285.5h199q92 0 160.5 46t115.5 162l135 359h219l-143 -391q-35 -92 -93 -159t-130 -95l-2 -13q84 -31 128 -99.5t60 -170.5l66 -473h-219l-66 440q-10 66 -33.5 108t-56.5 65.5t-72 32.5t-78 9h-213q-18 -158 -39.5 -329.5 t-37.5 -325.5h-226z" />
<glyph unicode="&#x41b;" horiz-adv-x="1380" d="M-35 113q117 37 192.5 106.5t124 182t77 274.5t55.5 383l41 346h891l-172 -1405h-228l150 1227h-447l-14 -125q-29 -225 -63.5 -423t-101.5 -351.5t-176.5 -254t-285.5 -130.5z" />
<glyph unicode="&#x41c;" horiz-adv-x="1683" d="M59 0l299 1405h240q39 -168 68.5 -288t51 -210t38 -158.5t32.5 -132.5l41 -217h17q23 55 46 109.5t46 107.5q12 29 41 93.5t64.5 144.5t74.5 168t74 166t60.5 136t35.5 81h254q-2 -354 -2 -703.5v-701.5h-221q10 207 11 405.5t9 415.5l4 260h-10l-106 -252l-330 -694 h-192q-43 174 -83 344t-81 344l-52 244h-10l-43 -248q-35 -205 -73.5 -409.5t-79.5 -409.5h-224z" />
<glyph unicode="&#x41d;" horiz-adv-x="1347" d="M102 0l170 1405h228q-6 -61 -15.5 -137t-19.5 -153t-19.5 -151.5t-17.5 -136.5h588l69 578h230l-170 -1405h-230l80 651h-587q-10 -70 -19.5 -153.5t-20 -171.5t-20.5 -172t-18 -154h-228z" />
<glyph unicode="&#x41e;" horiz-adv-x="1429" d="M135 547q0 166 40 324.5t124 282.5t215 198.5t313 74.5q147 0 248 -45t162 -124.5t89 -186t28 -229.5q0 -180 -44 -337t-130 -273.5t-212 -183t-290 -66.5q-143 0 -245.5 39.5t-169 113.5t-97.5 178.5t-31 233.5zM369 541q0 -190 74.5 -288.5t244.5 -98.5q117 0 199 58 t134 155.5t75.5 223.5t23.5 261q0 80 -13 153.5t-47 130t-92.5 90.5t-148.5 34q-129 0 -216 -66t-139 -170t-73.5 -232t-21.5 -251z" />
<glyph unicode="&#x41f;" horiz-adv-x="1359" d="M109 0l172 1405h1042l-172 -1405h-229l149 1227h-588l-147 -1227h-227z" />
<glyph unicode="&#x420;" d="M100 0l174 1405h476q197 0 295 -97.5t98 -277.5q0 -78 -25.5 -162t-83 -152.5t-147.5 -112.5t-219 -44h-275l-65 -559h-228zM414 725h235q47 0 94.5 14.5t86 48t62 91t23.5 141.5q0 113 -58 165t-155 52h-225z" />
<glyph unicode="&#x421;" horiz-adv-x="1208" d="M139 553q0 78 12.5 174t43 193.5t83 189.5t132 162.5t191.5 114t259 43.5q104 0 191.5 -16.5t152.5 -41.5l-51 -168q-78 27 -151.5 35t-137.5 8q-236 0 -363.5 -180t-127.5 -508q0 -92 17.5 -164.5t60.5 -123t112.5 -78t173.5 -27.5q27 0 66 3t83 8t90 14.5t87 21.5 l33 -162q-41 -16 -94.5 -28.5t-110.5 -21.5t-114.5 -14t-106.5 -5q-152 0 -254.5 40.5t-164 116.5t-87 181.5t-25.5 232.5z" />
<glyph unicode="&#x422;" horiz-adv-x="1161" d="M133 1231l23 174h1091l-22 -174h-434l-152 -1231h-221l149 1231h-434z" />
<glyph unicode="&#x423;" horiz-adv-x="1181" d="M125 6l51 168q39 -10 75 -15t71 -5q51 0 91 22.5t68 83.5l64 139h-68l-325 1004h231q43 -152 71.5 -259.5t54.5 -199.5t52.5 -184t63.5 -211h10q27 63 67.5 158.5t89 210t102.5 239.5t107 246h232l-551 -1210q-51 -113 -124 -167.5t-185 -54.5q-57 0 -111.5 5.5 t-136.5 29.5z" />
<glyph unicode="&#x424;" horiz-adv-x="1648" d="M109 655q0 121 47 231.5t139 196.5t225 139.5t305 59.5l17 121h221l-14 -121q141 -6 246.5 -49t175 -112.5t103.5 -159t34 -189.5q0 -133 -49.5 -242.5t-140.5 -190.5t-220 -130t-289 -59l-20 -150h-219q4 37 8 75t8 75q-141 8 -249.5 48t-181.5 106.5t-109.5 156.5 t-36.5 194zM332 664q0 -164 98 -251t277 -100l98 801q-117 -8 -205 -46t-147.5 -98.5t-90 -139t-30.5 -166.5zM930 313q102 8 187 44t145.5 94.5t93.5 135.5t33 165q0 63 -21.5 126.5t-66 113.5t-112 83t-161.5 39z" />
<glyph unicode="&#x425;" horiz-adv-x="1185" d="M-35 0l529 729q-80 168 -163 337t-167 337h252q59 -135 117.5 -265t119.5 -266l367 531h256q-129 -172 -257 -340t-255 -340q86 -182 175 -362.5t177 -360.5h-248q-66 141 -131 284.5t-131 286.5l-391 -571h-250z" />
<glyph unicode="&#x426;" horiz-adv-x="1392" d="M100 0l172 1401h224q-39 -311 -77 -619.5t-75 -619.5h590q37 311 75 619.5t76 619.5h228q-37 -311 -75 -619.5t-77 -619.5h156l-62 -510h-172q10 88 21.5 175t23.5 173h-1028z" />
<glyph unicode="&#x427;" horiz-adv-x="1253" d="M129 883l64 518h227l-58 -467q-14 -115 52.5 -166t183.5 -51q37 0 80 4t86 12t83 19.5t73 23.5l77 625h222l-170 -1401h-224l74 600q-90 -29 -186.5 -44t-173.5 -15q-94 0 -174 19.5t-135.5 60.5t-83 106.5t-17.5 155.5z" />
<glyph unicode="&#x428;" horiz-adv-x="1882" d="M102 0l170 1405h222l-152 -1241h457l151 1241h219l-151 -1241h452l152 1241h225l-170 -1405h-1575z" />
<glyph unicode="&#x429;" horiz-adv-x="1927" d="M102 0l170 1405h222l-152 -1241h457l151 1241h219l-151 -1241h452l152 1241h225l-151 -1241h155l-63 -514h-172l45 350h-1559z" />
<glyph unicode="&#x42a;" horiz-adv-x="1476" d="M55 1227l21 178h692l-70 -565h289q205 0 315.5 -99.5t110.5 -271.5q0 -117 -39 -204t-104.5 -146.5t-152.5 -89t-185 -29.5h-557l145 1227h-465zM616 158h289q57 0 108.5 19.5t89.5 57t60.5 94t22.5 132.5q0 57 -19.5 98t-52.5 68.5t-78 41t-96 13.5h-258z" />
<glyph unicode="&#x42b;" horiz-adv-x="1714" d="M102 0l172 1405h226l-68 -565h293q201 0 310.5 -102.5t109.5 -270.5q0 -113 -38 -200t-103.5 -146.5t-152.5 -90t-185 -30.5h-564zM348 162h291q55 0 105.5 18.5t88 55t60 92t22.5 129.5q0 57 -19 99t-52 68.5t-77 40t-95 13.5h-260zM1286 0l172 1405h223l-172 -1405 h-223z" />
<glyph unicode="&#x42c;" horiz-adv-x="1208" d="M102 0l172 1405h226l-68 -565h293q201 0 310.5 -102.5t109.5 -270.5q0 -113 -38 -200t-103.5 -146.5t-152.5 -90t-185 -30.5h-564zM348 162h291q55 0 105.5 18.5t88 55t60 92t22.5 129.5q0 57 -19 99t-52 68.5t-77 40t-95 13.5h-260z" />
<glyph unicode="&#x42d;" horiz-adv-x="1210" d="M29 49l59 164q76 -23 157 -35t144 -12q117 0 205 38t148.5 104.5t95 155.5t45.5 191l-506 -8l20 172l502 -10q0 6 1 11t1 11q0 86 -20.5 162t-63.5 131.5t-110.5 88t-161.5 32.5q-41 0 -76 -3t-71 -8t-74.5 -13.5t-85.5 -18.5l-39 166q74 25 171 42t205 17 q162 0 269.5 -46t172 -123.5t91.5 -180t27 -215.5q0 -172 -39 -330.5t-126 -280.5t-224.5 -193.5t-333.5 -71.5q-49 0 -101.5 4t-103.5 11t-96 19.5t-82 28.5z" />
<glyph unicode="&#x42e;" horiz-adv-x="1902" d="M100 0l172 1405h226l-76 -594h270q25 123 73 234.5t125 196.5t186.5 135t258.5 50q141 0 238.5 -45t159 -122.5t89 -183t27.5 -228.5q0 -182 -43 -340t-126 -273.5t-205.5 -182t-282.5 -66.5q-145 0 -245.5 41t-162 117.5t-89 186t-27.5 247.5v36.5t2 38.5h-267 q-18 -166 -38.5 -327.5t-40.5 -325.5h-224zM893 528q0 -186 72.5 -281t238.5 -95q111 0 191 59t130 157.5t73.5 226.5t23.5 263q0 80 -14.5 151.5t-49 127t-92 87t-143.5 31.5q-125 0 -208 -67.5t-132 -173t-69.5 -234.5t-20.5 -252z" />
<glyph unicode="&#x42f;" horiz-adv-x="1232" d="M6 0l162 403q16 41 36.5 80t48.5 73t64.5 59.5t85.5 37.5l-2 9q-98 37 -144 118.5t-46 186.5q0 94 29.5 175t87 139t143.5 91t197 33h528l-170 -1405h-221l74 592h-177q-51 0 -96 -9.5t-84 -33t-71.5 -65.5t-59.5 -105l-149 -379h-236zM442 971q0 -66 19.5 -107 t50.5 -64.5t68.5 -32.5t74.5 -9h244l59 477h-260q-47 0 -92 -13.5t-82 -44t-59.5 -82t-22.5 -124.5z" />
<glyph unicode="&#x430;" horiz-adv-x="1107" d="M70 352q0 113 29.5 231.5t93 215t162 158t235.5 61.5q59 0 122.5 -9.5t127.5 -31.5l18 45l172 -8q-29 -186 -59.5 -405.5t-59.5 -454.5l119 4l14 -125q-55 -27 -105 -34t-79 -7q-76 0 -111.5 30.5t-35.5 114.5l-4 4q-86 -76 -178.5 -114.5t-163.5 -38.5q-147 0 -222 94 t-75 270zM289 385q0 -129 45 -180t110 -51q66 0 140.5 38.5t134.5 90.5l74 538q-51 18 -101.5 24.5t-95.5 6.5q-55 0 -109.5 -28.5t-98.5 -87t-71.5 -146.5t-27.5 -205z" />
<glyph unicode="&#x431;" horiz-adv-x="1077" d="M86 406q0 111 19.5 243.5t46.5 247.5q23 96 55.5 181t77.5 153.5t104.5 119t136.5 74.5q45 14 99.5 23.5t115 15.5t122 13.5t120.5 19.5l27 -154q-68 -16 -122 -22t-102.5 -11t-94.5 -11.5t-99 -22.5q-90 -29 -152.5 -125t-97.5 -270l8 -9q90 72 181 103t161 31 q160 0 240 -101.5t80 -286.5q0 -113 -31 -225t-96.5 -203.5t-166 -147.5t-241.5 -56q-121 0 -196.5 32.5t-118.5 89t-59.5 133t-16.5 165.5zM293 389q0 -49 6 -93t26.5 -79t60.5 -55.5t108 -20.5q63 0 117.5 38t94 103.5t61 155.5t21.5 195q0 61 -13 102t-34.5 65.5t-50 35 t-59.5 10.5q-35 0 -74 -11.5t-79 -30t-78 -42t-68 -47.5q-23 -109 -31 -193t-8 -133z" />
<glyph unicode="&#x432;" horiz-adv-x="1017" d="M76 88l65 557q8 86 45 156.5t92.5 121t127 77t151.5 26.5q154 0 250 -66.5t98 -183.5q0 -57 -27.5 -112.5t-99.5 -94.5l-2 -10q49 -10 83 -32.5t54.5 -52.5t28.5 -61.5t8 -58.5q0 -61 -23.5 -126.5t-75.5 -119t-137 -89t-208 -37.5q-98 0 -204.5 17t-205.5 62zM295 178 q47 -18 104.5 -26.5t96.5 -8.5q66 0 111.5 19.5t73.5 49.5t39 66.5t11 73.5q0 72 -51 100.5t-123 28.5h-92l14 131h62q72 0 123 38t51 104q0 49 -37 82.5t-113 33.5q-94 0 -150.5 -61t-66.5 -160z" />
<glyph unicode="&#x433;" horiz-adv-x="888" d="M53 227q0 68 32 123.5t83 99.5t113.5 79.5t128.5 64.5q37 16 74.5 35.5t68.5 43t50.5 49.5t19.5 56q0 29 -11.5 46.5t-30 27.5t-42 14t-45.5 4q-66 0 -138.5 -22.5t-154.5 -59.5l-56 125q86 53 191 84t211 31q133 0 215 -56.5t82 -166.5q0 -61 -29 -110.5t-81 -92.5 t-122.5 -81t-154.5 -75q-76 -35 -131.5 -79.5t-55.5 -114.5q0 -59 43 -86t115 -27t158 25.5t174 66.5l55 -122q-98 -66 -216 -96.5t-212 -30.5q-152 0 -243 56t-91 189z" />
<glyph unicode="&#x434;" horiz-adv-x="1091" d="M80 383q0 109 32.5 220.5t96 202.5t159 149.5t218.5 58.5q66 0 121 -7.5t114 -27.5q4 70 -4 132.5t-34.5 109.5t-76 74.5t-128.5 27.5q-27 0 -55.5 -1t-62.5 -6t-75 -14.5t-94 -25.5q-8 35 -19.5 71.5t-19.5 71.5q86 37 170 53.5t162 16.5q123 0 205.5 -35t135 -103.5 t75 -173t22.5 -241.5q0 -88 -8 -193.5t-32 -211t-62.5 -204t-101 -174t-150.5 -121.5t-207 -46q-115 0 -188.5 30.5t-116.5 85t-59.5 126t-16.5 155.5zM301 367q0 -127 40 -176.5t126 -49.5q84 0 144.5 51.5t100.5 141.5t62.5 213t30.5 268q-49 18 -97.5 26.5t-93.5 8.5 q-80 0 -139 -39t-98 -105.5t-57.5 -153.5t-18.5 -185z" />
<glyph unicode="&#x435;" horiz-adv-x="989" d="M74 385q0 104 25.5 217t89 208t170 156.5t266.5 61.5q147 0 225 -72.5t78 -189.5q0 -174 -168 -269.5t-467 -111.5q-2 -12 -2 -15v-14q0 -39 8 -77.5t30.5 -69.5t61.5 -49.5t103 -18.5q74 0 153.5 18.5t153.5 51.5l45 -127q-37 -23 -86 -41t-101.5 -31.5t-106.5 -20.5 t-103 -7q-115 0 -189 32.5t-115 88t-56 128t-15 152.5zM299 516q207 10 315.5 64.5t108.5 160.5q0 53 -29.5 89t-97.5 36q-129 0 -205 -92t-92 -258z" />
<glyph unicode="&#x436;" horiz-adv-x="1601" d="M8 0l142 346q29 72 67.5 117t114.5 61l4 11q-59 16 -87 68t-38 126l-35 275h207l41 -259q6 -49 22.5 -77.5t40 -42t52 -17.5t57.5 -4h129l47 397h215l-47 -397h125q29 0 57.5 4t55 17.5t51 42t43.5 77.5l102 259h209l-102 -275q-27 -72 -68 -125t-100 -69v-11 q70 -18 95.5 -68t39.5 -120l63 -336h-215l-51 293q-18 96 -64 131t-110 35h-149l-56 -459h-215l56 459h-148q-66 0 -120 -34t-95 -132l-121 -293h-215z" />
<glyph unicode="&#x437;" horiz-adv-x="917" d="M6 53l53 140q68 -27 136.5 -39.5t134.5 -12.5q55 0 106 13.5t90 38t61.5 62.5t22.5 87q0 37 -15 62.5t-40 41t-56.5 21.5t-66.5 6h-129l14 129h107q31 0 66.5 8t66.5 26.5t50.5 46.5t19.5 67q0 59 -56.5 87.5t-136.5 28.5q-55 0 -129 -13t-158 -42l-36 137 q98 43 193 60.5t181 17.5q76 0 141.5 -15.5t113.5 -45t76 -74.5t28 -105q0 -31 -9.5 -64.5t-31 -65t-56 -58.5t-85.5 -45l-3 -8q86 -23 129 -80t43 -135q0 -80 -35.5 -144.5t-99 -109.5t-150.5 -68.5t-190 -23.5q-207 0 -350 69z" />
<glyph unicode="&#x438;" horiz-adv-x="1034" d="M74 184q0 33 3 65t7 62l74 690h215l-80 -690q-2 -10 -2 -20v-21q0 -57 27.5 -85.5t95.5 -28.5q59 0 131.5 33.5t152.5 111.5l86 700h213q-31 -250 -60.5 -490.5t-57.5 -510.5h-199q4 35 7 68.5t7 68.5l-6 4q-111 -92 -207 -128t-168 -36q-76 0 -123 17.5t-72.5 46.5 t-34.5 65.5t-9 77.5z" />
<glyph unicode="&#x439;" horiz-adv-x="1034" d="M74 184q0 33 3 65t7 62l74 690h215l-80 -690q-2 -10 -2 -20v-21q0 -57 27.5 -85.5t95.5 -28.5q59 0 131.5 33.5t152.5 111.5l86 700h213q-31 -250 -60.5 -490.5t-57.5 -510.5h-199q4 35 7 68.5t7 68.5l-6 4q-111 -92 -207 -128t-168 -36q-76 0 -123 17.5t-72.5 46.5 t-34.5 65.5t-9 77.5zM287 1372l112 80q49 -80 107.5 -126t118.5 -46q18 0 44.5 4t64.5 19.5t87 47t113 87.5l57 -62q-106 -139 -208.5 -194.5t-184.5 -55.5q-55 0 -101 20.5t-84 54.5t-69 79t-57 92z" />
<glyph unicode="&#x43a;" horiz-adv-x="1048" d="M68 0q2 14 11 90t21.5 182.5t26.5 228.5t27.5 228.5t22.5 182t11 89.5h218l-52 -397h156q31 0 59.5 4t55 17.5t50 42t44.5 77.5l102 259h207l-102 -275q-29 -72 -69 -125t-99 -69v-11q35 -10 57.5 -27.5t36.5 -42t23.5 -54t15.5 -64.5l63 -336h-209l-51 293 q-18 96 -63 131t-109 35h-186q-6 -47 -13.5 -106.5t-15.5 -123t-14 -124t-12 -105.5h-213z" />
<glyph unicode="&#x43b;" horiz-adv-x="1067" d="M-23 104q80 29 133.5 74t89.5 120t56 184.5t37 267.5l26 254h705q-2 -14 -11 -89t-21.5 -181.5t-27 -227.5t-26.5 -228.5t-21.5 -184.5t-11.5 -93h-213l101 852h-293l-8 -86q-16 -170 -43 -309.5t-77 -243.5t-133 -172t-212 -92z" />
<glyph unicode="&#x43c;" horiz-adv-x="1376" d="M12 0l240 1004h244q33 -137 64.5 -274.5t66.5 -274.5q10 -43 19 -87t20 -87h10l69 157q72 145 137.5 285.5t135.5 280.5h248q0 -244 3 -500t5 -504h-209q2 129 5 268.5t5 280.5l4 201h-8q-20 -41 -38.5 -83t-39.5 -83q-59 -125 -122.5 -248t-120.5 -248q-53 0 -105.5 -1 t-105.5 -3q-29 117 -58.5 245t-58.5 251q-10 43 -19.5 87t-19.5 87h-8l-35 -179q-29 -143 -57.5 -287.5t-59.5 -287.5h-211z" />
<glyph unicode="&#x43d;" horiz-adv-x="1087" d="M63 0q31 250 61 500t62 499h220l-54 -395h418q14 100 26.5 198.5t24.5 196.5h219l-122 -999h-218l56 457h-420q-12 -117 -26.5 -229.5t-28.5 -227.5h-218z" />
<glyph unicode="&#x43e;" horiz-adv-x="1067" d="M74 389q0 115 29.5 228.5t93 203.5t163 146.5t240.5 56.5q109 0 185.5 -33t124.5 -90t69.5 -133t21.5 -162q0 -106 -26.5 -216.5t-88 -201t-162.5 -147.5t-251 -57q-113 0 -189.5 31.5t-122.5 86t-66.5 128t-20.5 159.5zM295 369q0 -45 9 -86t30.5 -72t59.5 -49.5 t98 -18.5q86 0 142 48.5t88 119t44 151.5t12 146q0 49 -9 94.5t-30.5 80t-57.5 55t-91 20.5q-90 0 -147.5 -51t-90.5 -126t-45 -160t-12 -152z" />
<glyph unicode="&#x43f;" horiz-adv-x="1085" d="M66 0q31 252 61.5 498.5t58.5 502.5h209q-6 -41 -10 -71.5t-10 -65.5l6 -4q111 92 210 129t171 37q70 0 116 -18.5t73.5 -51t40 -74.5t12.5 -91q0 -14 -1.5 -27.5t-3.5 -28.5l-81 -735h-216l80 690q2 10 2 21.5v21.5q0 55 -26.5 84t-95.5 29q-59 0 -136 -34t-157 -112 l-84 -700h-219z" />
<glyph unicode="&#x440;" horiz-adv-x="1091" d="M14 -426q2 8 9.5 71.5t20.5 163t28.5 224.5t32 255t32 255t27.5 224t20.5 162.5t8.5 71.5h206q-4 -35 -9 -67.5t-11 -65.5l8 -6q92 80 188.5 116t167.5 36q129 0 206 -94.5t77 -272.5q0 -111 -28.5 -229.5t-92 -215t-162 -158.5t-235.5 -62q-53 0 -113.5 8t-113.5 26 q-8 -74 -15.5 -131t-13.5 -108t-12.5 -99.5t-12.5 -103.5h-213zM303 178q51 -18 100.5 -24.5t94.5 -6.5q55 0 110.5 30t98.5 88.5t70.5 146.5t27.5 204q0 129 -44 180.5t-110 51.5t-142.5 -40t-135.5 -89z" />
<glyph unicode="&#x441;" horiz-adv-x="913" d="M74 354q0 98 20.5 216t78.5 218.5t162.5 168t270.5 67.5q84 0 162 -19.5t137 -62.5l-61 -133q-78 35 -136.5 42t-99.5 7q-80 0 -139 -38t-99 -102.5t-59.5 -150.5t-19.5 -182q0 -102 47 -168.5t164 -66.5q68 0 133 14t141 43l43 -133q-74 -41 -174 -65.5t-199 -24.5 q-102 0 -171.5 27.5t-114.5 76.5t-65.5 116.5t-20.5 149.5z" />
<glyph unicode="&#x442;" horiz-adv-x="1634" d="M66 0q33 252 62.5 507t57.5 494h207q-6 -41 -10 -71.5t-10 -63.5l8 -4q109 92 201 128t147 36q117 0 166 -51t57 -127q53 47 106.5 81t102.5 55.5t90 31.5t70 10q66 0 109 -16.5t68.5 -44t37.5 -65.5t14 -81v-33.5t-2 -37.5q-2 -45 -10 -126t-20.5 -183.5t-25.5 -216 t-26 -222.5h-215l82 694q2 10 2 18.5v18.5q0 66 -28.5 90.5t-85.5 24.5q-49 0 -121 -33t-150 -106l-76 -707h-215l82 694q2 10 2 18.5v18.5q0 66 -28.5 90.5t-85.5 24.5q-49 0 -116 -33t-146 -111l-84 -702h-217z" />
<glyph unicode="&#x443;" horiz-adv-x="948" d="M-72 -406l41 150q51 -10 84 -15t68 -5q59 0 100 27.5t76 105.5q16 39 33.5 78.5t36.5 76.5h-105q-47 250 -92 496t-92 493h215q14 -92 32.5 -202.5t34.5 -220.5q23 -137 39.5 -255t24.5 -178h10q6 14 18.5 46t31 77t41 100.5t48.5 118.5q6 16 24.5 59.5t42.5 99.5 t49.5 118.5t49 119t41 100.5t25.5 60q49 -14 97 -28.5t99 -28.5q-127 -287 -261 -586t-259 -581q-53 -123 -133 -192.5t-201 -69.5q-31 2 -83 6t-136 30z" />
<glyph unicode="&#x444;" horiz-adv-x="1417" d="M80 420q0 127 42 235.5t119.5 187.5t189.5 126t251 51l55 469h201q-16 -117 -28.5 -234.5t-28.5 -234.5q240 -8 357.5 -126t117.5 -310q0 -123 -38 -228.5t-113 -185.5t-188.5 -128t-264.5 -56l-47 -412h-203l51 412q-135 6 -226 44t-146.5 97t-78 135t-22.5 158z M283 420q0 -127 72.5 -202t215.5 -83l88 729q-96 -6 -166.5 -43t-116.5 -97t-69.5 -138t-23.5 -166zM770 135q98 6 169 42t117 94.5t68.5 134t22.5 163.5q0 123 -67.5 206t-219.5 89z" />
<glyph unicode="&#x445;" horiz-adv-x="989" d="M-16 14l387 504l-246 483h242l151 -346h17l268 396l186 -76l-352 -449l264 -526h-235l-172 389h-17l-311 -457z" />
<glyph unicode="&#x446;" horiz-adv-x="1052" d="M70 211q0 18 1 36.5t3 37.5l84 716h215l-82 -682q-2 -10 -2 -18v-18q0 -53 26.5 -90t98.5 -37q59 0 131.5 33.5t152.5 111.5l84 700h217l-71 -606q-4 -31 -6 -58.5t-2 -51.5q0 -57 21.5 -100.5t76.5 -78.5l16 -34q-31 -111 -59.5 -214.5t-56.5 -222.5h-173l-22 29 q31 94 61.5 172t61.5 158q-57 23 -90 65.5t-47 92.5q0 -2 -4 2q-104 -86 -207 -131.5t-185 -45.5q-72 0 -119 18.5t-74.5 50.5t-38.5 74t-11 91z" />
<glyph unicode="&#x447;" horiz-adv-x="1013" d="M81 511q-3 58 5 120l45 370h215l-39 -344q-10 -78 12.5 -124t96.5 -46q59 0 139 30t160 104l47 380h215q-29 -252 -59.5 -500.5t-61.5 -500.5h-215q16 121 28.5 236.5t32.5 222.5l-6 4q-102 -88 -204.5 -122t-174.5 -34q-88 0 -138 27.5t-72.5 73t-25.5 103.5z" />
<glyph unicode="&#x448;" horiz-adv-x="1601" d="M72 199q2 16 2 34.5t4 38.5l84 729h213l-80 -694q-2 -10 -2 -18v-19q0 -66 27.5 -90t87.5 -24q47 0 119.5 32.5t150.5 106.5l76 706h213l-80 -694q-2 -10 -2 -18v-19q0 -66 27.5 -90t86.5 -24q49 0 116 33.5t147 111.5l84 703h219q-33 -254 -64 -509t-59 -495h-205 q4 41 8 73.5t8 63.5l-6 4q-111 -92 -201 -128t-147 -36q-119 0 -167 50.5t-58 126.5q-53 -47 -106.5 -80t-102.5 -54.5t-90 -32t-68 -10.5q-68 0 -112.5 16.5t-72.5 46.5t-39 71t-11 88z" />
<glyph unicode="&#x449;" horiz-adv-x="1619" d="M72 209q0 29 2 54.5t6 53.5l82 684h213l-80 -694q-2 -10 -2 -17v-18q0 -49 24.5 -82.5t90.5 -33.5q47 0 119.5 32.5t150.5 106.5l76 706h213l-80 -694q-2 -10 -2 -19v-20q0 -55 26.5 -83.5t87.5 -28.5q59 0 121 33.5t140 111.5l83 700h218l-72 -606q-4 -29 -6 -56.5 t-2 -49.5q0 -59 19.5 -103.5t76.5 -79.5q4 -8 7 -16t7 -18q-31 -111 -56.5 -214.5t-53.5 -222.5h-172l-21 29q29 94 59.5 172t61.5 158q-59 23 -91 65.5t-46 92.5q-2 2 -3 1t-3 1q-104 -86 -195.5 -131.5t-171.5 -45.5q-119 0 -167 50.5t-58 126.5q-53 -47 -106.5 -80 t-102.5 -54.5t-90 -32t-68 -10.5q-72 0 -118 18.5t-72.5 50.5t-35.5 74t-9 89z" />
<glyph unicode="&#x44a;" horiz-adv-x="1214" d="M31 844l16 155h508l-14 -139q-8 -63 -15.5 -121.5t-17.5 -107.5q2 -2 10 -2q76 63 172 113.5t203 50.5q121 0 187.5 -75t66.5 -212q0 -78 -28.5 -169t-91 -169t-164 -131t-247.5 -53q-33 0 -77.5 3t-95 12t-102.5 22.5t-97 35.5l-13 25l91 762h-291zM459 172 q45 -16 88 -22.5t86 -6.5q72 0 126 31t90 80t54.5 108.5t18.5 116.5q0 72 -38 108t-91 36q-51 0 -132 -36t-165 -114z" />
<glyph unicode="&#x44b;" horiz-adv-x="1447" d="M70 82q16 131 32.5 270.5t30.5 263t25.5 225t17.5 158.5h219q-4 -35 -7 -69.5t-7 -69.5q-6 -63 -15.5 -121.5t-19.5 -107.5q2 -2 8 -2q78 63 174.5 113.5t200.5 50.5q121 0 187.5 -75t66.5 -212q0 -78 -27.5 -169t-89 -169t-160 -131t-239.5 -53q-39 0 -87 3t-100.5 12 t-103.5 22.5t-96 35.5q-2 6 -5 12.5t-5 12.5zM297 172q45 -16 87 -22.5t87 -6.5q72 0 125 31t89 80t54.5 108.5t18.5 116.5q0 72 -37 108t-92 36q-51 0 -131 -36t-166 -114q-8 -76 -17.5 -150.5t-17.5 -150.5zM1061 0l121 999h219l-123 -999h-217z" />
<glyph unicode="&#x44c;" horiz-adv-x="1050" d="M70 82q16 131 32.5 270.5t30.5 263t25.5 225t17.5 158.5h219q-4 -35 -7 -69.5t-7 -69.5q-6 -63 -15.5 -121.5t-19.5 -107.5q2 -2 8 -2q78 63 174.5 113.5t200.5 50.5q121 0 187.5 -75t66.5 -212q0 -78 -27.5 -169t-89 -169t-160 -131t-239.5 -53q-39 0 -87 3t-100.5 12 t-103.5 22.5t-96 35.5q-2 6 -5 12.5t-5 12.5zM297 172q45 -16 87 -22.5t87 -6.5q72 0 125 31t89 80t54.5 108.5t18.5 116.5q0 72 -37 108t-92 36q-51 0 -131 -36t-166 -114q-8 -76 -17.5 -150.5t-17.5 -150.5z" />
<glyph unicode="&#x44d;" horiz-adv-x="913" d="M18 49l52 135q63 -23 124.5 -31t102.5 -8q147 0 229 85t103 239l-377 -8l16 135l369 -12q2 12 2 24.5v22.5q0 117 -64.5 175t-173.5 58q-70 0 -126 -15t-134 -40l-45 133q92 43 182.5 64.5t170.5 21.5q188 0 295.5 -106.5t107.5 -307.5q0 -63 -9 -134.5t-32 -141.5 t-61.5 -133.5t-100 -112.5t-146.5 -77.5t-198 -28.5q-176 0 -287 63z" />
<glyph unicode="&#x44e;" horiz-adv-x="1472" d="M66 0l120 999h220l-52 -399h176q20 86 59.5 164t100 135t142 91t186.5 34q109 0 183.5 -34t120.5 -92t66.5 -135t20.5 -163q0 -109 -27.5 -218.5t-89 -197.5t-160 -143t-239.5 -55q-113 0 -186.5 32.5t-117.5 89t-62.5 134t-18.5 168.5v27.5t2 27.5h-170 q-16 -117 -28.5 -232.5t-28.5 -232.5h-217zM721 369q0 -45 8 -86t29.5 -73t59.5 -50.5t95 -18.5q84 0 138.5 48.5t85 119t42 152.5t11.5 147q0 49 -8 95.5t-28.5 80t-56.5 54t-91 20.5q-86 0 -141.5 -51t-87.5 -126t-44 -160t-12 -152z" />
<glyph unicode="&#x44f;" horiz-adv-x="985" d="M4 0l141 313q25 53 61 93t89 53v8q-90 27 -130 86t-40 137q0 164 112.5 252t317.5 88q37 0 83 -4t98 -11t106.5 -20.5t105.5 -31.5l-114 -963h-218l105 842q-35 14 -82 20t-82 6q-41 0 -79 -9t-67.5 -29.5t-48 -54.5t-18.5 -83q0 -78 57.5 -110.5t184.5 -51.5l-17 -129 q-49 0 -83.5 -6t-60.5 -21.5t-46.5 -42t-40.5 -67.5l-119 -264h-215z" />
<glyph unicode="&#x451;" horiz-adv-x="989" d="M74 385q0 104 25.5 217t89 208t170 156.5t266.5 61.5q147 0 225 -72.5t78 -189.5q0 -174 -168 -269.5t-467 -111.5q-2 -12 -2 -15v-14q0 -39 8 -77.5t30.5 -69.5t61.5 -49.5t103 -18.5q74 0 153.5 18.5t153.5 51.5l45 -127q-37 -23 -86 -41t-101.5 -31.5t-106.5 -20.5 t-103 -7q-115 0 -189 32.5t-115 88t-56 128t-15 152.5zM266 1260q2 53 41 86.5t86 33.5q53 0 81 -26.5t28 -71.5q-2 -53 -38 -89t-95 -36q-49 0 -77 28.5t-26 74.5zM299 516q207 10 315.5 64.5t108.5 160.5q0 53 -29.5 89t-97.5 36q-129 0 -205 -92t-92 -258zM664 1260 q2 53 38.5 86.5t85.5 33.5q51 0 80 -26.5t27 -71.5q0 -53 -37 -89t-96 -36q-49 0 -74.5 28.5t-23.5 74.5z" />
<glyph unicode="&#x452;" horiz-adv-x="1085" d="M66 0q2 27 13 116t25.5 209.5t31 257t30.5 257.5t24.5 210t12.5 113h-137l10 99h139l29 231h211q-6 -49 -14.5 -115.5t-12.5 -115.5h369l-11 -99h-368q-6 -43 -12.5 -92t-12.5 -94t-11 -85t-11 -65l6 -4q109 90 202 121t173 31q74 0 121 -33t74.5 -89t38.5 -130t11 -154 q0 -147 -28.5 -273t-78.5 -218t-119 -145.5t-148 -53.5q-47 0 -98.5 14.5t-106.5 49.5l51 114q37 -16 60.5 -20t43.5 -4q51 0 90 42t66 114.5t41 170t14 207.5q0 102 -25.5 170t-92.5 68q-59 0 -140.5 -28.5t-163.5 -106.5q-2 -12 -8 -65.5t-14 -126t-18.5 -154.5 t-18.5 -153t-14 -119t-6 -52h-217z" />
<glyph unicode="&#x453;" horiz-adv-x="888" d="M53 227q0 68 32 123.5t83 99.5t113.5 79.5t128.5 64.5q37 16 74.5 35.5t68.5 43t50.5 49.5t19.5 56q0 29 -11.5 46.5t-30 27.5t-42 14t-45.5 4q-66 0 -138.5 -22.5t-154.5 -59.5l-56 125q86 53 191 84t211 31q133 0 215 -56.5t82 -166.5q0 -61 -29 -110.5t-81 -92.5 t-122.5 -81t-154.5 -75q-76 -35 -131.5 -79.5t-55.5 -114.5q0 -59 43 -86t115 -27t158 25.5t174 66.5l55 -122q-98 -66 -216 -96.5t-212 -30.5q-152 0 -243 56t-91 189zM428 1190l305 344l129 -141l-344 -291z" />
<glyph unicode="&#x454;" horiz-adv-x="921" d="M74 354q0 98 20.5 216t78.5 218.5t162.5 168t270.5 67.5q84 0 162 -19.5t137 -62.5l-61 -133q-78 35 -136.5 42t-99.5 7q-117 0 -190.5 -79t-104.5 -201l365 8l-14 -131q-86 2 -183.5 1t-187.5 1q-2 -16 -2 -35v-37q0 -102 47 -168.5t164 -66.5q68 0 133 14t141 43 l43 -133q-74 -41 -174 -65.5t-199 -24.5q-102 0 -171.5 27.5t-114.5 76.5t-65.5 116.5t-20.5 149.5z" />
<glyph unicode="&#x455;" horiz-adv-x="917" d="M27 63q14 35 29.5 70t29.5 70q102 -43 185 -52.5t137 -9.5q39 0 75.5 8.5t65.5 24.5t46 42t17 63q0 57 -30.5 83.5t-83.5 51.5q-61 29 -128 49t-122 50t-91 77t-36 127t31.5 137t87 94t129 55.5t157.5 18.5q68 0 154 -17.5t151 -56.5l-59 -137q-78 31 -136 40t-110 9 q-31 0 -63.5 -5t-61 -20.5t-47 -42t-18.5 -69.5q0 -25 17.5 -44.5t42 -34.5t54 -26.5t54.5 -19.5q45 -16 100 -34.5t104.5 -50.5t83 -81t33.5 -127q0 -86 -33.5 -146.5t-94 -99.5t-142.5 -56t-178 -17q-43 0 -90 5t-93.5 14t-90 24.5t-76.5 33.5z" />
<glyph unicode="&#x456;" horiz-adv-x="532" d="M92 0q2 14 11.5 90t22.5 182.5t27.5 228.5t28 228.5t22.5 182t11 89.5h217l-123 -1001h-217zM223 1257q0 61 40.5 103.5t101.5 42.5q53 0 86.5 -33t33.5 -84q0 -59 -39.5 -100t-105.5 -41q-53 0 -85 31.5t-32 80.5z" />
<glyph unicode="&#x457;" horiz-adv-x="532" d="M47 1253q2 53 41 87t86 34q53 0 81 -26.5t28 -71.5q-2 -53 -38 -89t-95 -36q-49 0 -77 28.5t-26 73.5zM92 0l123 1001h217q-4 -35 -13 -113.5t-21.5 -180t-27 -213t-26.5 -212t-21.5 -176t-13.5 -106.5h-217zM444 1253q2 53 39 87t86 34q51 0 80 -26.5t27 -71.5 q0 -53 -37 -89t-96 -36q-49 0 -75 28.5t-24 73.5z" />
<glyph unicode="&#x458;" horiz-adv-x="585" d="M-137 -305q96 37 153.5 86t89 108.5t46 131t24.5 155.5l90 825h217q-4 -43 -12 -117.5t-18.5 -161.5t-20.5 -177t-19.5 -166t-15.5 -128t-6 -63q-16 -129 -44 -237.5t-81 -191.5t-140 -138t-218 -80zM272 1257q0 61 40.5 103.5t101.5 42.5q55 0 88 -33t33 -84 q0 -59 -40 -100t-106 -41q-53 0 -85 31.5t-32 80.5z" />
<glyph unicode="&#x459;" horiz-adv-x="1640" d="M-43 104q80 29 133 74t89 120t56.5 184.5t36.5 267.5l27 251h678l-14 -145q-6 -66 -14.5 -124t-14.5 -101q2 -2 10 -2q76 63 172 113.5t203 50.5q119 0 186.5 -75t67.5 -212q0 -78 -27.5 -169t-89 -169t-160 -131t-239.5 -53q-31 0 -78 3t-100.5 11t-107.5 22.5 t-103 36.5q-2 6 -5.5 12.5t-5.5 12.5q12 102 24.5 207.5t25 205t23.5 190.5t20 165h-271l-8 -84q-16 -170 -43 -309.5t-77 -243.5t-133 -172t-212 -92zM883 172q45 -16 89 -22.5t87 -6.5q72 0 126 31t90 80t54.5 108.5t18.5 116.5q0 72 -38 108t-91 36q-51 0 -134.5 -36 t-166.5 -114q-8 -76 -17.5 -150.5t-17.5 -150.5z" />
<glyph unicode="&#x45a;" horiz-adv-x="1687" d="M63 0q31 250 61 500t62 499h220l-52 -395h416l43 395h219q-4 -51 -10 -99t-12 -95q-4 -45 -10.5 -89t-16.5 -85q2 -2 8 -2q78 63 174.5 113.5t200.5 50.5q121 0 187.5 -75t66.5 -212q0 -78 -27.5 -169t-89 -169t-160 -131t-239.5 -53q-31 0 -77 3t-99.5 11t-107.5 22.5 t-103 36.5q-2 6 -5 12.5t-5 12.5q10 92 21 186t22 189h-414q-12 -117 -26.5 -229.5t-28.5 -227.5h-218zM934 172q45 -16 87 -22.5t87 -6.5q70 0 124 31t90 80t54.5 108.5t18.5 116.5q0 72 -38 108t-91 36q-51 0 -131 -36t-166 -114q-8 -76 -17.5 -150.5t-17.5 -150.5z" />
<glyph unicode="&#x45b;" horiz-adv-x="1081" d="M63 0l140 1161h-137q4 25 6 50.5t6 50.5h137q6 59 12 115.5t15 113.5h215q-10 -59 -16.5 -117.5t-10.5 -111.5h363l-15 -101h-358q-10 -92 -22.5 -176t-26.5 -147l8 -4q104 92 209.5 132t177.5 40q76 0 122 -19.5t70.5 -54.5t32.5 -81t8 -97q0 -10 -1 -22.5t-3 -24.5 l-80 -707h-215l76 655q2 12 2 24.5v22.5q0 72 -29.5 97.5t-82.5 25.5q-59 0 -140.5 -33.5t-160.5 -111.5l-82 -680h-220z" />
<glyph unicode="&#x45c;" horiz-adv-x="1048" d="M68 0q2 14 11 90t21.5 182.5t26.5 228.5t27.5 228.5t22.5 182t11 89.5h218l-52 -397h156q31 0 59.5 4t55 17.5t50 42t44.5 77.5l102 259h207l-102 -275q-29 -72 -69 -125t-99 -69v-11q35 -10 57.5 -27.5t36.5 -42t23.5 -54t15.5 -64.5l63 -336h-209l-51 293 q-18 96 -63 131t-109 35h-186q-6 -47 -13.5 -106.5t-15.5 -123t-14 -124t-12 -105.5h-213zM496 1190l305 344l129 -141l-344 -291z" />
<glyph unicode="&#x45e;" horiz-adv-x="948" d="M-72 -408l41 150q51 -10 84 -15.5t68 -5.5q59 0 100 28t76 106q16 39 33.5 78.5t36.5 76.5h-105q-47 250 -92 496t-92 493h215q14 -92 32.5 -202.5t34.5 -221.5q23 -137 39.5 -254.5t24.5 -177.5h10q6 14 18.5 46t31 77t41 100.5t48.5 118.5q6 16 24.5 59.5t42.5 99.5 t49.5 118.5t49 119t41 100.5t25.5 60q49 -14 97 -28.5t99 -28.5q-127 -287 -261 -586t-259 -581q-53 -123 -133 -192.5t-201 -69.5q-31 2 -83 6t-136 30zM227 1364l113 80q49 -82 109.5 -127t115.5 -45q18 0 45 3t64 18.5t86 47t114 89.5l62 -64q-106 -139 -208.5 -194.5 t-186.5 -55.5q-55 0 -101.5 21.5t-85.5 56.5t-69.5 79t-57.5 91z" />
<glyph unicode="&#x45f;" horiz-adv-x="1034" d="M74 184q0 33 3 65t7 62l74 690h215l-80 -690q-2 -10 -2 -20v-21q0 -57 27.5 -85.5t95.5 -28.5q59 0 131.5 33.5t152.5 111.5l86 700h213q-31 -250 -60.5 -490.5t-57.5 -510.5h-199q4 35 7 68.5t7 68.5l-6 4q-111 -92 -207 -128t-168 -36q-76 0 -123 17.5t-72.5 46.5 t-34.5 65.5t-9 77.5zM403 -446q25 119 51.5 211t63.5 184q33 -8 65.5 -14.5t65.5 -16.5q-20 -98 -36.5 -187t-37.5 -198h-79.5t-79.5 -2z" />
<glyph unicode="&#x490;" horiz-adv-x="1077" d="M104 0l170 1405h713l33 242h160l-52 -416h-649q-2 -10 -9 -66.5t-17.5 -141.5t-22.5 -191.5t-25.5 -216t-26.5 -215t-23.5 -190.5t-16.5 -141.5t-8 -68.5h-226z" />
<glyph unicode="&#x491;" horiz-adv-x="868" d="M66 0l122 1004h584l29 231h155l-47 -385h-522q-2 -10 -9 -74.5t-18.5 -155t-24.5 -196t-23.5 -195.5t-18.5 -154.5t-8 -74.5h-219z" />
<glyph unicode="&#x4d9;" horiz-adv-x="989" d="M72 244q0 172 168 261t467 107q2 10 2 22.5v22.5q0 39 -8.5 77t-31 69t-62.5 50t-101 19q-74 0 -154 -19t-155 -50l-45 127q37 23 86 41t102 30.5t107.5 19.5t103.5 7q113 0 186.5 -32.5t114.5 -88t57.5 -129t16.5 -155.5q0 -102 -27 -215t-90.5 -207.5t-169.5 -155.5 t-266 -61q-147 0 -224 71.5t-77 188.5zM276 270q0 -53 29 -90t98 -37q127 0 203 92.5t94 258.5q-207 -10 -315.5 -64.5t-108.5 -159.5z" />
<glyph unicode="&#x2000;" horiz-adv-x="920" />
<glyph unicode="&#x2001;" horiz-adv-x="1841" />
<glyph unicode="&#x2002;" horiz-adv-x="920" />
<glyph unicode="&#x2003;" horiz-adv-x="1841" />
<glyph unicode="&#x2004;" horiz-adv-x="613" />
<glyph unicode="&#x2005;" horiz-adv-x="460" />
<glyph unicode="&#x2006;" horiz-adv-x="306" />
<glyph unicode="&#x2007;" horiz-adv-x="306" />
<glyph unicode="&#x2008;" horiz-adv-x="230" />
<glyph unicode="&#x2009;" horiz-adv-x="368" />
<glyph unicode="&#x200a;" horiz-adv-x="102" />
<glyph unicode="&#x2010;" horiz-adv-x="751" d="M115 461l22 168h529l-23 -168h-528z" />
<glyph unicode="&#x2011;" horiz-adv-x="751" d="M115 461l22 168h529l-23 -168h-528z" />
<glyph unicode="&#x2012;" horiz-adv-x="751" d="M115 461l22 168h529l-23 -168h-528z" />
<glyph unicode="&#x2013;" horiz-adv-x="993" d="M72 453l18 145h860l-18 -145h-860z" />
<glyph unicode="&#x2014;" horiz-adv-x="1986" d="M84 453l18 145h1817l-18 -145h-1817z" />
<glyph unicode="&#x2018;" horiz-adv-x="464" d="M186 1100q0 49 21.5 104.5t58.5 106.5t87 94t106 68l43 -72q-47 -41 -79 -87t-44 -104q72 -27 72 -104q0 -53 -42.5 -94t-101.5 -41t-90 38t-31 91z" />
<glyph unicode="&#x2019;" horiz-adv-x="464" d="M178 1040q98 80 123 193q-68 20 -68 96q0 55 37 99.5t103 44.5q59 0 90 -36t31 -89q0 -49 -20.5 -104.5t-57.5 -107t-87 -95.5t-108 -70z" />
<glyph unicode="&#x201a;" horiz-adv-x="464" d="M10 -184q47 41 78 82t43 98q-37 10 -56.5 37.5t-15.5 66.5q4 53 42.5 94.5t97.5 41.5q63 0 95 -41t28 -103q-4 -51 -27 -102t-59.5 -97.5t-84 -84t-98.5 -62.5z" />
<glyph unicode="&#x201c;" horiz-adv-x="753" d="M178 1100q0 49 21.5 104.5t58.5 106.5t86 94t105 68l43 -72q-98 -80 -123 -191q72 -25 71 -104q0 -53 -42 -94t-101 -41t-89 38t-30 91zM481 1100q0 49 21.5 103t57.5 105.5t85 94.5t105 70l45 -72q-47 -41 -79 -87t-44 -104q70 -23 69 -100q0 -53 -40 -96t-103 -43 q-59 0 -88 38t-29 91z" />
<glyph unicode="&#x201d;" horiz-adv-x="753" d="M176 1040q100 84 123 193q-70 23 -70 96q0 55 38 99.5t104 44.5q59 0 88.5 -36t29.5 -89q0 -49 -20 -104.5t-56 -107t-85 -95.5t-107 -70zM479 1040q100 84 123 193q-68 20 -67 96q0 55 37 99.5t100 44.5q59 0 90 -38t31 -92q0 -49 -20.5 -103t-57.5 -105.5t-86 -94.5 t-107 -69z" />
<glyph unicode="&#x201e;" horiz-adv-x="768" d="M74 -184q49 41 78.5 82t44.5 98q-39 10 -57.5 37.5t-14.5 66.5q2 53 41 94.5t98 41.5q63 0 94 -41t27 -103q-4 -51 -26.5 -102t-58.5 -97.5t-83 -84t-98 -62.5zM383 -184q49 41 80 82t41 98q-37 10 -55.5 37.5t-14.5 66.5q2 53 41 94.5t98 41.5q63 0 94 -41t29 -103 q-4 -51 -27.5 -102t-60.5 -97.5t-83 -84t-97 -62.5z" />
<glyph unicode="&#x2020;" horiz-adv-x="948" d="M129 840l18 161h308l49 410h178l-49 -410h311l-20 -161h-310l-120 -971h-179l119 971h-305z" />
<glyph unicode="&#x2021;" horiz-adv-x="948" d="M55 246l21 160h307l51 434h-305l18 161h308l49 410h178l-49 -410h311l-20 -161h-310l-53 -434h311l-22 -160h-309l-47 -377h-179l45 377h-305z" />
<glyph unicode="&#x2022;" horiz-adv-x="702" d="M131 537q0 53 21.5 101t57.5 84t83 57.5t96 21.5q45 0 84 -17.5t66.5 -46t44 -69.5t16.5 -86q0 -53 -21.5 -101.5t-57.5 -84.5t-82 -57.5t-97 -21.5q-92 0 -151.5 63.5t-59.5 156.5z" />
<glyph unicode="&#x2026;" horiz-adv-x="1374" d="M61 100q0 55 40.5 94t99.5 39q57 0 87.5 -33.5t26.5 -84.5q-2 -57 -43 -95t-100 -38q-55 0 -85 33.5t-26 84.5zM453 100q4 55 44 94t99 39q55 0 86 -33.5t27 -84.5q-4 -57 -44 -95t-100 -38q-53 0 -84.5 33.5t-27.5 84.5zM836 100q2 55 43 94t100 39q55 0 86 -33.5 t27 -84.5q-4 -57 -45 -95t-99 -38q-55 0 -86 33.5t-26 84.5z" />
<glyph unicode="&#x202f;" horiz-adv-x="368" />
<glyph unicode="&#x2030;" horiz-adv-x="2488" d="M82 850q0 66 15.5 156t58.5 172t118.5 139t198.5 57q88 0 144.5 -26.5t89 -71.5t46 -103.5t13.5 -121.5q0 -84 -17.5 -174.5t-61.5 -167t-117.5 -125.5t-186.5 -49q-86 0 -144.5 24.5t-93 67.5t-49 100t-14.5 123zM248 840q0 -78 30.5 -127t116.5 -49q59 0 99.5 35.5 t64 91t32.5 122t9 127.5q0 39 -5 75t-19.5 64.5t-41 46t-67.5 17.5q-76 0 -120 -50t-65.5 -116.5t-27.5 -134.5t-6 -102zM453 -43l794 1485h139l-792 -1485h-141zM1018 307q0 66 15.5 156t58.5 172t118.5 139t198.5 57q88 0 144.5 -26.5t89 -71.5t46 -103.5t13.5 -121.5 q0 -84 -17.5 -174t-61.5 -167t-117.5 -126t-186.5 -49q-86 0 -144.5 24.5t-93 67.5t-49 100.5t-14.5 122.5zM1184 297q0 -78 30.5 -127t116.5 -49q59 0 99 36t64 91t33 121.5t9 128.5q0 39 -5 74.5t-19.5 64.5t-41 46t-67.5 17q-76 0 -120 -50t-65.5 -116.5t-27.5 -134 t-6 -102.5zM1802 307q0 66 15.5 156t58.5 172t118.5 139t198.5 57q88 0 144.5 -26.5t89.5 -71.5t46 -103.5t13 -121.5q0 -84 -17.5 -174t-61.5 -167t-117.5 -126t-186.5 -49q-86 0 -144 24.5t-93 67.5t-49.5 100.5t-14.5 122.5zM1968 297q0 -78 31 -127t117 -49q59 0 99 36 t63.5 91t32.5 121.5t9 128.5q0 39 -5 74.5t-19.5 64.5t-41 46t-67.5 17q-76 0 -120 -50t-65.5 -116.5t-27.5 -134t-6 -102.5z" />
<glyph unicode="&#x2039;" horiz-adv-x="657" d="M109 354l8 80l344 344l82 -67l-238 -320l174 -315l-94 -64z" />
<glyph unicode="&#x203a;" horiz-adv-x="653" d="M78 82l239 315l-161 318l92 63l266 -344l-10 -80l-350 -342z" />
<glyph unicode="&#x2044;" horiz-adv-x="217" d="M-303 -43l795 1485h139l-793 -1485h-141z" />
<glyph unicode="&#x205f;" horiz-adv-x="460" />
<glyph unicode="&#x20ac;" d="M78 543l10 94h838l-11 -94h-528v-27q0 -74 17.5 -138.5t57.5 -113.5t106.5 -76.5t162.5 -27.5q25 0 52.5 1t61.5 5t77 12t100 23q6 -41 13 -81t16 -81q-37 -12 -82 -22.5t-94.5 -17.5t-99.5 -10t-95 -3q-131 0 -225.5 36.5t-155.5 102t-91 157t-32 199.5v62h-98zM98 729 l13 96h98q16 113 61 214.5t121 178t184.5 120.5t253.5 44q98 0 173 -13t147 -42l-51 -162q-86 29 -162 36t-111 7q-334 0 -401 -383h524l-12 -96h-838z" />
<glyph unicode="&#x2122;" horiz-adv-x="1576" d="M135 1298v107h584v-107h-223v-581h-142v581h-219zM795 717v688h155q16 -39 41 -90t43 -88q29 -61 57.5 -120.5t57.5 -121.5h2q25 55 55.5 123t57.5 121q16 39 40.5 88t41.5 88h159v-688h-135v465h-4l-80 -166q-23 -45 -41 -90t-41 -90h-110q-18 37 -43 87t-41 89 q-18 37 -40 81t-38 83h-4v-459h-133z" />
<glyph unicode="&#x2202;" horiz-adv-x="1067" d="M76 356q0 127 38 228.5t102.5 173t149.5 110.5t177 39q70 0 148.5 -26.5t135.5 -104.5q2 20 3 40t1 40q0 254 -97 364.5t-277 110.5h-40t-44 -4q-2 35 -2 69v68q29 4 65.5 6.5t63.5 2.5q129 0 225 -41t158.5 -118t93.5 -185.5t31 -243.5q0 -225 -47.5 -394t-126 -283 t-182 -171t-214.5 -57q-80 0 -146.5 23.5t-114.5 71.5t-74.5 118.5t-26.5 162.5zM248 377q0 -131 55 -187.5t154 -56.5q80 0 141 40t105.5 104.5t71 147.5t36.5 167q-59 96 -126 135t-146 39q-74 0 -129.5 -36t-91 -93t-53 -126t-17.5 -134z" />
<glyph unicode="&#x220f;" horiz-adv-x="1359" d="M84 -213l197 1618h1042l-197 -1618h-229l174 1440h-588l-172 -1440h-227z" />
<glyph unicode="&#x2211;" horiz-adv-x="1146" d="M-14 -211l16 152l461 704l-297 612l18 148h994l-23 -168h-719l271 -559l-5 -57l-426 -660h789l-18 -172h-1061z" />
<glyph unicode="&#x221a;" horiz-adv-x="1091" d="M115 647l247 123q12 -72 28 -153.5t30 -166.5t28.5 -167t26.5 -154h8l570 1401h153q-47 -115 -102 -249t-114.5 -278.5t-122 -293t-123 -294t-116 -279.5t-102.5 -247h-161q-14 70 -30 157t-32 177t-32.5 177t-28.5 159q-23 -10 -50.5 -22.5t-46.5 -22.5q-4 10 -8 28.5 t-8 38t-8 37t-6 29.5z" />
<glyph unicode="&#x221e;" horiz-adv-x="1589" d="M100 535q0 66 25 123t68 100t104 67.5t135 24.5q51 0 101.5 -16.5t96.5 -44t89 -63.5t82 -75q39 39 80 76t87 63.5t97 43t113 16.5q70 0 129 -22.5t102 -63.5t66.5 -97.5t23.5 -123.5q0 -68 -26.5 -127.5t-72.5 -102.5t-107.5 -67.5t-133.5 -24.5q-92 0 -177 51.5 t-183 149.5q-39 -37 -80 -74t-87 -64.5t-98.5 -45t-113.5 -17.5q-68 0 -126 24.5t-101 66.5t-68 99.5t-25 123.5zM272 535q0 -72 47.5 -121t118.5 -49q37 0 73 15t69.5 39.5t64.5 53.5t57 57q-29 33 -60.5 65t-66 56.5t-71.5 40t-76 15.5q-72 0 -114 -50.5t-42 -121.5z M897 539q76 -78 135.5 -126t130.5 -48q37 0 67 14t51.5 38.5t32.5 56.5t11 67q0 80 -47 123t-113 43q-37 0 -72.5 -15.5t-69.5 -40t-66.5 -54.5t-59.5 -58z" />
<glyph unicode="&#x222b;" horiz-adv-x="645" d="M-113 -315l37 131q31 -4 52.5 -6.5t48.5 -2.5q100 0 138 52.5t50 148.5q4 33 11 120t15.5 199.5t18.5 238.5t18.5 239t15.5 201t11 124q10 100 30.5 177t58.5 128.5t97.5 77t145.5 25.5q41 0 71.5 -4t81.5 -18l-32 -132q-33 4 -53.5 6.5t-49.5 2.5q-100 0 -139 -52.5 t-51 -154.5q-6 -41 -12.5 -133t-14.5 -209t-16 -247t-16.5 -248t-15.5 -211t-13 -136q-20 -156 -106.5 -249t-227.5 -93q-39 0 -71.5 5t-82.5 20z" />
<glyph unicode="&#x2248;" horiz-adv-x="1144" d="M143 451q96 176 248 176q45 0 97.5 -14.5t104.5 -31t101 -30.5t90 -14q2 2 24.5 16t47.5 30.5t45.5 31t22.5 16.5l67 -56q-45 -86 -107.5 -135t-140.5 -49q-57 0 -110 13.5t-100.5 31t-91.5 30.5t-83 13l-147 -92zM176 721q47 90 111.5 136t136.5 46q45 0 98 -14.5 t105.5 -30.5t101.5 -30.5t90 -14.5l139 94l68 -55q-45 -86 -108.5 -137t-141.5 -51q-57 0 -109.5 14t-100.5 30.5t-92 31t-83 14.5q-2 -2 -24.5 -15.5t-48 -30t-48 -30.5t-24.5 -14z" />
<glyph unicode="&#x2260;" horiz-adv-x="1144" d="M102 158l215 231h-161l16 141h277q2 2 26.5 29t54 57.5t54 56t28.5 27.5h-417l16 144h530q2 2 31 30.5t60.5 62.5t59.5 61.5t30 31.5h147l-178 -186h141l-18 -144h-254q-2 -2 -26.5 -27.5t-54.5 -56t-54.5 -57.5t-26.5 -29h395l-16 -141h-510l-219 -231h-146z" />
<glyph unicode="&#x2264;" horiz-adv-x="1144" d="M70 0l16 145h858l-18 -145h-856zM143 582l15 125l897 331l-23 -172l-672 -223q14 -6 62.5 -23.5t112 -42t135 -52t135 -51t111 -42t61.5 -22.5l-21 -174z" />
<glyph unicode="&#x2265;" horiz-adv-x="1144" d="M90 0l19 145h858l-19 -145h-858zM115 238l22 174l674 235q-6 2 -53 19.5t-113.5 41t-142.5 51t-142.5 51.5t-113.5 39t-53 17l22 174l821 -331l-16 -125z" />
<glyph unicode="&#x25ca;" horiz-adv-x="1085" d="M96 649q18 37 47 92.5t62 120t69.5 133t69.5 133t61.5 120t47.5 91.5h155l353 -690l-355 -688h-153zM305 651q20 -39 51 -100.5t64 -126t63.5 -125.5t48.5 -100q20 41 50 101t62 123.5t60.5 124t49.5 101.5l-226 455q-20 -41 -49.5 -101.5t-61.5 -125t-61.5 -125 t-50.5 -101.5z" />
<glyph unicode="&#xe000;" horiz-adv-x="1054" d="M0 0v1055h1055v-1055h-1055z" />
</font>
</defs>
</svg>
