<?xml version="1.0" standalone="no"?>
<!DOCTYPE svg PUBLIC "-//W3C//DTD SVG 1.1//EN" "http://www.w3.org/Graphics/SVG/1.1/DTD/svg11.dtd" >
<svg xmlns="http://www.w3.org/2000/svg">
<metadata></metadata>
<defs>
<font id="pf_square_sans_pro_lightIt" horiz-adv-x="1112" >
<font-face units-per-em="2048" ascent="1536" descent="-512" />
<missing-glyph horiz-adv-x="522" />
<glyph unicode="&#xfb01;" horiz-adv-x="983" d="M49 -360l244 1265h-107q-25 0 -18 23l8 45q2 25 31 24h106l25 131q27 143 119 230.5t270 87.5q57 0 133 -9.5t135 -33.5q16 -8 11 -31l-13 -35q-8 -18 -37 -16q-59 8 -126.5 14t-120.5 6q-106 0 -171 -48t-87 -171l-25 -125h506q27 0 20 -24q-10 -55 -31.5 -164t-47 -242 t-53 -275t-52.5 -267q-2 -25 -25 -25h-65q-27 0 -21 25l170 880h-419l-246 -1265q-2 -25 -25 -25h-65q-29 0 -23 25z" />
<glyph unicode="&#xfb02;" horiz-adv-x="997" d="M49 -367l244 1272h-107q-27 0 -20 23l8 45q4 12 9 18t22 6h106l25 133q29 143 120 230.5t271 87.5q47 0 107.5 -6t113.5 -23l66 17q29 8 22 -23l-270 -1388q-6 -25 -27 -25h-65q-25 0 -19 25l252 1302q-51 6 -103 11t-97 5q-106 0 -170 -48t-88 -171l-25 -127h281 q27 0 20 -24l-8 -45q-6 -23 -29 -23h-282l-244 -1272q-6 -25 -27 -24h-65q-29 0 -21 24z" />
<glyph horiz-adv-x="2048" />
<glyph horiz-adv-x="2048" />
<glyph unicode="&#xd;" horiz-adv-x="2048" />
<glyph unicode=" "  horiz-adv-x="522" />
<glyph unicode="&#x09;" horiz-adv-x="522" />
<glyph unicode="&#xa0;" horiz-adv-x="522" />
<glyph unicode="!" horiz-adv-x="432" d="M61 29q0 47 22 78.5t75 31.5q63 0 63 -51q0 -47 -21.5 -77.5t-74.5 -30.5q-63 0 -64 49zM166 340v8q43 248 86 491.5t84 491.5q6 27 29 27h77q16 0 17 -17q0 -6 -2 -10l-217 -983q-6 -23 -21 -22h-39q-14 0 -14 14z" />
<glyph unicode="&#x22;" horiz-adv-x="520" d="M248 1006l47 333q4 18 22 19h66q10 0 13 -6t-1 -13l-84 -333q-2 -16 -18 -17h-35q-10 0 -10 17zM432 1006l45 333q4 18 23 19h67q10 0 12.5 -6t0.5 -13l-86 -333q-2 -16 -19 -17h-33q-14 0 -10 17z" />
<glyph unicode="#" d="M-31 514l17 41q8 20 28 20h260l117 275h-254q-20 0 -14 18l18 41q6 20 27 21h258l178 407q8 18 27 19h47q20 0 12 -21l-176 -405h262l178 407q4 10 9.5 14.5t17.5 4.5h49q20 0 12 -21l-176 -405h264q27 0 17 -23l-17 -41q-6 -16 -24 -16h-275l-118 -275h266q25 0 14 -20 l-16 -43q-8 -16 -27 -16h-270l-207 -478q-8 -18 -22 -18h-54q-23 0 -12 23l205 473h-262l-205 -478q-8 -18 -25 -18h-49q-25 0 -14 23l205 473h-256q-25 0 -15 18zM362 575h263l118 275h-262z" />
<glyph unicode="$" d="M37 84l14 39q8 18 33 16q92 -12 182 -20t178 -8q80 0 151 18t124 56t84 97.5t31 143.5q0 106 -69 151.5t-187 65.5q-80 12 -146.5 30.5t-116 50.5t-77 82t-27.5 128q0 100 36 177t97.5 129t144 81t177.5 33l34 164q2 12 17 12h55q14 0 10 -14l-32 -164q78 0 164.5 -10.5 t148.5 -34.5q23 -8 12 -31l-14 -39q-4 -10 -10.5 -14t-22.5 -2q-27 4 -65.5 8t-83.5 8t-93.5 6t-91.5 2q-76 0 -141.5 -18.5t-114.5 -56t-76.5 -95t-27.5 -133.5q0 -49 18.5 -80t54 -51t85 -32.5t110.5 -22.5q70 -12 134.5 -30.5t114.5 -52.5t81 -90.5t31 -144.5 q0 -109 -37 -188.5t-100.5 -133t-149.5 -81t-187 -33.5l-36 -182q0 -12 -17 -13h-53q-14 0 -12 13l32 182q-39 0 -89 4t-101 10.5t-95 15.5t-71 21q-23 8 -10 31z" />
<glyph unicode="%" horiz-adv-x="1550" d="M96 766q0 47 6.5 95t16.5 97t29.5 119t60.5 134.5t110 109.5t175 45q76 0 125 -18.5t78.5 -51t41 -76.5t11.5 -96q0 -33 -5.5 -80t-15.5 -88q-16 -70 -35.5 -145.5t-60.5 -139t-108.5 -104.5t-178.5 -41q-74 0 -122 18.5t-76.5 50.5t-40 76t-11.5 95zM195 776 q0 -74 32.5 -119t122.5 -45q70 0 116 27t77.5 73t51 105.5t34.5 126.5q10 49 16 93t6 81q0 78 -35 121t-133 43q-68 0 -112.5 -28.5t-75.5 -76t-49.5 -107.5t-30.5 -126q-10 -47 -15 -89t-5 -79zM346 -25l842 1440q8 18 24 19l60 -2q16 0 8 -19l-842 -1442q-12 -18 -24 -18 h-58q-23 0 -10 22zM870 231q0 45 7.5 94.5t17.5 98.5q8 49 27.5 118.5t60.5 134t110 109.5t175 45q76 0 126 -19t78.5 -52t40 -77t11.5 -93q0 -41 -5.5 -84t-13.5 -86q-12 -61 -32.5 -136t-61.5 -140.5t-110.5 -109.5t-180.5 -44q-74 0 -122 18.5t-76.5 51t-40 76.5 t-11.5 95zM969 242q0 -74 32.5 -119t124.5 -45q70 0 116 26.5t77 71.5t50.5 105.5t33.5 128.5q23 102 22 174q0 76 -34.5 120t-130.5 44q-68 0 -114 -29t-77 -76t-49.5 -108.5t-30.5 -124.5q-8 -47 -14 -89t-6 -79z" />
<glyph unicode="&#x26;" horiz-adv-x="1382" d="M57 274q0 104 38 185.5t99.5 145t140.5 110.5t159 88q-57 127 -58 244q0 68 22.5 127t63.5 105t100.5 72.5t133.5 26.5q106 0 172.5 -56t66.5 -153q0 -78 -32.5 -139t-85 -108.5t-117 -85t-125.5 -68.5q55 -129 135 -256t172 -238q123 98 217 233.5t141 289.5q8 20 29 20 l43 -2q14 -2 16.5 -10t0.5 -19q-23 -86 -64 -170t-93 -158.5t-111.5 -139t-119.5 -113.5q57 -66 121 -122t123 -97q16 -10 4 -29l-32 -43q-18 -20 -39 -10q-59 39 -132 102.5t-137 134.5q-111 -74 -236.5 -117.5t-254.5 -43.5q-74 0 -139.5 17t-114.5 54t-78 92.5t-29 130.5 zM158 293q0 -55 22.5 -97t59 -70t85 -42t101.5 -14q115 0 221.5 39t204.5 102q-98 117 -180 247t-142 263q-68 -35 -135 -74t-119.5 -90t-85 -115.5t-32.5 -148.5zM549 1061q0 -51 14.5 -103.5t36.5 -105.5q51 25 103.5 53.5t93.5 64.5t67.5 80t26.5 99q0 61 -42 97t-106 36 q-47 0 -82.5 -19.5t-60.5 -51t-38 -71.5t-13 -79z" />
<glyph unicode="'" horiz-adv-x="387" d="M268 1006l47 333q4 18 25 19h66q10 0 12 -6t0 -13l-84 -333q-2 -16 -21 -17h-32q-12 0 -13 17z" />
<glyph unicode="(" horiz-adv-x="565" d="M145 346q0 328 118 597t337 491q14 14 29 6l22 -15q14 -8 2 -26q-199 -227 -298 -497.5t-99 -563.5q0 -184 29.5 -316.5t64.5 -203.5q6 -16 -12 -25l-29 -14q-20 -14 -28 2q-23 43 -46.5 97t-44 123t-33 155t-12.5 190z" />
<glyph unicode=")" horiz-adv-x="567" d="M12 -182q94 106 170 236t129.5 271.5t81 290t27.5 291.5q0 172 -32 299t-64 193q-8 14 12 26l29 15q18 10 24 -6q55 -104 98 -237.5t43 -303.5q0 -311 -122.5 -597t-341.5 -515q-14 -16 -29 -2l-23 14q-14 8 -2 25z" />
<glyph unicode="*" horiz-adv-x="649" d="M197 967q-6 16 14 24l174 101l-137 98q-6 6 -7 12t7 17l14 18q10 16 27 6l149 -86l43 182q4 10 7.5 14.5t17.5 4.5h24q18 0 17 -19l-31 -182l176 82q18 10 25 -8l8 -19q6 -16 -12 -24l-172 -98l133 -103q8 -4 8 -10t-10 -19l-13 -18q-10 -14 -26 -4l-144 84l-38 -178 q-2 -20 -25 -21h-25q-16 0 -14 19l27 184l-183 -84q-10 -4 -16 -3t-10 11z" />
<glyph unicode="+" horiz-adv-x="1099" d="M180 641l13 59q2 18 22 19h317l62 317q4 10 8 15.5t16 5.5h66q18 0 12 -21l-61 -317h315q10 0 14.5 -3t2.5 -16l-13 -59q-2 -16 -24 -16h-314l-63 -330q-2 -20 -21 -21h-65q-12 0 -15 5.5t-1 15.5l63 330h-317q-18 0 -17 16z" />
<glyph unicode="," horiz-adv-x="372" d="M-37 -240q-6 6 8 21q84 68 90 153q10 70 -22 119q-8 16 14 33l86 53q20 14 37 -2q14 -16 21.5 -41.5t7.5 -48.5q0 -45 -17.5 -91t-46 -86t-63.5 -74t-72 -54q-4 -4 -12 -6t-12 2z" />
<glyph unicode="-" horiz-adv-x="731" d="M115 631l14 69q4 20 27 21h546q20 0 19 -21l-14 -71q-6 -16 -25 -17h-549q-20 0 -18 19z" />
<glyph unicode="." horiz-adv-x="331" d="M12 33q0 47 21.5 78.5t75.5 31.5q27 0 46 -10t19 -39q0 -49 -22.5 -80.5t-73.5 -31.5q-29 0 -47.5 10t-18.5 41z" />
<glyph unicode="/" horiz-adv-x="497" d="M-88 -115l659 1514q8 20 29 20h57q20 0 11 -22l-662 -1514q-4 -10 -9 -13t-15 -3h-60q-20 0 -10 18z" />
<glyph unicode="0" d="M106 371q0 84 12.5 165.5t28.5 161.5q25 123 63 244t103.5 217t167 155.5t248.5 59.5q397 0 397 -391q0 -72 -10 -143.5t-22 -141.5q-25 -131 -64 -259t-106.5 -229t-173 -164.5t-265.5 -63.5q-199 0 -289 99t-90 290zM238 311.5q6 -69.5 34.5 -120t83 -77t140.5 -26.5 q113 0 189.5 45t128.5 119t84 167t54 189q16 66 28.5 138.5t16.5 144.5q6 92 -2 162.5t-38.5 119t-87 74t-144.5 25.5q-113 0 -188.5 -48t-126 -123t-80 -168t-49.5 -185q-16 -70 -27.5 -139.5t-15.5 -141.5q-6 -86 0 -155.5z" />
<glyph unicode="1" d="M156 18l12 70q2 18 27 18h262l211 1096h-244q-20 0 -18 17l6 34q4 18 22 25l225 65q18 6 36 10.5t34 4.5h64q16 0 18 -7.5t0 -17.5l-240 -1227h281q25 0 18 -18l-14 -70q0 -18 -25 -18h-659q-23 0 -16 18z" />
<glyph unicode="2" d="M18 20l17 78q4 23 9 31t15 16q162 129 322 261.5t334 279.5q104 90 171.5 187.5t67.5 197.5t-68.5 147.5t-221.5 47.5q-96 0 -182.5 -10.5t-164.5 -20.5q-16 -2 -20 5t-6 13l2 35q0 10 3 18.5t15 12.5q39 14 90.5 24.5t103.5 16.5t99 9t78 3q207 0 296 -72.5t89 -207.5 q0 -66 -16.5 -124.5t-49 -113.5t-84 -111.5t-120.5 -117.5q-76 -66 -139.5 -119t-133 -110.5t-153.5 -126t-203 -163.5h715q23 0 18 -22l-12 -66q-4 -16 -23 -16h-829q-23 0 -19 18z" />
<glyph unicode="3" d="M31 49q0 8 4 19l12 34q4 6 10 13.5t23 5.5q76 -10 161 -21.5t181 -11.5q74 0 153.5 23.5t147.5 75t111 131t43 192.5q0 84 -50.5 120t-142.5 52l-233 41q-31 6 -25 33l10 53q4 16 11.5 25.5t15.5 15.5l502 401h-662q-12 0 -18 3t-2 18l14 69q4 16 22 17h760q16 0 22.5 -5 t2.5 -26l-12 -65q-4 -18 -7.5 -28.5t-13.5 -21.5l-491 -393l174 -31q113 -23 178 -78t65 -169q0 -143 -47 -248t-130 -173.5t-194.5 -102t-238.5 -33.5q-31 0 -76 3t-94 9t-96 16.5t-80 24.5q-10 4 -10 12z" />
<glyph unicode="4" d="M41 387q-2 6 0 14l14 66q4 16 9.5 27.5t21.5 27.5l836 813q14 12 22 17.5t25 5.5h73q16 0 13 -17l-166 -856h172q23 0 18 -22l-12 -66q-4 -16 -23 -16h-176l-69 -356q-4 -12 -8.5 -18.5t-18.5 -6.5h-72q-16 0 -14 20l72 361h-699q-16 0 -18 6zM182 485h596l137 713z" />
<glyph unicode="5" d="M33 68l14 38q4 10 10 15.5t23 1.5q78 -10 173 -19.5t169 -9.5q94 0 176 25.5t142.5 78t95 130.5t34.5 184q2 78 -51 116t-139 52l-442 76q-41 6 -25 49l184 526q4 16 11.5 20.5t23.5 4.5h651q20 0 19 -19l-12 -67q-6 -20 -29 -21h-580l-137 -397l414 -66 q104 -16 171.5 -72.5t69.5 -160.5q2 -139 -42 -245.5t-123.5 -178.5t-188 -108.5t-237.5 -36.5q-33 0 -82.5 3t-100.5 9t-100 16.5t-82 24.5q-16 8 -10 31z" />
<glyph unicode="6" d="M90 307q2 88 16.5 180.5t36.5 190.5q29 131 71 256t113.5 222t181 156.5t271.5 59.5q31 0 74 -2t89 -8t90 -15.5t79 -23.5q23 -8 12 -31l-14 -41q-4 -8 -10 -13t-21 -3q-66 8 -148.5 16.5t-168.5 8.5q-117 0 -198 -40t-136 -110t-89 -161t-58 -193q80 8 142 14t114.5 11 t99.5 7.5t96 2.5q152 0 227.5 -74t73.5 -228q-2 -131 -42 -226t-112.5 -157.5t-174 -93t-228.5 -30.5q-111 0 -185.5 20.5t-119.5 61t-63.5 102t-18.5 141.5zM207 287q2 -61 24.5 -100.5t61.5 -62t91 -31.5t114 -9q197 0 306 99.5t107 301.5q-2 98 -51 146.5t-170 48.5 q-74 0 -180.5 -9t-253.5 -26q-20 -92 -36.5 -187.5t-12.5 -170.5z" />
<glyph unicode="7" d="M205 59l821 1192h-762q-20 0 -18 19l14 65q2 23 25 23h872q27 0 21 -25l-13 -61q-2 -10 -8 -22.5t-14 -22.5l-838 -1223q-14 -18 -31 -10l-65 35q-18 10 -4 30z" />
<glyph unicode="8" d="M49 279q0 176 97.5 284.5t250.5 155.5v4q-76 29 -124 91.5t-48 146.5q0 106 43 185t113 130t160 75.5t186 24.5q74 0 141.5 -15t119.5 -49t83 -91.5t31 -139.5q0 -70 -22.5 -131t-62.5 -109t-94.5 -80t-115.5 -44q102 -29 159.5 -103.5t57.5 -181.5q0 -117 -47 -202 t-126 -140t-179.5 -81.5t-204.5 -26.5q-74 0 -148.5 12t-135 46t-97.5 91t-37 148zM176 299q0 -66 27.5 -106.5t71.5 -64.5t98.5 -33t107.5 -9q76 0 151 19.5t134 59.5t96 102.5t37 148.5q0 66 -29.5 109.5t-74.5 72.5t-101.5 46.5t-107.5 29.5q-80 -16 -154 -41t-131 -68 t-91 -107.5t-34 -158.5zM350 971q0 -53 25.5 -88t65.5 -57.5t87 -37t88 -24.5q68 12 133.5 31.5t117 54.5t82 88t30.5 135q0 57 -22.5 96t-59.5 61.5t-84 33t-96 10.5q-70 0 -136.5 -15.5t-117.5 -51.5t-82 -94t-31 -142z" />
<glyph unicode="9" d="M96 61l17 39q4 10 9 15.5t21 3.5q63 -8 147.5 -17.5t170.5 -9.5q117 0 196.5 40t135 109.5t89 161t56.5 193.5q-80 -8 -141.5 -14.5t-113.5 -10.5t-99 -6t-99 -2q-145 0 -223 73t-76 228q4 262 152.5 385t404.5 123q111 0 186 -20.5t120 -61.5t63 -102.5t18 -140.5 q0 -88 -16 -180.5t-37 -192.5q-29 -131 -70.5 -255t-114.5 -221.5t-182.5 -156.5t-271.5 -59q-29 0 -71.5 2t-89 7t-91.5 14t-77 24q-25 10 -13 32zM309 868q2 -98 51 -146t170 -48q72 0 178.5 8t254.5 25q18 90 35.5 186t15.5 174q-2 61 -25.5 100t-61.5 61.5t-90.5 31 t-113.5 8.5q-197 0 -306.5 -98.5t-107.5 -301.5z" />
<glyph unicode=":" horiz-adv-x="372" d="M37 35q0 47 22.5 78.5t75.5 31.5q27 0 45.5 -9t18.5 -40q0 -47 -21.5 -79.5t-75.5 -32.5q-27 0 -46 10t-19 41zM184 791q0 49 22.5 79.5t74.5 30.5q29 0 47 -9t18 -40q0 -47 -21.5 -80t-74.5 -33q-29 0 -47.5 10.5t-18.5 41.5z" />
<glyph unicode=";" horiz-adv-x="372" d="M-41 -240q-6 6 8 21q82 63 92 153q6 70 -22 119q-12 16 12 33l86 53q20 14 37 -2q14 -16 21.5 -41.5t7.5 -48.5q0 -45 -17.5 -91t-46 -86t-63.5 -74t-72 -54q-4 -4 -12 -6t-13 2zM184 791q0 49 22.5 79.5t74.5 30.5q29 0 47 -9t18 -40q0 -47 -21.5 -80t-74.5 -33 q-29 0 -47.5 10.5t-18.5 41.5z" />
<glyph unicode="&#x3c;" d="M168 641l10 51q2 12 7 17.5t18 13.5l803 397q31 14 22 -12l-12 -78q-4 -16 -10.5 -21t-16.5 -12l-682 -338l-2 -4l555 -321q10 -6 14.5 -13.5t-0.5 -23.5l-12 -57q-4 -27 -24 -13l-654 383q-10 4 -15 10.5t-1 20.5z" />
<glyph unicode="=" d="M154 473l12 59q2 20 24 21h734q20 0 16 -21l-10 -59q-4 -16 -27 -16h-733q-18 0 -16 16zM219 809l12 59q2 20 23 21h733q23 0 19 -21l-13 -59q-2 -16 -24 -16h-733q-18 0 -17 16z" />
<glyph unicode="&#x3e;" d="M127 233l12 78q4 16 10.5 21.5t16.5 11.5l682 338l2 4l-555 322q-10 6 -14.5 13t0.5 23l12 58q4 27 24 12l654 -383q10 -4 15 -10t1 -21l-10 -51q-2 -12 -7 -17t-18 -14l-802 -397q-31 -14 -23 12z" />
<glyph unicode="?" horiz-adv-x="706" d="M104 31q0 45 21.5 77.5t75.5 32.5q66 0 65 -47q0 -45 -20.5 -78.5t-75.5 -33.5q-66 0 -66 49zM176 332v6q4 41 11.5 86t11.5 70q12 66 41.5 120t72.5 102t95.5 90t107.5 81q33 23 63.5 43t54 44.5t38 56.5t14.5 77q0 88 -60.5 123t-170.5 35q-18 0 -47 -1t-61 -3 t-63.5 -4.5t-56.5 -4.5q-23 0 -22 17v39q0 23 24 30q59 23 131 29t125 6q63 0 120 -13t100 -43t67.5 -77t24.5 -115q0 -59 -17.5 -104t-47.5 -81t-68.5 -65.5t-81.5 -56.5q-84 -55 -150.5 -113.5t-105.5 -144.5q-10 -23 -19.5 -50.5t-13.5 -55.5l-11.5 -57.5t-11.5 -65.5 q-4 -14 -18 -15h-59q-16 0 -17 15z" />
<glyph unicode="@" horiz-adv-x="1648" d="M133 535q0 184 69.5 342.5t191.5 274.5t285 182.5t349 66.5q141 0 255 -37t193.5 -104.5t122.5 -164t46 -214.5v-4q0 -92 -28 -193.5t-81 -187.5t-134 -141.5t-188 -55.5q-98 0 -142 38t-54 97l-2 2q-25 -14 -61.5 -31.5t-80 -33t-87.5 -25.5t-82 -10q-98 0 -141.5 48 t-43.5 146q0 12 2 34t5 46.5t6.5 48t7.5 41.5q20 94 46.5 166t67.5 121t100.5 73.5t145.5 24.5q49 0 109.5 -14t113.5 -39q4 8 4 19q4 12 8.5 15t18.5 3h47q18 0 19 -10q0 -6 -2 -10l-109 -543q-4 -23 -3 -45.5t13.5 -40t37 -28.5t65.5 -11q82 0 144.5 49t104 121t63 156 t21.5 155v4q0 106 -38.5 190.5t-108.5 142.5t-170 90t-223 32q-162 0 -305.5 -59.5t-252 -163t-173 -244.5t-64.5 -305q0 -117 39 -210t111.5 -159.5t175 -101.5t231.5 -35q10 0 36 1t58.5 4t69.5 7t70 13h8q12 0 14 -13q2 -2 2 -8l4 -14v-15q-4 -8 -12 -10 q-59 -25 -134 -34t-144 -9q-139 0 -253 41t-195 115t-125 179.5t-44 234.5zM614 532q0 -72 30 -93t85 -21q29 0 69 10t82 23.5t78.5 29t59.5 27.5q23 113 45 224.5t45 223.5q-59 25 -117.5 36.5t-107.5 11.5q-90 0 -141.5 -47.5t-86.5 -161.5q-6 -23 -10 -45.5t-10 -49.5 q-10 -47 -15.5 -87t-5.5 -81z" />
<glyph unicode="A" horiz-adv-x="1095" d="M-43 8q0 8 4 15l688 1310q10 23 33 23h88q14 0 17.5 -6.5t5.5 -16.5l184 -1313q0 -20 -19 -20h-79q-20 0 -23 18q-12 90 -22.5 177.5t-22.5 177.5h-545l-178 -350q-6 -16 -14 -19.5t-19 -3.5h-84q-14 0 -14 8zM322 479h477q-4 35 -12.5 98.5t-17.5 133t-17.5 134 t-14.5 101.5l-30 277h-7q-29 -57 -62.5 -126t-74.5 -147z" />
<glyph unicode="B" horiz-adv-x="1101" d="M57 27l252 1304q6 25 31 25l412 2q182 0 265 -88q76 -80 76 -207q0 -12 -1 -25q-4 -100 -67.5 -194t-186.5 -139l2 -3q57 -20 93 -57t55.5 -80t24.5 -90q4 -34 3 -63v-23q-6 -86 -40 -157.5t-88 -123t-126 -80t-152 -28.5h-526q-28 0 -28 19q0 4 1 8zM190 106h367 q147 0 238.5 79t95.5 212v13q1 44 -11 84q-14 48 -44.5 82t-77.5 55.5t-113 21.5h-348zM317 758h334q59 0 114.5 19.5t99.5 55t71 87t31 112.5q1 9 1 18q0 84 -50 138q-56 60 -189 61h-317z" />
<glyph unicode="C" horiz-adv-x="1075" d="M158 403q0 51 7 122t19 139q25 135 67 263t115.5 227t185.5 158.5t275 59.5q31 0 78 -2t97.5 -7t97.5 -14.5t82 -23.5q14 -6 16 -14q1 -3 1 -6q0 -6 -3 -13l-16 -39q-4 -10 -10.5 -15t-22.5 -1q-63 6 -151.5 14.5t-174.5 8.5q-133 0 -222 -51.5t-146.5 -136.5t-90 -191.5 t-53.5 -216.5q-14 -63 -20 -127t-6 -115q0 -74 15 -133.5t52 -102.5t96.5 -66.5t147.5 -23.5q82 0 174 7.5t162 15.5q27 2 26 -19l-2 -39q0 -23 -22 -30q-37 -14 -89 -23.5t-105.5 -14.5t-99.5 -7t-73 -2q-113 0 -190.5 29.5t-125.5 85t-69.5 132t-21.5 172.5z" />
<glyph unicode="D" horiz-adv-x="1236" d="M76 18v5q0 2 1 2t1 2l252 1304q6 25 35 25h368q121 0 205 -31t137 -89t78 -143t25 -192q0 -53 -5.5 -107.5t-13.5 -111.5q-23 -145 -64.5 -270t-115.5 -216.5t-185.5 -143.5t-271.5 -52h-418q-29 0 -28 18zM211 106h305q131 0 220 45.5t148.5 122t93.5 178t54 214.5 q10 53 15.5 108t5.5 109q0 80 -16.5 146.5t-54.5 115.5t-99.5 76.5t-153.5 27.5h-295q-57 -287 -111.5 -571.5t-111.5 -571.5z" />
<glyph unicode="E" horiz-adv-x="999" d="M70 23l254 1310q6 25 28 25h707q20 0 20 -14q0 -4 -2 -9l-12 -63q-2 -23 -29 -23h-610l-96 -489h551q23 0 18 -23l-12 -61q-2 -23 -29 -23h-549l-106 -547h626q25 0 19 -22l-12 -61q-4 -23 -29 -23h-719q-20 0 -20 14q0 4 2 9z" />
<glyph unicode="F" horiz-adv-x="985" d="M59 25l256 1308q2 25 29 25h696q20 0 20 -15q0 -4 -1 -8l-12 -63q-6 -23 -29 -23h-600l-96 -489h532q25 0 18 -23l-12 -61q-2 -25 -29 -25h-530l-121 -626q-6 -25 -28 -25h-70q-25 0 -23 25z" />
<glyph unicode="G" horiz-adv-x="1210" d="M156 401q0 59 6 125t20 138q25 137 69 265t117.5 226t185.5 157.5t271 59.5q31 0 78 -2t97.5 -7t97.5 -14.5t82 -23.5q16 -5 16 -19q0 -6 -4 -14l-14 -39q-4 -10 -10.5 -15t-20.5 -1q-66 6 -154 14.5t-174 8.5q-133 0 -222 -51.5t-146.5 -134.5t-90 -190.5t-55.5 -219.5 q-12 -61 -19 -124t-7 -116q0 -72 16 -132.5t54 -104.5t101.5 -69.5t159.5 -25.5q27 0 65 3t75.5 8.5t74.5 12.5t66 17l90 463h-201q-27 0 -20 25l12 65q2 20 29 21h297q27 0 20 -25l-112 -586q-6 -25 -18.5 -40t-41.5 -23q-176 -49 -362 -49q-117 0 -198 28.5t-132 83 t-74.5 132t-23.5 173.5z" />
<glyph unicode="H" horiz-adv-x="1193" d="M72 25l254 1308q6 25 28 25h72q23 0 16 -25l-108 -559h665l109 559q6 25 29 25h71q20 0 19 -25l-256 -1308q-6 -25 -27 -25h-70q-27 0 -20 25l125 641h-666l-125 -641q-6 -25 -26 -25h-72q-20 0 -20 15q0 5 2 10z" />
<glyph unicode="I" horiz-adv-x="489" d="M106 25l256 1308q6 25 29 25h70q20 0 20 -15q0 -4 -2 -10l-254 -1308q-6 -25 -28 -25h-70q-22 0 -22 17q0 3 1 8z" />
<glyph unicode="J" horiz-adv-x="925" d="M-49 55l14 41q8 18 33 17q59 -10 118.5 -13.5t94.5 -3.5q82 0 136 18.5t89 52.5t54.5 81t31.5 106l191 979q6 25 28 25h72q20 0 18 -25l-194 -1003q-16 -80 -44 -143.5t-76 -109.5t-119.5 -70.5t-174.5 -24.5q-27 0 -60.5 2t-68.5 7t-68.5 12t-60.5 20q-17 7 -17 20 q0 5 3 12z" />
<glyph unicode="K" horiz-adv-x="1099" d="M66 14v9l253 1310q6 25 29 25h70q18 0 18 -19v-6l-151 -772h2l252 254l534 524q10 10 16.5 14.5t22.5 4.5h96q12 0 13 -10q0 -6 -7 -13l-552 -544q80 -193 158.5 -384t156.5 -384q2 -2 2 -7q0 -16 -21 -16h-75q-25 0 -33 20q-68 174 -136.5 344.5t-138.5 344.5l-323 -326 q-18 -90 -35.5 -179t-34.5 -181q-4 -23 -28 -23h-70q-18 0 -18 14z" />
<glyph unicode="L" horiz-adv-x="964" d="M76 23l252 1308q8 27 30 27h70q25 0 18 -27l-237 -1222h645q20 0 18 -23l-12 -63q-6 -23 -26 -23h-740q-20 0 -20 14q0 4 2 9z" />
<glyph unicode="M" horiz-adv-x="1486" d="M72 20v5q66 330 129 655.5t127 654.5q6 23 26 23h68q16 0 20 -5t9 -18l215 -751q2 -6 11 -39t20.5 -71t19.5 -70.5t10 -38.5h4l174 262l477 706q10 14 17.5 19.5t25.5 5.5h70q20 0 21 -17q0 -2 -1.5 -3t-1.5 -5q-66 -330 -126.5 -654t-126.5 -654q-6 -25 -27 -25h-70 q-20 0 -20 16v9q53 270 105 539.5t106 539.5h-4l-586 -862q-14 -20 -35 -21h-49q-23 0 -31 19l-174 608l-74 256h-4q-53 -272 -105 -540.5t-106 -538.5q-2 -25 -26 -25h-68q-20 0 -20 20z" />
<glyph unicode="N" horiz-adv-x="1261" d="M68 16v9l256 1310q4 23 26 23h64q16 0 21 -6t9 -17q98 -217 191.5 -422.5t191.5 -420.5q12 -25 29.5 -65t36 -83t35 -81t26.5 -56h4q55 283 110.5 562.5t109.5 561.5q6 27 28 27h68q20 0 20 -19v-8l-256 -1308q-6 -23 -28 -23h-62q-16 0 -21 5t-12 18q-98 213 -194 424.5 t-195 424.5q-39 88 -61.5 140.5t-34.5 80t-17 38t-7 18.5l-3 2q-2 -2 -4 -2l-217 -1124q-6 -25 -26 -25h-68q-20 0 -20 16z" />
<glyph unicode="O" horiz-adv-x="1286" d="M150 414q0 72 9 142.5t23 141.5q25 131 69 253t116.5 216.5t180 150.5t261.5 56q217 0 321.5 -104.5t104.5 -321.5q0 -63 -7 -125.5t-18 -124.5q-25 -141 -65.5 -271t-114.5 -229.5t-187.5 -157.5t-281.5 -58q-215 0 -313 112.5t-98 319.5zM268 424q0 -156 67.5 -246 t233.5 -90q133 0 222.5 51t147.5 134t92 189.5t56 215.5q12 63 20.5 127.5t8.5 130.5q0 164 -72.5 249t-242.5 85q-127 0 -214 -53.5t-144.5 -138.5t-91.5 -190.5t-54 -209.5q-12 -63 -20.5 -127t-8.5 -127z" />
<glyph unicode="P" horiz-adv-x="1013" d="M57 25l252 1310q6 23 31 23l373 -2q76 0 140.5 -19.5t111.5 -59.5t73.5 -100.5t26.5 -140.5q0 -102 -34 -188t-94 -147.5t-147.5 -96.5t-193.5 -35h-317l-107 -544q-6 -25 -27 -25h-69q-20 0 -20 16q0 4 1 9zM299 672h299q162 0 254 99t92 263q0 115 -74.5 165t-187.5 50 h-270z" />
<glyph unicode="Q" horiz-adv-x="1286" d="M152 412q0 72 9 143.5t23 142.5q20 121 63.5 242t116 217t182 156.5t265.5 60.5q123 0 205 -33.5t131 -95t69 -149.5q16 -73 16 -161q0 -17 -1 -36q-2 -59 -9.5 -117.5t-17.5 -117.5q-18 -98 -47 -193.5t-74 -179.5t-110.5 -150.5t-157.5 -105.5l270 -80 q10 -4 11.5 -13.5t-2.5 -15.5l-45 -76q-12 -18 -28 -18q-6 0 -13 2l-396 150q-14 -2 -26.5 -2h-28.5q-113 0 -190.5 29.5t-124.5 86t-68.5 136t-21.5 178.5zM274 469q-1 -21 -1 -40q0 -66 11 -121q13 -70 48 -119.5t93 -75t146 -25.5q121 0 207 47t146.5 125t97.5 178.5 t59 206.5q25 121 31 244q1 23 1 45q0 155 -61 240q-71 96 -251 96q-121 0 -205 -48t-140.5 -128t-92 -180.5t-56.5 -204.5q-14 -59 -21 -119t-12 -121z" />
<glyph unicode="R" horiz-adv-x="1048" d="M59 14v11l254 1310q6 23 29 23q98 0 194.5 -1t194.5 -1q74 0 136.5 -17.5t107.5 -56.5t70.5 -101.5t25.5 -150.5q0 -160 -90 -273.5t-244 -150.5q43 -147 85 -290.5t83 -290.5q2 -4 2 -11q0 -14 -18 -14h-84q-16 0 -22.5 3t-10.5 17l-156 570h-331l-109 -565 q-6 -25 -29 -25h-69q-18 0 -19 14zM305 692h297q152 0 249 86t99 240q0 68 -20.5 112t-56 70.5t-84 37.5t-103.5 11h-272z" />
<glyph unicode="S" horiz-adv-x="1050" d="M29 51q-1 3 -1 6q0 6 3 13l16 39q6 20 31 16q47 -6 98 -12.5t99.5 -9.5t91.5 -5t73 -2q80 0 152 18.5t126 57.5t85 99.5t31 146.5q0 109 -70 156t-189 67q-80 14 -147.5 32.5t-116.5 51.5t-76.5 84t-27.5 131q0 109 39 189.5t105.5 134t156.5 80t192 26.5q37 0 84 -2 t97.5 -7t97.5 -14.5t84 -25.5q16 -5 16 -17q0 -6 -4 -14l-14 -39q-4 -10 -10.5 -15t-22.5 -3q-27 4 -65.5 8t-83.5 8t-93.5 7.5t-91.5 3.5q-78 0 -144.5 -19.5t-115.5 -58.5t-76.5 -97.5t-27.5 -136.5q0 -49 19.5 -81.5t54 -53t85 -33t111.5 -22.5q70 -12 135.5 -31.5 t115.5 -54.5t81 -92.5t31 -147.5q0 -121 -42 -206t-114 -139t-168 -79.5t-207 -25.5q-37 0 -92 4t-111.5 11t-106.5 17.5t-79 22.5q-12 6 -14 14z" />
<glyph unicode="T" horiz-adv-x="958" d="M199 1272l14 63q4 23 27 23h847q18 0 18 -14q0 -4 -1 -9l-10 -63q-6 -23 -29 -23h-363l-241 -1224q-2 -25 -27 -25h-67q-29 0 -23 25l238 1224h-361q-16 -1 -20 5q-3 4 -3 11q0 3 1 7z" />
<glyph unicode="U" horiz-adv-x="1226" d="M140 284q-3 29 -4 59q0 66 16 140l165 848q6 27 31 27h68q20 0 20 -19q0 -2 -1 -3t-1 -5l-166 -854q-12 -61 -12 -116q0 -17 1 -35q5 -70 37 -122t93.5 -83t159.5 -31q186 0 291.5 94.5t142.5 292.5l166 854q6 27 31 27h69q18 0 19 -21v-6q-43 -213 -84 -424t-84 -424 q-20 -111 -58.5 -202t-103 -157.5t-158.5 -103t-227 -36.5t-219 37.5t-134 104.5t-58 158z" />
<glyph unicode="V" horiz-adv-x="1116" d="M231 1335v6q0 14 21 15h70q12 0 16 -4t8 -17l111 -833l45 -348h4q16 31 39.5 74.5t47 90t44 87t33.5 63.5q25 49 63.5 123t81.5 156.5t90 172t88 168t75 144t54 102.5q8 20 31 21h82q14 0 14 -8t-4 -15l-692 -1313q-8 -20 -33 -20h-84q-12 0 -17 3t-7 15 q-47 330 -91.5 659t-89.5 658z" />
<glyph unicode="W" horiz-adv-x="1642" d="M225 1335v6q0 14 21 15h76q20 0 22 -19l100 -1167h7l129 268q6 14 29.5 64.5t56 118t68.5 144.5t69 144.5t56.5 117.5t31.5 65l-23 243v6q0 14 21 15h76q20 0 22 -19q2 -37 8 -102.5t13.5 -146t15.5 -171t16.5 -175.5t14.5 -158.5l10 -122.5l25 -291h4l129 270l426 897 q10 18 32 19h78q14 0 15 -8q0 -2 -5 -15l-634 -1310q-12 -23 -33 -23h-84q-14 0 -18.5 3t-6.5 17q-2 20 -8 89t-15 162.5t-18.5 197.5t-18.5 194.5t-15.5 153t-6.5 72.5h-2q-6 -14 -36.5 -76.5t-72.5 -151t-90 -188.5t-93.5 -192.5t-80 -163t-47.5 -97.5q-8 -20 -30 -20h-88 q-10 0 -15.5 3t-7.5 17z" />
<glyph unicode="X" horiz-adv-x="1042" d="M-33 10q0 6 4 10l539 680l-254 635q-8 23 16 23h88q16 0 19.5 -5t7.5 -16l111 -282l98 -254l182 235l236 301q14 18 35 19h98q14 0 14 -10q0 -2 -4 -11l-502 -635q68 -172 137.5 -341t137.5 -339q2 -2 2 -6q0 -14 -19 -14h-90q-18 0 -26 20q-33 84 -65 166t-66 166 l-97 248l-174 -225l-278 -355q-10 -12 -15.5 -16t-21.5 -4h-100q-12 0 -13 10z" />
<glyph unicode="Y" horiz-adv-x="1011" d="M219 1337v6q0 12 19 13h79q12 0 15.5 -4t7.5 -15q33 -92 64.5 -185t62.5 -185l88 -256l463 626q12 18 31 19h86q10 0 14 -5q1 -2 1 -4q0 -5 -5 -12l-547 -733q-29 -145 -56.5 -288.5t-56.5 -288.5q-6 -25 -26 -25h-70q-20 0 -20 16v9l112 577z" />
<glyph unicode="Z" horiz-adv-x="974" d="M-6 23l10 53q4 14 9 26.5t16 26.5l895 1120h-627q-16 0 -20.5 5.5t-2.5 17.5l15 63q4 23 26 23h746q17 0 17 -15q0 -3 -1 -6l-12 -61q-2 -20 -21 -45l-890 -1125h667q25 0 19 -22l-11 -59q-6 -25 -26 -25h-791q-20 0 -20 14q0 4 2 9z" />
<glyph unicode="[" horiz-adv-x="491" d="M-25 -182l308 1583q4 23 28 22h262q20 0 17 -20l-12 -57q-4 -18 -25 -19h-172l-279 -1438h170q8 0 15.5 -3t3.5 -15l-10 -57q-4 -18 -25 -19h-260q-27 0 -21 23z" />
<glyph unicode="\" horiz-adv-x="497" d="M131 1397q-2 20 16 20h60q18 0 18 -18l117 -1514q2 -18 -20 -18h-58q-16 0 -18 16z" />
<glyph unicode="]" horiz-adv-x="491" d="M-25 -184l11 55q2 10 10 14t16 4h170l279 1438h-170q-20 0 -19 21l13 55q0 20 22 20h262q25 0 19 -22l-307 -1583q-6 -23 -29 -23h-260q-23 0 -17 21z" />
<glyph unicode="^" horiz-adv-x="872" d="M176 920q-8 6 6 24l344 389q10 10 19.5 16.5t29.5 6.5h89q23 0 27.5 -5t8.5 -16l181 -397q8 -18 -4 -25l-31 -18q-18 -12 -27 0l-211 369l-375 -363q-14 -14 -28 -4z" />
<glyph unicode="_" horiz-adv-x="1024" d="M-141 -238l8 41q6 20 24 21h1008q20 0 19 -21l-11 -41q-2 -16 -22 -16h-1010q-18 0 -16 16z" />
<glyph unicode="`" horiz-adv-x="993" d="M487 1391q-16 16 2 26l68 33q10 6 15.5 5t13.5 -11l190 -279q14 -18 -4 -26l-35 -21q-10 -4 -15 -3t-11 7z" />
<glyph unicode="a" horiz-adv-x="1036" d="M76 246q0 47 7 113.5t17 125.5q25 131 60 230.5t89 166t133 100.5t191 34q72 0 152 -19.5t156 -60.5l2 2l8 39q4 14 10 17t21 3h63q20 0 20 -17q0 -4 -1 -9l-185 -948q-4 -23 -26 -23h-68q-25 0 -20 23l18 94q-39 -23 -84 -46.5t-96 -44t-107.5 -32.5t-113.5 -12 q-129 0 -187.5 64.5t-58.5 199.5zM197 270q0 -109 37.5 -146.5t123.5 -37.5q41 0 95.5 14.5t108.5 35t102.5 42t76.5 35.5l125 629q-82 33 -157.5 52t-147.5 19q-74 0 -127 -22.5t-93 -73.5t-67.5 -134t-52.5 -202q-24 -124 -24 -205v-6z" />
<glyph unicode="b" horiz-adv-x="1011" d="M39 68q0 16 2 24l256 1321q4 16 10 20.5t19 4.5h65q20 0 21 -13q0 -8 -2 -12q-23 -115 -44.5 -227.5t-43.5 -227.5l4 -4q106 41 187 52.5t138 11.5q88 0 147.5 -20.5t95.5 -60.5t51.5 -97.5t15.5 -130.5q0 -49 -5.5 -105.5t-15.5 -109.5q-18 -113 -51 -207t-90.5 -162 t-144.5 -105.5t-212 -37.5q-115 0 -211 11t-161 32q-18 6 -24.5 18t-6.5 25zM160 115q61 -10 136 -18.5t155 -8.5q141 0 223 74t125 239q18 70 27.5 146t9.5 139q0 119 -44 173t-151 54q-72 0 -156 -12t-180 -39z" />
<glyph unicode="c" horiz-adv-x="837" d="M82 274q0 51 8 113t21 127q18 100 46.5 192.5t81 161t137.5 109.5t216 41q29 0 69.5 -2t82.5 -7t83 -14.5t70 -21.5q12 -4 12 -15q0 -6 -4 -14l-12 -35q-8 -16 -37 -14q-59 6 -136 13t-138 7q-78 0 -133.5 -21.5t-97.5 -68.5t-70.5 -125.5t-51.5 -191.5 q-10 -61 -17 -112.5t-7 -92.5q0 -119 51 -168t166 -49q29 0 65.5 2t74.5 5l76 6t67 7t28 -18v-31q0 -23 -22 -30q-31 -12 -73 -20.5t-85 -13.5t-85 -7t-75 -2q-92 0 -151.5 22.5t-95 61t-50 92t-14.5 114.5z" />
<glyph unicode="d" horiz-adv-x="1013" d="M74 252q0 72 13 160t34 170q12 47 24.5 90t28.5 80q57 131 152.5 198.5t261.5 67.5q59 0 137 -14.5t162 -51.5l4 2q23 117 44 230.5t44 230.5q4 14 8 19.5t19 5.5h57q10 0 20.5 -1t10.5 -12q0 -4 -1 -6t-1 -6l-271 -1392q-4 -23 -26 -23h-70q-18 0 -18 16v7l18 94 l-35 -19q-33 -16 -76 -35.5t-92 -37t-101 -29.5t-102 -12q-133 0 -188 66.5t-57 201.5zM195 274q0 -90 36.5 -139t122.5 -49q41 0 96.5 14.5t110.5 35t104.5 42t77.5 35.5l127 649q-88 29 -163.5 41t-147.5 12q-98 0 -162.5 -45t-109.5 -147q-10 -25 -20.5 -54.5 t-20.5 -64.5q-20 -78 -35.5 -169t-15.5 -161z" />
<glyph unicode="e" horiz-adv-x="980" d="M96 260q0 72 15.5 141.5t29.5 137.5q16 74 46 157.5t88.5 154.5t151.5 118t237 47q59 0 113 -15.5t95 -45t65 -72t24 -97.5q0 -88 -37 -151.5t-97.5 -108.5t-138.5 -73.5t-158.5 -45t-159.5 -23.5t-143 -7q-14 -70 -14 -121q0 -57 19.5 -91t53 -51.5t77 -22.5t90.5 -5 q72 0 153.5 7t159.5 16q14 0 21.5 -3.5t7.5 -15.5v-33q0 -20 -23 -28q-35 -14 -81 -22.5t-94 -13.5t-96 -7t-87 -2q-152 0 -235 59t-83 217zM244 473q43 0 105.5 5t130 16.5t134 31t118.5 51t85 77t33 106.5q0 45 -18.5 74.5t-47 48t-64.5 25.5t-71 7q-119 0 -190.5 -44 t-112.5 -103q-47 -72 -67.5 -152.5t-34.5 -142.5z" />
<glyph unicode="f" horiz-adv-x="645" d="M-311 -279l12 33q6 16 12 18.5t33 -1.5q53 -10 90 -13.5t60 -3.5q98 0 143 43t67 146l189 962h-127q-23 0 -21 23l9 45q6 25 30 24h129l29 158q29 141 103.5 216t228.5 75q29 0 86 -6t110 -31q18 -7 18 -21q0 -5 -3 -12l-13 -35q-6 -14 -14 -16t-31 2q-51 10 -89 13 t-60 3q-98 0 -148.5 -43t-72.5 -147l-31 -156h279q23 0 16 -22l-8 -47q-2 -23 -29 -23h-278l-189 -962q-12 -72 -35.5 -126.5t-60.5 -91t-92.5 -56t-130.5 -19.5q-29 0 -84.5 6t-112.5 31q-17 7 -17 21q0 6 3 13z" />
<glyph unicode="g" horiz-adv-x="1013" d="M55 -305l13 33q8 16 26 16h10q68 -8 145 -14t144 -6q76 0 130.5 12t91 39.5t59 71.5t35.5 110l16 84l-4 4q-109 -39 -188.5 -50t-137.5 -11q-88 0 -146.5 20.5t-94 60t-50 99t-14.5 135.5q0 70 8 145.5t25 145.5q23 94 58.5 172t92 135t138.5 89t194 32q115 0 209 -13.5 t160 -31.5q35 -10 35 -41q0 -6 -1 -12.5t-3 -14.5l-179 -923q-18 -90 -45.5 -158t-77 -113t-126 -67.5t-193.5 -22.5q-37 0 -80 2t-86 7t-83 13.5t-70 20.5q-13 6 -13 19q0 6 2 12zM211 311q0 -121 45 -174t150 -53q139 0 335 53l146 748q-59 10 -135 18t-154 8 q-139 0 -224 -75.5t-126 -237.5q-16 -68 -26.5 -143.5t-10.5 -143.5z" />
<glyph unicode="h" horiz-adv-x="1005" d="M31 23l270 1394q4 23 25 23h73q18 0 15 -23l-105 -536q41 20 89 43.5t101.5 44t110 34t113.5 13.5q106 0 157.5 -33t67.5 -86q10 -34 11 -73q1 -22 -3 -46q-10 -66 -22 -137l-119 -618q-2 -23 -27 -23h-57q-18 0 -26.5 3t-4.5 20l123 624q7 51 15 99q3 19 3 37 q-1 27 -7 49q-12 38 -45 60.5t-105 22.5q-41 0 -97.5 -15t-112.5 -35.5t-106.5 -42t-76.5 -34.5l-150 -765q-2 -23 -26 -23h-64q-10 0 -17 3q-4 2 -4 9q0 5 1 11z" />
<glyph unicode="i" horiz-adv-x="430" d="M82 25l184 948q2 16 9.5 20t19.5 4h67q23 0 17 -24l-184 -948q-6 -25 -27 -25h-66q-21 0 -21 16q0 4 1 9zM307 1235q0 45 19.5 72.5t66.5 27.5q23 0 41.5 -8t18.5 -37q0 -43 -20.5 -71.5t-67.5 -28.5q-23 0 -40.5 9t-17.5 36z" />
<glyph unicode="j" horiz-adv-x="458" d="M-266 -319l12 30q4 12 10 16.5t25 0.5q29 -4 69.5 -5.5t67.5 -1.5q80 0 110.5 36t43.5 100l219 1118q2 23 26 22h68q20 0 18 -22l-221 -1143q-20 -96 -73.5 -153.5t-174.5 -57.5q-57 0 -106 7t-84 24q-12 4 -12 16q0 6 2 13zM330 1235q0 45 20.5 72.5t65.5 27.5 q25 0 42 -8t17 -37q0 -43 -19.5 -71.5t-66.5 -28.5q-25 0 -42 9t-17 36z" />
<glyph unicode="k" horiz-adv-x="874" d="M47 23l270 1394q6 23 27 23h68q14 0 17 -5t1 -16l-186 -964q76 72 147.5 142.5t145.5 141.5q18 18 54 52t73.5 71t72.5 71t51 50q4 4 12.5 10t22.5 6h95q18 0 18 -12q0 -8 -10 -18l-412 -396l256 -548q4 -10 1 -17.5t-19 -7.5h-74q-16 0 -21.5 5t-11.5 18l-215 469 l-221 -216l-49 -253q-4 -23 -29 -23h-65q-20 0 -20 17q0 3 1 6z" />
<glyph unicode="l" horiz-adv-x="450" d="M87 74v7q0 23 5 50l250 1284q6 25 29 25h65q12 0 18 -4q3 -2 3 -9q0 -5 -2 -12l-242 -1251q-10 -47 11.5 -58.5t80.5 -11.5q20 0 21 -14l-2 -51q0 -18 -23 -27q-23 -8 -46.5 -11t-43.5 -3q-45 0 -71.5 11t-39 30t-13.5 45z" />
<glyph unicode="m" horiz-adv-x="1624" d="M41 31l182 936q6 31 33 30h51q16 0 22.5 -6t2.5 -24l-17 -86q33 20 77 43.5t94.5 44t104.5 35t107 14.5q111 0 164 -39t64 -115q92 61 197.5 107.5t209.5 46.5q88 0 138.5 -23.5t72.5 -68.5q21 -43 20 -104v-6q-1 -64 -18 -146l-125 -639q-6 -31 -35 -31h-55q-16 0 -21 6 t-1 25l121 616q14 74 18 125q1 12 1 24q1 35 -9 60q-12 33 -45 47.5t-90 14.5q-39 0 -90.5 -14.5t-103.5 -34t-101 -42t-84 -41.5q-2 -23 -5 -54.5t-10 -61.5l-125 -639q-6 -31 -34 -31h-60q-16 0 -18 6t2 25l125 639q10 49 14 94q1 12 1 23q0 31 -8 56q-11 34 -43 54.5 t-91 20.5q-37 0 -81 -11.5t-93 -29t-101.5 -41t-101.5 -48.5l-147 -757q-6 -31 -33 -31h-54q-16 0 -21 6q-3 3 -3 11q0 6 2 14z" />
<glyph unicode="n" horiz-adv-x="997" d="M29 6q-1 3 -1 7.5t1 9.5l184 950q6 25 27 24h65q18 0 21.5 -6t-0.5 -18l-19 -92q37 20 85 43.5t101.5 44t112 34t115.5 13.5q100 0 150.5 -33t67.5 -85q13 -38 13 -85q0 -17 -2 -35q-6 -68 -18 -137l-119 -618q-2 -23 -29 -23h-67q-23 0 -19 23l123 624q11 51 17 99 q2 18 2 34q0 28 -8 52q-12 38 -46 60.5t-104 22.5q-41 0 -97.5 -15t-112.5 -35.5t-106.5 -42t-76.5 -34.5l-150 -765q-2 -23 -28 -23h-66q-14 0 -16 6z" />
<glyph unicode="o" horiz-adv-x="1003" d="M82 303q0 53 7 106.5t17 106.5q20 104 54.5 195.5t90.5 159t140 107.5t205 40q166 0 257 -74t91 -246q0 -94 -18 -182q-23 -115 -54.5 -212t-89 -169t-144.5 -111.5t-220 -39.5q-166 0 -251 75.5t-85 243.5zM199 309q0 -117 55 -169t172 -52q100 0 164.5 33t106.5 89 t65.5 131t40.5 161q10 47 16 95t6 95q0 123 -61.5 172t-177.5 49q-96 0 -160 -33.5t-103.5 -91t-62 -132t-37.5 -154.5q-10 -47 -17 -95.5t-7 -97.5z" />
<glyph unicode="p" horiz-adv-x="1007" d="M-23 -328l252 1295q6 31 33 30h55q16 0 22.5 -6t2.5 -24l-16 -90q23 14 67.5 37.5t100 46t117 40t120.5 17.5q135 0 189 -68q51 -65 51 -195v-10q0 -47 -7.5 -104t-17.5 -123q-23 -133 -58.5 -233.5t-93 -167t-140.5 -100t-195 -33.5q-59 0 -133 13t-160 54l-2 -4 l-74 -375q-4 -20 -12 -26t-25 -6h-55q-22 0 -22 21q0 5 1 11zM182 139q86 -29 161 -41t149 -12q76 0 129 23.5t92 75t65.5 134t48.5 203.5q12 72 18.5 126t8.5 95v10q0 94 -35 129q-37 36 -121 36q-43 0 -98 -15.5t-110.5 -36t-104.5 -42t-78 -36.5z" />
<glyph unicode="q" horiz-adv-x="1013" d="M90 287q0 76 10.5 159.5t26.5 155.5q23 92 59.5 168t93 131t135 85t187.5 30q115 0 212 -11.5t163 -31.5q33 -10 33 -41q0 -6 -1 -12.5t-3 -14.5l-242 -1239q-6 -26 -26 -26h-1h-65q-20 0 -21 16v10l74 375l-4 2q-106 -39 -187 -49t-139 -10q-86 0 -145.5 19.5t-94 57 t-50 95t-15.5 131.5zM211 303q0 -115 45 -168t150 -53q141 0 337 53l144 748q-59 10 -135 19t-154 9q-139 0 -224 -76.5t-126 -236.5q-16 -70 -26.5 -147.5t-10.5 -147.5z" />
<glyph unicode="r" horiz-adv-x="602" d="M88 31l182 936q6 31 33 30h53q16 0 22.5 -6t2.5 -24l-16 -99q16 10 52 28.5t80 37t92 37t91 28.5q6 2 9.5 2t4.5 -2q2 -4 2 -14l-6 -98q1 -23 -24 -29q-84 -16 -168 -38.5t-148 -47.5l-149 -741q-6 -31 -35 -31h-55q-15 0 -21 6q-3 3 -4 11q0 6 2 14z" />
<glyph unicode="s" horiz-adv-x="860" d="M16 57l13 31q4 14 12 17.5t22 0.5q29 -4 68 -7t79 -7t77 -6t61 -2q61 0 112.5 9t90.5 34t60.5 67t21.5 107q0 41 -15.5 69.5t-41 47t-60.5 30t-74 17.5q-53 8 -106 21.5t-95 38t-69 66.5t-27 107q0 88 32 148.5t86 98.5t124 55.5t148 17.5q27 0 67.5 -2t82.5 -8.5 t82 -14.5t69 -20q12 -4 12 -15q0 -6 -4 -14l-13 -35q-4 -10 -12 -13t-24 -3q-59 6 -132 14t-137 8q-113 0 -188.5 -46t-75.5 -160q2 -72 59.5 -99.5t147.5 -42.5q45 -8 94 -21.5t91 -41t70 -73.5t28 -118q0 -96 -33 -158.5t-88.5 -101.5t-130 -54t-158.5 -15q-33 0 -77 3 t-88 8t-84 13t-66 19q-12 6 -12 20q0 5 1 10z" />
<glyph unicode="t" horiz-adv-x="610" d="M154 186l141 719h-121q-20 0 -20 18v5l10 45q2 25 31 24h118l45 228q2 23 29 28l64 19q9 3 14.5 3t7.5 -3q4 -6 0 -23l-47 -252h225q13 0 17 -5q2 -3 3 -9q0 -3 -1 -8l-11 -47q-2 -23 -26 -23h-225l-134 -684q-6 -34 -6 -59q0 -28 8 -44q16 -30 107 -30q10 0 28.5 1t38 2 t37 2t29.5 3q29 2 29 -18l-2 -35q0 -20 -19 -29q-16 -6 -40.5 -11t-54.5 -10t-61.5 -7t-58.5 -2q-115 0 -145 52q-18 32 -17 80q0 32 7 70z" />
<glyph unicode="u" horiz-adv-x="1017" d="M86 196q4 68 20 152l119 619q6 30 35 30h2h55q16 0 20.5 -6t0.5 -24l-117 -598q-16 -85 -19 -141q0 -9 -1 -18q0 -43 13 -71q15 -33 50 -46t94 -13q41 0 98.5 15.5t114 37t105.5 43t74 33.5l147 758q6 30 33 30h2h53q17 0 21 -6q2 -3 2 -10q0 -6 -2 -14l-183 -936 q-4 -18 -9 -24.5t-21 -6.5h-54q-16 0 -23 6t-3 25l18 92q-23 -14 -66.5 -38t-99 -47.5t-119 -39.5t-122.5 -16q-94 0 -146 26q-52 25 -74 72q-18 40 -19 95q0 10 1 21z" />
<glyph unicode="v" horiz-adv-x="921" d="M154 971q-2 5 -2 9t2 8q4 7 16 7h74q10 0 13 -6t5 -16l113 -668q6 -39 12 -76q4 -31 8 -60.5t4 -43.5q6 14 22.5 44t33.5 62q20 37 43 80l368 668q6 10 10.5 14t14.5 4h82q11 0 11 -5q0 -4 -5 -17l-535 -957q-10 -18 -26 -18h-74q-12 0 -16 4t-9 14z" />
<glyph unicode="w" horiz-adv-x="1382" d="M152 971q-1 4 -1 8q0 5 2 9q3 7 15 7h72q10 0 13 -6t5 -16l76 -619q4 -55 10 -102q4 -41 8 -78t4 -51q6 14 25.5 52t40.5 79q23 47 51 104l234 465l-19 148q-4 10 0 17t17 7h75q10 0 13.5 -6t5.5 -16l73 -600q6 -59 13 -111q4 -43 8 -84t4 -55q6 14 25.5 54t42.5 85 q25 51 55 113l305 604q6 10 10 14t15 4h84q11 0 11 -5q0 -4 -5 -17l-496 -957q-10 -18 -29 -18h-71q-23 0 -25 18l-63 480l-21 170l-92 -183l-242 -467q-10 -18 -26 -18h-72q-23 0 -24 18z" />
<glyph unicode="x" horiz-adv-x="858" d="M-28 7q-1 2 -1 4q0 6 6 14l414 485l-215 463q-4 10 0 17t17 7h69q16 0 27 -20l176 -375l321 375q8 8 16.5 14t20.5 6h82q13 0 15 -7q1 -2 0 -3q0 -6 -7 -14l-397 -463l227 -485q10 -25 -18 -25h-76q-10 0 -14 6t-8 14l-185 396l-338 -396q-8 -8 -15 -14t-19 -6h-84 q-12 0 -14 7z" />
<glyph unicode="y" horiz-adv-x="927" d="M162 -336l172 320l-168 987q-4 10 0 17t16 7h74q10 0 13 -6t5 -16l127 -748l15 -112l57 118l395 748q6 10 10.5 14t14.5 4h80q11 0 11 -5q0 -4 -5 -17l-705 -1311q-8 -12 -17 -18t-26 -6h-59q-16 0 -16 9q0 6 6 15z" />
<glyph unicode="z" horiz-adv-x="860" d="M-16 20l8 37q4 20 11 31.5t17 24.5l730 788h-531q-18 0 -23.5 7t-0.5 24l8 39q4 16 10 21t25 5h622q16 0 24 -3q6 -2 6 -10q0 -4 -1 -9l-8 -45q-4 -23 -13.5 -33t-17.5 -20l-715 -777h551q33 0 27 -26l-8 -43q-4 -16 -10.5 -23.5t-26.5 -7.5h-664q-23 0 -20 20z" />
<glyph unicode="{" horiz-adv-x="509" d="M75 -121q1 33 7 70l78 403q6 37 11 73t0 65.5t-22.5 52t-54.5 32.5q-18 6 -16 23l6 29q4 16 25 22q41 12 67.5 35t43 53.5t25.5 65.5t15 71l80 396q6 29 15.5 59.5t28.5 55t51 40t79 15.5q31 0 53.5 -3t34.5 -7q10 -4 15.5 -8.5t0.5 -18.5l-6 -31q-4 -14 -10 -17t-16 -3 l-60 -4q-43 -4 -58 -21.5t-24 -54.5l-77 -406q-8 -37 -19.5 -76.5t-30 -73.5t-45 -61.5t-63.5 -40.5v-4q31 -23 47 -48t21.5 -55t1 -65.5t-12.5 -81.5l-84 -428q-8 -35 4.5 -52t59.5 -21l57 -4q10 0 16.5 -3.5t2.5 -17.5l-9 -37q-4 -12 -9 -16t-15 -8q-14 -4 -38 -6.5 t-54 -2.5q-47 0 -74 15.5t-38 41t-10 58.5z" />
<glyph unicode="|" horiz-adv-x="458" d="M178 -213v1614q0 16 7.5 20t19.5 4h47q25 0 24 -24v-1614q0 -25 -22 -25h-47q-14 0 -21.5 4.5t-7.5 20.5z" />
<glyph unicode="}" horiz-adv-x="509" d="M-51 -199l8 33q4 14 9 16.5t18 4.5l57 4q41 4 57.5 21.5t24.5 51.5l84 428q8 45 17 81t25.5 66t42 55.5t66.5 47.5v4q-33 12 -48 40t-19 62t0 73.5t12 76.5l78 406q8 37 -1 54t-52 22l-56 4q-10 2 -16 4t-2 16l6 31q4 14 9 18t16 9q14 4 37.5 7t54.5 3q47 0 72.5 -15.5 t35 -40t8.5 -55.5t-8 -59l-75 -396q-6 -37 -11.5 -71.5t-0.5 -65t23.5 -53t55.5 -35.5q16 -6 15 -22l-7 -31q-2 -14 -22 -21q-43 -10 -69.5 -32.5t-43 -52t-26 -65.5t-15.5 -73l-82 -403q-6 -29 -16 -61.5t-29.5 -60.5t-50.5 -45.5t-78 -17.5q-20 0 -48 3.5t-40 7.5 q-23 6 -16 26z" />
<glyph unicode="~" horiz-adv-x="1032" d="M95 563q5 10 11 17q59 86 126 117.5t128 31.5q49 0 97.5 -20.5t94.5 -44t89 -44t82 -20.5q51 0 86 24.5t72 63.5q10 10 18 18.5t23 -1.5l26 -19q14 -10 11 -18.5t-7 -12.5q-53 -80 -118.5 -117.5t-137.5 -37.5q-47 0 -94 20.5t-93 45t-89 45t-84 20.5q-47 0 -83 -22.5 t-83 -69.5q-12 -12 -18.5 -17.5t-20.5 2.5l-27 19q-14 10 -9 20z" />
<glyph unicode="&#xa2;" d="M164 274q-2 51 6 109.5t20 122.5q18 98 46 188t77 160t127 113t199 49l49 246q2 23 27 22h41q16 0 14 -22l-49 -246q61 -4 135 -13.5t123 -29.5q18 -6 8 -29l-12 -35q-10 -16 -39 -16q-29 2 -63.5 6t-71.5 8t-72 6t-65 2q-78 0 -133.5 -21.5t-97.5 -68.5t-70.5 -125.5 t-51.5 -191.5q-10 -61 -17 -112.5t-7 -92.5q0 -119 51 -168t164 -49q29 0 65.5 2t75.5 5t76 6t67 7q29 4 29 -18v-31q0 -23 -22 -30q-53 -20 -130 -29.5t-143 -11.5l-47 -248q-6 -23 -24 -23h-41q-20 0 -17 23l47 246q-156 10 -215 85.5t-59 204.5z" />
<glyph unicode="&#xa3;" horiz-adv-x="1073" d="M16 20l9 48q4 25 32 36q76 37 112 98.5t56 141.5q16 68 30.5 135.5t27.5 136.5h-109q-18 0 -18 7.5v17.5l10 51q2 20 27 21h108q14 78 28.5 156.5t30.5 156.5q29 158 132.5 252t285.5 94q31 0 73 -2t86 -8t86 -15.5t77 -23.5q14 -6 14 -18t-6 -25.5t-10 -26.5 q-6 -16 -23 -16h-8q-59 6 -136 15.5t-163 9.5q-121 0 -195.5 -63.5t-97.5 -180.5q-16 -78 -28.5 -152.5t-28.5 -152.5h407q14 0 16.5 -5.5t2.5 -15.5l-10 -51q-6 -25 -29 -25h-406q-10 -47 -18 -92t-19 -96q-10 -47 -23 -95t-31.5 -91t-42 -79t-56.5 -57h641q16 0 19 -6 t1 -16l-12 -66q-2 -18 -29 -18h-794q-20 0 -19 20z" />
<glyph unicode="&#xa5;" horiz-adv-x="1062" d="M41 365l12 57q2 6 5 10t14 4h809q10 0 12 -4t2 -14l-10 -56q-4 -12 -19 -12h-354q-16 -82 -31.5 -163t-31.5 -162q-6 -25 -29 -25h-68q-20 0 -20 18v7q16 82 31.5 162.5t31.5 162.5h-342q-12 0 -12 15zM80 561l2 8q2 6 3 18.5t5 35.5q4 14 21 14h321l-250 700v6 q0 12 19 13h88q12 0 15 -4t7 -15l211 -630h6l459 630q12 18 33 19h80q16 0 16 -8q0 -6 -6 -13l-524 -698h334q10 0 12 -4t2 -12l-10 -58q-4 -12 -19 -12h-813q-12 0 -12 10z" />
<glyph unicode="&#xa7;" horiz-adv-x="845" d="M-25 -203l21 31q12 16 29 8q68 -23 120 -34t107 -11q68 0 129 13.5t107.5 43t74 79.5t27.5 124q0 57 -36 98t-89 73t-115.5 60.5t-116 63.5t-89 80t-35.5 111q0 96 48 175t140 150q-51 47 -70.5 90t-19.5 97q0 82 34.5 142t92 100t131 59.5t153.5 19.5q33 0 73 -3t80 -11 t76 -19.5t60 -27.5q14 -8 2 -31l-20 -31q-6 -12 -27 -8q-41 12 -113.5 21.5t-140.5 7.5q-125 -2 -207 -54.5t-82 -156.5q0 -59 36 -100.5t89.5 -74t115 -62t114.5 -67.5t88 -90.5t33 -130.5q-2 -74 -43 -146.5t-140 -139.5q43 -41 63.5 -90.5t20.5 -92.5q0 -111 -44 -181 t-108.5 -111t-138 -56.5t-133.5 -15.5q-90 0 -168.5 18.5t-126.5 49.5q-12 12 -2 30zM221 532.5q6 -30.5 23.5 -55t42 -44t53.5 -36.5q49 -29 105.5 -51t105.5 -49q68 53 105.5 112.5t37.5 112.5q0 63 -34.5 104.5t-86 72t-109 56t-102.5 56.5q-51 -41 -90 -96.5t-49 -112.5 q-8 -39 -2 -69.5z" />
<glyph unicode="&#xa8;" horiz-adv-x="997" d="M428 1227q0 41 18.5 67.5t65.5 26.5q23 0 39 -8t16 -33q0 -43 -19.5 -70.5t-62.5 -27.5q-25 0 -41 8t-16 37zM797 1227q0 41 18.5 67.5t63.5 26.5q23 0 39 -8t16 -33q0 -43 -19.5 -70.5t-62.5 -27.5q-23 0 -39 8t-16 37z" />
<glyph unicode="&#xa9;" horiz-adv-x="1615" d="M86 686q0 150 56.5 281t154.5 227t230 152.5t282 56.5q154 0 287 -56.5t230 -152.5t152.5 -227t55.5 -281t-57.5 -281t-155.5 -227t-230.5 -152.5t-281.5 -56.5q-150 0 -282 56.5t-230 152.5t-154.5 227.5t-56.5 280.5zM166 686q0 -133 50 -251t137 -206t205 -138 t251 -50t251 50t205 138t138 206t51 251t-51 251t-138 205t-205 138t-251 51t-251 -51t-205 -138t-137 -205t-50 -251zM512 657q0 80 12.5 154t45 131t92 91t151.5 34q18 0 44 -1t53.5 -4t55 -8t48.5 -12q14 -8 12 -22l-4 -29q0 -4 -4 -10t-14 -4q-43 4 -92.5 8t-98.5 4 q-74 0 -117 -29.5t-66.5 -76.5t-29.5 -106.5t-6 -119.5q0 -59 8 -115.5t31.5 -102.5t66.5 -73.5t111 -27.5q47 0 95 3t93 7q14 0 17.5 -4t7.5 -16q0 -4 1 -10.5t1 -10.5q0 -6 -2 -12t-10 -10q-20 -8 -50 -12.5t-60 -7.5t-55.5 -4t-39.5 -1q-88 0 -145.5 33t-91 87t-47 126 t-13.5 151z" />
<glyph unicode="&#xaa;" horiz-adv-x="698" d="M119 713q0 59 16 147q16 86 40 150.5t61.5 109.5t93 67.5t135.5 22.5q47 0 103.5 -17t97.5 -44l6 25q4 16 9 19t17 3h41q18 0 23.5 -7t1.5 -22l-117 -606q-4 -12 -8 -17t-16 -5h-48q-25 0 -24 16v8l10 49q-25 -14 -57.5 -29.5t-67.5 -28.5t-70.5 -21.5t-68.5 -8.5 q-98 0 -138 47t-40 142zM219 725q0 -68 26.5 -90.5t76.5 -22.5q27 0 61.5 7.5t69 18.5t66.5 23.5t54 24.5l78 393q-55 25 -104 35t-96 10q-94 0 -139.5 -62.5t-75.5 -205.5q-8 -41 -12.5 -73.5t-4.5 -57.5z" />
<glyph unicode="&#xab;" horiz-adv-x="786" d="M70 372.5q4 10.5 14 18.5l256 256q10 10 20.5 16.5t26.5 6.5h88q8 0 8 -6.5t-6 -12.5l-291 -286l166 -277q4 -8 1 -15t-13 -7h-74q-18 0 -24 6t-13 16l-153 258q-10 16 -6 26.5zM352 372.5q4 10.5 15 18.5l254 256q10 10 20 16.5t29 6.5h86q8 0 8 -6.5t-6 -12.5 l-291 -286l166 -277q4 -8 0 -15t-15 -7h-69q-20 0 -26.5 6t-12.5 16l-152 258q-10 16 -6 26.5z" />
<glyph unicode="&#xac;" d="M186 643l11 55q6 20 26 21h731q23 0 19 -21l-78 -401q-6 -23 -27 -23h-51q-16 0 -14 21l63 330h-663q-20 0 -17 18z" />
<glyph unicode="&#xad;" horiz-adv-x="731" d="M115 631l14 69q4 20 27 21h546q20 0 19 -21l-14 -71q-6 -16 -25 -17h-549q-20 0 -18 19z" />
<glyph unicode="&#xae;" horiz-adv-x="1052" d="M78 1036q0 94 34.5 176t96 142.5t143.5 95.5t174 35q94 0 176 -35t142.5 -95.5t94.5 -142.5t34 -176t-35 -176t-96.5 -143.5t-142.5 -96t-173 -34.5t-174 34.5t-143.5 96t-96 143.5t-34.5 176zM137 1036q0 -82 31 -152.5t83 -123.5t123.5 -84t151.5 -31t149.5 31t122 84 t83 123.5t30.5 152.5q0 80 -30.5 152t-83 124t-122 82.5t-149.5 30.5t-151.5 -30.5t-123.5 -82.5t-83 -124t-31 -152zM375 768v526q0 12 18 13h162q33 0 62.5 -9.5t52 -28t36 -48t13.5 -72.5q0 -47 -23.5 -92t-81.5 -64l113 -223q8 -16 -8 -16h-43q-12 0 -21 10l-104 219 h-113v-215q0 -14 -16 -14h-33q-14 0 -14 14zM438 1040h109q14 0 32.5 3.5t36 14.5t28.5 32.5t11 58.5q0 59 -32.5 79.5t-79.5 20.5h-105v-209z" />
<glyph unicode="&#xb0;" horiz-adv-x="690" d="M104 1104q0 51 20.5 98t55.5 82t82 55.5t100 20.5t99.5 -20.5t80 -56.5t53 -82t19.5 -97q0 -53 -19.5 -99.5t-53 -80t-79.5 -53t-100 -19.5q-123 0 -190.5 72.5t-67.5 179.5zM193 1100q0 -68 48 -116t117 -48q68 0 117 48t49 116q0 35 -13 66.5t-35.5 55t-53.5 37 t-64 13.5q-70 0 -117.5 -50.5t-47.5 -121.5z" />
<glyph unicode="&#xb1;" d="M104 98l13 58q4 20 22 20h731q20 0 19 -20l-12 -60q-2 -16 -25 -16h-731q-18 0 -17 18zM217 641l12 59q2 18 23 19h315l62 317q4 20 24 21h64q14 0 12 -21l-61 -317h313q10 0 16.5 -3t1.5 -16l-10 -59q-4 -16 -26 -16h-314l-63 -330q-6 -20 -23 -21h-63q-20 0 -15 21 l64 330h-316q-18 0 -16 16z" />
<glyph unicode="&#xb4;" horiz-adv-x="993" d="M588 1165l192 277q10 16 29 8l68 -35q8 -4 7 -11t-7 -13l-226 -261q-10 -14 -24 -6l-35 15q-16 6 -4 26z" />
<glyph unicode="&#xb6;" horiz-adv-x="956" d="M154 913q0 106 32.5 188.5t92 137.5t141.5 84t178 29h422q23 0 22 -21q0 2 -12 -59q-4 -29 -33 -29h-63l-272 -1401q-6 -27 -33 -26h-51q-27 0 -25 26l272 1403h-211l-272 -1403q-6 -27 -33 -26h-53q-16 0 -21.5 6t-3.5 20l156 797q-61 0 -105 23.5t-73 62.5t-42 88 t-13 100z" />
<glyph unicode="&#xb7;" horiz-adv-x="372" d="M123 492q0 47 22.5 78.5t75.5 31.5q66 0 66 -51q0 -47 -22.5 -79t-76.5 -32q-66 0 -65 52z" />
<glyph unicode="&#xb8;" horiz-adv-x="837" d="M156 -342l10 25q4 6 8 11t16 1q31 -4 62 -7t53 -3q51 0 89 20.5t38 71.5q0 35 -25.5 50t-91.5 17q-31 0 -12 35l88 154l53 -13l-67 -118q84 -4 116.5 -37t32.5 -86q0 -41 -18.5 -72t-49 -51.5t-69.5 -30.5t-80 -10q-25 0 -70.5 6t-74.5 17q-16 4 -8 20z" />
<glyph unicode="&#xba;" horiz-adv-x="692" d="M135 741q0 70 17 142q14 66 37.5 125t62.5 104t96.5 71.5t138.5 26.5q119 0 185.5 -51t66.5 -164q0 -66 -12 -116q-16 -74 -36.5 -139.5t-59.5 -112.5t-99.5 -75t-152.5 -28q-117 0 -179.5 53.5t-64.5 163.5zM236 745q0 -72 35.5 -102.5t111.5 -30.5q63 0 105 20.5 t69 55.5t41 82t27 100q6 33 10 62.5t4 58.5q-2 74 -42 102.5t-114 28.5q-63 0 -103 -21.5t-64.5 -56t-39 -80.5t-26.5 -98q-6 -31 -10 -61.5t-4 -59.5z" />
<glyph unicode="&#xbb;" horiz-adv-x="786" d="M9 69.5q-1 6.5 5 12.5l289 289l-168 274q-4 8 0 15.5t15 7.5h73q18 0 24.5 -6.5t12.5 -16.5l156 -258q14 -27 -8 -45l-256 -256q-10 -10 -19.5 -16.5t-28.5 -6.5h-86q-8 0 -9 6.5zM289 69.5q0 6.5 6 12.5l289 289l-168 274q-4 8 -1 15.5t13 7.5h74q18 0 24 -6.5t13 -16.5 l155 -258q10 -16 6 -25.5t-14 -19.5l-254 -256q-10 -10 -20.5 -16.5t-28.5 -6.5h-84q-10 0 -10 6.5z" />
<glyph unicode="&#xf7;" horiz-adv-x="1099" d="M180 639l10 59q6 20 25 21h735q18 0 17 -21l-13 -59q-2 -16 -24 -16h-733q-20 0 -17 16zM436 350q6 35 24.5 56.5t65.5 21.5q49 0 60.5 -21.5t5.5 -56.5q-8 -35 -26.5 -59.5t-69.5 -24.5t-58.5 25.5t-1.5 58.5zM559 987q6 33 25.5 54.5t66.5 21.5q49 0 59.5 -20.5 t4.5 -55.5t-25.5 -59.5t-68.5 -24.5q-51 0 -59.5 24.5t-2.5 59.5z" />
<glyph unicode="&#x2c6;" horiz-adv-x="1003" d="M350 1145q-10 8 6 24l238 242q10 10 19.5 14.5t27.5 4.5h92q20 0 27.5 -3.5t13.5 -13.5l146 -250q12 -14 -2 -24l-37 -21q-16 -10 -25 0l-176 223l-268 -221q-14 -12 -29 0z" />
<glyph unicode="&#x2da;" horiz-adv-x="1001" d="M494 1231q0 51 20.5 93t52 72.5t72.5 47t84 16.5q74 0 120 -45t46 -110q0 -47 -18.5 -89t-50.5 -73t-74 -49.5t-89 -18.5q-68 0 -115.5 43t-47.5 113zM578 1241q0 -39 24.5 -64.5t67.5 -25.5q53 0 95 39t42 98q0 41 -23.5 69.5t-68.5 28.5q-29 0 -54.5 -12t-44 -32.5 t-28.5 -47t-10 -53.5z" />
<glyph unicode="&#x2dc;" horiz-adv-x="1003" d="M333 1203q3 9 9 20q49 78 104.5 106.5t102.5 28.5q37 0 73.5 -17.5t71.5 -37t68 -37t61 -17.5q37 0 63.5 22.5t55.5 57.5q8 10 14.5 14.5t18.5 -2.5l29 -14q16 -8 2 -29q-90 -147 -203 -147q-37 0 -73 17.5t-71.5 37t-68.5 37t-64 17.5q-23 0 -54.5 -17.5t-68.5 -60.5 q-18 -25 -34 -15l-29 21q-10 6 -7 15z" />
<glyph unicode="&#x3a9;" horiz-adv-x="1320" d="M12 16v9l13 59q2 23 28 22h223l3 3q-72 59 -99.5 148t-27.5 194q0 55 6 111t16 114q20 125 66.5 249t126 224t195.5 162.5t278 62.5q121 0 202.5 -34.5t133 -95t73 -143.5t21.5 -179q0 -109 -19 -222q-14 -88 -39.5 -175t-65.5 -163.5t-95.5 -142t-126.5 -110.5v-3h215 q20 0 20 -16v-6l-12 -59q-6 -25 -29 -25h-397q-16 0 -19.5 6t-1.5 17l15 73q4 12 9 19.5t21 11.5q82 25 144.5 79t108.5 125.5t77 160t49 180.5q12 59 18.5 121.5t6.5 121.5q0 76 -15.5 140.5t-53.5 113t-99 76t-154 27.5q-111 0 -195.5 -41t-148 -110.5t-105.5 -163 t-67 -197.5q-18 -74 -28.5 -148.5t-10.5 -146.5q0 -123 40 -212t134 -124q23 -10 19 -33l-14 -73q-4 -23 -29 -23h-391q-18 0 -19 16z" />
<glyph unicode="&#x3c0;" horiz-adv-x="1015" d="M39 25l186 950q2 23 29 22h735q23 0 21 -22l-185 -950q-6 -25 -28 -25h-70q-23 0 -16 25l170 876h-559l-170 -876q-6 -25 -31 -25h-64q-25 0 -18 25z" />
<glyph unicode="&#x401;" horiz-adv-x="999" d="M70 23l254 1310q6 25 28 25h707q25 0 18 -23l-12 -63q-2 -23 -29 -23h-610l-96 -489h551q23 0 18 -23l-12 -61q-2 -23 -29 -23h-549l-106 -547h626q25 0 19 -22l-12 -61q-4 -23 -29 -23h-719q-25 0 -18 23zM489 1530q0 41 19.5 67.5t62.5 26.5q23 0 40.5 -8t17.5 -35 q0 -41 -19.5 -68.5t-64.5 -27.5q-23 0 -39.5 8t-16.5 37zM844 1530q0 41 18.5 67.5t63.5 26.5q23 0 39 -8t16 -35q0 -41 -19.5 -68.5t-64.5 -27.5q-23 0 -38 8t-15 37z" />
<glyph unicode="&#x402;" horiz-adv-x="1441" d="M201 1264v8l12 63q4 23 27 23h1054q18 0 19 -15l-10 -71q-2 -23 -29 -23h-574l-79 -415q96 45 199.5 76.5t209.5 31.5q84 0 145.5 -24.5t101.5 -69.5t58.5 -108.5t18.5 -139.5q0 -129 -39 -252t-109.5 -230.5t-170 -192.5t-222.5 -138q-12 -6 -17 -4t-12 14l-18 39 q-8 16 16 29q215 104 334 289.5t119 429.5q0 121 -63.5 186.5t-182.5 65.5q-86 0 -189.5 -32t-201.5 -81q-35 -176 -68.5 -350t-68.5 -350q-4 -23 -27 -23h-67q-23 0 -23 16v7l240 1226h-363q-20 0 -20 15z" />
<glyph unicode="&#x403;" horiz-adv-x="950" d="M74 25l256 1308q2 25 28 25h695q25 0 18 -23l-10 -63q-6 -23 -29 -23h-602l-237 -1224q-2 -25 -27 -25h-72q-23 0 -20 25zM633 1487q-10 10 10 20l299 189q16 10 25 -6l39 -68q4 -10 -0.5 -15t-10.5 -10l-319 -153q-12 -6 -21 4z" />
<glyph unicode="&#x404;" horiz-adv-x="1075" d="M147 403q0 51 7.5 122t19.5 139q25 135 67 263t115.5 227t185 158.5t275.5 59.5q33 0 79 -2t96 -7t97.5 -14.5t81.5 -23.5q14 -6 16.5 -14t-1.5 -19l-17 -39q-4 -10 -10 -15t-20 -1q-63 6 -152.5 14.5t-175.5 8.5q-121 0 -204 -42t-139 -111t-91 -159t-58 -188h551 q23 0 19 -23l-12 -61q-2 -23 -29 -23h-551q-12 -59 -18.5 -121.5t-6.5 -109.5q0 -74 15.5 -133.5t52.5 -102.5t96.5 -66.5t147.5 -23.5q82 0 174 7.5t162 15.5q27 2 26 -19l-2 -39q0 -23 -22 -30q-37 -14 -89.5 -23.5t-105.5 -14.5t-99 -7t-73 -2q-113 0 -190.5 29.5 t-126 85t-70 132t-21.5 172.5z" />
<glyph unicode="&#x405;" horiz-adv-x="1050" d="M29 51q-2 8 2 19l16 39q6 20 31 16q47 -6 98 -12.5t99.5 -9.5t91.5 -5t73 -2q80 0 152 18.5t126 57.5t85 99.5t31 146.5q0 109 -70 156t-189 67q-80 14 -147.5 32.5t-116.5 51.5t-76.5 84t-27.5 131q0 109 39 189.5t105.5 134t156.5 80t192 26.5q37 0 84 -2t97.5 -7 t97.5 -14.5t84 -25.5q25 -8 12 -31l-14 -39q-4 -10 -10.5 -15t-22.5 -3q-27 4 -65.5 8t-83.5 8t-93.5 7.5t-91.5 3.5q-78 0 -144.5 -19.5t-115.5 -58.5t-76.5 -97.5t-27.5 -136.5q0 -49 19.5 -81.5t54 -53t85 -33t111.5 -22.5q70 -12 135.5 -31.5t115.5 -54.5t81 -92.5 t31 -147.5q0 -121 -42 -206t-114 -139t-168 -79.5t-207 -25.5q-37 0 -92 4t-111.5 11t-106.5 17.5t-79 22.5q-12 6 -14 14z" />
<glyph unicode="&#x406;" horiz-adv-x="489" d="M106 25l256 1308q6 25 29 25h70q25 0 18 -25l-254 -1308q-6 -25 -28 -25h-70q-27 0 -21 25z" />
<glyph unicode="&#x407;" horiz-adv-x="489" d="M106 25l256 1308q6 25 29 25h70q25 0 18 -25l-254 -1308q-6 -25 -28 -25h-70q-27 0 -21 25zM207 1530q0 41 19.5 67.5t62.5 26.5q23 0 40 -8t17 -35q0 -41 -19.5 -68.5t-64.5 -27.5q-23 0 -39 8t-16 37zM561 1530q0 41 18.5 67.5t63.5 26.5q23 0 39 -8t16 -35 q0 -41 -19.5 -68.5t-64.5 -27.5q-23 0 -38 8t-15 37z" />
<glyph unicode="&#x408;" horiz-adv-x="925" d="M-49 55l14 41q8 18 33 17q59 -10 118.5 -13.5t94.5 -3.5q82 0 136 18.5t89 52.5t54.5 81t31.5 106l191 979q6 25 28 25h72q20 0 18 -25l-194 -1003q-16 -80 -44 -143.5t-76 -109.5t-119.5 -70.5t-174.5 -24.5q-27 0 -60.5 2t-68.5 7t-68.5 12t-60.5 20q-25 10 -14 32z " />
<glyph unicode="&#x409;" horiz-adv-x="1785" d="M-20 57q0 14 6 18.5t24 6.5q76 12 127 40t89 87t70 160.5t71 259.5l172 704q6 25 28 25l607 -2q10 0 17 -4t3 -21l-107 -545h306q98 0 166.5 -28.5t111.5 -74.5t62.5 -105.5t19.5 -122.5q0 -104 -37 -189.5t-99.5 -144t-148.5 -90t-184 -31.5h-440q-25 0 -23 27l238 1222 h-426l-168 -680q-33 -135 -66.5 -242.5t-83 -182t-121 -116.5t-180.5 -44q-23 -2 -27.5 6t-4.5 24zM954 106h314q180 0 273 94.5t93 248.5q0 59 -20.5 103t-55 72.5t-81.5 43t-99 14.5h-311z" />
<glyph unicode="&#x40a;" horiz-adv-x="1681" d="M72 25l252 1308q8 25 28 25h72q23 0 16 -25l-106 -547h504l106 545q6 25 29 25h69q14 0 17.5 -5t1.5 -20l-107 -545h306q98 0 166.5 -28.5t111.5 -74.5t62.5 -105.5t19.5 -122.5q0 -104 -36 -189.5t-99.5 -144t-148.5 -90t-183 -31.5h-442q-27 0 -21 27l127 653h-504 l-127 -655q-6 -25 -24 -25h-72q-25 0 -18 25zM821 106h314q182 0 274 95.5t92 247.5q0 59 -20.5 103t-56 72.5t-82 43t-97.5 14.5h-311z" />
<glyph unicode="&#x40b;" horiz-adv-x="1402" d="M172 1262q0 4 1 5t1 5l12 63q4 23 27 23h1047q14 0 16 -7.5t0 -17.5l-10 -61q-2 -23 -29 -23h-565l-80 -418q33 16 86 38t114.5 40.5t126 31.5t123.5 13q102 0 163 -31.5t89.5 -85t30.5 -122t-12 -142.5l-107 -550q-4 -23 -28 -23h-68q-18 0 -18 14v9l110 565 q12 57 11 105t-21.5 82t-64.5 52.5t-119 18.5q-47 0 -108.5 -13.5t-123 -34t-117 -42t-90.5 -35.5l-135 -698q-4 -23 -26 -23h-68q-23 0 -23 16v7q59 309 119 614t119 612h-362q-20 0 -21 13z" />
<glyph unicode="&#x40c;" horiz-adv-x="1095" d="M63 27l252 1304q6 27 31 27h68q25 0 18 -27l-113 -571h254q31 0 68 6t76 26.5t76.5 58.5t70.5 101l197 373q10 18 20.5 24.5t24.5 6.5h57q25 0 27 -9.5t-8 -27.5l-195 -373q-47 -94 -103.5 -153.5t-121.5 -75.5q78 -23 108.5 -83.5t42.5 -164.5l45 -432q2 -18 -4 -27.5 t-28 -9.5h-54q-14 0 -21 5t-11 24l-43 424q-6 63 -23.5 102t-45.5 60.5t-63.5 28.5t-80.5 7h-285l-121 -624q-2 -27 -26 -27h-68q-27 0 -21 27zM596 1487q-10 10 10 20l299 189q16 10 25 -6l39 -68q4 -10 0 -15t-11 -10l-319 -153q-12 -6 -21 4z" />
<glyph unicode="&#x40e;" horiz-adv-x="1069" d="M106 35l11 43q4 14 13 16t22 2q51 -2 86.5 0t63.5 11.5t51.5 28t47.5 50.5q20 27 41 55.5t43 69.5l-229 1026v4q0 14 18 15h84q12 0 15.5 -3t7.5 -14l86 -415l96 -484h4q14 27 53 97.5t90.5 162t107.5 192.5t106.5 192.5t89.5 160t53 94.5q12 18 33 19h86q14 0 14 -8 t-4 -13q-147 -262 -294.5 -519t-297.5 -517q-49 -82 -88 -140.5t-79 -95t-85 -56t-106 -21.5q-29 0 -61.5 2t-61.5 12q-23 8 -17 33zM468 1611.5q-1 10.5 9 18.5l37 25q16 10 29 -6q41 -61 82 -98.5t116 -37.5q37 0 67 9.5t57.5 27t57 43t64.5 58.5q10 8 14.5 9t14.5 -5 l33 -27q8 -6 1.5 -17.5t-10.5 -19.5q-66 -92 -149.5 -133t-165.5 -41t-150.5 44t-101.5 132q-4 8 -5 18.5z" />
<glyph unicode="&#x40f;" horiz-adv-x="1193" d="M84 25l254 1308q6 25 29 25h71q23 0 17 -25l-238 -1224h666l239 1224q6 25 29 25h70q25 0 18 -25l-254 -1308q-6 -25 -27 -25h-356l-67 -274q-6 -25 -14.5 -33t-18.5 -8h-60q-12 0 -17 6t-1 30l43 279h-363q-27 0 -20 25z" />
<glyph unicode="&#x410;" horiz-adv-x="1095" d="M-43 8q0 8 4 15l688 1310q10 23 33 23h88q14 0 17.5 -6.5t5.5 -16.5l184 -1313q0 -20 -19 -20h-79q-20 0 -23 18q-12 90 -22.5 177.5t-22.5 177.5h-545l-178 -350q-6 -16 -14 -19.5t-19 -3.5h-84q-14 0 -14 8zM322 479h477q-4 35 -12.5 98.5t-17.5 133t-17.5 134 t-14.5 101.5l-30 277h-7q-29 -57 -62.5 -126t-74.5 -147z" />
<glyph unicode="&#x411;" horiz-adv-x="1024" d="M53 27l254 1300q6 29 41 29h633q23 0 18 -23l-12 -61q-6 -23 -29 -23h-548l-91 -463h306q98 0 166.5 -28.5t111.5 -74.5t62.5 -105.5t19.5 -122.5q0 -104 -36 -189.5t-99.5 -144t-148.5 -90t-183 -31.5h-442q-25 0 -23 27zM186 106h314q182 0 274 94.5t92 248.5 q0 59 -20.5 103t-56 72.5t-81.5 43t-98 14.5h-311z" />
<glyph unicode="&#x412;" horiz-adv-x="1101" d="M57 27l252 1304q6 25 31 25l412 2q182 0 265 -88t75 -232q-4 -100 -67.5 -194t-186.5 -139l2 -3q57 -20 93 -57t55.5 -80t24.5 -90t3 -86q-6 -86 -40 -157.5t-88 -123t-126 -80t-152 -28.5h-526q-33 0 -27 27zM190 106h367q147 0 238.5 79t95.5 212q2 49 -11.5 96.5 t-44 82t-77.5 56t-113 21.5h-348zM317 758h334q59 0 114.5 19.5t99.5 55t71 87t31 112.5q6 96 -49.5 156.5t-188.5 60.5h-317z" />
<glyph unicode="&#x413;" horiz-adv-x="950" d="M74 25l256 1308q2 25 28 25h695q25 0 18 -23l-10 -63q-6 -23 -29 -23h-602l-237 -1224q-2 -25 -27 -25h-72q-23 0 -20 25z" />
<glyph unicode="&#x414;" horiz-adv-x="1255" d="M-100 -290.5q-2 14.5 2 26.5l49 317q4 23 12 32t25 13l55 11q90 72 149.5 179t106.5 273l209 762q4 14 12 24.5t31 10.5h715q8 0 13 -4t5 -21q-59 -309 -118.5 -613t-118.5 -611l65 -7q10 -4 15.5 -11t5.5 -30l-80 -325q-6 -25 -12.5 -33t-16.5 -8h-55q-16 0 -19.5 13 t0.5 28l39 264h-921l-64 -264q-6 -25 -13 -33t-20 -8h-53q-16 0 -18 14.5zM188 106h742l221 1143h-549l-182 -667q-49 -170 -101.5 -290t-130.5 -186z" />
<glyph unicode="&#x415;" horiz-adv-x="999" d="M70 23l254 1310q6 25 28 25h707q25 0 18 -23l-12 -63q-2 -23 -29 -23h-610l-96 -489h551q23 0 18 -23l-12 -61q-2 -23 -29 -23h-549l-106 -547h626q25 0 19 -22l-12 -61q-4 -23 -29 -23h-719q-25 0 -18 23z" />
<glyph unicode="&#x416;" horiz-adv-x="1679" d="M-28 10q-3 10 8 29l208 422q53 104 107.5 164.5t140.5 81.5q-59 18 -93 77.5t-44 153.5l-47 381q-2 18 4 27.5t29 9.5h51q14 0 22.5 -6.5t10.5 -24.5l47 -381q8 -63 29.5 -101t51 -58.5t63.5 -26.5t65 -6h213l112 579q6 27 31 27h68q25 0 18 -27l-113 -579h205q31 0 68 6 t75.5 26.5t76.5 58.5t71 101l197 381q10 18 20 24.5t25 6.5h59q23 0 26 -9.5t-8 -27.5l-194 -381q-47 -94 -103.5 -153.5t-121.5 -77.5q78 -20 108.5 -81t42.5 -165l45 -422q2 -18 -4 -28.5t-29 -10.5h-53q-14 0 -21 5t-12 24l-43 415q-6 63 -23.5 102.5t-45 61t-63 28.5 t-81.5 7h-237l-121 -616q-2 -27 -27 -27h-69q-23 0 -21 27l121 616h-221q-43 0 -82 -7t-75 -28.5t-68.5 -60.5t-65.5 -103l-205 -415q-10 -18 -18 -23.5t-25 -5.5h-59q-23 0 -26 10z" />
<glyph unicode="&#x417;" horiz-adv-x="1007" d="M-29 70l15 36q4 10 11 15.5t23 3.5q78 -12 172.5 -22.5t167.5 -10.5q180 0 294 74t124 233q6 74 -13.5 124t-58 81t-95 44.5t-126.5 13.5h-51q-23 0 -18 22l10 57q6 27 29 27h49q70 0 138.5 22.5t120.5 62.5t85 95.5t33 120.5q0 68 -32 106.5t-79 58t-101.5 26t-97.5 6.5 q-25 0 -62.5 -3t-81.5 -7.5t-89 -9.5t-80 -11q-16 -4 -20.5 1t-6.5 15l-2 37q0 12 4.5 19.5t20.5 13.5q98 35 194.5 46t153.5 11q199 0 302.5 -71.5t101.5 -221.5q0 -70 -24 -128t-63.5 -104t-94 -79t-115.5 -51v-4q98 -25 151 -102.5t43 -215.5q-6 -104 -49 -183 t-115.5 -131t-171 -78.5t-217.5 -26.5q-33 0 -82 3t-101 10t-102.5 17.5t-82.5 24.5q-20 8 -11 33z" />
<glyph unicode="&#x418;" horiz-adv-x="1261" d="M68 23l254 1308q6 27 26 27h70q16 0 19 -7.5t-1 -19.5l-217 -1126h6l209 252q184 219 365.5 439t365.5 439l16.5 16.5t22.5 6.5h68q23 0 18 -23l-252 -1310q-6 -25 -30 -25h-66q-23 0 -18 25l221 1132h-6l-217 -264q-16 -18 -52 -62.5t-85.5 -102.5t-108 -128 t-118.5 -142.5t-118.5 -142t-107.5 -128t-86 -102.5t-53 -62q-10 -12 -16.5 -17.5t-22.5 -5.5h-68q-23 0 -18 23z" />
<glyph unicode="&#x419;" horiz-adv-x="1261" d="M68 23l254 1308q6 27 26 27h70q16 0 19 -7.5t-1 -19.5l-217 -1126h6l209 252q184 219 365.5 439t365.5 439l16.5 16.5t22.5 6.5h68q23 0 18 -23l-252 -1310q-6 -25 -30 -25h-66q-23 0 -18 25l221 1132h-6l-217 -264q-16 -18 -52 -62.5t-85.5 -102.5t-108 -128 t-118.5 -142.5t-118.5 -142t-107.5 -128t-86 -102.5t-53 -62q-10 -12 -16.5 -17.5t-22.5 -5.5h-68q-23 0 -18 23zM546 1611.5q-1 10.5 9 18.5l37 25q16 10 29 -6q41 -61 81.5 -98.5t116.5 -37.5q37 0 66.5 9.5t57.5 27t57.5 43t64.5 58.5q10 8 14 9t15 -5l32 -27 q8 -6 2 -17.5t-10 -19.5q-66 -92 -149.5 -133t-165.5 -41t-150.5 44t-101.5 132q-4 8 -5 18.5z" />
<glyph unicode="&#x41a;" horiz-adv-x="1095" d="M63 27l252 1304q6 27 31 27h68q25 0 18 -27l-113 -571h254q31 0 68 6t76 26.5t76.5 58.5t70.5 101l197 373q10 18 20.5 24.5t24.5 6.5h57q25 0 27 -9.5t-8 -27.5l-195 -373q-47 -94 -103.5 -153.5t-121.5 -75.5q78 -23 108.5 -83.5t42.5 -164.5l45 -432q2 -18 -4 -27.5 t-28 -9.5h-54q-14 0 -21 5t-11 24l-43 424q-6 63 -23.5 102t-45.5 60.5t-63.5 28.5t-80.5 7h-285l-121 -624q-2 -27 -26 -27h-68q-27 0 -21 27z" />
<glyph unicode="&#x41b;" horiz-adv-x="1185" d="M-66 57q0 14 6.5 18.5t24.5 6.5q76 12 127 40t89 87t70 160.5t71 259.5l172 704q6 25 28 25h678q25 0 19 -25l-254 -1310q-4 -23 -27 -23h-68q-27 0 -22 23l237 1226h-497l-168 -680q-33 -135 -67 -242.5t-83 -182t-120.5 -116.5t-180.5 -44q-23 -2 -27.5 6t-4.5 24z" />
<glyph unicode="&#x41c;" horiz-adv-x="1486" d="M72 20v5q66 330 129 655.5t127 654.5q6 23 26 23h68q16 0 20 -5t9 -18l215 -751q2 -6 11 -39t20.5 -71t19.5 -70.5t10 -38.5h4l174 262l477 706q10 14 17.5 19.5t25.5 5.5h70q20 0 21 -17q0 -2 -1.5 -3t-1.5 -5q-66 -330 -126.5 -654t-126.5 -654q-6 -25 -27 -25h-70 q-20 0 -20 16v9q53 270 105 539.5t106 539.5h-4l-586 -862q-14 -20 -35 -21h-49q-23 0 -31 19l-174 608l-74 256h-4q-53 -272 -105 -540.5t-106 -538.5q-2 -25 -26 -25h-68q-20 0 -20 20z" />
<glyph unicode="&#x41d;" horiz-adv-x="1193" d="M72 25l254 1308q6 25 28 25h72q23 0 16 -25l-108 -559h665l109 559q6 25 29 25h71q20 0 19 -25l-256 -1308q-6 -25 -27 -25h-70q-27 0 -20 25l125 641h-666l-125 -641q-6 -25 -26 -25h-72q-25 0 -18 25z" />
<glyph unicode="&#x41e;" horiz-adv-x="1286" d="M150 414q0 72 9 142.5t23 141.5q25 131 69 253t116.5 216.5t180 150.5t261.5 56q217 0 321.5 -104.5t104.5 -321.5q0 -63 -7 -125.5t-18 -124.5q-25 -141 -65.5 -271t-114.5 -229.5t-187.5 -157.5t-281.5 -58q-215 0 -313 112.5t-98 319.5zM268 424q0 -156 67.5 -246 t233.5 -90q133 0 222.5 51t147.5 134t92 189.5t56 215.5q12 63 20.5 127.5t8.5 130.5q0 164 -72.5 249t-242.5 85q-127 0 -214 -53.5t-144.5 -138.5t-91.5 -190.5t-54 -209.5q-12 -63 -20.5 -127t-8.5 -127z" />
<glyph unicode="&#x41f;" horiz-adv-x="1193" d="M72 25l254 1308q6 25 28 25h854q20 0 19 -25l-256 -1308q-6 -25 -27 -25h-70q-27 0 -20 25l238 1224h-666l-238 -1224q-6 -25 -26 -25h-72q-25 0 -18 25z" />
<glyph unicode="&#x420;" horiz-adv-x="1013" d="M57 25l252 1310q6 23 31 23l373 -2q76 0 140.5 -19.5t111.5 -59.5t73.5 -100.5t26.5 -140.5q0 -102 -34 -188t-94 -147.5t-147.5 -96.5t-193.5 -35h-317l-107 -544q-6 -25 -27 -25h-69q-25 0 -19 25zM299 672h299q162 0 254 99t92 263q0 115 -74.5 165t-187.5 50h-270z " />
<glyph unicode="&#x421;" horiz-adv-x="1075" d="M158 403q0 51 7 122t19 139q25 135 67 263t115.5 227t185.5 158.5t275 59.5q31 0 78 -2t97.5 -7t97.5 -14.5t82 -23.5q14 -6 16 -14t-2 -19l-16 -39q-4 -10 -10.5 -15t-22.5 -1q-63 6 -151.5 14.5t-174.5 8.5q-133 0 -222 -51.5t-146.5 -136.5t-90 -191.5t-53.5 -216.5 q-14 -63 -20 -127t-6 -115q0 -74 15 -133.5t52 -102.5t96.5 -66.5t147.5 -23.5q82 0 174 7.5t162 15.5q27 2 26 -19l-2 -39q0 -23 -22 -30q-37 -14 -89 -23.5t-105.5 -14.5t-99.5 -7t-73 -2q-113 0 -190.5 29.5t-125.5 85t-69.5 132t-21.5 172.5z" />
<glyph unicode="&#x422;" horiz-adv-x="958" d="M199 1272l14 63q4 23 27 23h847q23 0 17 -23l-10 -63q-6 -23 -29 -23h-363l-241 -1224q-2 -25 -27 -25h-67q-29 0 -23 25l238 1224h-361q-16 0 -20 5.5t-2 17.5z" />
<glyph unicode="&#x423;" horiz-adv-x="1069" d="M106 35l11 43q4 14 13 16t22 2q51 -2 86.5 0t63.5 11.5t51.5 28t47.5 50.5q20 27 41 55.5t43 69.5l-229 1026v4q0 14 18 15h84q12 0 15.5 -3t7.5 -14l86 -415l96 -484h4q14 27 53 97.5t90.5 162t107.5 192.5t106.5 192.5t89.5 160t53 94.5q12 18 33 19h86q14 0 14 -8 t-4 -13q-147 -262 -294.5 -519t-297.5 -517q-49 -82 -88 -140.5t-79 -95t-85 -56t-106 -21.5q-29 0 -61.5 2t-61.5 12q-23 8 -17 33z" />
<glyph unicode="&#x424;" horiz-adv-x="1449" d="M141 537q0 156 47.5 288.5t137.5 233t219 161t293 70.5l8 43q6 25 28 25h72q20 0 19 -25l-9 -43q123 -6 208 -43t139.5 -95t78 -133t23.5 -161q0 -160 -43 -299t-129 -243.5t-214 -168t-300 -73.5l-10 -49q-2 -25 -27 -25h-72q-25 0 -18 25l10 49q-133 6 -221 46 t-141.5 104.5t-76 145.5t-22.5 167zM256 541q0 -78 19.5 -142.5t63.5 -111.5t113.5 -76t170.5 -37l196 1016q-139 -10 -244.5 -65.5t-176 -142.5t-106.5 -201.5t-36 -239.5zM737 174q143 12 248 68.5t172.5 146.5t100 206t32.5 247q0 63 -17.5 123.5t-58 108.5t-108.5 79 t-170 35z" />
<glyph unicode="&#x425;" horiz-adv-x="1042" d="M-33 10q0 6 4 10l539 680l-254 635q-8 23 16 23h88q16 0 19.5 -5t7.5 -16l111 -282l98 -254l182 235l236 301q14 18 35 19h98q14 0 14 -10q0 -2 -4 -11l-502 -635q68 -172 137.5 -341t137.5 -339q2 -2 2 -6q0 -14 -19 -14h-90q-18 0 -26 20q-33 84 -65 166t-66 166 l-97 248l-174 -225l-278 -355q-10 -12 -15.5 -16t-21.5 -4h-100q-12 0 -13 10z" />
<glyph unicode="&#x426;" horiz-adv-x="1206" d="M84 25l254 1308q6 25 29 25h71q23 0 17 -25l-238 -1224h666l239 1224q6 25 29 25h70q25 0 18 -25l-238 -1220l72 -9q20 -4 22.5 -14t-1.5 -24l-82 -330q-4 -23 -12.5 -30t-18.5 -7h-53q-12 0 -17.5 7t-1.5 30l43 264h-848q-27 0 -20 25z" />
<glyph unicode="&#x427;" horiz-adv-x="1054" d="M155 812q-1 69 13 138l72 381q6 27 32 27h68q23 0 20 -25l-71 -364q-31 -154 26.5 -221.5t196.5 -67.5q90 0 183 13.5t188 41.5l116 598q2 10 8.5 17.5t22.5 7.5h68q25 0 20 -23l-256 -1310q-2 -25 -28 -25h-70q-23 0 -21 25l119 608q-43 -16 -93 -27.5t-102.5 -21 t-104.5 -13.5t-97 -4q-117 0 -182.5 34t-96 88t-31.5 123z" />
<glyph unicode="&#x428;" horiz-adv-x="1699" d="M74 16v9q66 330 128 655.5t126 654.5q4 23 28 23h72q18 0 18 -12q0 -6 -2 -11q-59 -309 -118.5 -614t-118.5 -612h524q59 307 118.5 611t119.5 613q6 25 26 25h72q20 0 20 -15q0 -6 -2 -10q-59 -309 -118.5 -613t-118.5 -611h522q59 307 118.5 612t119.5 614q4 23 30 23 h70q18 0 18 -12q0 -6 -2 -11q-66 -330 -128 -655.5t-126 -654.5q-6 -25 -26 -25h-1350q-20 0 -20 16z" />
<glyph unicode="&#x429;" horiz-adv-x="1703" d="M80 27l254 1308q6 25 28 25h70q25 0 19 -25l-238 -1226h522l238 1224q6 25 28 25h72q25 0 19 -25l-238 -1224h520l240 1226q6 25 28 25h70q23 0 17 -25l-238 -1222l74 -9q18 -4 20 -14t-2 -24l-80 -330q-6 -23 -13 -30t-20 -7h-51q-12 0 -17 7t-1 30l43 264h-1346 q-25 0 -18 27z" />
<glyph unicode="&#x42a;" horiz-adv-x="1351" d="M170 1272l14 61q4 23 27 23h508q25 0 18 -25l-106 -545h303q98 0 166.5 -28.5t111.5 -74.5t62.5 -105.5t19.5 -122.5q0 -104 -35.5 -189.5t-99 -144t-148.5 -90t-184 -31.5h-440q-27 0 -20 27l235 1222h-412q-23 0 -20 23zM498 106h311q182 0 274.5 94.5t92.5 248.5 q0 59 -20.5 103t-56.5 72.5t-82 43t-97 14.5h-310z" />
<glyph unicode="&#x42b;" horiz-adv-x="1495" d="M72 27l254 1304q6 25 30 25h68q16 0 19 -5t1 -20l-108 -545h303q98 0 166.5 -28.5t112 -74.5t62.5 -105.5t19 -122.5q0 -104 -35.5 -189.5t-99 -144t-148.5 -90t-184 -31.5h-440q-27 0 -20 27zM203 106h311q182 0 274.5 94.5t92.5 248.5q0 59 -20.5 103t-56.5 72.5 t-82 43t-97 14.5h-310zM1106 25l254 1308q6 25 26 25h72q25 0 19 -25l-254 -1308q-6 -25 -27 -25h-72q-25 0 -18 25z" />
<glyph unicode="&#x42c;" horiz-adv-x="1044" d="M63 27l256 1304q6 25 29 25h70q14 0 17 -5t1 -20l-106 -545h301q98 0 166.5 -28.5t111.5 -74.5t62.5 -105.5t19.5 -122.5q0 -104 -35.5 -189.5t-98 -144t-147.5 -90t-184 -31.5h-440q-25 0 -23 27zM197 106h309q182 0 275 95.5t93 247.5q0 59 -20 103t-56 72.5t-83 43 t-99 14.5h-307z" />
<glyph unicode="&#x42d;" horiz-adv-x="1089" d="M14 61l15 39q4 10 10 15.5t22 3.5q61 -8 153.5 -16.5t172.5 -8.5q125 0 211 47t142.5 125t89 177.5t53.5 205.5h-541q-25 0 -18 25l12 61q2 20 26 21h541q14 96 14.5 186t-30.5 161t-100.5 114t-192.5 43q-88 0 -167 -8.5t-146 -14.5q-18 -4 -22.5 2t-4.5 14v39 q0 23 22 31q39 14 84.5 23.5t91.5 15.5t89 8t75 2q156 0 246 -53t131 -145.5t42 -215t-19 -262.5q-20 -143 -63.5 -272t-118 -227.5t-187 -155.5t-272.5 -57q-27 0 -72 2t-95 7t-99.5 13t-81.5 23q-23 10 -13 32z" />
<glyph unicode="&#x42e;" horiz-adv-x="1560" d="M72 25l254 1308q6 25 28 25h70q20 0 18 -25l-110 -559h182q23 96 62.5 202.5t107.5 195t170 145.5t254 57q119 0 197.5 -31.5t124 -87t62.5 -128t17 -154.5q-2 -66 -9 -140.5t-19 -146.5q-23 -123 -61 -248t-107.5 -226t-181 -165.5t-281.5 -64.5q-111 0 -185.5 32.5 t-118.5 88t-63.5 129t-19.5 157.5q0 68 8 137.5t23 139.5h-183l-125 -641q-2 -25 -24 -25h-72q-25 0 -18 25zM582 395q0 -141 64.5 -224t217.5 -83q113 0 196 42t141.5 118t97 182.5t63.5 235.5q14 78 22.5 149.5t8.5 130.5q0 76 -14.5 136.5t-49.5 101.5t-92 63.5 t-141 22.5q-111 0 -190 -43t-135 -122t-93 -187.5t-62 -239.5q-16 -78 -25 -149.5t-9 -133.5z" />
<glyph unicode="&#x42f;" horiz-adv-x="1089" d="M-10.5 10q-1.5 10 8.5 29l182 379q20 41 42 77.5t46.5 67.5t54 54.5t68.5 35.5q-88 33 -129 109t-41 170q0 111 39 190.5t102.5 132t145.5 78t168 25.5h430q27 0 20 -23l-249 -1310q-6 -25 -29 -25h-70q-25 0 -18 27l110 571h-272q-43 0 -83 -8t-78 -29.5t-72.5 -59.5 t-65.5 -100l-178 -372q-10 -18 -19.5 -23.5t-23.5 -5.5h-64q-23 0 -24.5 10zM344 940q0 -78 31 -124t74 -70.5t90 -32.5t77 -8h275l104 544h-305q-59 0 -120.5 -15t-111.5 -51t-82 -95.5t-32 -147.5z" />
<glyph unicode="&#x430;" horiz-adv-x="1036" d="M76 246q0 47 7 113.5t17 125.5q25 131 60 230.5t89 166t133 100.5t191 34q72 0 152 -19.5t156 -60.5l2 2l8 39q4 14 10 17t21 3h63q25 0 19 -26l-185 -948q-4 -23 -26 -23h-68q-25 0 -20 23l18 94q-39 -23 -84 -46.5t-96 -44t-107.5 -32.5t-113.5 -12q-129 0 -187.5 64.5 t-58.5 199.5zM197 270q0 -109 37.5 -146.5t123.5 -37.5q41 0 95.5 14.5t108.5 35t102.5 42t76.5 35.5l125 629q-82 33 -157.5 52t-147.5 19q-74 0 -127 -22.5t-93 -73.5t-67.5 -134t-52.5 -202q-25 -129 -24 -211z" />
<glyph unicode="&#x431;" horiz-adv-x="1009" d="M90 336q0 23 3 54.5t9.5 66.5t13.5 70.5t15 64.5q14 51 36.5 103.5t57.5 100.5t86 89t121 69q-53 27 -83 71t-30 103q0 84 29 145.5t79 101.5t118.5 59.5t150.5 19.5q29 0 68 -2t81 -6t82 -12.5t70 -22.5q12 -6 12.5 -14t-3.5 -17l-13 -34q-8 -20 -37 -15 q-55 10 -128.5 15.5t-135.5 5.5q-51 0 -97 -10.5t-80 -35t-54.5 -62.5t-20.5 -93q0 -35 21.5 -60.5t57.5 -45t79 -35t86 -31.5q55 -18 102.5 -44t82 -63.5t54 -92t19.5 -128.5q0 -100 -21.5 -217t-78.5 -229q-25 -47 -59.5 -88t-85 -71t-120 -46t-161.5 -16 q-106 0 -170 27.5t-98.5 75.5t-46 112.5t-11.5 136.5zM207 305q0 -51 10 -91t37 -68.5t71 -44t109 -15.5q88 0 149.5 23.5t104.5 68.5t70.5 111.5t46.5 154.5q10 37 14 92.5t4 94.5q0 117 -64.5 179t-199.5 87q-119 -25 -192.5 -103.5t-114.5 -207.5q-20 -66 -32.5 -140.5 t-12.5 -140.5z" />
<glyph unicode="&#x432;" horiz-adv-x="1001" d="M44 54.5q-3 17.5 1 39.5l107 551q37 186 151.5 279.5t298.5 93.5q133 0 215 -55.5t82 -167.5q0 -68 -39 -133.5t-129 -90.5v-2q53 -14 86 -39.5t50.5 -55.5t22.5 -60.5t5 -55.5q0 -35 -15.5 -98t-63.5 -124.5t-139 -106.5t-241 -45q-111 0 -203 10t-157 33 q-29 10 -32 27.5zM164 115q59 -10 124.5 -17.5t157.5 -9.5q96 0 161 25.5t104 64.5t55 86t16 92q0 63 -46 110.5t-156 47.5h-119q-27 0 -25 18l6 58q2 8 6.5 12t18.5 4q66 2 123 12.5t100 32t67.5 55t24.5 80.5q0 59 -50 93t-142 34q-147 0 -224 -80.5t-106 -216.5z" />
<glyph unicode="&#x433;" horiz-adv-x="860" d="M49 190q0 104 33 170t88 108t127 64.5t149 40.5q145 35 208 82t67 127q2 66 -47 101t-166 35q-29 0 -64.5 -2.5t-73.5 -5.5t-74 -7t-67 -8q-29 -4 -28 18v33q0 18 22 29q31 12 71 20.5t82 14.5t82.5 8t73.5 2q160 0 235 -60.5t71 -168.5q-4 -78 -35 -130.5t-84 -89 t-126 -61.5t-161 -43q-59 -12 -108.5 -30.5t-85 -49.5t-55 -75t-19.5 -107t53 -92t182 -29q25 0 63 2t78 6t78.5 7t69.5 7q31 6 31 -18v-33q0 -18 -23 -28q-31 -12 -71.5 -20.5t-83.5 -13.5t-84 -7t-74 -2q-164 0 -249 49t-85 157z" />
<glyph unicode="&#x434;" horiz-adv-x="1034" d="M74 324q0 43 7 107.5t26.5 136t53.5 142t88 128t130 93.5t180 36q92 0 175 -26t143 -67l4 5q2 12 4 28.5t3 31.5t1 27.5v16.5q0 94 -14.5 164t-54.5 115t-109.5 66.5t-180.5 21.5q-35 0 -65.5 -2t-89.5 -7q-18 -2 -19 19v35q0 10 2 15t15 11q18 8 48 14.5t62.5 9.5 t63.5 4t47 1q203 0 302 -100.5t103 -321.5q0 -33 -2 -76t-6 -89t-10 -92t-12 -85q-23 -133 -59 -259t-97 -224.5t-154.5 -157.5t-230.5 -59q-106 0 -175 25.5t-109 71.5t-55 107.5t-15 133.5zM190 319q0 -49 11.5 -91t40 -72.5t77 -48t119.5 -17.5q82 0 142.5 34t105.5 89 t76 126t51.5 146.5t32.5 147.5t20 131q-57 45 -140 72.5t-177 27.5q-98 0 -167 -55t-112 -137t-61.5 -177.5t-18.5 -175.5z" />
<glyph unicode="&#x435;" horiz-adv-x="980" d="M96 260q0 72 15.5 141.5t29.5 137.5q16 74 46 157.5t88.5 154.5t151.5 118t237 47q59 0 113 -15.5t95 -45t65 -72t24 -97.5q0 -88 -37 -151.5t-97.5 -108.5t-138.5 -73.5t-158.5 -45t-159.5 -23.5t-143 -7q-14 -70 -14 -121q0 -57 19.5 -91t53 -51.5t77 -22.5t90.5 -5 q72 0 153.5 7t159.5 16q14 0 21.5 -3.5t7.5 -15.5v-33q0 -20 -23 -28q-35 -14 -81 -22.5t-94 -13.5t-96 -7t-87 -2q-152 0 -235 59t-83 217zM244 473q43 0 105.5 5t130 16.5t134 31t118.5 51t85 77t33 106.5q0 45 -18.5 74.5t-47 48t-64.5 25.5t-71 7q-119 0 -190.5 -44 t-112.5 -103q-47 -72 -67.5 -152.5t-34.5 -142.5z" />
<glyph unicode="&#x436;" horiz-adv-x="1785" d="M-31 45l15 35q4 12 10 15t22 1q41 -4 72 -7t90 -3q76 0 136.5 20.5t106.5 69.5t77.5 130t52.5 202q10 49 13 92t5 78q2 129 -51 183t-176 54q-55 0 -94 -4t-82 -8q-12 0 -21.5 3t-9.5 14v36q0 23 21 31q98 31 202 31t173 -38t104 -105.5t38 -162t-20 -206.5l4 -2 q78 113 144.5 232.5t136.5 236.5q10 23 43 22h41q25 0 18 -26l-120 -627l10 -4q39 68 71.5 123t65.5 107.5t67.5 105.5t77.5 114q31 51 65 94.5t79 74t104.5 47t138.5 16.5q43 0 101.5 -8t105.5 -29q16 -6 11 -29l-13 -34q-4 -12 -11 -15.5t-26 -1.5q-45 4 -77.5 8t-90.5 4 q-80 0 -138 -21.5t-101 -68.5t-74 -125.5t-51 -191.5q-10 -53 -17.5 -103.5t-7.5 -95.5q0 -49 10.5 -90t36 -70.5t69.5 -46t112 -16.5q57 0 96 2t82 6q16 2 22.5 -1t6.5 -17v-35q0 -20 -21 -29q-47 -16 -97 -22t-110 -6q-121 0 -187.5 43t-94 112.5t-26.5 159.5t15 182l-8 2 q-68 -109 -133 -226.5t-131 -233.5q-12 -23 -41 -23h-33q-29 0 -22 27l135 688h-8q-72 -135 -151 -257t-165 -251q-31 -49 -64.5 -90t-78.5 -71t-106.5 -46t-147.5 -16q-49 0 -101.5 7t-88.5 23q-16 10 -11 31z" />
<glyph unicode="&#x437;" horiz-adv-x="884" d="M17.5 45q-1.5 8 2.5 18l13 31q8 14 14 16.5t23 -1.5q72 -10 146.5 -15.5t127.5 -5.5q70 0 129 12.5t103.5 40t69 73.5t24.5 114q0 45 -19.5 75.5t-54.5 48t-82 24.5t-100 7h-76q-20 0 -16 23l8 49q2 20 22 20h60q63 0 121.5 11.5t102.5 37t69.5 66.5t25.5 98 q0 43 -22.5 68t-58.5 38t-78 17t-78 4q-25 0 -59 -2t-69.5 -4t-69.5 -6t-54 -6q-23 -4 -29 0t-6 14v35q-4 23 22 33q57 16 135 28.5t164 12.5q143 0 235.5 -53.5t92.5 -165.5q0 -37 -10 -76t-36 -75t-70 -65.5t-111 -47.5v-5q66 -14 116 -69t48 -135q0 -94 -35 -160 t-95.5 -107t-142.5 -59t-176 -18q-25 0 -66.5 2t-87 7t-88.5 14t-71 24q-12 6 -13.5 14z" />
<glyph unicode="&#x438;" horiz-adv-x="1017" d="M86 195.5q4 68.5 20 152.5l119 619q6 31 37 30h55q16 0 20.5 -6t0.5 -24l-117 -598q-16 -86 -19 -141.5t12 -88.5t50 -46t94 -13q41 0 98.5 15.5t114 37t105.5 43t74 33.5l147 758q6 31 35 30h53q16 0 20.5 -6t0.5 -24l-183 -936q-4 -18 -9 -24.5t-21 -6.5h-54 q-16 0 -23 6t-3 25l18 92q-23 -14 -66.5 -38t-99 -47.5t-119 -39.5t-122.5 -16q-94 0 -146.5 25.5t-74 72.5t-17.5 115.5z" />
<glyph unicode="&#x439;" horiz-adv-x="1017" d="M86 195.5q4 68.5 20 152.5l119 619q6 31 37 30h55q16 0 20.5 -6t0.5 -24l-117 -598q-16 -86 -19 -141.5t12 -88.5t50 -46t94 -13q41 0 98.5 15.5t114 37t105.5 43t74 33.5l147 758q6 31 35 30h53q16 0 20.5 -6t0.5 -24l-183 -936q-4 -18 -9 -24.5t-21 -6.5h-54 q-16 0 -23 6t-3 25l18 92q-23 -14 -66.5 -38t-99 -47.5t-119 -39.5t-122.5 -16q-94 0 -146.5 25.5t-74 72.5t-17.5 115.5zM376 1325q-1 10 9 18l37 25q16 10 29 -6q41 -61 81.5 -98t112.5 -37q70 0 124 38t126 99q14 14 29 4l30 -27q12 -12 -2 -30q-66 -92 -153.5 -137.5 t-169.5 -45.5t-148.5 44.5t-99.5 134.5q-4 8 -5 18z" />
<glyph unicode="&#x43a;" horiz-adv-x="890" d="M45 23l184 952q2 23 27 22h70q20 0 16 -22l-82 -416h168q31 0 62.5 5t63.5 23.5t63.5 52.5t62.5 89l131 242q12 27 37 26h63q23 0 25 -8t-8 -24l-129 -240q-43 -84 -88 -138.5t-107 -70.5q72 -23 97.5 -70t37.5 -139l39 -274q2 -16 -3 -24.5t-25 -8.5h-56q-12 0 -18 4 t-10 21l-37 262q-6 55 -23.5 89t-43 52t-59.5 24.5t-73 6.5h-188l-84 -436q-6 -23 -27 -23h-70q-23 0 -16 23z" />
<glyph unicode="&#x43b;" horiz-adv-x="1036" d="M-61 53q-2 14 5 16.5t23 6.5q57 8 100.5 27.5t76 55.5t56 91t44.5 137l131 520q14 53 39.5 71.5t79.5 18.5h510q31 0 24 -26l-182 -944q-6 -27 -33 -27h-55q-31 0 -25 27l170 870h-420l-139 -553q-18 -68 -41.5 -132.5t-65.5 -114.5t-106.5 -81.5t-163.5 -31.5 q-16 0 -20 4t-6 16z" />
<glyph unicode="&#x43c;" horiz-adv-x="1236" d="M43 20v7l184 944q6 27 33 26h57q27 0 33 -20l187 -528q14 -41 26 -78t29 -78l106 147q102 135 202.5 267.5t201.5 267.5q18 23 45 22h49q25 0 25 -16q0 -6 -2 -10l-183 -944q-6 -27 -30 -27h-56q-27 0 -26 20v7q37 186 73.5 371.5t71.5 371.5l-86 -115l-360 -477 q-6 -8 -15.5 -14t-19.5 -6h-45q-29 0 -35 20q-47 117 -86 234.5t-80 236.5q-20 63 -43 121l-143 -743q-6 -27 -35 -27h-51q-27 0 -27 20z" />
<glyph unicode="&#x43d;" horiz-adv-x="1015" d="M39 27l184 944q6 27 33 26h53q31 0 25 -26l-76 -393h561l76 393q6 27 39 26h51q29 0 23 -26l-183 -944q-6 -27 -32 -27h-52q-35 0 -28 27l86 452h-559l-88 -452q-6 -27 -35 -27h-54q-31 0 -24 27z" />
<glyph unicode="&#x43e;" horiz-adv-x="1003" d="M82 303q0 53 7 106.5t17 106.5q20 104 54.5 195.5t90.5 159t140 107.5t205 40q166 0 257 -74t91 -246q0 -94 -18 -182q-23 -115 -54.5 -212t-89 -169t-144.5 -111.5t-220 -39.5q-166 0 -251 75.5t-85 243.5zM199 309q0 -117 55 -169t172 -52q100 0 164.5 33t106.5 89 t65.5 131t40.5 161q10 47 16 95t6 95q0 123 -61.5 172t-177.5 49q-96 0 -160 -33.5t-103.5 -91t-62 -132t-37.5 -154.5q-10 -47 -17 -95.5t-7 -97.5z" />
<glyph unicode="&#x43f;" horiz-adv-x="997" d="M29 6q-2 6 0 17l184 950q6 25 27 24h65q18 0 21.5 -6t-0.5 -18l-19 -92q37 20 85 43.5t101.5 44t112 34t115.5 13.5q100 0 150.5 -33t67.5 -85t11 -119.5t-18 -137.5l-119 -618q-2 -23 -29 -23h-67q-23 0 -19 23l123 624q10 51 16.5 99.5t-5 86t-46 60t-104.5 22.5 q-41 0 -97.5 -15t-112.5 -35.5t-106.5 -42t-76.5 -34.5l-150 -765q-2 -23 -28 -23h-66q-14 0 -16 6z" />
<glyph unicode="&#x440;" horiz-adv-x="1007" d="M-23 -328l252 1295q6 31 33 30h55q16 0 22.5 -6t2.5 -24l-16 -90q23 14 67.5 37.5t100 46t117 40t120.5 17.5q135 0 188.5 -67.5t51.5 -205.5q0 -47 -7.5 -104t-17.5 -123q-23 -133 -58.5 -233.5t-93 -167t-140.5 -100t-195 -33.5q-59 0 -133 13t-160 54l-2 -4l-74 -375 q-4 -20 -12 -26t-25 -6h-55q-27 0 -21 32zM182 139q86 -29 161 -41t149 -12q76 0 129 23.5t92 75t65.5 134t48.5 203.5q12 72 18.5 126t8.5 95q2 102 -35 138.5t-121 36.5q-43 0 -98 -15.5t-110.5 -36t-104.5 -42t-78 -36.5z" />
<glyph unicode="&#x441;" horiz-adv-x="837" d="M82 274q0 51 8 113t21 127q18 100 46.5 192.5t81 161t137.5 109.5t216 41q29 0 69.5 -2t82.5 -7t83 -14.5t70 -21.5q18 -6 8 -29l-12 -35q-8 -16 -37 -14q-59 6 -136 13t-138 7q-78 0 -133.5 -21.5t-97.5 -68.5t-70.5 -125.5t-51.5 -191.5q-10 -61 -17 -112.5t-7 -92.5 q0 -119 51 -168t166 -49q29 0 65.5 2t74.5 5l76 6t67 7t28 -18v-31q0 -23 -22 -30q-31 -12 -73 -20.5t-85 -13.5t-85 -7t-75 -2q-92 0 -151.5 22.5t-95 61t-50 92t-14.5 114.5z" />
<glyph unicode="&#x442;" horiz-adv-x="1624" d="M41 31l182 936q6 31 33 30h51q16 0 22.5 -6t2.5 -24l-17 -86q33 20 77 43.5t94.5 44t104.5 35t107 14.5q111 0 164 -39t64 -115q92 61 197.5 107.5t209.5 46.5q88 0 138.5 -23.5t72 -68.5t20.5 -109.5t-18 -146.5l-125 -639q-6 -31 -35 -31h-55q-16 0 -21 6t-1 25 l121 616q14 74 18 125t-8.5 84t-45 47.5t-89.5 14.5q-39 0 -90.5 -14.5t-103.5 -34t-101 -42t-84 -41.5q-2 -23 -5 -54.5t-10 -61.5l-125 -639q-6 -31 -34 -31h-60q-16 0 -18 6t2 25l125 639q10 49 14 94t-7 79t-43 54.5t-91 20.5q-37 0 -81 -11.5t-93 -29t-101.5 -41 t-101.5 -48.5l-147 -757q-6 -31 -33 -31h-54q-16 0 -21 6t-1 25z" />
<glyph unicode="&#x443;" horiz-adv-x="927" d="M162 -336l172 320l-168 987q-4 10 0 17t16 7h74q10 0 13 -6t5 -16l127 -748l15 -112l57 118l395 748q6 10 10.5 14t14.5 4h80q12 0 11 -6t-5 -16l-705 -1311q-8 -12 -17 -18t-26 -6h-59q-25 0 -10 24z" />
<glyph unicode="&#x444;" horiz-adv-x="1267" d="M106 375q2 123 35 236.5t103.5 202.5t181.5 143.5t268 60.5l62 315q2 25 26 25h64q12 0 17 -4t1 -21l-61 -315q111 -4 185.5 -36t119.5 -84t63.5 -120.5t18.5 -144.5q0 -129 -34 -244t-105.5 -203t-183 -142t-265.5 -58l-63 -324q-4 -23 -23 -22h-67q-25 0 -19 24l64 322 q-203 8 -297.5 112.5t-90.5 276.5zM221 383q-2 -143 67.5 -215t225.5 -82l160 827q-119 2 -204 -43t-139.5 -119.5t-81 -171t-28.5 -196.5zM623 86q119 6 203.5 50t140 116t82 167t26.5 206q2 131 -64.5 207.5t-228.5 80.5z" />
<glyph unicode="&#x445;" horiz-adv-x="858" d="M-28.5 7q-2.5 7 5.5 18l414 485l-215 463q-4 10 0 17t17 7h69q16 0 27 -20l176 -375l321 375q8 8 16.5 14t20.5 6h82q12 0 14.5 -7t-6.5 -17l-397 -463l227 -485q10 -25 -18 -25h-76q-10 0 -14 6t-8 14l-185 396l-338 -396q-8 -8 -15 -14t-19 -6h-84q-12 0 -14.5 7z" />
<glyph unicode="&#x446;" horiz-adv-x="1058" d="M80 176q0 41 6 86t16 94l121 619q2 23 27 22h69q18 0 19 -16v-6l-123 -625q-8 -41 -12 -73.5t-4 -61.5q0 -66 33.5 -99.5t123.5 -33.5q41 0 97.5 15.5t113 36t105.5 42t78 35.5l147 764q4 23 31 22h63q20 0 21 -12q0 -6 -2 -10q-39 -197 -77 -390.5t-75 -389.5 q-2 -10 -2 -27q0 -33 16.5 -52.5t37 -33.5t37 -29.5t16.5 -40.5q0 -8 -2 -14q-14 -59 -27.5 -115.5t-26.5 -113.5q-6 -25 -13 -32t-17 -7h-37q-20 0 -23.5 10t-1.5 27l33 225q-29 16 -60.5 49t-37.5 82q-39 -18 -90.5 -43t-107.5 -46.5t-117 -36.5t-118 -15q-72 0 -116.5 14 t-72.5 39.5t-38 61.5t-10 79z" />
<glyph unicode="&#x447;" horiz-adv-x="905" d="M81 575.5q3 61.5 17 135.5l49 254q6 31 37 30h54q16 0 20 -6t0 -24l-39 -201q-16 -86 -20 -141.5t9 -88t47 -46t93 -13.5q43 0 98.5 15.5t110.5 37t103.5 43t74.5 33.5l70 361q6 31 35 30h53q16 0 20.5 -6t-0.5 -24l-182 -932q-6 -33 -33 -33h-53q-16 0 -22.5 6t-1.5 27 l94 483q-23 -14 -66 -37.5t-97 -47t-115.5 -40t-121.5 -16.5q-94 0 -145 25.5t-71.5 69.5t-17.5 105.5z" />
<glyph unicode="&#x448;" horiz-adv-x="1622" d="M87 181.5q1 64.5 17 146.5l125 639q6 31 35 30h55q16 0 21.5 -6t1.5 -24l-121 -617q-14 -74 -18 -125t8 -83.5t45 -47t90 -14.5q39 0 90 14.5t103.5 33.5t101.5 42t84 41q2 23 5 54.5t9 62.5l125 639q6 31 35 30h59q16 0 18.5 -6t-1.5 -24l-125 -639q-10 -49 -14.5 -94.5 t7 -79t43.5 -54t91 -20.5q37 0 81 11t93 28.5t101.5 41t101.5 48.5l147 758q6 31 33 30h53q16 0 21.5 -6t1.5 -24l-183 -936q-6 -31 -32 -31h-52q-16 0 -22 6t-2 25l16 86q-35 -20 -78 -44t-93 -44.5t-104 -34.5t-108 -14q-111 0 -164 38.5t-63 114.5q-92 -61 -197.5 -107 t-210.5 -46q-88 0 -138 23.5t-71.5 68.5t-20.5 109.5z" />
<glyph unicode="&#x449;" horiz-adv-x="1662" d="M80 180q0 53 12 117.5t25 130.5l104 547q4 23 29 22h57q10 0 20.5 -1t10.5 -11q0 -2 -1 -4t-1 -6q-27 -139 -52.5 -275.5t-54.5 -275.5q-10 -51 -20 -108.5t-10 -98.5q0 -66 28.5 -100.5t104.5 -34.5q41 0 90 12t97 30.5t93 38t76 34.5l33 16q0 49 12 108.5t23 108.5 l104 545q4 23 29 22h74q14 0 14 -10q0 -6 -2 -12q-27 -141 -53.5 -280.5t-55.5 -280.5q-10 -49 -15 -81t-8 -53.5t-4 -36t-1 -26.5q0 -61 27.5 -98t103.5 -37q41 0 96 15.5t110.5 36t102.5 42t76 35.5l149 764q4 23 29 22h65q18 0 19 -12q0 -6 -2 -10q-37 -197 -75 -390.5 t-77 -389.5q-2 -8 -3 -14.5t-1 -12.5q0 -33 17.5 -52.5t37 -33.5t37 -29.5t17.5 -40.5q0 -8 -2 -14l-54 -229q-6 -25 -12 -32t-18 -7h-37q-23 0 -23 20q0 10 2 19l31 223q-31 16 -61.5 49t-36.5 82h-2q-39 -18 -88 -43t-104.5 -46.5t-114 -36.5t-113.5 -15 q-104 0 -152.5 39.5t-58.5 109.5q-100 -57 -208.5 -103t-219.5 -46q-61 0 -103 14t-67 40.5t-35 63.5t-10 80z" />
<glyph unicode="&#x44a;" horiz-adv-x="1206" d="M87 908q-3 7 1 20l10 47q4 16 8.5 19t16.5 3h442q31 0 25 -26l-70 -353q2 0 3 -1t3 -1q96 33 172 49.5t148 16.5q66 0 122 -13.5t96 -44t62.5 -83t22.5 -129.5q0 -55 -13.5 -130t-61.5 -140.5t-139 -111.5t-247 -46q-49 0 -99 3t-97.5 9t-88.5 13t-67 16q-20 6 -26.5 17 t-6.5 26q0 16 2 24l158 809h-357q-16 0 -19 7zM424 113q57 -10 127 -18.5t149 -8.5q98 0 163 25.5t103 68.5t53 100.5t15 122.5q-2 92 -50 134.5t-159 42.5q-78 0 -149.5 -16.5t-171.5 -45.5z" />
<glyph unicode="&#x44b;" horiz-adv-x="1275" d="M33 68q0 16 2 24q18 94 31.5 166t25.5 133.5t23.5 119.5t24 124.5t28.5 146.5t37 189q6 27 37 26h51q14 0 22.5 -5t3.5 -21l-69 -353q2 0 2 -1t2 -1q98 33 174 49.5t147 16.5q66 0 122.5 -13.5t96.5 -44t62.5 -83t22.5 -129.5q0 -72 -17.5 -147t-68 -138.5t-141.5 -103 t-236 -39.5q-49 0 -99.5 3t-97.5 9t-88 13t-68 16q-18 6 -24 18t-6 25zM154 113q55 -10 124.5 -18.5t151.5 -8.5q98 0 162.5 25.5t102.5 68.5t52.5 100.5t14.5 122.5q0 92 -49 134.5t-160 42.5q-78 0 -149 -16.5t-171 -45.5q-6 -27 -12 -58.5t-15 -77.5t-21.5 -110.5 t-30.5 -158.5zM940 14v9l184 950q4 16 10.5 20t18.5 4h68q18 0 18 -14q0 -6 -2 -10l-184 -950q-4 -23 -27 -23h-65q-20 0 -21 14z" />
<glyph unicode="&#x44c;" horiz-adv-x="946" d="M33 68q0 16 2 24q18 94 31.5 166t25.5 133.5t23.5 119.5t24 124.5t28.5 146.5t37 189q6 27 37 26h51q14 0 22.5 -5t3.5 -21l-69 -353q2 0 2 -1t2 -1q98 33 174 49.5t147 16.5q66 0 122.5 -13.5t96.5 -44t62.5 -83t22.5 -129.5q0 -72 -17.5 -147t-68 -138.5t-141.5 -103 t-236 -39.5q-49 0 -99.5 3t-97.5 9t-88 13t-68 16q-18 6 -24 18t-6 25zM154 113q55 -10 124.5 -18.5t151.5 -8.5q98 0 162.5 25.5t102.5 68.5t52.5 100.5t14.5 122.5q0 92 -49 134.5t-160 42.5q-78 0 -149 -16.5t-171 -45.5q-6 -27 -12 -58.5t-15 -77.5t-21.5 -110.5 t-30.5 -158.5z" />
<glyph unicode="&#x44d;" horiz-adv-x="866" d="M2 55l12 33q6 14 13.5 17.5t19.5 0.5q59 -8 134 -15t130 -7q145 0 234.5 88t126.5 297h-436q-29 0 -23 23l10 51q6 25 33 24h434q12 70 12 125q0 121 -57 172t-180 51q-59 0 -127 -7t-131 -13h-8q-23 0 -23 16l2 37q0 18 21 27q68 25 147.5 34t138.5 9q98 0 162 -23.5 t101.5 -64.5t53 -100.5t15.5 -129.5q0 -35 -5 -86t-13 -102q-16 -109 -48 -204t-87.5 -167.5t-140.5 -114.5t-210 -42q-33 0 -73.5 2t-82.5 7t-80 13t-65 21q-20 8 -10 28z" />
<glyph unicode="&#x44e;" horiz-adv-x="1259" d="M51 27l182 944q6 27 33 26h56q27 0 26 -16q0 -4 -1 -5t-1 -5l-78 -396h144q20 84 51 164t84 141.5t133 99.5t197 38q180 0 253.5 -87t73.5 -237q0 -29 -5 -81t-15 -97q-18 -102 -46 -198.5t-81 -170t-141.5 -118.5t-231.5 -45q-166 0 -237.5 85t-71.5 236q0 45 6 87 t12 87h-143l-88 -452q-6 -27 -33 -27h-55q-29 0 -23 27zM492 309q0 -106 47 -164.5t163 -58.5q92 0 152.5 29.5t100.5 84t64.5 131.5t43.5 171q10 47 16 97t6 83q0 121 -50 176t-179 55q-82 0 -139.5 -30.5t-96 -85t-63.5 -130t-43 -165.5q-10 -51 -16 -98.5t-6 -94.5z" />
<glyph unicode="&#x44f;" horiz-adv-x="983" d="M13.5 8q-1.5 8 4.5 25l113 246q35 76 74 124t100 64q-84 33 -112.5 91t-28.5 130q0 80 29.5 138.5t77.5 97.5t109.5 57t129.5 18h424q37 0 31 -28l-162 -940q-4 -16 -10.5 -22.5t-22.5 -6.5h-53q-29 0 -27 29l72 397h-266q-86 0 -144.5 -33t-107.5 -137l-109 -233 q-6 -16 -14 -20.5t-21 -4.5h-65q-20 0 -21.5 8zM279 694q0 -47 17 -78.5t46 -51t65.5 -28t75.5 -8.5h295l66 367h-334q-39 0 -80 -10.5t-74.5 -35t-55 -62t-21.5 -93.5z" />
<glyph unicode="&#x451;" horiz-adv-x="980" d="M96 260q0 72 15.5 141.5t29.5 137.5q16 74 46 157.5t88.5 154.5t151.5 118t237 47q59 0 113 -15.5t95 -45t65 -72t24 -97.5q0 -88 -37 -151.5t-97.5 -108.5t-138.5 -73.5t-158.5 -45t-159.5 -23.5t-143 -7q-14 -70 -14 -121q0 -57 19.5 -91t53 -51.5t77 -22.5t90.5 -5 q72 0 153.5 7t159.5 16q14 0 21.5 -3.5t7.5 -15.5v-33q0 -20 -23 -28q-35 -14 -81 -22.5t-94 -13.5t-96 -7t-87 -2q-152 0 -235 59t-83 217zM244 473q43 0 105.5 5t130 16.5t134 31t118.5 51t85 77t33 106.5q0 45 -18.5 74.5t-47 48t-64.5 25.5t-71 7q-119 0 -190.5 -44 t-112.5 -103q-47 -72 -67.5 -152.5t-34.5 -142.5zM428 1233q0 41 18.5 67.5t65.5 26.5q23 0 39 -8t16 -33q0 -43 -19.5 -70.5t-62.5 -27.5q-25 0 -41 8t-16 37zM797 1233q0 41 18.5 67.5t63.5 26.5q23 0 39 -8t16 -33q0 -43 -19.5 -70.5t-62.5 -27.5q-23 0 -39 8t-16 37z " />
<glyph unicode="&#x452;" horiz-adv-x="1085" d="M94 25l221 1134h-125q-25 0 -18 23l8 43q2 25 29 24h123l33 168q6 25 24 25h70q25 0 18 -25l-33 -168h457q16 0 19.5 -5t-0.5 -17l-9 -45q-2 -12 -6 -17.5t-20 -5.5h-457l-59 -299q98 49 183 75t173 26q145 0 218 -89.5t73 -242.5q0 -104 -30 -218t-94.5 -220.5 t-167.5 -197.5t-251 -153q-31 -12 -39 13l-10 30q-6 20 18 33q215 106 335 287.5t120 417.5q0 72 -17.5 117.5t-46 72.5t-64.5 37t-73 10q-84 0 -171 -27.5t-177 -70.5l-141 -735q-6 -25 -27 -25h-67q-25 0 -19 25z" />
<glyph unicode="&#x453;" horiz-adv-x="860" d="M49 190q0 104 33 170t88 108t127 64.5t149 40.5q145 35 208 82t67 127q2 66 -47 101t-166 35q-29 0 -64.5 -2.5t-73.5 -5.5t-74 -7t-67 -8q-29 -4 -28 18v33q0 18 22 29q31 12 71 20.5t82 14.5t82.5 8t73.5 2q160 0 235 -60.5t71 -168.5q-4 -78 -35 -130.5t-84 -89 t-126 -61.5t-161 -43q-59 -12 -108.5 -30.5t-85 -49.5t-55 -75t-19.5 -107t53 -92t182 -29q25 0 63 2t78 6t78.5 7t69.5 7q31 6 31 -18v-33q0 -18 -23 -28q-31 -12 -71.5 -20.5t-83.5 -13.5t-84 -7t-74 -2q-164 0 -249 49t-85 157zM492 1165l192 277q10 16 29 8l67 -35 q8 -4 7 -11t-7 -13l-225 -261q-10 -14 -25 -6l-34 15q-16 6 -4 26z" />
<glyph unicode="&#x454;" horiz-adv-x="884" d="M84 274q-2 51 6 114t21 128q20 100 47.5 191.5t79 161t135.5 109.5t215 40q29 0 69.5 -2t82.5 -7t82 -14.5t69 -21.5q18 -6 10 -29l-14 -35q-8 -16 -37 -14t-63.5 6t-71.5 7t-72 5t-65 2q-74 0 -127.5 -18t-92.5 -60t-67.5 -110t-48.5 -166h440q31 0 25 -24l-11 -52 q-4 -16 -11 -20t-23 -4h-441q-8 -47 -11 -86t-3 -72q-2 -119 47 -168t168 -49q29 0 65.5 2t75.5 5t76 6t68 7q29 4 28 -18l-2 -31q0 -23 -20 -30q-33 -12 -74 -20.5t-84 -13.5t-85 -7t-75 -2q-92 0 -151.5 22.5t-95 61t-50 92t-14.5 114.5z" />
<glyph unicode="&#x455;" horiz-adv-x="860" d="M16 57l13 31q4 14 12 17.5t22 0.5q29 -4 68 -7t79 -7t77 -6t61 -2q61 0 112.5 9t90.5 34t60.5 67t21.5 107q0 41 -15.5 69.5t-41 47t-60.5 30t-74 17.5q-53 8 -106 21.5t-95 38t-69 66.5t-27 107q0 88 32 148.5t86 98.5t124 55.5t148 17.5q27 0 67.5 -2t82.5 -8.5 t82 -14.5t69 -20q18 -6 8 -29l-13 -35q-4 -10 -12 -13t-24 -3q-59 6 -132 14t-137 8q-113 0 -188.5 -46t-75.5 -160q2 -72 59.5 -99.5t147.5 -42.5q45 -8 94 -21.5t91 -41t70 -73.5t28 -118q0 -96 -33 -158.5t-88.5 -101.5t-130 -54t-158.5 -15q-33 0 -77 3t-88 8t-84 13 t-66 19q-16 8 -11 30z" />
<glyph unicode="&#x456;" horiz-adv-x="430" d="M82 25l184 948q2 16 9.5 20t19.5 4h67q23 0 17 -24l-184 -948q-6 -25 -27 -25h-66q-27 0 -20 25zM307 1235q0 45 19.5 72.5t66.5 27.5q23 0 41.5 -8t18.5 -37q0 -43 -20.5 -71.5t-67.5 -28.5q-23 0 -40.5 9t-17.5 36z" />
<glyph unicode="&#x457;" horiz-adv-x="430" d="M82 25l184 948q2 16 9.5 20t19.5 4h67q23 0 17 -24l-184 -948q-6 -25 -27 -25h-66q-27 0 -20 25zM123 1227q0 41 18.5 67.5t65.5 26.5q23 0 39 -8t16 -33q0 -43 -19.5 -70.5t-62.5 -27.5q-25 0 -41 8t-16 37zM492 1227q0 41 18 67.5t63 26.5q23 0 39.5 -8t16.5 -33 q0 -43 -19.5 -70.5t-62.5 -27.5q-23 0 -39 8t-16 37z" />
<glyph unicode="&#x458;" horiz-adv-x="458" d="M-266 -319l12 30q4 12 10 16.5t25 0.5q29 -4 69.5 -5.5t67.5 -1.5q80 0 110.5 36t43.5 100l219 1118q2 23 26 22h68q20 0 18 -22l-221 -1143q-20 -96 -73.5 -153.5t-174.5 -57.5q-57 0 -106 7t-84 24q-18 6 -10 29zM330 1235q0 45 20.5 72.5t65.5 27.5q25 0 42 -8t17 -37 q0 -43 -19.5 -71.5t-66.5 -28.5q-25 0 -42 9t-17 36z" />
<glyph unicode="&#x459;" horiz-adv-x="1605" d="M-39 53q-2 14 5 16.5t24 6.5q57 8 100 27.5t76 55.5t56.5 91t43.5 137l131 520q14 53 40 71.5t79 18.5h440q14 0 22.5 -5t4.5 -21l-70 -353q2 0 2 -1t3 -1q98 33 173.5 49.5t147.5 16.5q66 0 122 -13.5t96 -44t62.5 -83t22.5 -129.5q0 -72 -17.5 -147t-67.5 -138.5 t-141 -103t-237 -39.5q-49 0 -99 3t-97 9t-88 13t-68 16q-18 6 -24.5 18t-6.5 25q0 16 2 24l156 805h-348l-139 -553q-18 -68 -42 -132.5t-66 -114.5t-106.5 -81.5t-162.5 -31.5q-16 0 -20.5 4t-6.5 16zM817 113q55 -10 125 -18.5t152 -8.5q98 0 162.5 25.5t102.5 68.5 t52 100.5t14 122.5q0 92 -49 134.5t-159 42.5q-78 0 -149 -16.5t-171 -45.5q-6 -27 -12 -58.5t-15.5 -77.5t-21.5 -110.5t-31 -158.5z" />
<glyph unicode="&#x45a;" horiz-adv-x="1470" d="M37 18v9l182 944q6 27 35 26h55q25 0 25 -16q0 -6 -2 -10l-76 -383h406l75 383q6 27 37 26h51q14 0 22.5 -5t4.5 -21l-70 -353q2 0 2 -1t2 -1q98 33 174 49.5t148 16.5q66 0 122 -13.5t96 -44t62.5 -83t22.5 -129.5q0 -72 -17.5 -147t-67.5 -138.5t-141 -103t-237 -39.5 q-49 0 -99 3t-97 9t-88 13t-68 16q-18 6 -24.5 18t-6.5 25q0 16 2 24q25 133 42.5 223.5t33.5 173.5h-405l-91 -462q-4 -16 -9 -21.5t-21 -5.5h-56q-25 0 -24 18zM686 113q55 -10 125 -18.5t152 -8.5q98 0 162.5 25.5t102.5 68.5t52 100.5t14 122.5q0 92 -49 134.5 t-160 42.5q-78 0 -148.5 -16.5t-170.5 -45.5q-6 -27 -12 -58.5t-15.5 -77.5t-21.5 -110.5t-31 -158.5z" />
<glyph unicode="&#x45b;" horiz-adv-x="1017" d="M45 23l221 1130h-116q-25 0 -19 23l8 49q6 25 31 24h115l32 168q2 16 11 19q10 4 26 4h56q23 0 20 -23l-33 -168h482q23 0 18 -22l-10 -51q-4 -10 -8.5 -16.5t-18.5 -6.5h-481l-57 -293q31 16 79 40t103 45.5t114.5 35.5t116.5 14q102 0 154.5 -29.5t70 -79.5t9.5 -119 t-23 -146l-115 -598q-4 -23 -28 -23h-58q-18 0 -26 4q-6 4 -4 19q31 154 61.5 306t59.5 306q12 63 15 112.5t-10.5 82t-48 49t-98.5 16.5q-41 0 -97 -15.5t-112.5 -36t-105.5 -42t-76 -33.5l-145 -745q-4 -23 -29 -23h-55q-16 0 -25 4q-6 4 -4 19z" />
<glyph unicode="&#x45c;" horiz-adv-x="890" d="M45 23l184 952q2 23 27 22h70q20 0 16 -22l-82 -416h168q31 0 62.5 5t63.5 23.5t63.5 52.5t62.5 89l131 242q12 27 37 26h63q23 0 25 -8t-8 -24l-129 -240q-43 -84 -88 -138.5t-107 -70.5q72 -23 97.5 -70t37.5 -139l39 -274q2 -16 -3 -24.5t-25 -8.5h-56q-12 0 -18 4 t-10 21l-37 262q-6 55 -23.5 89t-43 52t-59.5 24.5t-73 6.5h-188l-84 -436q-6 -23 -27 -23h-70q-23 0 -16 23zM477 1165l193 277q10 16 28 8l68 -35q8 -4 7 -11t-7 -13l-225 -261q-10 -14 -25 -6l-35 15q-16 6 -4 26z" />
<glyph unicode="&#x45e;" horiz-adv-x="927" d="M162 -336l172 320l-168 987q-4 10 0 17t16 7h74q10 0 13 -6t5 -16l127 -748l15 -112l57 118l395 748q6 10 10.5 14t14.5 4h80q12 0 11 -6t-5 -16l-705 -1311q-8 -12 -17 -18t-26 -6h-59q-25 0 -10 24zM323 1331q-1 10 9 19l37 24q16 10 28 -6q41 -61 82 -98t117 -37 q37 0 66.5 9t57.5 26.5t57.5 43t64.5 58.5q10 8 14 9t14 -5l33 -26q8 -6 2 -17.5t-10 -19.5q-66 -92 -149.5 -133t-165.5 -41t-151 44t-101 132q-4 8 -5 18z" />
<glyph unicode="&#x45f;" horiz-adv-x="1017" d="M86 195.5q4 68.5 20 152.5l119 619q6 31 37 30h55q16 0 20.5 -6t0.5 -24l-117 -598q-16 -86 -19 -141.5t12 -88.5t50 -46t94 -13q41 0 98.5 15.5t114 37t105.5 43t74 33.5l147 758q6 31 35 30h53q16 0 20.5 -6t0.5 -24l-183 -936q-4 -18 -9 -24.5t-21 -6.5h-54 q-16 0 -23 6t-3 25l18 92q-23 -14 -66.5 -38t-99 -47.5t-119 -39.5t-122.5 -16q-94 0 -146.5 25.5t-74 72.5t-17.5 115.5zM428 -360l35 264q0 16 20 16q23 2 44.5 3t43.5 1q10 0 11 -10v-4l-62 -270q-6 -33 -31 -33h-43q-18 0 -18 20v13z" />
<glyph unicode="&#x490;" horiz-adv-x="950" d="M74 25l254 1308q6 25 28 25h609l73 239q8 20 14.5 25.5t16.5 5.5h39q10 0 14 -6t0 -25l-61 -321q-4 -10 -9 -18.5t-18 -8.5h-604l-237 -1224q-6 -25 -27 -25h-72q-27 0 -20 25z" />
<glyph unicode="&#x491;" horiz-adv-x="831" d="M57 29l183 942q6 27 36 26h519l69 222q6 16 11.5 19t13.5 3h35q20 0 12 -22l-55 -285q-2 -12 -6.5 -22.5t-20.5 -10.5h-514l-172 -872q-6 -29 -33 -29h-51q-33 0 -27 29z" />
<glyph unicode="&#x4d9;" horiz-adv-x="980" d="M53 213q0 88 35 151.5t94.5 109.5t135 75t156.5 44t162 21.5t150 6.5q6 31 10.5 63.5t4.5 58.5q0 55 -19.5 89t-52.5 51.5t-77 22.5t-91 5q-90 -2 -169 -8t-144 -12h-10q-18 0 -19 18q0 8 1 15.5t1 15.5q0 23 21 31q37 12 86 21t100 14.5t96 7.5t74 2q74 0 133.5 -13.5 t101 -46t64.5 -85t23 -132.5q0 -27 -4.5 -62.5t-10.5 -75.5t-14 -80t-14 -72q-16 -74 -46 -156t-89.5 -150.5t-153.5 -113.5t-238 -45q-59 0 -113.5 15t-95.5 45t-64.5 72t-23.5 97zM168 238q0 -45 17.5 -75t45 -48.5t62.5 -25.5t69 -7q121 0 194 42t114 101q25 39 42 80 t28.5 81t18.5 76t11 64q-49 0 -113.5 -4t-131 -15t-131 -31.5t-115 -52.5t-81 -78t-30.5 -107z" />
<glyph unicode="&#x2000;" horiz-adv-x="849" />
<glyph unicode="&#x2001;" horiz-adv-x="1699" />
<glyph unicode="&#x2002;" horiz-adv-x="849" />
<glyph unicode="&#x2003;" horiz-adv-x="1699" />
<glyph unicode="&#x2004;" horiz-adv-x="566" />
<glyph unicode="&#x2005;" horiz-adv-x="424" />
<glyph unicode="&#x2006;" horiz-adv-x="283" />
<glyph unicode="&#x2007;" horiz-adv-x="283" />
<glyph unicode="&#x2008;" horiz-adv-x="212" />
<glyph unicode="&#x2009;" horiz-adv-x="339" />
<glyph unicode="&#x200a;" horiz-adv-x="94" />
<glyph unicode="&#x2010;" horiz-adv-x="731" d="M115 631l14 69q4 20 27 21h546q20 0 19 -21l-14 -71q-6 -16 -25 -17h-549q-20 0 -18 19z" />
<glyph unicode="&#x2011;" horiz-adv-x="731" d="M115 631l14 69q4 20 27 21h546q20 0 19 -21l-14 -71q-6 -16 -25 -17h-549q-20 0 -18 19z" />
<glyph unicode="&#x2012;" horiz-adv-x="731" d="M115 631l14 69q4 20 27 21h546q20 0 19 -21l-14 -71q-6 -16 -25 -17h-549q-20 0 -18 19z" />
<glyph unicode="&#x2013;" horiz-adv-x="1040" d="M61 496l9 49q6 20 26 20h885q18 0 16 -20l-10 -51q-4 -18 -22 -19h-887q-18 0 -17 21z" />
<glyph unicode="&#x2014;" horiz-adv-x="2064" d="M68 496l8 49q6 20 26 20h1891q18 0 16 -20l-10 -51q-4 -18 -23 -19h-1892q-20 0 -16 21z" />
<glyph unicode="&#x2018;" horiz-adv-x="393" d="M238 1061q0 45 17 91t45 86t63.5 72.5t70.5 55.5q14 10 25 4l18 -22q8 -8 -8 -21q-84 -63 -90 -156q-6 -66 20 -118q12 -12 -10 -31l-88 -53q-20 -14 -35 2q-16 16 -22 41.5t-6 48.5z" />
<glyph unicode="&#x2019;" horiz-adv-x="393" d="M213 989q-6 8 10 21q80 66 90 155q4 31 -2 63t-20 56q-4 6 -2 14.5t14 16.5l88 55q20 12 35 -2q16 -18 22.5 -43.5t6.5 -48.5q0 -45 -17.5 -90t-46.5 -86t-63.5 -75t-71.5 -54q-4 -4 -11 -5t-12 3z" />
<glyph unicode="&#x201a;" horiz-adv-x="372" d="M-37 -240q-6 6 8 21q84 68 90 153q10 70 -22 119q-8 16 14 33l86 53q20 14 37 -2q14 -16 21.5 -41.5t7.5 -48.5q0 -45 -17.5 -91t-46 -86t-63.5 -74t-72 -54q-4 -4 -12 -6t-12 2z" />
<glyph unicode="&#x201c;" horiz-adv-x="565" d="M215 1061q0 45 17.5 91t45 86t63.5 72.5t71 55.5q14 10 24 4l19 -22q8 -8 -9 -21q-84 -63 -90 -156q-6 -66 21 -118q12 -12 -10 -31l-88 -53q-20 -14 -35 2q-16 16 -22.5 41.5t-6.5 48.5zM442 1061q0 45 17.5 91t45 86t62.5 72.5t72 55.5q14 12 23 4l20 -22q8 -8 -8 -21 q-84 -63 -90 -156q-4 -31 2 -62.5t18 -55.5q12 -12 -12 -31l-86 -53q-20 -14 -37 2q-16 16 -21.5 41.5t-5.5 48.5z" />
<glyph unicode="&#x201d;" horiz-adv-x="565" d="M193 989q-8 10 8 21q84 68 90 155q4 31 -2 63t-21 56q-4 6 -2 14.5t17 16.5l86 55q23 12 34 -2q16 -18 22.5 -43.5t6.5 -48.5q0 -45 -17.5 -90t-45 -86t-62.5 -75t-71 -54q-6 -4 -13.5 -5t-11.5 3zM420 989q-6 10 8 21q80 66 90 155q4 31 -2 63t-20 56q-4 6 -2 14.5 t14 16.5l88 55q23 14 35 -2q16 -18 22 -43.5t6 -48.5q0 -45 -17 -90t-46 -86t-63.5 -75t-71.5 -54q-4 -4 -11.5 -5t-11.5 3z" />
<glyph unicode="&#x201e;" horiz-adv-x="600" d="M-37 -238q-6 6 8 19q84 68 90 158q4 29 -1 61.5t-21 54.5q-4 6 -2 14.5t16 16.5l86 55q23 12 35 -2q16 -16 23.5 -41.5t7.5 -48.5q0 -47 -17.5 -92t-46 -85t-63.5 -74t-72 -56q-4 -4 -12 -5t-12 3zM213 -238q-10 6 6 19q84 66 90 158q4 29 -2 61.5t-20 54.5q-4 6 -2 14.5 t16 16.5l86 55q23 12 35 -2q16 -16 23.5 -41.5t7.5 -48.5q0 -47 -17.5 -92t-46.5 -85t-63.5 -74t-71.5 -56q-6 -4 -13.5 -5t-11.5 3z" />
<glyph unicode="&#x2020;" horiz-adv-x="962" d="M145 915l13 58q6 23 26 22h355l77 396q6 25 31 24h64q25 0 18 -24l-78 -396h353q23 0 20 -22l-12 -58q-2 -23 -27 -22h-354l-189 -967q-6 -25 -26 -24h-64q-14 0 -19 4t-1 20l186 967h-352q-23 0 -21 22z" />
<glyph unicode="&#x2021;" horiz-adv-x="962" d="M37 338q0 16 4 32.5t6 32.5q6 23 29 23h352q23 117 45.5 233.5t44.5 233.5h-352q-20 0 -21 16v6l13 58q2 20 26 20h355q16 92 34.5 184.5t36.5 184.5q2 20 8 37v2q8 16 25 16h64q23 0 22 -18q-2 -10 -3 -18.5t-5 -18.5l-70 -369h353q20 0 20 -12q0 -4 -2 -8 q-2 -14 -5 -28.5t-5 -29.5q-6 -23 -29 -22h-352q-23 -117 -45.5 -233.5t-44.5 -233.5h352q20 0 20 -16v-7l-12 -57q-2 -23 -27 -22h-354q-18 -100 -38.5 -199.5t-39.5 -198.5q-6 -25 -26 -24h-64q-23 0 -22 16q0 8 2 10l76 396h-353q-18 0 -18 14z" />
<glyph unicode="&#x2022;" horiz-adv-x="555" d="M111 522q0 35 13 67t36.5 55.5t53.5 37.5t65 14q70 0 118.5 -51t48.5 -123q0 -37 -13 -68.5t-35.5 -55t-53.5 -37t-65 -13.5q-35 0 -65 13.5t-53.5 37t-36.5 55t-13 68.5z" />
<glyph unicode="&#x2026;" horiz-adv-x="1236" d="M18 33q0 47 23 77.5t76 30.5q63 0 63 -51q0 -47 -21.5 -77.5t-74.5 -30.5q-66 0 -66 51zM463 33q0 47 20.5 77.5t73.5 30.5q37 0 51.5 -13t14.5 -48q0 -43 -24 -70.5t-73 -27.5q-63 0 -63 51zM903 33q0 47 20.5 77.5t73.5 30.5q37 0 51.5 -13t14.5 -48q0 -43 -23.5 -70.5 t-72.5 -27.5q-63 0 -64 51z" />
<glyph unicode="&#x202f;" horiz-adv-x="339" />
<glyph unicode="&#x2030;" horiz-adv-x="2236" d="M96 766q0 47 6.5 95t16.5 97t29.5 119t60.5 134.5t110 109.5t175 45q76 0 125 -18.5t78.5 -51t41 -76.5t11.5 -96q0 -33 -5.5 -80t-15.5 -88q-16 -70 -35.5 -145.5t-60.5 -139t-108.5 -104.5t-178.5 -41q-74 0 -122 18.5t-76.5 50.5t-40 76t-11.5 95zM195 776 q0 -74 32.5 -119t122.5 -45q70 0 116 27t77.5 73t51 105.5t34.5 126.5q10 49 16 93t6 81q0 78 -35 121t-133 43q-68 0 -112.5 -28.5t-75.5 -76t-49.5 -107.5t-30.5 -126q-10 -47 -15 -89t-5 -79zM340 -25l842 1440q12 18 26 19l58 -2q20 0 8 -19l-840 -1442q-12 -18 -26 -18 h-58q-23 0 -10 22zM862 231q0 45 7.5 94.5t17.5 98.5q8 49 27.5 118.5t60.5 134t110 109.5t175 45q76 0 126 -19t78.5 -52t40 -77t11.5 -93q0 -41 -5.5 -84t-13.5 -86q-12 -61 -32.5 -136t-61.5 -140.5t-110.5 -109.5t-180.5 -44q-74 0 -122 18.5t-76.5 51t-40 76.5 t-11.5 95zM961 242q0 -74 32.5 -119t124.5 -45q70 0 116 26.5t76.5 71.5t50 105.5t34.5 128.5q23 102 22 174q0 76 -35 120t-131 44q-68 0 -113.5 -29t-76.5 -76t-49.5 -108.5t-30.5 -124.5q-8 -47 -14 -89t-6 -79zM1559 231q0 45 6 94.5t16 98.5t29.5 118.5t60.5 134 t110 109.5t175 45q76 0 125 -19t78.5 -52t41 -77t11.5 -93q0 -41 -5 -84t-16 -86q-12 -61 -31.5 -136t-61.5 -140.5t-110.5 -109.5t-179.5 -44q-74 0 -122 18.5t-76.5 51t-39.5 76.5t-11 95zM1657 242q0 -74 32.5 -119t122.5 -45q70 0 116 26.5t78 71.5t51.5 105.5 t33.5 128.5q10 49 16.5 92t6.5 82q0 76 -36 120t-132 44q-68 0 -113 -29t-76 -76t-49 -108.5t-31 -124.5q-10 -47 -15 -89t-5 -79z" />
<glyph unicode="&#x2039;" horiz-adv-x="485" d="M14 346q-14 27 9 45l256 256q10 10 20 16.5t27 6.5h88q8 0 9 -6.5t-5 -12.5l-293 -286l166 -277q4 -6 1 -14t-13 -8h-74q-18 0 -24.5 7t-12.5 17z" />
<glyph unicode="&#x203a;" horiz-adv-x="485" d="M9 69.5q-1 6.5 5 12.5l289 289l-168 274q-4 8 0 15.5t15 7.5h73q18 0 24.5 -6.5t12.5 -16.5l156 -258q14 -27 -8 -45l-256 -256q-10 -10 -19.5 -16.5t-28.5 -6.5h-86q-8 0 -9 6.5z" />
<glyph unicode="&#x2044;" horiz-adv-x="233" d="M-332 -25l842 1440q12 18 27 19l57 -2q20 0 8 -19l-840 -1442q-12 -18 -26 -18h-58q-23 0 -10 22z" />
<glyph unicode="&#x205f;" horiz-adv-x="424" />
<glyph unicode="&#x20ac;" d="M-20 545l10 57q4 14 20 14h826q16 0 14 -18l-10 -55q-2 -12 -19 -13h-594q-10 -90 -3 -168.5t40 -138t97.5 -93.5t168.5 -34q82 0 175.5 7.5t160.5 15.5q16 2 21.5 -3t7.5 -16l-2 -39q0 -23 -23 -30q-37 -14 -89 -23.5t-105 -14.5t-99.5 -7t-72.5 -2q-137 0 -221 46 t-128 121.5t-53.5 174t2.5 204.5l-114 -2q-12 0 -10 17zM18 743l11 60q4 14 20 14h111q25 123 72 224.5t121.5 175t178 114.5t240.5 41q31 0 77 -2t94 -7t95 -14.5t82 -23.5q23 -10 13 -33l-15 -39q-4 -10 -10 -15t-21 -1q-66 6 -153.5 14.5t-173.5 8.5q-111 0 -191 -36 t-135 -96.5t-91 -141.5t-60 -169h594q14 0 12 -16l-10 -58q-4 -14 -21 -14h-829q-12 0 -11 14z" />
<glyph unicode="&#x2122;" horiz-adv-x="1312" d="M66 1292v47q0 16 20 17h436q20 0 21 -19v-45q0 -20 -21 -20h-172v-524q0 -12 -5 -15.5t-15 -3.5h-47q-10 0 -16.5 3t-6.5 16v524h-174q-20 0 -20 20zM596 748v593q0 16 20 17h52q14 0 18 -5t8 -14l217 -421h2l217 421q4 8 9.5 13.5t17.5 5.5h49q18 0 19 -19v-591 q0 -20 -17 -21h-51q-20 0 -20 21v432l-4 2l-97 -191l-86 -162q-4 -10 -9 -14t-15 -4h-33q-10 0 -15.5 4t-11.5 14q-18 41 -38.5 80t-43.5 80q-23 47 -48 95.5t-48 95.5h-4q0 -109 1 -216.5t1 -215.5q0 -20 -18 -21h-50q-23 0 -22 21z" />
<glyph unicode="&#x2202;" horiz-adv-x="1085" d="M90 303q0 121 41 228.5t109.5 187.5t159 127t186.5 47q70 0 161 -34t181 -130q25 113 24 213q0 223 -117.5 323.5t-330.5 110.5q-31 2 -25 25l8 37q4 20 27 20q264 2 399.5 -119.5t147.5 -337.5q4 -72 -1 -144.5t-20 -143.5q-35 -178 -96 -315.5t-142 -229.5t-177.5 -140 t-200.5 -48q-145 0 -238.5 81.5t-95.5 241.5zM201 319q0 -127 59 -183t168 -56q90 0 167 48t138.5 125t105.5 172t66 187q-84 104 -170.5 143.5t-152.5 39.5q-84 0 -155 -45t-121 -116t-77.5 -155t-27.5 -160z" />
<glyph unicode="&#x220f;" horiz-adv-x="1193" d="M41 -129l283 1462q8 25 28 25h854q25 0 19 -25l-285 -1462q-6 -25 -27 -25h-69q-27 0 -21 25l269 1378h-668l-268 -1378q-2 -25 -25 -25h-72q-25 0 -18 25z" />
<glyph unicode="&#x2211;" horiz-adv-x="899" d="M-61 -129l12 53q4 14 9 28.5t15 29.5l461 622l-223 627q-8 18 -4 45l12 61q4 20 25 21h768q23 0 18 -23l-12 -63q-6 -23 -29 -23h-657l219 -606q12 -23 7 -41t-21 -39l-445 -608h670q20 0 18 -23l-12 -59q-6 -25 -27 -25h-786q-20 0 -18 23z" />
<glyph unicode="&#x221a;" horiz-adv-x="1150" d="M127 719q-4 20 18 26l222 76q2 0 4 1t4 1q12 0 12 -12l141 -819h7l702 1630q6 12 18 12h84q16 0 11 -12l-785 -1786q-6 -10 -16 -10h-88q-14 0 -15 12l-157 860q-29 -10 -61.5 -21.5t-65.5 -21.5q-20 -6 -27 11q-2 14 -3 26.5t-5 26.5z" />
<glyph unicode="&#x221e;" horiz-adv-x="1490" d="M94 557q0 63 23.5 117.5t64.5 94.5t95.5 63.5t117.5 23.5q51 0 99.5 -18.5t91.5 -49t82 -70.5t71 -83q10 -16 23 0q35 45 76 85t86 70.5t93 48t97 17.5q61 0 114.5 -21.5t91.5 -61.5t59.5 -95t21.5 -121t-23.5 -120t-64.5 -95t-95.5 -63.5t-117.5 -22.5q-49 0 -93 17.5 t-84 48t-79 70.5t-80 83q-14 12 -27 0q-84 -96 -167 -157.5t-185 -61.5q-59 0 -112.5 21.5t-93.5 60.5t-62.5 95t-22.5 124zM188 557q0 -43 16.5 -81t44 -67.5t65.5 -46t79 -16.5q39 0 79 16.5t77 44t69.5 63.5t59.5 73q4 8 4 12t-4 10q-25 35 -56.5 70t-68.5 63.5t-77 47 t-81 18.5t-77.5 -17.5t-65.5 -46t-46.5 -65.5t-17.5 -78zM817 565q-8 -12 2 -22q29 -35 61.5 -70t68.5 -62.5t74 -45t79 -17.5t79 16.5t65.5 45t44 66.5t16.5 81q0 41 -15.5 79t-43 66.5t-63.5 45t-75 16.5q-41 0 -80 -17.5t-77 -45t-72.5 -63.5t-63.5 -73z" />
<glyph unicode="&#x222b;" horiz-adv-x="843" d="M-167 -280.5q-3 4.5 1 16.5l14 35q4 12 10.5 15t24.5 -1q35 -6 71 -9t56 -3q51 0 96.5 29.5t84 94t72.5 166t65 246.5q35 166 75.5 353.5t88.5 402.5q25 109 55.5 205t75.5 166.5t107.5 111.5t152.5 41q35 0 85 -7t85 -21q16 -8 6 -29l-10 -27q-10 -23 -35 -16 q-33 4 -68 8t-55 4q-47 0 -87 -19.5t-74 -63.5t-63.5 -115.5t-58.5 -176.5q-14 -51 -32.5 -137t-39 -182t-40 -191.5t-33.5 -166.5q-35 -170 -71 -310.5t-86 -243t-120.5 -158.5t-177.5 -56q-35 0 -83 8t-83 22q-6 4 -9 8.5z" />
<glyph unicode="&#x2248;" d="M141.5 450.5q3.5 10.5 12.5 20.5q57 86 125.5 119t126.5 33q47 0 93 -20.5t90 -45.5t85 -45t78 -20q47 0 79.5 25.5t67.5 64.5q10 10 19.5 18t21.5 -2l27 -20q12 -10 9 -18.5t-5 -12.5q-103 -158 -246 -158q-45 0 -89 20.5t-88 46t-85 46t-80 20.5q-43 0 -82 -22.5 t-86 -71.5l-16 -16t-21 2l-26 18q-14 8 -10.5 18.5zM184.5 749.5q3.5 10.5 12.5 20.5q57 86 125.5 119t126.5 33q47 0 93 -20.5t90 -45.5t85 -45t78 -20q47 0 80.5 25.5t66.5 64.5q10 10 19.5 17t21.5 -3l27 -18q12 -10 9 -18.5t-5 -12.5q-103 -158 -246 -158 q-45 0 -89 20.5t-88 46t-85 46t-80 20.5q-43 0 -82 -22.5t-86 -71.5l-16 -16t-21 2l-26 18q-14 8 -10.5 18.5z" />
<glyph unicode="&#x2260;" d="M102 473l11 59q6 20 26 21h285l215 240h-455q-20 0 -16 16l10 59q6 20 25 21h522l209 231q10 12 15 17.5t18 5.5h55q23 0 4 -23l-207 -231h117q20 0 18 -21l-12 -59q-2 -16 -24 -16h-185l-215 -240h354q18 0 17 -21l-12 -59q-2 -16 -25 -16h-420l-205 -230 q-20 -23 -37 -22h-51q-10 0 -14 6t6 16l205 230h-217q-18 0 -17 16z" />
<glyph unicode="&#x2264;" d="M88 33l10 57q4 20 25 21h733q20 0 18 -21l-12 -57q-2 -16 -24 -17h-734q-23 0 -16 17zM190 641l11 51q4 12 8 17.5t18 13.5l799 375q16 10 21.5 4t3.5 -17l-17 -69q-4 -16 -10 -22.5t-16 -10.5l-678 -317l-2 -4l559 -302q12 -8 16 -14t0 -22l-12 -64q-6 -25 -25 -12 l-659 362q-8 4 -14.5 10.5t-2.5 20.5z" />
<glyph unicode="&#x2265;" d="M98 27v4l13 59q2 12 8 15.5t16 3.5h733q16 0 17 -13v-6q-4 -16 -6 -29.5t-5 -27.5q-6 -18 -24 -19h-733q-18 0 -19 13zM143 258l17 70q4 16 10 22t16 10l678 291l2 4l-559 328q-12 8 -16 14.5t0 22.5l12 63q6 25 25 13l659 -389q8 -4 14.5 -10.5t2.5 -20.5l-11 -51 q-4 -12 -8 -17.5t-18 -13.5l-799 -348q-16 -10 -21.5 -4t-3.5 16z" />
<glyph unicode="&#x25ca;" horiz-adv-x="1114" d="M96 659q-10 18 0 37l406 695q6 10 12 15t21 5h71q23 0 35 -22l377 -693q6 -10 4 -18t-6 -19l-375 -688q-12 -23 -35 -22h-69q-10 0 -18.5 4t-16.5 18zM207 674l364 -639l334 639q2 6 0 14l-338 627l-360 -627q-4 -6 0 -14z" />
<glyph unicode="&#xe000;" horiz-adv-x="993" d="M0 0v993h993v-993h-993z" />
</font>
</defs>
</svg>
